%TF.GenerationSoftware,KiCad,Pcbnew,8.0.6*%
%TF.CreationDate,2024-11-12T19:13:31+01:00*%
%TF.ProjectId,EMG_amplifier,454d475f-616d-4706-9c69-666965722e6b,rev?*%
%TF.SameCoordinates,Original*%
%TF.FileFunction,Copper,L1,Top*%
%TF.FilePolarity,Positive*%
%FSLAX46Y46*%
G04 Gerber Fmt 4.6, Leading zero omitted, Abs format (unit mm)*
G04 Created by KiCad (PCBNEW 8.0.6) date 2024-11-12 19:13:31*
%MOMM*%
%LPD*%
G01*
G04 APERTURE LIST*
G04 Aperture macros list*
%AMRoundRect*
0 Rectangle with rounded corners*
0 $1 Rounding radius*
0 $2 $3 $4 $5 $6 $7 $8 $9 X,Y pos of 4 corners*
0 Add a 4 corners polygon primitive as box body*
4,1,4,$2,$3,$4,$5,$6,$7,$8,$9,$2,$3,0*
0 Add four circle primitives for the rounded corners*
1,1,$1+$1,$2,$3*
1,1,$1+$1,$4,$5*
1,1,$1+$1,$6,$7*
1,1,$1+$1,$8,$9*
0 Add four rect primitives between the rounded corners*
20,1,$1+$1,$2,$3,$4,$5,0*
20,1,$1+$1,$4,$5,$6,$7,0*
20,1,$1+$1,$6,$7,$8,$9,0*
20,1,$1+$1,$8,$9,$2,$3,0*%
G04 Aperture macros list end*
%TA.AperFunction,ComponentPad*%
%ADD10C,4.750000*%
%TD*%
%TA.AperFunction,ComponentPad*%
%ADD11O,1.700000X1.700000*%
%TD*%
%TA.AperFunction,ComponentPad*%
%ADD12R,1.700000X1.700000*%
%TD*%
%TA.AperFunction,SMDPad,CuDef*%
%ADD13RoundRect,0.135000X0.185000X-0.135000X0.185000X0.135000X-0.185000X0.135000X-0.185000X-0.135000X0*%
%TD*%
%TA.AperFunction,SMDPad,CuDef*%
%ADD14RoundRect,0.135000X0.135000X0.185000X-0.135000X0.185000X-0.135000X-0.185000X0.135000X-0.185000X0*%
%TD*%
%TA.AperFunction,SMDPad,CuDef*%
%ADD15RoundRect,0.225000X-0.225000X-0.250000X0.225000X-0.250000X0.225000X0.250000X-0.225000X0.250000X0*%
%TD*%
%TA.AperFunction,SMDPad,CuDef*%
%ADD16RoundRect,0.147500X0.457500X0.147500X-0.457500X0.147500X-0.457500X-0.147500X0.457500X-0.147500X0*%
%TD*%
%TA.AperFunction,SMDPad,CuDef*%
%ADD17RoundRect,0.135000X-0.185000X0.135000X-0.185000X-0.135000X0.185000X-0.135000X0.185000X0.135000X0*%
%TD*%
%TA.AperFunction,SMDPad,CuDef*%
%ADD18R,0.204000X0.353200*%
%TD*%
%TA.AperFunction,SMDPad,CuDef*%
%ADD19RoundRect,0.250000X0.250000X0.475000X-0.250000X0.475000X-0.250000X-0.475000X0.250000X-0.475000X0*%
%TD*%
%TA.AperFunction,SMDPad,CuDef*%
%ADD20RoundRect,0.250000X-0.475000X0.250000X-0.475000X-0.250000X0.475000X-0.250000X0.475000X0.250000X0*%
%TD*%
%TA.AperFunction,SMDPad,CuDef*%
%ADD21R,0.711200X0.558800*%
%TD*%
%TA.AperFunction,SMDPad,CuDef*%
%ADD22RoundRect,0.150000X0.150000X0.200000X-0.150000X0.200000X-0.150000X-0.200000X0.150000X-0.200000X0*%
%TD*%
%TA.AperFunction,SMDPad,CuDef*%
%ADD23RoundRect,0.225000X0.225000X0.250000X-0.225000X0.250000X-0.225000X-0.250000X0.225000X-0.250000X0*%
%TD*%
%TA.AperFunction,SMDPad,CuDef*%
%ADD24RoundRect,0.125000X0.687500X0.125000X-0.687500X0.125000X-0.687500X-0.125000X0.687500X-0.125000X0*%
%TD*%
%TA.AperFunction,SMDPad,CuDef*%
%ADD25RoundRect,0.147500X-0.457500X-0.147500X0.457500X-0.147500X0.457500X0.147500X-0.457500X0.147500X0*%
%TD*%
%TA.AperFunction,SMDPad,CuDef*%
%ADD26RoundRect,0.135000X-0.135000X-0.185000X0.135000X-0.185000X0.135000X0.185000X-0.135000X0.185000X0*%
%TD*%
%TA.AperFunction,SMDPad,CuDef*%
%ADD27RoundRect,0.250000X0.475000X-0.250000X0.475000X0.250000X-0.475000X0.250000X-0.475000X-0.250000X0*%
%TD*%
%TA.AperFunction,SMDPad,CuDef*%
%ADD28RoundRect,0.075000X-0.910000X-0.225000X0.910000X-0.225000X0.910000X0.225000X-0.910000X0.225000X0*%
%TD*%
%TA.AperFunction,SMDPad,CuDef*%
%ADD29RoundRect,0.140000X-0.170000X0.140000X-0.170000X-0.140000X0.170000X-0.140000X0.170000X0.140000X0*%
%TD*%
%TA.AperFunction,SMDPad,CuDef*%
%ADD30RoundRect,0.250000X-0.250000X-0.475000X0.250000X-0.475000X0.250000X0.475000X-0.250000X0.475000X0*%
%TD*%
%TA.AperFunction,ViaPad*%
%ADD31C,0.600000*%
%TD*%
%TA.AperFunction,Conductor*%
%ADD32C,0.200000*%
%TD*%
G04 APERTURE END LIST*
D10*
%TO.P,E2,1,Pin_1*%
%TO.N,/Electrode_Board/V_ER*%
X40000400Y-16067200D03*
%TD*%
%TO.P,E1,1,Pin_1*%
%TO.N,/Electrode_Board/V_E1*%
X53469200Y-16067200D03*
%TD*%
D11*
%TO.P,J4,6,Pin_6*%
%TO.N,unconnected-(J4-Pin_6-Pad6)*%
X54448000Y-24754600D03*
%TO.P,J4,5,Pin_5*%
%TO.N,GND*%
X54448000Y-27294600D03*
%TO.P,J4,4,Pin_4*%
%TO.N,/Filtering_Board/V_F2*%
X56988000Y-24754600D03*
%TO.P,J4,3,Pin_3*%
%TO.N,/Filtering_Board/V_CM*%
X56988000Y-27294600D03*
%TO.P,J4,2,Pin_2*%
%TO.N,/Filtering_Board/V_F1*%
X59528000Y-24754600D03*
D12*
%TO.P,J4,1,Pin_1*%
%TO.N,/Filtering_Board/+V_DD*%
X59528000Y-27294600D03*
%TD*%
D13*
%TO.P,R11,2*%
%TO.N,Net-(U1-IN-)*%
X27986200Y-35266400D03*
%TO.P,R11,1*%
%TO.N,Net-(C4-Pad1)*%
X27986200Y-36286400D03*
%TD*%
D11*
%TO.P,J7,6,Pin_6*%
%TO.N,+1V8*%
X14407400Y-37304800D03*
%TO.P,J7,5,Pin_5*%
X14407400Y-34764800D03*
%TO.P,J7,4,Pin_4*%
%TO.N,GND*%
X16947400Y-37304800D03*
%TO.P,J7,3,Pin_3*%
X16947400Y-34764800D03*
%TO.P,J7,2,Pin_2*%
%TO.N,/Processing_Board/V_EMG_OUT*%
X19487400Y-37304800D03*
D12*
%TO.P,J7,1,Pin_1*%
%TO.N,unconnected-(J7-Pin_1-Pad1)*%
X19487400Y-34764800D03*
%TD*%
D14*
%TO.P,R13,2*%
%TO.N,Net-(R13-Pad2)*%
X47880000Y-37200000D03*
%TO.P,R13,1*%
%TO.N,/Processing_Board/V_CM*%
X48900000Y-37200000D03*
%TD*%
D15*
%TO.P,C2,2*%
%TO.N,/Filtering_Board/V_F2*%
X34265000Y-25600000D03*
%TO.P,C2,1*%
%TO.N,Net-(U8--INB)*%
X32715000Y-25600000D03*
%TD*%
D16*
%TO.P,U3,5,V+*%
%TO.N,+1V8*%
X36982800Y-36453200D03*
%TO.P,U3,4,IN-*%
%TO.N,Net-(U3-IN-)*%
X36982800Y-34553200D03*
%TO.P,U3,3,IN+*%
%TO.N,Net-(U3-IN+)*%
X39492800Y-34553200D03*
%TO.P,U3,2,V-*%
%TO.N,GND*%
X39492800Y-35503200D03*
%TO.P,U3,1,OUT*%
%TO.N,Net-(U2-Ref)*%
X39492800Y-36453200D03*
%TD*%
D17*
%TO.P,R20,2*%
%TO.N,/Processing_Board/LPF_400Hz/V_EMG_INA*%
X34925400Y-37603200D03*
%TO.P,R20,1*%
%TO.N,Net-(R14-Pad2)*%
X34925400Y-36583200D03*
%TD*%
D18*
%TO.P,U7,5,IO2*%
%TO.N,/Filtering_Board/V_I2*%
X19605002Y-25192000D03*
%TO.P,U7,4,GND*%
%TO.N,GND*%
X20605000Y-25192000D03*
%TO.P,U7,3,IO1*%
%TO.N,/Filtering_Board/V_I1*%
X20605000Y-26840602D03*
%TO.P,U7,2,NC*%
%TO.N,unconnected-(U7-NC-Pad2)*%
X20105001Y-26840602D03*
%TO.P,U7,1,VCC*%
%TO.N,/Filtering_Board/+V_DD*%
X19605002Y-26840602D03*
%TD*%
D19*
%TO.P,C9,1*%
%TO.N,/Filtering_Board/+V_DD*%
X42100000Y-23750000D03*
%TO.P,C9,2*%
%TO.N,GND*%
X40200000Y-23750000D03*
%TD*%
D17*
%TO.P,R22,2*%
%TO.N,GND*%
X30729400Y-35270400D03*
%TO.P,R22,1*%
%TO.N,Net-(U3-IN+)*%
X30729400Y-34250400D03*
%TD*%
D14*
%TO.P,R4,1*%
%TO.N,Net-(L2-Pad1)*%
X20839200Y-13193800D03*
%TO.P,R4,2*%
%TO.N,/Electrode_Board/V_I2*%
X19819200Y-13193800D03*
%TD*%
D13*
%TO.P,R9,2*%
%TO.N,/Filtering_Board/V_F2*%
X35670000Y-25500000D03*
%TO.P,R9,1*%
%TO.N,Net-(R6-Pad2)*%
X35670000Y-26520000D03*
%TD*%
D14*
%TO.P,R3,1*%
%TO.N,Net-(L1-Pad2)*%
X48989200Y-13150800D03*
%TO.P,R3,2*%
%TO.N,/Electrode_Board/V_I1*%
X47969200Y-13150800D03*
%TD*%
D17*
%TO.P,R16,2*%
%TO.N,/Filtering_Board/V_PR*%
X38200000Y-25800000D03*
%TO.P,R16,1*%
%TO.N,Net-(U6-IN-)*%
X38200000Y-24780000D03*
%TD*%
D20*
%TO.P,C8,2*%
%TO.N,GND*%
X51430400Y-25609400D03*
%TO.P,C8,1*%
%TO.N,/Filtering_Board/+V_DD*%
X51430400Y-23709400D03*
%TD*%
D21*
%TO.P,L1,1,1*%
%TO.N,Net-(D1-K)*%
X51519200Y-13150800D03*
%TO.P,L1,2,2*%
%TO.N,Net-(L1-Pad2)*%
X50477800Y-13150800D03*
%TD*%
D22*
%TO.P,D1,1,K*%
%TO.N,Net-(D1-K)*%
X57219200Y-13250800D03*
%TO.P,D1,2,A*%
%TO.N,GND*%
X58619200Y-13250800D03*
%TD*%
D23*
%TO.P,C5,2*%
%TO.N,Net-(U3-IN-)*%
X41120000Y-33320000D03*
%TO.P,C5,1*%
%TO.N,Net-(U2-Ref)*%
X42670000Y-33320000D03*
%TD*%
D13*
%TO.P,R19,2*%
%TO.N,Net-(U2-Ref)*%
X39619400Y-37728200D03*
%TO.P,R19,1*%
%TO.N,Net-(C6-Pad1)*%
X39619400Y-38748200D03*
%TD*%
D22*
%TO.P,D3,1,K*%
%TO.N,/Electrode_Board/V_PR*%
X43519200Y-13250800D03*
%TO.P,D3,2,A*%
%TO.N,GND*%
X44919200Y-13250800D03*
%TD*%
D24*
%TO.P,U2,1,Rg*%
%TO.N,Net-(R12-Pad2)*%
X51560000Y-35300000D03*
%TO.P,U2,2,-*%
%TO.N,/Processing_Board/V_F2*%
X51560000Y-34650000D03*
%TO.P,U2,3,+*%
%TO.N,/Processing_Board/V_F1*%
X51560000Y-34000000D03*
%TO.P,U2,4,V-*%
%TO.N,GND*%
X51560000Y-33350000D03*
%TO.P,U2,5,Ref*%
%TO.N,Net-(U2-Ref)*%
X47335000Y-33350000D03*
%TO.P,U2,6*%
%TO.N,/Processing_Board/LPF_400Hz/V_EMG_INA*%
X47335000Y-34000000D03*
%TO.P,U2,7,V+*%
%TO.N,+1V8*%
X47335000Y-34650000D03*
%TO.P,U2,8,Rg*%
%TO.N,Net-(R13-Pad2)*%
X47335000Y-35300000D03*
%TD*%
D25*
%TO.P,U5,5,V+*%
%TO.N,/Filtering_Board/+V_DD*%
X49383200Y-23723800D03*
%TO.P,U5,4,IN-*%
%TO.N,Net-(U5-IN-)*%
X49383200Y-25623800D03*
%TO.P,U5,3,IN+*%
%TO.N,/Filtering_Board/V_CM*%
X46873200Y-25623800D03*
%TO.P,U5,2,V-*%
%TO.N,GND*%
X46873200Y-24673800D03*
%TO.P,U5,1,OUT*%
%TO.N,Net-(U5-IN-)*%
X46873200Y-23723800D03*
%TD*%
%TO.P,U6,1,OUT*%
%TO.N,/Filtering_Board/V_PR*%
X39619400Y-25822600D03*
%TO.P,U6,2,V-*%
%TO.N,GND*%
X39619400Y-26772600D03*
%TO.P,U6,3,IN+*%
%TO.N,Net-(U6-IN+)*%
X39619400Y-27722600D03*
%TO.P,U6,4,IN-*%
%TO.N,Net-(U6-IN-)*%
X42129400Y-27722600D03*
%TO.P,U6,5,V+*%
%TO.N,/Filtering_Board/+V_DD*%
X42129400Y-25822600D03*
%TD*%
D17*
%TO.P,R15,2*%
%TO.N,Net-(U6-IN-)*%
X45450000Y-25020000D03*
%TO.P,R15,1*%
%TO.N,Net-(U5-IN-)*%
X45450000Y-24000000D03*
%TD*%
D19*
%TO.P,C4,2*%
%TO.N,/Processing_Board/V_EMG_OUT*%
X23896800Y-38162000D03*
%TO.P,C4,1*%
%TO.N,Net-(C4-Pad1)*%
X25796800Y-38162000D03*
%TD*%
D13*
%TO.P,R8,2*%
%TO.N,Net-(R6-Pad2)*%
X35680000Y-28000000D03*
%TO.P,R8,1*%
%TO.N,/Filtering_Board/V_F1*%
X35680000Y-29020000D03*
%TD*%
D26*
%TO.P,R23,2*%
%TO.N,Net-(U6-IN+)*%
X45357800Y-27925800D03*
%TO.P,R23,1*%
%TO.N,/Filtering_Board/+V_DD*%
X44337800Y-27925800D03*
%TD*%
D20*
%TO.P,C10,1*%
%TO.N,+1V8*%
X45240000Y-35050000D03*
%TO.P,C10,2*%
%TO.N,GND*%
X45240000Y-36950000D03*
%TD*%
D27*
%TO.P,C11,2*%
%TO.N,GND*%
X32558200Y-34357000D03*
%TO.P,C11,1*%
%TO.N,+1V8*%
X32558200Y-36257000D03*
%TD*%
D13*
%TO.P,R6,1*%
%TO.N,Net-(U8--INA)*%
X31240000Y-28930000D03*
%TO.P,R6,2*%
%TO.N,Net-(R6-Pad2)*%
X31240000Y-27910000D03*
%TD*%
D26*
%TO.P,R24,2*%
%TO.N,GND*%
X47772800Y-27925800D03*
%TO.P,R24,1*%
%TO.N,Net-(U6-IN+)*%
X46752800Y-27925800D03*
%TD*%
D13*
%TO.P,R2,1*%
%TO.N,/Electrode_Board/V_E2*%
X29269200Y-15950800D03*
%TO.P,R2,2*%
%TO.N,Net-(D2-K)*%
X29269200Y-14930800D03*
%TD*%
D19*
%TO.P,C7,2*%
%TO.N,/Filtering_Board/+V_DD*%
X30700000Y-23810000D03*
%TO.P,C7,1*%
%TO.N,GND*%
X32600000Y-23810000D03*
%TD*%
D28*
%TO.P,U8,8,V+*%
%TO.N,/Filtering_Board/+V_DD*%
X28479000Y-24049000D03*
%TO.P,U8,7,OUTB*%
%TO.N,Net-(U8--INB)*%
X28479000Y-25319000D03*
%TO.P,U8,6,-INB*%
X28479000Y-26589000D03*
%TO.P,U8,5,+INB*%
%TO.N,/Filtering_Board/V_I2*%
X28479000Y-27859000D03*
%TO.P,U8,4,V-*%
%TO.N,GND*%
X23539000Y-27859000D03*
%TO.P,U8,3,+INA*%
%TO.N,/Filtering_Board/V_I1*%
X23539000Y-26589000D03*
%TO.P,U8,2,-INA*%
%TO.N,Net-(U8--INA)*%
X23539000Y-25319000D03*
%TO.P,U8,1,OUTA*%
X23539000Y-24049000D03*
%TD*%
D13*
%TO.P,R5,1*%
%TO.N,/Electrode_Board/V_ER*%
X43556400Y-16318000D03*
%TO.P,R5,2*%
%TO.N,/Electrode_Board/V_PR*%
X43556400Y-15298000D03*
%TD*%
D22*
%TO.P,D2,1,K*%
%TO.N,Net-(D2-K)*%
X29253200Y-13270000D03*
%TO.P,D2,2,A*%
%TO.N,GND*%
X30653200Y-13270000D03*
%TD*%
D21*
%TO.P,L2,1,1*%
%TO.N,Net-(L2-Pad1)*%
X22569200Y-13193800D03*
%TO.P,L2,2,2*%
%TO.N,Net-(D2-K)*%
X23610600Y-13193800D03*
%TD*%
D25*
%TO.P,U1,5,V+*%
%TO.N,+1V8*%
X26330600Y-34230000D03*
%TO.P,U1,4,IN-*%
%TO.N,Net-(U1-IN-)*%
X26330600Y-36130000D03*
%TO.P,U1,3,IN+*%
%TO.N,/Processing_Board/V_EMG_OUT*%
X23820600Y-36130000D03*
%TO.P,U1,2,V-*%
%TO.N,GND*%
X23820600Y-35180000D03*
%TO.P,U1,1,OUT*%
%TO.N,/Processing_Board/V_EMG_OUT*%
X23820600Y-34230000D03*
%TD*%
D29*
%TO.P,C3,2*%
%TO.N,GND*%
X29434000Y-36257000D03*
%TO.P,C3,1*%
%TO.N,Net-(U1-IN-)*%
X29434000Y-35297000D03*
%TD*%
D30*
%TO.P,C6,2*%
%TO.N,GND*%
X43145000Y-37933400D03*
%TO.P,C6,1*%
%TO.N,Net-(C6-Pad1)*%
X41245000Y-37933400D03*
%TD*%
D26*
%TO.P,R12,2*%
%TO.N,Net-(R12-Pad2)*%
X51370000Y-37220000D03*
%TO.P,R12,1*%
%TO.N,/Processing_Board/V_CM*%
X50350000Y-37220000D03*
%TD*%
%TO.P,R21,2*%
%TO.N,Net-(U3-IN+)*%
X29311000Y-33132800D03*
%TO.P,R21,1*%
%TO.N,+1V8*%
X28291000Y-33132800D03*
%TD*%
D12*
%TO.P,J1,1,Pin_1*%
%TO.N,GND*%
X14498800Y-17255000D03*
D11*
%TO.P,J1,2,Pin_2*%
%TO.N,/Electrode_Board/V_I1*%
X17038800Y-17255000D03*
%TO.P,J1,3,Pin_3*%
%TO.N,/Electrode_Board/V_PR*%
X14498800Y-14715000D03*
%TO.P,J1,4,Pin_4*%
%TO.N,/Electrode_Board/V_I2*%
X17038800Y-14715000D03*
%TD*%
D14*
%TO.P,R10,2*%
%TO.N,Net-(C4-Pad1)*%
X27398000Y-38162000D03*
%TO.P,R10,1*%
%TO.N,/Processing_Board/LPF_400Hz/V_EMG_INA*%
X28418000Y-38162000D03*
%TD*%
D13*
%TO.P,R7,2*%
%TO.N,Net-(U8--INB)*%
X31260000Y-25370000D03*
%TO.P,R7,1*%
%TO.N,Net-(R6-Pad2)*%
X31260000Y-26390000D03*
%TD*%
D17*
%TO.P,R14,2*%
%TO.N,Net-(R14-Pad2)*%
X34925400Y-35547800D03*
%TO.P,R14,1*%
%TO.N,Net-(U3-IN-)*%
X34925400Y-34527800D03*
%TD*%
D13*
%TO.P,R1,1*%
%TO.N,/Electrode_Board/V_E1*%
X57269200Y-16070800D03*
%TO.P,R1,2*%
%TO.N,Net-(D1-K)*%
X57269200Y-15050800D03*
%TD*%
D15*
%TO.P,C1,2*%
%TO.N,/Filtering_Board/V_F1*%
X34100000Y-28700000D03*
%TO.P,C1,1*%
%TO.N,Net-(U8--INA)*%
X32550000Y-28700000D03*
%TD*%
D11*
%TO.P,J3,6,Pin_6*%
%TO.N,unconnected-(J3-Pin_6-Pad6)*%
X54448000Y-34769400D03*
%TO.P,J3,5,Pin_5*%
%TO.N,GND*%
X54448000Y-37309400D03*
%TO.P,J3,4,Pin_4*%
%TO.N,/Processing_Board/V_F2*%
X56988000Y-34769400D03*
%TO.P,J3,3,Pin_3*%
%TO.N,/Processing_Board/V_CM*%
X56988000Y-37309400D03*
%TO.P,J3,2,Pin_2*%
%TO.N,/Processing_Board/V_F1*%
X59528000Y-34769400D03*
D12*
%TO.P,J3,1,Pin_1*%
%TO.N,+1V8*%
X59528000Y-37309400D03*
%TD*%
D11*
%TO.P,J2,4,Pin_4*%
%TO.N,/Filtering_Board/V_I2*%
X17038800Y-24754600D03*
%TO.P,J2,3,Pin_3*%
%TO.N,/Filtering_Board/V_PR*%
X14498800Y-24754600D03*
%TO.P,J2,2,Pin_2*%
%TO.N,/Filtering_Board/V_I1*%
X17038800Y-27294600D03*
D12*
%TO.P,J2,1,Pin_1*%
%TO.N,GND*%
X14498800Y-27294600D03*
%TD*%
D10*
%TO.P,E3,1,Pin_1*%
%TO.N,/Electrode_Board/V_E2*%
X25469200Y-16067200D03*
%TD*%
D31*
%TO.N,GND*%
X39100000Y-23750000D03*
X38150000Y-26800000D03*
X46580000Y-36960000D03*
%TO.N,+1V8*%
X43680000Y-35500000D03*
%TO.N,GND*%
X50100000Y-33350000D03*
X59719200Y-13200800D03*
X19995400Y-24252200D03*
X47325435Y-26924565D03*
X25075600Y-35180000D03*
X14498800Y-19050000D03*
X31847000Y-13270000D03*
X52344800Y-27875000D03*
X51430400Y-26909800D03*
X33862100Y-23870000D03*
X33904400Y-34326600D03*
X16937200Y-39076400D03*
X44290000Y-38040000D03*
X52840000Y-38040000D03*
X30323000Y-37501600D03*
X14513600Y-29109000D03*
X29434000Y-37222200D03*
X46269200Y-13200800D03*
X40900000Y-34740000D03*
X21748000Y-28316200D03*
X49093600Y-26935200D03*
%TO.N,/Filtering_Board/V_F2*%
X37250000Y-28330000D03*
X50120000Y-28410000D03*
%TO.N,/Filtering_Board/V_PR*%
X36200000Y-24600000D03*
X30079200Y-28900400D03*
%TO.N,/Processing_Board/LPF_400Hz/V_EMG_INA*%
X41884423Y-36374423D03*
X38390000Y-37577800D03*
%TO.N,Net-(U3-IN+)*%
X36555365Y-33390000D03*
X34742600Y-32925600D03*
%TO.N,+1V8*%
X28326600Y-34271800D03*
X30983400Y-36434800D03*
X34006000Y-36688800D03*
X57810800Y-39074400D03*
X21619200Y-33100800D03*
X32558200Y-37562000D03*
X36088800Y-35545800D03*
%TO.N,Net-(U8--INA)*%
X26233600Y-24700000D03*
X30348400Y-26249400D03*
%TO.N,/Filtering_Board/V_CM*%
X56080000Y-29020000D03*
X50414400Y-27544800D03*
%TO.N,/Filtering_Board/+V_DD*%
X20325600Y-27630400D03*
X43902165Y-26951000D03*
X21490900Y-23340900D03*
X43886600Y-25586600D03*
%TD*%
D32*
%TO.N,GND*%
X14498800Y-19050000D02*
X14498800Y-17255000D01*
X39100000Y-23750000D02*
X40200000Y-23750000D01*
%TO.N,/Filtering_Board/+V_DD*%
X42100000Y-23800000D02*
X43886600Y-25586600D01*
X42100000Y-23750000D02*
X42100000Y-23800000D01*
X42129400Y-25822600D02*
X42129400Y-23779400D01*
X42129400Y-23779400D02*
X42100000Y-23750000D01*
X42200000Y-23650000D02*
X42200000Y-22617000D01*
X42100000Y-23750000D02*
X42200000Y-23650000D01*
%TO.N,Net-(R13-Pad2)*%
X47335000Y-35300000D02*
X47335000Y-36655000D01*
X47335000Y-36655000D02*
X47880000Y-37200000D01*
%TO.N,/Processing_Board/V_CM*%
X55873800Y-36159400D02*
X53680114Y-36159400D01*
X51749514Y-38090000D02*
X49970000Y-38090000D01*
X49600000Y-37720000D02*
X49600000Y-37200000D01*
X57008800Y-37294400D02*
X55873800Y-36159400D01*
X53680114Y-36159400D02*
X51749514Y-38090000D01*
X49970000Y-38090000D02*
X49600000Y-37720000D01*
%TO.N,Net-(R12-Pad2)*%
X51560000Y-37030000D02*
X51370000Y-37220000D01*
X51560000Y-35300000D02*
X51560000Y-37030000D01*
%TO.N,/Processing_Board/V_CM*%
X49600000Y-37200000D02*
X50330000Y-37200000D01*
X48900000Y-37200000D02*
X49600000Y-37200000D01*
X50330000Y-37200000D02*
X50350000Y-37220000D01*
%TO.N,/Filtering_Board/+V_DD*%
X22214800Y-22617000D02*
X42200000Y-22617000D01*
X42200000Y-22617000D02*
X43556400Y-22617000D01*
%TO.N,GND*%
X47325435Y-26924565D02*
X47772800Y-27371930D01*
X47772800Y-27371930D02*
X47772800Y-27925800D01*
%TO.N,Net-(U6-IN-)*%
X43552000Y-26300000D02*
X44170000Y-26300000D01*
X44170000Y-26300000D02*
X45450000Y-25020000D01*
X42129400Y-27722600D02*
X43552000Y-26300000D01*
%TO.N,Net-(U5-IN-)*%
X45726200Y-23723800D02*
X46873200Y-23723800D01*
X45450000Y-24000000D02*
X45726200Y-23723800D01*
%TO.N,/Filtering_Board/V_PR*%
X37750000Y-25800000D02*
X38200000Y-25800000D01*
X36550000Y-24600000D02*
X37750000Y-25800000D01*
X36200000Y-24600000D02*
X36550000Y-24600000D01*
%TO.N,GND*%
X38177400Y-26772600D02*
X38150000Y-26800000D01*
X39619400Y-26772600D02*
X38177400Y-26772600D01*
%TO.N,/Filtering_Board/V_PR*%
X38222600Y-25822600D02*
X38200000Y-25800000D01*
X39619400Y-25822600D02*
X38222600Y-25822600D01*
%TO.N,/Filtering_Board/+V_DD*%
X21490900Y-23340900D02*
X22214800Y-22617000D01*
%TO.N,/Filtering_Board/V_F2*%
X37250000Y-26780000D02*
X35970000Y-25500000D01*
X37250000Y-28330000D02*
X37250000Y-26780000D01*
X35970000Y-25500000D02*
X35670000Y-25500000D01*
X35570000Y-25600000D02*
X35670000Y-25500000D01*
X34265000Y-25600000D02*
X35570000Y-25600000D01*
%TO.N,Net-(U8--INB)*%
X32485000Y-25370000D02*
X32715000Y-25600000D01*
X31260000Y-25370000D02*
X32485000Y-25370000D01*
%TO.N,Net-(R6-Pad2)*%
X31260000Y-27140000D02*
X35680000Y-27140000D01*
%TO.N,/Filtering_Board/V_F1*%
X35360000Y-28700000D02*
X35680000Y-29020000D01*
X34100000Y-28700000D02*
X35360000Y-28700000D01*
X55723000Y-26662700D02*
X56406900Y-25978800D01*
X56406900Y-25978800D02*
X58303800Y-25978800D01*
X55723000Y-28317000D02*
X55723000Y-26662700D01*
X58303800Y-25978800D02*
X59528000Y-24754600D01*
X36010800Y-29350800D02*
X54689200Y-29350800D01*
X35680000Y-29020000D02*
X36010800Y-29350800D01*
X54689200Y-29350800D02*
X55723000Y-28317000D01*
%TO.N,Net-(U8--INA)*%
X32320000Y-28930000D02*
X32550000Y-28700000D01*
X31240000Y-28930000D02*
X32320000Y-28930000D01*
%TO.N,Net-(R6-Pad2)*%
X31260000Y-27890000D02*
X31260000Y-26390000D01*
X31240000Y-27910000D02*
X31260000Y-27890000D01*
%TO.N,Net-(U8--INA)*%
X30348400Y-28038400D02*
X30348400Y-26249400D01*
X31240000Y-28930000D02*
X30348400Y-28038400D01*
%TO.N,/Filtering_Board/V_F2*%
X34290000Y-25670000D02*
X34270000Y-25650000D01*
%TO.N,Net-(R6-Pad2)*%
X35680000Y-27360000D02*
X35680000Y-26690000D01*
X35680000Y-28000000D02*
X35680000Y-27360000D01*
%TO.N,/Filtering_Board/+V_DD*%
X30461000Y-24049000D02*
X30700000Y-23810000D01*
X28479000Y-24049000D02*
X30461000Y-24049000D01*
%TO.N,GND*%
X32660000Y-23870000D02*
X33862100Y-23870000D01*
X32600000Y-23810000D02*
X32660000Y-23870000D01*
%TO.N,Net-(U3-IN+)*%
X36555365Y-33390000D02*
X38329600Y-33390000D01*
X38329600Y-33390000D02*
X39492800Y-34553200D01*
%TO.N,Net-(U3-IN-)*%
X40590000Y-32790000D02*
X41120000Y-33320000D01*
X36152200Y-32790000D02*
X40590000Y-32790000D01*
X34925400Y-34016800D02*
X36152200Y-32790000D01*
X34925400Y-34527800D02*
X34925400Y-34016800D01*
%TO.N,GND*%
X45250000Y-36960000D02*
X45240000Y-36950000D01*
X46580000Y-36960000D02*
X45250000Y-36960000D01*
X43251600Y-38040000D02*
X43145000Y-37933400D01*
X44290000Y-38040000D02*
X43251600Y-38040000D01*
%TO.N,+1V8*%
X47315000Y-34670000D02*
X47335000Y-34650000D01*
X45210000Y-35080000D02*
X45620000Y-34670000D01*
X45620000Y-34670000D02*
X47315000Y-34670000D01*
X44130000Y-35050000D02*
X45240000Y-35050000D01*
X43680000Y-35500000D02*
X44130000Y-35050000D01*
%TO.N,/Processing_Board/V_CM*%
X50540000Y-37200000D02*
X50560000Y-37220000D01*
%TO.N,GND*%
X52840000Y-37565200D02*
X53095800Y-37309400D01*
X53095800Y-37309400D02*
X54448000Y-37309400D01*
X52840000Y-38040000D02*
X52840000Y-37565200D01*
X40900000Y-34740000D02*
X40136800Y-35503200D01*
X40136800Y-35503200D02*
X39492800Y-35503200D01*
%TO.N,Net-(U2-Ref)*%
X40490000Y-36857600D02*
X39619400Y-37728200D01*
X40490000Y-36453200D02*
X40490000Y-36857600D01*
X39492800Y-36453200D02*
X40490000Y-36453200D01*
X42670000Y-33320000D02*
X44220000Y-33320000D01*
%TO.N,/Processing_Board/V_F2*%
X56988000Y-34769400D02*
X55681600Y-33463000D01*
%TO.N,GND*%
X51560000Y-33350000D02*
X50100000Y-33350000D01*
%TO.N,/Processing_Board/V_F1*%
X53550000Y-32920000D02*
X53407006Y-32920000D01*
X57662800Y-32904200D02*
X53565800Y-32904200D01*
X59528000Y-34769400D02*
X57662800Y-32904200D01*
X53565800Y-32904200D02*
X53550000Y-32920000D01*
%TO.N,/Electrode_Board/V_E1*%
X57095600Y-16067200D02*
X53469200Y-16067200D01*
X57099200Y-16070800D02*
X57095600Y-16067200D01*
X57269200Y-16070800D02*
X57099200Y-16070800D01*
%TO.N,/Electrode_Board/V_ER*%
X40251200Y-16318000D02*
X40000400Y-16067200D01*
X43556400Y-16318000D02*
X40251200Y-16318000D01*
%TO.N,/Electrode_Board/V_E2*%
X25585600Y-15950800D02*
X25469200Y-16067200D01*
X29269200Y-15950800D02*
X25585600Y-15950800D01*
%TO.N,Net-(D1-K)*%
X51520000Y-13150000D02*
X51519200Y-13150800D01*
X57118400Y-13150000D02*
X51520000Y-13150000D01*
X57219200Y-13250800D02*
X57118400Y-13150000D01*
%TO.N,/Filtering_Board/V_I2*%
X28081590Y-27859000D02*
X28479000Y-27859000D01*
X21991600Y-25919000D02*
X26141590Y-25919000D01*
X21814000Y-25741400D02*
X21991600Y-25919000D01*
X20154402Y-25741400D02*
X21814000Y-25741400D01*
X26141590Y-25919000D02*
X28081590Y-27859000D01*
X19605002Y-25192000D02*
X20154402Y-25741400D01*
%TO.N,/Filtering_Board/V_F2*%
X55414600Y-25995400D02*
X56655400Y-24754600D01*
X53344671Y-25995400D02*
X55414600Y-25995400D01*
X50930071Y-28410000D02*
X53344671Y-25995400D01*
X50120000Y-28410000D02*
X50930071Y-28410000D01*
X56655400Y-24754600D02*
X56988000Y-24754600D01*
%TO.N,/Processing_Board/V_EMG_OUT*%
X20979600Y-37304800D02*
X22154400Y-36130000D01*
X19487400Y-37319800D02*
X19502400Y-37304800D01*
X19502400Y-37304800D02*
X20979600Y-37304800D01*
%TO.N,GND*%
X16937200Y-37315000D02*
X16947400Y-37304800D01*
X16937200Y-39076400D02*
X16937200Y-37315000D01*
X16947400Y-37304800D02*
X16947400Y-34764800D01*
%TO.N,+1V8*%
X15677400Y-33542600D02*
X15677400Y-36034800D01*
X16369200Y-32850800D02*
X15677400Y-33542600D01*
X21369200Y-32850800D02*
X16369200Y-32850800D01*
X21619200Y-33100800D02*
X21369200Y-32850800D01*
X15677400Y-36034800D02*
X14407400Y-37304800D01*
X14407400Y-37304800D02*
X14407400Y-34764800D01*
%TO.N,/Filtering_Board/V_I1*%
X18007800Y-26325600D02*
X17007800Y-27325600D01*
X17007800Y-27325600D02*
X16922000Y-27325600D01*
X20605000Y-26512800D02*
X20417800Y-26325600D01*
X20417800Y-26325600D02*
X18007800Y-26325600D01*
X20605000Y-26840602D02*
X20605000Y-26512800D01*
%TO.N,GND*%
X14513600Y-27309400D02*
X14498800Y-27294600D01*
X14513600Y-29109000D02*
X14513600Y-27309400D01*
%TO.N,/Filtering_Board/V_I2*%
X19167602Y-24754600D02*
X17053600Y-24754600D01*
X19605002Y-25192000D02*
X19167602Y-24754600D01*
%TO.N,/Filtering_Board/V_PR*%
X16922800Y-29200800D02*
X15783600Y-28061600D01*
X29778800Y-29200800D02*
X16922800Y-29200800D01*
X15783600Y-28061600D02*
X15783600Y-26039400D01*
X15783600Y-26039400D02*
X14498800Y-24754600D01*
X30079200Y-28900400D02*
X29778800Y-29200800D01*
%TO.N,/Filtering_Board/+V_DD*%
X60432200Y-22617000D02*
X51389800Y-22617000D01*
X59528000Y-27294600D02*
X61071800Y-25750800D01*
X59528000Y-27249400D02*
X59528000Y-27294600D01*
X61071800Y-25750800D02*
X61071800Y-23256600D01*
X61071800Y-23256600D02*
X60432200Y-22617000D01*
%TO.N,GND*%
X52874400Y-27294600D02*
X54448000Y-27294600D01*
X52344800Y-27824200D02*
X52874400Y-27294600D01*
X52344800Y-27875000D02*
X52344800Y-27824200D01*
%TO.N,/Filtering_Board/V_CM*%
X56988000Y-28112000D02*
X56988000Y-27249400D01*
X56080000Y-29020000D02*
X56988000Y-28112000D01*
%TO.N,+1V8*%
X57810800Y-39026600D02*
X59528000Y-37309400D01*
X57810800Y-39074400D02*
X57810800Y-39026600D01*
%TO.N,/Processing_Board/V_F1*%
X59548800Y-34769400D02*
X59528000Y-34769400D01*
%TO.N,/Electrode_Board/V_I1*%
X19073600Y-19289800D02*
X17038800Y-17255000D01*
X46869200Y-14250800D02*
X46869200Y-16450800D01*
X46869200Y-16450800D02*
X44030200Y-19289800D01*
X44030200Y-19289800D02*
X19073600Y-19289800D01*
X47969200Y-13150800D02*
X46869200Y-14250800D01*
%TO.N,/Electrode_Board/V_I2*%
X18560000Y-13193800D02*
X17038800Y-14715000D01*
X19819200Y-13193800D02*
X18560000Y-13193800D01*
%TO.N,GND*%
X16947400Y-34887000D02*
X17003800Y-34830600D01*
X16937200Y-39076400D02*
X16947400Y-39066200D01*
%TO.N,/Electrode_Board/V_I2*%
X17038800Y-14715000D02*
X17038800Y-14794000D01*
%TO.N,/Electrode_Board/V_E1*%
X57269200Y-16070800D02*
X57265600Y-16067200D01*
%TO.N,Net-(D1-K)*%
X57269200Y-13300800D02*
X57219200Y-13250800D01*
X57269200Y-15050800D02*
X57269200Y-13300800D01*
%TO.N,Net-(D2-K)*%
X29269200Y-13286000D02*
X29253200Y-13270000D01*
X29269200Y-14930800D02*
X29269200Y-13286000D01*
%TO.N,/Electrode_Board/V_E2*%
X29269200Y-15950800D02*
X29281600Y-15938400D01*
%TO.N,GND*%
X59669200Y-13250800D02*
X59719200Y-13200800D01*
X58619200Y-13250800D02*
X59669200Y-13250800D01*
%TO.N,Net-(L1-Pad2)*%
X48989200Y-13150800D02*
X50477800Y-13150800D01*
%TO.N,GND*%
X19995400Y-24252200D02*
X20605000Y-24861800D01*
X33874000Y-34357000D02*
X32522600Y-34357000D01*
X22205200Y-27859000D02*
X23539000Y-27859000D01*
X47478199Y-24673800D02*
X46873200Y-24673800D01*
X29434000Y-36257000D02*
X29434000Y-37222200D01*
X31847000Y-13270000D02*
X30653200Y-13270000D01*
X46269200Y-13200800D02*
X46219200Y-13250800D01*
X31897800Y-13320800D02*
X31897800Y-13346200D01*
X32522600Y-34357000D02*
X32507400Y-34341800D01*
X20605000Y-24861800D02*
X20605000Y-25192000D01*
X33904400Y-34326600D02*
X33874000Y-34357000D01*
X23820600Y-35180000D02*
X25045200Y-35180000D01*
X31847000Y-13270000D02*
X31897800Y-13320800D01*
X30323000Y-35676800D02*
X30729400Y-35270400D01*
X49093600Y-26935200D02*
X48128400Y-25970000D01*
X51430400Y-25609400D02*
X51430400Y-26909800D01*
X48128400Y-25324001D02*
X47478199Y-24673800D01*
X21748000Y-28316200D02*
X22205200Y-27859000D01*
X25045200Y-35180000D02*
X25060400Y-35164800D01*
X48128400Y-25970000D02*
X48128400Y-25324001D01*
X46219200Y-13250800D02*
X44919200Y-13250800D01*
X30323000Y-37501600D02*
X30323000Y-35676800D01*
%TO.N,Net-(U1-IN-)*%
X29434000Y-35297000D02*
X28016800Y-35297000D01*
X26330600Y-36130000D02*
X27122600Y-36130000D01*
X27122600Y-36130000D02*
X27986200Y-35266400D01*
X28016800Y-35297000D02*
X27986200Y-35266400D01*
%TO.N,Net-(U3-IN-)*%
X36163000Y-34553200D02*
X35276000Y-33666200D01*
X36982800Y-34553200D02*
X36163000Y-34553200D01*
%TO.N,Net-(C4-Pad1)*%
X25796800Y-38162000D02*
X27398000Y-38162000D01*
X27398000Y-38162000D02*
X27398000Y-37454800D01*
X27398000Y-37454800D02*
X27986200Y-36866600D01*
X27986200Y-36286400D02*
X27986200Y-36866600D01*
%TO.N,Net-(D2-K)*%
X23610600Y-13193800D02*
X29177000Y-13193800D01*
X29281600Y-13374600D02*
X29253200Y-13346200D01*
X29177000Y-13193800D02*
X29253200Y-13270000D01*
%TO.N,Net-(L2-Pad1)*%
X20839200Y-13193800D02*
X22569200Y-13193800D01*
%TO.N,Net-(R14-Pad2)*%
X34925400Y-35547800D02*
X34925400Y-36583200D01*
%TO.N,Net-(U5-IN-)*%
X46873200Y-23723800D02*
X47483200Y-23723800D01*
X47483200Y-23723800D02*
X49383200Y-25623800D01*
%TO.N,/Processing_Board/V_EMG_OUT*%
X22154400Y-36419600D02*
X23896800Y-38162000D01*
X22154400Y-36130000D02*
X22154400Y-36419600D01*
X23528652Y-34230000D02*
X22154400Y-35604252D01*
X22154400Y-35604252D02*
X22154400Y-36130000D01*
X22154400Y-36130000D02*
X23820600Y-36130000D01*
X23820600Y-34230000D02*
X23528652Y-34230000D01*
%TO.N,Net-(C6-Pad1)*%
X39619400Y-38748200D02*
X40430200Y-38748200D01*
X40430200Y-38748200D02*
X41245000Y-37933400D01*
%TO.N,/Electrode_Board/V_PR*%
X43556400Y-14514600D02*
X43569200Y-14501800D01*
X43569200Y-14501800D02*
X43569200Y-13450800D01*
X43556400Y-14514600D02*
X43556400Y-15298000D01*
%TO.N,/Filtering_Board/V_I1*%
X22319800Y-26589000D02*
X23539000Y-26589000D01*
X20757400Y-27122400D02*
X21786400Y-27122400D01*
X21786400Y-27122400D02*
X22319800Y-26589000D01*
X23310400Y-26817600D02*
X23539000Y-26589000D01*
X20605000Y-26970000D02*
X20757400Y-27122400D01*
X20605000Y-26840602D02*
X20605000Y-26970000D01*
%TO.N,/Filtering_Board/V_I2*%
X19605002Y-25192000D02*
X19639800Y-25192000D01*
%TO.N,/Processing_Board/LPF_400Hz/V_EMG_INA*%
X34366600Y-38162000D02*
X34925400Y-37603200D01*
X28418000Y-38162000D02*
X34366600Y-38162000D01*
%TO.N,Net-(U3-IN+)*%
X30729400Y-33158200D02*
X30754800Y-33132800D01*
X34742600Y-32925600D02*
X30962000Y-32925600D01*
X29311000Y-33132800D02*
X30754800Y-33132800D01*
X30962000Y-32925600D02*
X30754800Y-33132800D01*
X30729400Y-34250400D02*
X30729400Y-33158200D01*
%TO.N,Net-(U6-IN+)*%
X46045600Y-28459200D02*
X45740800Y-28764000D01*
X40660800Y-28764000D02*
X39619400Y-27722600D01*
X45357800Y-27925800D02*
X46045600Y-27925800D01*
X46045600Y-27925800D02*
X46752800Y-27925800D01*
X45740800Y-28764000D02*
X40660800Y-28764000D01*
X46045600Y-27925800D02*
X46045600Y-28459200D01*
%TO.N,+1V8*%
X21651200Y-33132800D02*
X28291000Y-33132800D01*
X32380400Y-36434800D02*
X32558200Y-36257000D01*
X32543000Y-36241800D02*
X32507400Y-36241800D01*
X36982800Y-36439800D02*
X36982800Y-36453200D01*
X32522600Y-36257000D02*
X32507400Y-36241800D01*
X32558200Y-37562000D02*
X32558200Y-36292600D01*
X28284800Y-34230000D02*
X28326600Y-34271800D01*
X36088800Y-35545800D02*
X36982800Y-36439800D01*
X21619200Y-33100800D02*
X21651200Y-33132800D01*
X26330600Y-34230000D02*
X28284800Y-34230000D01*
X30983400Y-36434800D02*
X32380400Y-36434800D01*
X32558200Y-36292600D02*
X32507400Y-36241800D01*
X33574200Y-36257000D02*
X32522600Y-36257000D01*
X32558200Y-36257000D02*
X32543000Y-36241800D01*
X34006000Y-36688800D02*
X33574200Y-36257000D01*
%TO.N,Net-(U8--INA)*%
X25541590Y-24049000D02*
X25582600Y-24049000D01*
X23539000Y-24049000D02*
X23539000Y-25319000D01*
X25541590Y-24049000D02*
X23539000Y-24049000D01*
X25582600Y-24049000D02*
X26233600Y-24700000D01*
%TO.N,Net-(U8--INB)*%
X28479000Y-25319000D02*
X28479000Y-26589000D01*
%TO.N,/Filtering_Board/V_CM*%
X48794200Y-27544800D02*
X46873200Y-25623800D01*
X50414400Y-27544800D02*
X48794200Y-27544800D01*
%TO.N,/Filtering_Board/+V_DD*%
X44228365Y-27816365D02*
X44337800Y-27925800D01*
X51430400Y-23709400D02*
X49397600Y-23709400D01*
X43902165Y-26951000D02*
X43902165Y-27816365D01*
X19995400Y-27630400D02*
X19605002Y-27240002D01*
X51389800Y-22617000D02*
X51430400Y-22657600D01*
X51389800Y-22617000D02*
X43556400Y-22617000D01*
X44011600Y-27925800D02*
X44337800Y-27925800D01*
X20325600Y-27630400D02*
X19995400Y-27630400D01*
X51430400Y-22657600D02*
X51430400Y-23709400D01*
X49397600Y-23709400D02*
X49383200Y-23723800D01*
X43902165Y-27816365D02*
X44011600Y-27925800D01*
X19605002Y-27240002D02*
X19605002Y-26840602D01*
%TO.N,/Electrode_Board/V_PR*%
X23398400Y-18830000D02*
X20657800Y-16089400D01*
X43519200Y-13250800D02*
X42340800Y-13250800D01*
X20657800Y-16089400D02*
X15873200Y-16089400D01*
X42340800Y-13250800D02*
X41890000Y-12800000D01*
X41890000Y-12800000D02*
X38180000Y-12800000D01*
X32150000Y-18830000D02*
X23398400Y-18830000D01*
X38180000Y-12800000D02*
X32150000Y-18830000D01*
X15873200Y-16089400D02*
X14498800Y-14715000D01*
%TO.N,/Processing_Board/LPF_400Hz/V_EMG_INA*%
X38364600Y-37603200D02*
X34925400Y-37603200D01*
X38390000Y-37577800D02*
X38364600Y-37603200D01*
X41884423Y-36374423D02*
X44258846Y-34000000D01*
X44258846Y-34000000D02*
X47335000Y-34000000D01*
%TO.N,Net-(U2-Ref)*%
X40490000Y-36230000D02*
X40490000Y-36453200D01*
X41640000Y-35080000D02*
X40490000Y-36230000D01*
X42460000Y-35080000D02*
X41640000Y-35080000D01*
X44230000Y-33310000D02*
X42460000Y-35080000D01*
X47295000Y-33310000D02*
X44230000Y-33310000D01*
X47335000Y-33350000D02*
X47295000Y-33310000D01*
%TO.N,/Processing_Board/V_F1*%
X53407006Y-32920000D02*
X52327006Y-34000000D01*
%TO.N,/Processing_Board/V_F2*%
X55681600Y-33463000D02*
X53514006Y-33463000D01*
%TO.N,/Processing_Board/V_F1*%
X52327006Y-34000000D02*
X51560000Y-34000000D01*
%TO.N,/Processing_Board/V_F2*%
X52327006Y-34650000D02*
X51560000Y-34650000D01*
X53514006Y-33463000D02*
X52327006Y-34650000D01*
%TO.N,Net-(U8--INB)*%
X28555200Y-25395200D02*
X28479000Y-25319000D01*
X28479000Y-25319000D02*
X31209000Y-25319000D01*
X31209000Y-25319000D02*
X31260000Y-25370000D01*
%TO.N,Net-(U6-IN-)*%
X39080000Y-24780000D02*
X38200000Y-24780000D01*
X42129400Y-27722600D02*
X41219600Y-27722600D01*
X40350000Y-25000000D02*
X39300000Y-25000000D01*
X41219600Y-27722600D02*
X40889400Y-27392400D01*
X40888200Y-25538200D02*
X40350000Y-25000000D01*
X40889400Y-27392400D02*
X40889400Y-25538200D01*
X40889400Y-25538200D02*
X40888200Y-25538200D01*
X39300000Y-25000000D02*
X39080000Y-24780000D01*
%TD*%
M02*
