%TF.GenerationSoftware,KiCad,Pcbnew,8.0.6*%
%TF.CreationDate,2024-11-12T19:13:31+01:00*%
%TF.ProjectId,EMG_amplifier,454d475f-616d-4706-9c69-666965722e6b,rev?*%
%TF.SameCoordinates,Original*%
%TF.FileFunction,Legend,Top*%
%TF.FilePolarity,Positive*%
%FSLAX46Y46*%
G04 Gerber Fmt 4.6, Leading zero omitted, Abs format (unit mm)*
G04 Created by KiCad (PCBNEW 8.0.6) date 2024-11-12 19:13:31*
%MOMM*%
%LPD*%
G01*
G04 APERTURE LIST*
%ADD10C,0.100000*%
%ADD11C,0.075000*%
%ADD12C,0.120000*%
%ADD13C,0.200000*%
%ADD14C,0.127000*%
%ADD15C,0.152400*%
G04 APERTURE END LIST*
D10*
X16963408Y-18833609D02*
X17130074Y-19333609D01*
X17130074Y-19333609D02*
X17296741Y-18833609D01*
X17463407Y-19333609D02*
X17463407Y-18833609D01*
X17963407Y-19333609D02*
X17677693Y-19333609D01*
X17820550Y-19333609D02*
X17820550Y-18833609D01*
X17820550Y-18833609D02*
X17772931Y-18905038D01*
X17772931Y-18905038D02*
X17725312Y-18952657D01*
X17725312Y-18952657D02*
X17677693Y-18976466D01*
D11*
X16747113Y-33074471D02*
X16718542Y-33060185D01*
X16718542Y-33060185D02*
X16675684Y-33060185D01*
X16675684Y-33060185D02*
X16632827Y-33074471D01*
X16632827Y-33074471D02*
X16604256Y-33103042D01*
X16604256Y-33103042D02*
X16589970Y-33131614D01*
X16589970Y-33131614D02*
X16575684Y-33188757D01*
X16575684Y-33188757D02*
X16575684Y-33231614D01*
X16575684Y-33231614D02*
X16589970Y-33288757D01*
X16589970Y-33288757D02*
X16604256Y-33317328D01*
X16604256Y-33317328D02*
X16632827Y-33345900D01*
X16632827Y-33345900D02*
X16675684Y-33360185D01*
X16675684Y-33360185D02*
X16704256Y-33360185D01*
X16704256Y-33360185D02*
X16747113Y-33345900D01*
X16747113Y-33345900D02*
X16761399Y-33331614D01*
X16761399Y-33331614D02*
X16761399Y-33231614D01*
X16761399Y-33231614D02*
X16704256Y-33231614D01*
X16889970Y-33360185D02*
X16889970Y-33060185D01*
X16889970Y-33060185D02*
X17061399Y-33360185D01*
X17061399Y-33360185D02*
X17061399Y-33060185D01*
X17204256Y-33360185D02*
X17204256Y-33060185D01*
X17204256Y-33060185D02*
X17275685Y-33060185D01*
X17275685Y-33060185D02*
X17318542Y-33074471D01*
X17318542Y-33074471D02*
X17347113Y-33103042D01*
X17347113Y-33103042D02*
X17361399Y-33131614D01*
X17361399Y-33131614D02*
X17375685Y-33188757D01*
X17375685Y-33188757D02*
X17375685Y-33231614D01*
X17375685Y-33231614D02*
X17361399Y-33288757D01*
X17361399Y-33288757D02*
X17347113Y-33317328D01*
X17347113Y-33317328D02*
X17318542Y-33345900D01*
X17318542Y-33345900D02*
X17275685Y-33360185D01*
X17275685Y-33360185D02*
X17204256Y-33360185D01*
D10*
X16513408Y-12683609D02*
X16680074Y-13183609D01*
X16680074Y-13183609D02*
X16846741Y-12683609D01*
X17013407Y-13183609D02*
X17013407Y-12683609D01*
X17227693Y-12731228D02*
X17251502Y-12707419D01*
X17251502Y-12707419D02*
X17299121Y-12683609D01*
X17299121Y-12683609D02*
X17418169Y-12683609D01*
X17418169Y-12683609D02*
X17465788Y-12707419D01*
X17465788Y-12707419D02*
X17489597Y-12731228D01*
X17489597Y-12731228D02*
X17513407Y-12778847D01*
X17513407Y-12778847D02*
X17513407Y-12826466D01*
X17513407Y-12826466D02*
X17489597Y-12897895D01*
X17489597Y-12897895D02*
X17203883Y-13183609D01*
X17203883Y-13183609D02*
X17513407Y-13183609D01*
X58932608Y-38784409D02*
X59099274Y-39284409D01*
X59099274Y-39284409D02*
X59265941Y-38784409D01*
X59432607Y-39284409D02*
X59432607Y-38784409D01*
X59432607Y-38784409D02*
X59551655Y-38784409D01*
X59551655Y-38784409D02*
X59623083Y-38808219D01*
X59623083Y-38808219D02*
X59670702Y-38855838D01*
X59670702Y-38855838D02*
X59694512Y-38903457D01*
X59694512Y-38903457D02*
X59718321Y-38998695D01*
X59718321Y-38998695D02*
X59718321Y-39070123D01*
X59718321Y-39070123D02*
X59694512Y-39165361D01*
X59694512Y-39165361D02*
X59670702Y-39212980D01*
X59670702Y-39212980D02*
X59623083Y-39260600D01*
X59623083Y-39260600D02*
X59551655Y-39284409D01*
X59551655Y-39284409D02*
X59432607Y-39284409D01*
X59932607Y-39284409D02*
X59932607Y-38784409D01*
X59932607Y-38784409D02*
X60051655Y-38784409D01*
X60051655Y-38784409D02*
X60123083Y-38808219D01*
X60123083Y-38808219D02*
X60170702Y-38855838D01*
X60170702Y-38855838D02*
X60194512Y-38903457D01*
X60194512Y-38903457D02*
X60218321Y-38998695D01*
X60218321Y-38998695D02*
X60218321Y-39070123D01*
X60218321Y-39070123D02*
X60194512Y-39165361D01*
X60194512Y-39165361D02*
X60170702Y-39212980D01*
X60170702Y-39212980D02*
X60123083Y-39260600D01*
X60123083Y-39260600D02*
X60051655Y-39284409D01*
X60051655Y-39284409D02*
X59932607Y-39284409D01*
X58832608Y-28884409D02*
X58999274Y-29384409D01*
X58999274Y-29384409D02*
X59165941Y-28884409D01*
X59332607Y-29384409D02*
X59332607Y-28884409D01*
X59332607Y-28884409D02*
X59451655Y-28884409D01*
X59451655Y-28884409D02*
X59523083Y-28908219D01*
X59523083Y-28908219D02*
X59570702Y-28955838D01*
X59570702Y-28955838D02*
X59594512Y-29003457D01*
X59594512Y-29003457D02*
X59618321Y-29098695D01*
X59618321Y-29098695D02*
X59618321Y-29170123D01*
X59618321Y-29170123D02*
X59594512Y-29265361D01*
X59594512Y-29265361D02*
X59570702Y-29312980D01*
X59570702Y-29312980D02*
X59523083Y-29360600D01*
X59523083Y-29360600D02*
X59451655Y-29384409D01*
X59451655Y-29384409D02*
X59332607Y-29384409D01*
X59832607Y-29384409D02*
X59832607Y-28884409D01*
X59832607Y-28884409D02*
X59951655Y-28884409D01*
X59951655Y-28884409D02*
X60023083Y-28908219D01*
X60023083Y-28908219D02*
X60070702Y-28955838D01*
X60070702Y-28955838D02*
X60094512Y-29003457D01*
X60094512Y-29003457D02*
X60118321Y-29098695D01*
X60118321Y-29098695D02*
X60118321Y-29170123D01*
X60118321Y-29170123D02*
X60094512Y-29265361D01*
X60094512Y-29265361D02*
X60070702Y-29312980D01*
X60070702Y-29312980D02*
X60023083Y-29360600D01*
X60023083Y-29360600D02*
X59951655Y-29384409D01*
X59951655Y-29384409D02*
X59832607Y-29384409D01*
X17863408Y-28483609D02*
X18030074Y-28983609D01*
X18030074Y-28983609D02*
X18196741Y-28483609D01*
X18363407Y-28983609D02*
X18363407Y-28483609D01*
X18863407Y-28983609D02*
X18577693Y-28983609D01*
X18720550Y-28983609D02*
X18720550Y-28483609D01*
X18720550Y-28483609D02*
X18672931Y-28555038D01*
X18672931Y-28555038D02*
X18625312Y-28602657D01*
X18625312Y-28602657D02*
X18577693Y-28626466D01*
X14115941Y-39384409D02*
X13830227Y-39384409D01*
X13973084Y-39384409D02*
X13973084Y-38884409D01*
X13973084Y-38884409D02*
X13925465Y-38955838D01*
X13925465Y-38955838D02*
X13877846Y-39003457D01*
X13877846Y-39003457D02*
X13830227Y-39027266D01*
X14258798Y-38884409D02*
X14425464Y-39384409D01*
X14425464Y-39384409D02*
X14592131Y-38884409D01*
X14830226Y-39098695D02*
X14782607Y-39074885D01*
X14782607Y-39074885D02*
X14758797Y-39051076D01*
X14758797Y-39051076D02*
X14734988Y-39003457D01*
X14734988Y-39003457D02*
X14734988Y-38979647D01*
X14734988Y-38979647D02*
X14758797Y-38932028D01*
X14758797Y-38932028D02*
X14782607Y-38908219D01*
X14782607Y-38908219D02*
X14830226Y-38884409D01*
X14830226Y-38884409D02*
X14925464Y-38884409D01*
X14925464Y-38884409D02*
X14973083Y-38908219D01*
X14973083Y-38908219D02*
X14996892Y-38932028D01*
X14996892Y-38932028D02*
X15020702Y-38979647D01*
X15020702Y-38979647D02*
X15020702Y-39003457D01*
X15020702Y-39003457D02*
X14996892Y-39051076D01*
X14996892Y-39051076D02*
X14973083Y-39074885D01*
X14973083Y-39074885D02*
X14925464Y-39098695D01*
X14925464Y-39098695D02*
X14830226Y-39098695D01*
X14830226Y-39098695D02*
X14782607Y-39122504D01*
X14782607Y-39122504D02*
X14758797Y-39146314D01*
X14758797Y-39146314D02*
X14734988Y-39193933D01*
X14734988Y-39193933D02*
X14734988Y-39289171D01*
X14734988Y-39289171D02*
X14758797Y-39336790D01*
X14758797Y-39336790D02*
X14782607Y-39360600D01*
X14782607Y-39360600D02*
X14830226Y-39384409D01*
X14830226Y-39384409D02*
X14925464Y-39384409D01*
X14925464Y-39384409D02*
X14973083Y-39360600D01*
X14973083Y-39360600D02*
X14996892Y-39336790D01*
X14996892Y-39336790D02*
X15020702Y-39289171D01*
X15020702Y-39289171D02*
X15020702Y-39193933D01*
X15020702Y-39193933D02*
X14996892Y-39146314D01*
X14996892Y-39146314D02*
X14973083Y-39122504D01*
X14973083Y-39122504D02*
X14925464Y-39098695D01*
X15315941Y-18858219D02*
X15268322Y-18834409D01*
X15268322Y-18834409D02*
X15196893Y-18834409D01*
X15196893Y-18834409D02*
X15125465Y-18858219D01*
X15125465Y-18858219D02*
X15077846Y-18905838D01*
X15077846Y-18905838D02*
X15054036Y-18953457D01*
X15054036Y-18953457D02*
X15030227Y-19048695D01*
X15030227Y-19048695D02*
X15030227Y-19120123D01*
X15030227Y-19120123D02*
X15054036Y-19215361D01*
X15054036Y-19215361D02*
X15077846Y-19262980D01*
X15077846Y-19262980D02*
X15125465Y-19310600D01*
X15125465Y-19310600D02*
X15196893Y-19334409D01*
X15196893Y-19334409D02*
X15244512Y-19334409D01*
X15244512Y-19334409D02*
X15315941Y-19310600D01*
X15315941Y-19310600D02*
X15339750Y-19286790D01*
X15339750Y-19286790D02*
X15339750Y-19120123D01*
X15339750Y-19120123D02*
X15244512Y-19120123D01*
X15554036Y-19334409D02*
X15554036Y-18834409D01*
X15554036Y-18834409D02*
X15839750Y-19334409D01*
X15839750Y-19334409D02*
X15839750Y-18834409D01*
X16077846Y-19334409D02*
X16077846Y-18834409D01*
X16077846Y-18834409D02*
X16196894Y-18834409D01*
X16196894Y-18834409D02*
X16268322Y-18858219D01*
X16268322Y-18858219D02*
X16315941Y-18905838D01*
X16315941Y-18905838D02*
X16339751Y-18953457D01*
X16339751Y-18953457D02*
X16363560Y-19048695D01*
X16363560Y-19048695D02*
X16363560Y-19120123D01*
X16363560Y-19120123D02*
X16339751Y-19215361D01*
X16339751Y-19215361D02*
X16315941Y-19262980D01*
X16315941Y-19262980D02*
X16268322Y-19310600D01*
X16268322Y-19310600D02*
X16196894Y-19334409D01*
X16196894Y-19334409D02*
X16077846Y-19334409D01*
D11*
X56697113Y-22910185D02*
X56797113Y-23210185D01*
X56797113Y-23210185D02*
X56897113Y-22910185D01*
X57097113Y-23053042D02*
X56997113Y-23053042D01*
X56997113Y-23210185D02*
X56997113Y-22910185D01*
X56997113Y-22910185D02*
X57139970Y-22910185D01*
X57239970Y-22938757D02*
X57254256Y-22924471D01*
X57254256Y-22924471D02*
X57282828Y-22910185D01*
X57282828Y-22910185D02*
X57354256Y-22910185D01*
X57354256Y-22910185D02*
X57382828Y-22924471D01*
X57382828Y-22924471D02*
X57397113Y-22938757D01*
X57397113Y-22938757D02*
X57411399Y-22967328D01*
X57411399Y-22967328D02*
X57411399Y-22995900D01*
X57411399Y-22995900D02*
X57397113Y-23038757D01*
X57397113Y-23038757D02*
X57225685Y-23210185D01*
X57225685Y-23210185D02*
X57411399Y-23210185D01*
D10*
X17815941Y-38858219D02*
X17768322Y-38834409D01*
X17768322Y-38834409D02*
X17696893Y-38834409D01*
X17696893Y-38834409D02*
X17625465Y-38858219D01*
X17625465Y-38858219D02*
X17577846Y-38905838D01*
X17577846Y-38905838D02*
X17554036Y-38953457D01*
X17554036Y-38953457D02*
X17530227Y-39048695D01*
X17530227Y-39048695D02*
X17530227Y-39120123D01*
X17530227Y-39120123D02*
X17554036Y-39215361D01*
X17554036Y-39215361D02*
X17577846Y-39262980D01*
X17577846Y-39262980D02*
X17625465Y-39310600D01*
X17625465Y-39310600D02*
X17696893Y-39334409D01*
X17696893Y-39334409D02*
X17744512Y-39334409D01*
X17744512Y-39334409D02*
X17815941Y-39310600D01*
X17815941Y-39310600D02*
X17839750Y-39286790D01*
X17839750Y-39286790D02*
X17839750Y-39120123D01*
X17839750Y-39120123D02*
X17744512Y-39120123D01*
X18054036Y-39334409D02*
X18054036Y-38834409D01*
X18054036Y-38834409D02*
X18339750Y-39334409D01*
X18339750Y-39334409D02*
X18339750Y-38834409D01*
X18577846Y-39334409D02*
X18577846Y-38834409D01*
X18577846Y-38834409D02*
X18696894Y-38834409D01*
X18696894Y-38834409D02*
X18768322Y-38858219D01*
X18768322Y-38858219D02*
X18815941Y-38905838D01*
X18815941Y-38905838D02*
X18839751Y-38953457D01*
X18839751Y-38953457D02*
X18863560Y-39048695D01*
X18863560Y-39048695D02*
X18863560Y-39120123D01*
X18863560Y-39120123D02*
X18839751Y-39215361D01*
X18839751Y-39215361D02*
X18815941Y-39262980D01*
X18815941Y-39262980D02*
X18768322Y-39310600D01*
X18768322Y-39310600D02*
X18696894Y-39334409D01*
X18696894Y-39334409D02*
X18577846Y-39334409D01*
X15315941Y-28858219D02*
X15268322Y-28834409D01*
X15268322Y-28834409D02*
X15196893Y-28834409D01*
X15196893Y-28834409D02*
X15125465Y-28858219D01*
X15125465Y-28858219D02*
X15077846Y-28905838D01*
X15077846Y-28905838D02*
X15054036Y-28953457D01*
X15054036Y-28953457D02*
X15030227Y-29048695D01*
X15030227Y-29048695D02*
X15030227Y-29120123D01*
X15030227Y-29120123D02*
X15054036Y-29215361D01*
X15054036Y-29215361D02*
X15077846Y-29262980D01*
X15077846Y-29262980D02*
X15125465Y-29310600D01*
X15125465Y-29310600D02*
X15196893Y-29334409D01*
X15196893Y-29334409D02*
X15244512Y-29334409D01*
X15244512Y-29334409D02*
X15315941Y-29310600D01*
X15315941Y-29310600D02*
X15339750Y-29286790D01*
X15339750Y-29286790D02*
X15339750Y-29120123D01*
X15339750Y-29120123D02*
X15244512Y-29120123D01*
X15554036Y-29334409D02*
X15554036Y-28834409D01*
X15554036Y-28834409D02*
X15839750Y-29334409D01*
X15839750Y-29334409D02*
X15839750Y-28834409D01*
X16077846Y-29334409D02*
X16077846Y-28834409D01*
X16077846Y-28834409D02*
X16196894Y-28834409D01*
X16196894Y-28834409D02*
X16268322Y-28858219D01*
X16268322Y-28858219D02*
X16315941Y-28905838D01*
X16315941Y-28905838D02*
X16339751Y-28953457D01*
X16339751Y-28953457D02*
X16363560Y-29048695D01*
X16363560Y-29048695D02*
X16363560Y-29120123D01*
X16363560Y-29120123D02*
X16339751Y-29215361D01*
X16339751Y-29215361D02*
X16315941Y-29262980D01*
X16315941Y-29262980D02*
X16268322Y-29310600D01*
X16268322Y-29310600D02*
X16196894Y-29334409D01*
X16196894Y-29334409D02*
X16077846Y-29334409D01*
D11*
X59297113Y-22860185D02*
X59397113Y-23160185D01*
X59397113Y-23160185D02*
X59497113Y-22860185D01*
X59697113Y-23003042D02*
X59597113Y-23003042D01*
X59597113Y-23160185D02*
X59597113Y-22860185D01*
X59597113Y-22860185D02*
X59739970Y-22860185D01*
X60011399Y-23160185D02*
X59839970Y-23160185D01*
X59925685Y-23160185D02*
X59925685Y-22860185D01*
X59925685Y-22860185D02*
X59897113Y-22903042D01*
X59897113Y-22903042D02*
X59868542Y-22931614D01*
X59868542Y-22931614D02*
X59839970Y-22945900D01*
D10*
X13882608Y-12684409D02*
X14049274Y-13184409D01*
X14049274Y-13184409D02*
X14215941Y-12684409D01*
X14382607Y-13184409D02*
X14382607Y-12684409D01*
X14382607Y-12684409D02*
X14573083Y-12684409D01*
X14573083Y-12684409D02*
X14620702Y-12708219D01*
X14620702Y-12708219D02*
X14644512Y-12732028D01*
X14644512Y-12732028D02*
X14668321Y-12779647D01*
X14668321Y-12779647D02*
X14668321Y-12851076D01*
X14668321Y-12851076D02*
X14644512Y-12898695D01*
X14644512Y-12898695D02*
X14620702Y-12922504D01*
X14620702Y-12922504D02*
X14573083Y-12946314D01*
X14573083Y-12946314D02*
X14382607Y-12946314D01*
X15168321Y-13184409D02*
X15001655Y-12946314D01*
X14882607Y-13184409D02*
X14882607Y-12684409D01*
X14882607Y-12684409D02*
X15073083Y-12684409D01*
X15073083Y-12684409D02*
X15120702Y-12708219D01*
X15120702Y-12708219D02*
X15144512Y-12732028D01*
X15144512Y-12732028D02*
X15168321Y-12779647D01*
X15168321Y-12779647D02*
X15168321Y-12851076D01*
X15168321Y-12851076D02*
X15144512Y-12898695D01*
X15144512Y-12898695D02*
X15120702Y-12922504D01*
X15120702Y-12922504D02*
X15073083Y-12946314D01*
X15073083Y-12946314D02*
X14882607Y-12946314D01*
X13882608Y-22684409D02*
X14049274Y-23184409D01*
X14049274Y-23184409D02*
X14215941Y-22684409D01*
X14382607Y-23184409D02*
X14382607Y-22684409D01*
X14382607Y-22684409D02*
X14573083Y-22684409D01*
X14573083Y-22684409D02*
X14620702Y-22708219D01*
X14620702Y-22708219D02*
X14644512Y-22732028D01*
X14644512Y-22732028D02*
X14668321Y-22779647D01*
X14668321Y-22779647D02*
X14668321Y-22851076D01*
X14668321Y-22851076D02*
X14644512Y-22898695D01*
X14644512Y-22898695D02*
X14620702Y-22922504D01*
X14620702Y-22922504D02*
X14573083Y-22946314D01*
X14573083Y-22946314D02*
X14382607Y-22946314D01*
X15168321Y-23184409D02*
X15001655Y-22946314D01*
X14882607Y-23184409D02*
X14882607Y-22684409D01*
X14882607Y-22684409D02*
X15073083Y-22684409D01*
X15073083Y-22684409D02*
X15120702Y-22708219D01*
X15120702Y-22708219D02*
X15144512Y-22732028D01*
X15144512Y-22732028D02*
X15168321Y-22779647D01*
X15168321Y-22779647D02*
X15168321Y-22851076D01*
X15168321Y-22851076D02*
X15144512Y-22898695D01*
X15144512Y-22898695D02*
X15120702Y-22922504D01*
X15120702Y-22922504D02*
X15073083Y-22946314D01*
X15073083Y-22946314D02*
X14882607Y-22946314D01*
D11*
X54247113Y-38574471D02*
X54218542Y-38560185D01*
X54218542Y-38560185D02*
X54175684Y-38560185D01*
X54175684Y-38560185D02*
X54132827Y-38574471D01*
X54132827Y-38574471D02*
X54104256Y-38603042D01*
X54104256Y-38603042D02*
X54089970Y-38631614D01*
X54089970Y-38631614D02*
X54075684Y-38688757D01*
X54075684Y-38688757D02*
X54075684Y-38731614D01*
X54075684Y-38731614D02*
X54089970Y-38788757D01*
X54089970Y-38788757D02*
X54104256Y-38817328D01*
X54104256Y-38817328D02*
X54132827Y-38845900D01*
X54132827Y-38845900D02*
X54175684Y-38860185D01*
X54175684Y-38860185D02*
X54204256Y-38860185D01*
X54204256Y-38860185D02*
X54247113Y-38845900D01*
X54247113Y-38845900D02*
X54261399Y-38831614D01*
X54261399Y-38831614D02*
X54261399Y-38731614D01*
X54261399Y-38731614D02*
X54204256Y-38731614D01*
X54389970Y-38860185D02*
X54389970Y-38560185D01*
X54389970Y-38560185D02*
X54561399Y-38860185D01*
X54561399Y-38860185D02*
X54561399Y-38560185D01*
X54704256Y-38860185D02*
X54704256Y-38560185D01*
X54704256Y-38560185D02*
X54775685Y-38560185D01*
X54775685Y-38560185D02*
X54818542Y-38574471D01*
X54818542Y-38574471D02*
X54847113Y-38603042D01*
X54847113Y-38603042D02*
X54861399Y-38631614D01*
X54861399Y-38631614D02*
X54875685Y-38688757D01*
X54875685Y-38688757D02*
X54875685Y-38731614D01*
X54875685Y-38731614D02*
X54861399Y-38788757D01*
X54861399Y-38788757D02*
X54847113Y-38817328D01*
X54847113Y-38817328D02*
X54818542Y-38845900D01*
X54818542Y-38845900D02*
X54775685Y-38860185D01*
X54775685Y-38860185D02*
X54704256Y-38860185D01*
D10*
X19849274Y-38884409D02*
X19944512Y-38884409D01*
X19944512Y-38884409D02*
X19992131Y-38908219D01*
X19992131Y-38908219D02*
X20039750Y-38955838D01*
X20039750Y-38955838D02*
X20063560Y-39051076D01*
X20063560Y-39051076D02*
X20063560Y-39217742D01*
X20063560Y-39217742D02*
X20039750Y-39312980D01*
X20039750Y-39312980D02*
X19992131Y-39360600D01*
X19992131Y-39360600D02*
X19944512Y-39384409D01*
X19944512Y-39384409D02*
X19849274Y-39384409D01*
X19849274Y-39384409D02*
X19801655Y-39360600D01*
X19801655Y-39360600D02*
X19754036Y-39312980D01*
X19754036Y-39312980D02*
X19730227Y-39217742D01*
X19730227Y-39217742D02*
X19730227Y-39051076D01*
X19730227Y-39051076D02*
X19754036Y-38955838D01*
X19754036Y-38955838D02*
X19801655Y-38908219D01*
X19801655Y-38908219D02*
X19849274Y-38884409D01*
X20277846Y-38884409D02*
X20277846Y-39289171D01*
X20277846Y-39289171D02*
X20301656Y-39336790D01*
X20301656Y-39336790D02*
X20325465Y-39360600D01*
X20325465Y-39360600D02*
X20373084Y-39384409D01*
X20373084Y-39384409D02*
X20468322Y-39384409D01*
X20468322Y-39384409D02*
X20515941Y-39360600D01*
X20515941Y-39360600D02*
X20539751Y-39336790D01*
X20539751Y-39336790D02*
X20563560Y-39289171D01*
X20563560Y-39289171D02*
X20563560Y-38884409D01*
X20730228Y-38884409D02*
X21015942Y-38884409D01*
X20873085Y-39384409D02*
X20873085Y-38884409D01*
X14165941Y-33234409D02*
X13880227Y-33234409D01*
X14023084Y-33234409D02*
X14023084Y-32734409D01*
X14023084Y-32734409D02*
X13975465Y-32805838D01*
X13975465Y-32805838D02*
X13927846Y-32853457D01*
X13927846Y-32853457D02*
X13880227Y-32877266D01*
X14308798Y-32734409D02*
X14475464Y-33234409D01*
X14475464Y-33234409D02*
X14642131Y-32734409D01*
X14880226Y-32948695D02*
X14832607Y-32924885D01*
X14832607Y-32924885D02*
X14808797Y-32901076D01*
X14808797Y-32901076D02*
X14784988Y-32853457D01*
X14784988Y-32853457D02*
X14784988Y-32829647D01*
X14784988Y-32829647D02*
X14808797Y-32782028D01*
X14808797Y-32782028D02*
X14832607Y-32758219D01*
X14832607Y-32758219D02*
X14880226Y-32734409D01*
X14880226Y-32734409D02*
X14975464Y-32734409D01*
X14975464Y-32734409D02*
X15023083Y-32758219D01*
X15023083Y-32758219D02*
X15046892Y-32782028D01*
X15046892Y-32782028D02*
X15070702Y-32829647D01*
X15070702Y-32829647D02*
X15070702Y-32853457D01*
X15070702Y-32853457D02*
X15046892Y-32901076D01*
X15046892Y-32901076D02*
X15023083Y-32924885D01*
X15023083Y-32924885D02*
X14975464Y-32948695D01*
X14975464Y-32948695D02*
X14880226Y-32948695D01*
X14880226Y-32948695D02*
X14832607Y-32972504D01*
X14832607Y-32972504D02*
X14808797Y-32996314D01*
X14808797Y-32996314D02*
X14784988Y-33043933D01*
X14784988Y-33043933D02*
X14784988Y-33139171D01*
X14784988Y-33139171D02*
X14808797Y-33186790D01*
X14808797Y-33186790D02*
X14832607Y-33210600D01*
X14832607Y-33210600D02*
X14880226Y-33234409D01*
X14880226Y-33234409D02*
X14975464Y-33234409D01*
X14975464Y-33234409D02*
X15023083Y-33210600D01*
X15023083Y-33210600D02*
X15046892Y-33186790D01*
X15046892Y-33186790D02*
X15070702Y-33139171D01*
X15070702Y-33139171D02*
X15070702Y-33043933D01*
X15070702Y-33043933D02*
X15046892Y-32996314D01*
X15046892Y-32996314D02*
X15023083Y-32972504D01*
X15023083Y-32972504D02*
X14975464Y-32948695D01*
X16613408Y-22783609D02*
X16780074Y-23283609D01*
X16780074Y-23283609D02*
X16946741Y-22783609D01*
X17113407Y-23283609D02*
X17113407Y-22783609D01*
X17327693Y-22831228D02*
X17351502Y-22807419D01*
X17351502Y-22807419D02*
X17399121Y-22783609D01*
X17399121Y-22783609D02*
X17518169Y-22783609D01*
X17518169Y-22783609D02*
X17565788Y-22807419D01*
X17565788Y-22807419D02*
X17589597Y-22831228D01*
X17589597Y-22831228D02*
X17613407Y-22878847D01*
X17613407Y-22878847D02*
X17613407Y-22926466D01*
X17613407Y-22926466D02*
X17589597Y-22997895D01*
X17589597Y-22997895D02*
X17303883Y-23283609D01*
X17303883Y-23283609D02*
X17613407Y-23283609D01*
D11*
X54117913Y-28803671D02*
X54089342Y-28789385D01*
X54089342Y-28789385D02*
X54046484Y-28789385D01*
X54046484Y-28789385D02*
X54003627Y-28803671D01*
X54003627Y-28803671D02*
X53975056Y-28832242D01*
X53975056Y-28832242D02*
X53960770Y-28860814D01*
X53960770Y-28860814D02*
X53946484Y-28917957D01*
X53946484Y-28917957D02*
X53946484Y-28960814D01*
X53946484Y-28960814D02*
X53960770Y-29017957D01*
X53960770Y-29017957D02*
X53975056Y-29046528D01*
X53975056Y-29046528D02*
X54003627Y-29075100D01*
X54003627Y-29075100D02*
X54046484Y-29089385D01*
X54046484Y-29089385D02*
X54075056Y-29089385D01*
X54075056Y-29089385D02*
X54117913Y-29075100D01*
X54117913Y-29075100D02*
X54132199Y-29060814D01*
X54132199Y-29060814D02*
X54132199Y-28960814D01*
X54132199Y-28960814D02*
X54075056Y-28960814D01*
X54260770Y-29089385D02*
X54260770Y-28789385D01*
X54260770Y-28789385D02*
X54432199Y-29089385D01*
X54432199Y-29089385D02*
X54432199Y-28789385D01*
X54575056Y-29089385D02*
X54575056Y-28789385D01*
X54575056Y-28789385D02*
X54646485Y-28789385D01*
X54646485Y-28789385D02*
X54689342Y-28803671D01*
X54689342Y-28803671D02*
X54717913Y-28832242D01*
X54717913Y-28832242D02*
X54732199Y-28860814D01*
X54732199Y-28860814D02*
X54746485Y-28917957D01*
X54746485Y-28917957D02*
X54746485Y-28960814D01*
X54746485Y-28960814D02*
X54732199Y-29017957D01*
X54732199Y-29017957D02*
X54717913Y-29046528D01*
X54717913Y-29046528D02*
X54689342Y-29075100D01*
X54689342Y-29075100D02*
X54646485Y-29089385D01*
X54646485Y-29089385D02*
X54575056Y-29089385D01*
X56697113Y-33160185D02*
X56797113Y-33460185D01*
X56797113Y-33460185D02*
X56897113Y-33160185D01*
X57097113Y-33303042D02*
X56997113Y-33303042D01*
X56997113Y-33460185D02*
X56997113Y-33160185D01*
X56997113Y-33160185D02*
X57139970Y-33160185D01*
X57239970Y-33188757D02*
X57254256Y-33174471D01*
X57254256Y-33174471D02*
X57282828Y-33160185D01*
X57282828Y-33160185D02*
X57354256Y-33160185D01*
X57354256Y-33160185D02*
X57382828Y-33174471D01*
X57382828Y-33174471D02*
X57397113Y-33188757D01*
X57397113Y-33188757D02*
X57411399Y-33217328D01*
X57411399Y-33217328D02*
X57411399Y-33245900D01*
X57411399Y-33245900D02*
X57397113Y-33288757D01*
X57397113Y-33288757D02*
X57225685Y-33460185D01*
X57225685Y-33460185D02*
X57411399Y-33460185D01*
X59247113Y-33160185D02*
X59347113Y-33460185D01*
X59347113Y-33460185D02*
X59447113Y-33160185D01*
X59647113Y-33303042D02*
X59547113Y-33303042D01*
X59547113Y-33460185D02*
X59547113Y-33160185D01*
X59547113Y-33160185D02*
X59689970Y-33160185D01*
X59961399Y-33460185D02*
X59789970Y-33460185D01*
X59875685Y-33460185D02*
X59875685Y-33160185D01*
X59875685Y-33160185D02*
X59847113Y-33203042D01*
X59847113Y-33203042D02*
X59818542Y-33231614D01*
X59818542Y-33231614D02*
X59789970Y-33245900D01*
X56597113Y-38560185D02*
X56697113Y-38860185D01*
X56697113Y-38860185D02*
X56797113Y-38560185D01*
X57068542Y-38831614D02*
X57054256Y-38845900D01*
X57054256Y-38845900D02*
X57011399Y-38860185D01*
X57011399Y-38860185D02*
X56982827Y-38860185D01*
X56982827Y-38860185D02*
X56939970Y-38845900D01*
X56939970Y-38845900D02*
X56911399Y-38817328D01*
X56911399Y-38817328D02*
X56897113Y-38788757D01*
X56897113Y-38788757D02*
X56882827Y-38731614D01*
X56882827Y-38731614D02*
X56882827Y-38688757D01*
X56882827Y-38688757D02*
X56897113Y-38631614D01*
X56897113Y-38631614D02*
X56911399Y-38603042D01*
X56911399Y-38603042D02*
X56939970Y-38574471D01*
X56939970Y-38574471D02*
X56982827Y-38560185D01*
X56982827Y-38560185D02*
X57011399Y-38560185D01*
X57011399Y-38560185D02*
X57054256Y-38574471D01*
X57054256Y-38574471D02*
X57068542Y-38588757D01*
X57197113Y-38860185D02*
X57197113Y-38560185D01*
X57197113Y-38560185D02*
X57297113Y-38774471D01*
X57297113Y-38774471D02*
X57397113Y-38560185D01*
X57397113Y-38560185D02*
X57397113Y-38860185D01*
X56697113Y-28860185D02*
X56797113Y-29160185D01*
X56797113Y-29160185D02*
X56897113Y-28860185D01*
X57168542Y-29131614D02*
X57154256Y-29145900D01*
X57154256Y-29145900D02*
X57111399Y-29160185D01*
X57111399Y-29160185D02*
X57082827Y-29160185D01*
X57082827Y-29160185D02*
X57039970Y-29145900D01*
X57039970Y-29145900D02*
X57011399Y-29117328D01*
X57011399Y-29117328D02*
X56997113Y-29088757D01*
X56997113Y-29088757D02*
X56982827Y-29031614D01*
X56982827Y-29031614D02*
X56982827Y-28988757D01*
X56982827Y-28988757D02*
X56997113Y-28931614D01*
X56997113Y-28931614D02*
X57011399Y-28903042D01*
X57011399Y-28903042D02*
X57039970Y-28874471D01*
X57039970Y-28874471D02*
X57082827Y-28860185D01*
X57082827Y-28860185D02*
X57111399Y-28860185D01*
X57111399Y-28860185D02*
X57154256Y-28874471D01*
X57154256Y-28874471D02*
X57168542Y-28888757D01*
X57297113Y-29160185D02*
X57297113Y-28860185D01*
X57297113Y-28860185D02*
X57397113Y-29074471D01*
X57397113Y-29074471D02*
X57497113Y-28860185D01*
X57497113Y-28860185D02*
X57497113Y-29160185D01*
D12*
%TO.C,J4*%
X60858000Y-28624600D02*
X59528000Y-28624600D01*
X60858000Y-27294600D02*
X60858000Y-28624600D01*
X60858000Y-26024600D02*
X58258000Y-26024600D01*
X60858000Y-23424600D02*
X60858000Y-26024600D01*
X60858000Y-23424600D02*
X53118000Y-23424600D01*
X58258000Y-28624600D02*
X53118000Y-28624600D01*
X58258000Y-26024600D02*
X58258000Y-28624600D01*
X53118000Y-23424600D02*
X53118000Y-28624600D01*
%TO.C,R11*%
X28366200Y-35930041D02*
X28366200Y-35622759D01*
X27606200Y-35930041D02*
X27606200Y-35622759D01*
%TO.C,J7*%
X20817400Y-38634800D02*
X13077400Y-38634800D01*
X20817400Y-36034800D02*
X20817400Y-38634800D01*
X20817400Y-33434800D02*
X20817400Y-34764800D01*
X19487400Y-33434800D02*
X20817400Y-33434800D01*
X18217400Y-36034800D02*
X20817400Y-36034800D01*
X18217400Y-33434800D02*
X18217400Y-36034800D01*
X18217400Y-33434800D02*
X13077400Y-33434800D01*
X13077400Y-33434800D02*
X13077400Y-38634800D01*
%TO.C,R13*%
X48543641Y-36820000D02*
X48236359Y-36820000D01*
X48543641Y-37580000D02*
X48236359Y-37580000D01*
%TO.C,C2*%
X33349420Y-26110000D02*
X33630580Y-26110000D01*
X33349420Y-25090000D02*
X33630580Y-25090000D01*
D13*
%TO.C,U3*%
X40747800Y-36553200D02*
G75*
G02*
X40547800Y-36553200I-100000J0D01*
G01*
X40547800Y-36553200D02*
G75*
G02*
X40747800Y-36553200I100000J0D01*
G01*
D14*
X38567800Y-36953200D02*
X37907800Y-36953200D01*
X37907800Y-34053200D02*
X38567800Y-34053200D01*
X37437800Y-35838200D02*
X37437800Y-35168200D01*
D12*
%TO.C,R20*%
X35305400Y-36939559D02*
X35305400Y-37246841D01*
X34545400Y-36939559D02*
X34545400Y-37246841D01*
D15*
%TO.C,U7*%
X21082901Y-26791001D02*
X21082901Y-25241601D01*
X19127101Y-25241601D02*
X19127101Y-26791001D01*
D12*
%TO.C,C9*%
X41411252Y-23015000D02*
X40888748Y-23015000D01*
X41411252Y-24485000D02*
X40888748Y-24485000D01*
%TO.C,R22*%
X31109400Y-34606759D02*
X31109400Y-34914041D01*
X30349400Y-34606759D02*
X30349400Y-34914041D01*
%TO.C,R4*%
X20482841Y-12813800D02*
X20175559Y-12813800D01*
X20482841Y-13573800D02*
X20175559Y-13573800D01*
%TO.C,R9*%
X36050000Y-26163641D02*
X36050000Y-25856359D01*
X35290000Y-26163641D02*
X35290000Y-25856359D01*
%TO.C,R3*%
X48632841Y-12770800D02*
X48325559Y-12770800D01*
X48632841Y-13530800D02*
X48325559Y-13530800D01*
%TO.C,R16*%
X38580000Y-25136359D02*
X38580000Y-25443641D01*
X37820000Y-25136359D02*
X37820000Y-25443641D01*
%TO.C,C8*%
X52165400Y-24398148D02*
X52165400Y-24920652D01*
X50695400Y-24398148D02*
X50695400Y-24920652D01*
D15*
%TO.C,L1*%
X52789200Y-13150800D02*
G75*
G02*
X52636800Y-13150800I-76200J0D01*
G01*
X52636800Y-13150800D02*
G75*
G02*
X52789200Y-13150800I76200J0D01*
G01*
D12*
%TO.C,D1*%
X56659200Y-12650800D02*
X56659200Y-13850800D01*
X58619200Y-12650800D02*
X56659200Y-12650800D01*
X58619200Y-13850800D02*
X56659200Y-13850800D01*
%TO.C,C5*%
X42035580Y-33830000D02*
X41754420Y-33830000D01*
X42035580Y-32810000D02*
X41754420Y-32810000D01*
%TO.C,R19*%
X39999400Y-38391841D02*
X39999400Y-38084559D01*
X39239400Y-38391841D02*
X39239400Y-38084559D01*
%TO.C,D3*%
X42959200Y-12650800D02*
X42959200Y-13850800D01*
X44919200Y-12650800D02*
X42959200Y-12650800D01*
X44919200Y-13850800D02*
X42959200Y-13850800D01*
%TO.C,U2*%
X49447500Y-32715000D02*
X47947500Y-32715000D01*
X49447500Y-32715000D02*
X50947500Y-32715000D01*
X49447500Y-35935000D02*
X47947500Y-35935000D01*
X49447500Y-35935000D02*
X50947500Y-35935000D01*
X51900000Y-36140000D02*
X51420000Y-36140000D01*
X51660000Y-35810000D01*
X51900000Y-36140000D01*
G36*
X51900000Y-36140000D02*
G01*
X51420000Y-36140000D01*
X51660000Y-35810000D01*
X51900000Y-36140000D01*
G37*
D13*
%TO.C,U5*%
X45818200Y-23623800D02*
G75*
G02*
X45618200Y-23623800I-100000J0D01*
G01*
X45618200Y-23623800D02*
G75*
G02*
X45818200Y-23623800I100000J0D01*
G01*
D14*
X48928200Y-24338800D02*
X48928200Y-25008800D01*
X48458200Y-26123800D02*
X47798200Y-26123800D01*
X47798200Y-23223800D02*
X48458200Y-23223800D01*
%TO.C,U6*%
X40544400Y-25322600D02*
X41204400Y-25322600D01*
X41204400Y-28222600D02*
X40544400Y-28222600D01*
X41674400Y-26437600D02*
X41674400Y-27107600D01*
D13*
X38564400Y-25722600D02*
G75*
G02*
X38364400Y-25722600I-100000J0D01*
G01*
X38364400Y-25722600D02*
G75*
G02*
X38564400Y-25722600I100000J0D01*
G01*
D12*
%TO.C,R15*%
X45830000Y-24356359D02*
X45830000Y-24663641D01*
X45070000Y-24356359D02*
X45070000Y-24663641D01*
%TO.C,C4*%
X25108052Y-38897000D02*
X24585548Y-38897000D01*
X25108052Y-37427000D02*
X24585548Y-37427000D01*
%TO.C,R8*%
X36060000Y-28663641D02*
X36060000Y-28356359D01*
X35300000Y-28663641D02*
X35300000Y-28356359D01*
%TO.C,R23*%
X44694159Y-28305800D02*
X45001441Y-28305800D01*
X44694159Y-27545800D02*
X45001441Y-27545800D01*
%TO.C,C10*%
X45975000Y-35738748D02*
X45975000Y-36261252D01*
X44505000Y-35738748D02*
X44505000Y-36261252D01*
%TO.C,C11*%
X33293200Y-35568252D02*
X33293200Y-35045748D01*
X31823200Y-35568252D02*
X31823200Y-35045748D01*
%TO.C,R6*%
X30860000Y-28573641D02*
X30860000Y-28266359D01*
X31620000Y-28573641D02*
X31620000Y-28266359D01*
%TO.C,R24*%
X47109159Y-28305800D02*
X47416441Y-28305800D01*
X47109159Y-27545800D02*
X47416441Y-27545800D01*
%TO.C,R2*%
X28889200Y-15594441D02*
X28889200Y-15287159D01*
X29649200Y-15594441D02*
X29649200Y-15287159D01*
%TO.C,C7*%
X31911252Y-24545000D02*
X31388748Y-24545000D01*
X31911252Y-23075000D02*
X31388748Y-23075000D01*
D13*
%TO.C,U8*%
X22069000Y-23649000D02*
G75*
G02*
X21869000Y-23649000I-100000J0D01*
G01*
X21869000Y-23649000D02*
G75*
G02*
X22069000Y-23649000I100000J0D01*
G01*
D14*
X24059000Y-28479000D02*
X27959000Y-28479000D01*
X24059000Y-23429000D02*
X27959000Y-23429000D01*
D12*
%TO.C,R5*%
X43176400Y-15961641D02*
X43176400Y-15654359D01*
X43936400Y-15961641D02*
X43936400Y-15654359D01*
%TO.C,D2*%
X28693200Y-12670000D02*
X28693200Y-13870000D01*
X30653200Y-12670000D02*
X28693200Y-12670000D01*
X30653200Y-13870000D02*
X28693200Y-13870000D01*
D15*
%TO.C,L2*%
X21451600Y-13193800D02*
G75*
G02*
X21299200Y-13193800I-76200J0D01*
G01*
X21299200Y-13193800D02*
G75*
G02*
X21451600Y-13193800I76200J0D01*
G01*
D13*
%TO.C,U1*%
X22765600Y-34130000D02*
G75*
G02*
X22565600Y-34130000I-100000J0D01*
G01*
X22565600Y-34130000D02*
G75*
G02*
X22765600Y-34130000I100000J0D01*
G01*
D14*
X25875600Y-34845000D02*
X25875600Y-35515000D01*
X25405600Y-36630000D02*
X24745600Y-36630000D01*
X24745600Y-33730000D02*
X25405600Y-33730000D01*
D12*
%TO.C,C3*%
X29794000Y-35669164D02*
X29794000Y-35884836D01*
X29074000Y-35669164D02*
X29074000Y-35884836D01*
%TO.C,C6*%
X41933748Y-38668400D02*
X42456252Y-38668400D01*
X41933748Y-37198400D02*
X42456252Y-37198400D01*
%TO.C,R12*%
X50706359Y-37600000D02*
X51013641Y-37600000D01*
X50706359Y-36840000D02*
X51013641Y-36840000D01*
%TO.C,R21*%
X28647359Y-33512800D02*
X28954641Y-33512800D01*
X28647359Y-32752800D02*
X28954641Y-32752800D01*
%TO.C,J1*%
X13168800Y-15985000D02*
X13168800Y-13385000D01*
X13168800Y-18585000D02*
X13168800Y-17255000D01*
X14498800Y-18585000D02*
X13168800Y-18585000D01*
X15768800Y-15985000D02*
X13168800Y-15985000D01*
X15768800Y-18585000D02*
X15768800Y-15985000D01*
X18368800Y-13385000D02*
X13168800Y-13385000D01*
X18368800Y-18585000D02*
X15768800Y-18585000D01*
X18368800Y-18585000D02*
X18368800Y-13385000D01*
%TO.C,R10*%
X28061641Y-38542000D02*
X27754359Y-38542000D01*
X28061641Y-37782000D02*
X27754359Y-37782000D01*
%TO.C,R7*%
X31640000Y-26033641D02*
X31640000Y-25726359D01*
X30880000Y-26033641D02*
X30880000Y-25726359D01*
%TO.C,R14*%
X35305400Y-34884159D02*
X35305400Y-35191441D01*
X34545400Y-34884159D02*
X34545400Y-35191441D01*
%TO.C,R1*%
X56889200Y-15714441D02*
X56889200Y-15407159D01*
X57649200Y-15714441D02*
X57649200Y-15407159D01*
%TO.C,C1*%
X33184420Y-29210000D02*
X33465580Y-29210000D01*
X33184420Y-28190000D02*
X33465580Y-28190000D01*
%TD*%
M02*
