M48
; DRILL file {KiCad 8.0.6} date 2024-11-12T19:13:33+0100
; FORMAT={-:-/ absolute / inch / decimal}
; #@! TF.CreationDate,2024-11-12T19:13:33+01:00
; #@! TF.GenerationSoftware,Kicad,Pcbnew,8.0.6
; #@! TF.FileFunction,Plated,1,2,PTH
FMAT,2
INCH
; #@! TA.AperFunction,Plated,PTH,ViaDrill
T1C0.0118
; #@! TA.AperFunction,Plated,PTH,ComponentDrill
T2C0.0394
; #@! TA.AperFunction,Plated,PTH,ComponentDrill
T3C0.1524
%
G90
G05
T1
X0.5708Y-0.75
X0.5714Y-1.146
X0.6668Y-1.5384
X0.7872Y-0.9548
X0.8002Y-1.0878
X0.8461Y-0.9189
X0.8511Y-1.3032
X0.8562Y-1.1148
X0.9872Y-1.385
X1.0328Y-0.9724
X1.1152Y-1.3493
X1.1588Y-1.4654
X1.1842Y-1.1378
X1.1938Y-1.4764
X1.1948Y-1.0334
X1.2198Y-1.4344
X1.2538Y-0.5224
X1.2818Y-1.4788
X1.3332Y-0.9398
X1.3348Y-1.3514
X1.3388Y-1.4444
X1.3678Y-1.2963
X1.4208Y-1.3994
X1.4252Y-0.9685
X1.4392Y-1.3146
X1.4665Y-1.1154
X1.502Y-1.0551
X1.5114Y-1.4794
X1.5394Y-0.935
X1.6102Y-1.3677
X1.649Y-1.4321
X1.7197Y-1.3976
X1.7278Y-1.0073
X1.7284Y-1.0611
X1.7437Y-1.4976
X1.8216Y-0.5197
X1.8339Y-1.4551
X1.8632Y-1.06
X1.9328Y-1.0604
X1.9724Y-1.313
X1.9732Y-1.1185
X1.9848Y-1.0844
X2.0248Y-1.0594
X2.0608Y-1.0974
X2.0803Y-1.4976
X2.2079Y-1.1425
X2.276Y-1.5384
X2.3511Y-0.5197
T2
X0.5672Y-1.3687
X0.5672Y-1.4687
X0.5708Y-0.5793
X0.5708Y-0.6793
X0.5708Y-0.9746
X0.5708Y-1.0746
X0.6672Y-1.3687
X0.6672Y-1.4687
X0.6708Y-0.5793
X0.6708Y-0.6793
X0.6708Y-0.9746
X0.6708Y-1.0746
X0.7672Y-1.3687
X0.7672Y-1.4687
X2.1436Y-0.9746
X2.1436Y-1.0746
X2.1436Y-1.3689
X2.1436Y-1.4689
X2.2436Y-0.9746
X2.2436Y-1.0746
X2.2436Y-1.3689
X2.2436Y-1.4689
X2.3436Y-0.9746
X2.3436Y-1.0746
X2.3436Y-1.3689
X2.3436Y-1.4689
T3
X1.0027Y-0.6326
X1.5748Y-0.6326
X2.1051Y-0.6326
M30
