%TF.GenerationSoftware,KiCad,Pcbnew,8.0.5-8.0.5-0~ubuntu22.04.1*%
%TF.CreationDate,2024-10-28T16:31:21+01:00*%
%TF.ProjectId,EMG_amplifier,454d475f-616d-4706-9c69-666965722e6b,rev?*%
%TF.SameCoordinates,Original*%
%TF.FileFunction,Paste,Top*%
%TF.FilePolarity,Positive*%
%FSLAX46Y46*%
G04 Gerber Fmt 4.6, Leading zero omitted, Abs format (unit mm)*
G04 Created by KiCad (PCBNEW 8.0.5-8.0.5-0~ubuntu22.04.1) date 2024-10-28 16:31:21*
%MOMM*%
%LPD*%
G01*
G04 APERTURE LIST*
G04 Aperture macros list*
%AMRoundRect*
0 Rectangle with rounded corners*
0 $1 Rounding radius*
0 $2 $3 $4 $5 $6 $7 $8 $9 X,Y pos of 4 corners*
0 Add a 4 corners polygon primitive as box body*
4,1,4,$2,$3,$4,$5,$6,$7,$8,$9,$2,$3,0*
0 Add four circle primitives for the rounded corners*
1,1,$1+$1,$2,$3*
1,1,$1+$1,$4,$5*
1,1,$1+$1,$6,$7*
1,1,$1+$1,$8,$9*
0 Add four rect primitives between the rounded corners*
20,1,$1+$1,$2,$3,$4,$5,0*
20,1,$1+$1,$4,$5,$6,$7,0*
20,1,$1+$1,$6,$7,$8,$9,0*
20,1,$1+$1,$8,$9,$2,$3,0*%
G04 Aperture macros list end*
%ADD10RoundRect,0.147500X-0.457500X-0.147500X0.457500X-0.147500X0.457500X0.147500X-0.457500X0.147500X0*%
%ADD11RoundRect,0.135000X0.185000X-0.135000X0.185000X0.135000X-0.185000X0.135000X-0.185000X-0.135000X0*%
%ADD12RoundRect,0.225000X-0.225000X-0.250000X0.225000X-0.250000X0.225000X0.250000X-0.225000X0.250000X0*%
%ADD13RoundRect,0.147500X0.457500X0.147500X-0.457500X0.147500X-0.457500X-0.147500X0.457500X-0.147500X0*%
%ADD14RoundRect,0.135000X-0.185000X0.135000X-0.185000X-0.135000X0.185000X-0.135000X0.185000X0.135000X0*%
%ADD15R,0.204000X0.353200*%
%ADD16RoundRect,0.135000X0.135000X0.185000X-0.135000X0.185000X-0.135000X-0.185000X0.135000X-0.185000X0*%
%ADD17RoundRect,0.250000X-0.475000X0.250000X-0.475000X-0.250000X0.475000X-0.250000X0.475000X0.250000X0*%
%ADD18R,0.711200X0.558800*%
%ADD19RoundRect,0.150000X-0.200000X0.150000X-0.200000X-0.150000X0.200000X-0.150000X0.200000X0.150000X0*%
%ADD20RoundRect,0.225000X0.225000X0.250000X-0.225000X0.250000X-0.225000X-0.250000X0.225000X-0.250000X0*%
%ADD21RoundRect,0.150000X-0.150000X-0.200000X0.150000X-0.200000X0.150000X0.200000X-0.150000X0.200000X0*%
%ADD22RoundRect,0.125000X0.687500X0.125000X-0.687500X0.125000X-0.687500X-0.125000X0.687500X-0.125000X0*%
%ADD23RoundRect,0.250000X0.250000X0.475000X-0.250000X0.475000X-0.250000X-0.475000X0.250000X-0.475000X0*%
%ADD24RoundRect,0.135000X-0.135000X-0.185000X0.135000X-0.185000X0.135000X0.185000X-0.135000X0.185000X0*%
%ADD25RoundRect,0.250000X-0.250000X-0.475000X0.250000X-0.475000X0.250000X0.475000X-0.250000X0.475000X0*%
%ADD26RoundRect,0.250000X0.475000X-0.250000X0.475000X0.250000X-0.475000X0.250000X-0.475000X-0.250000X0*%
%ADD27RoundRect,0.075000X-0.910000X-0.225000X0.910000X-0.225000X0.910000X0.225000X-0.910000X0.225000X0*%
%ADD28RoundRect,0.150000X0.150000X0.200000X-0.150000X0.200000X-0.150000X-0.200000X0.150000X-0.200000X0*%
%ADD29RoundRect,0.140000X-0.170000X0.140000X-0.170000X-0.140000X0.170000X-0.140000X0.170000X0.140000X0*%
G04 APERTURE END LIST*
D10*
%TO.C,U6*%
X84150200Y-96321800D03*
X84150200Y-97271800D03*
X84150200Y-98221800D03*
X86660200Y-98221800D03*
X86660200Y-96321800D03*
%TD*%
%TO.C,U5*%
X91404000Y-94223000D03*
X91404000Y-95173000D03*
X91404000Y-96123000D03*
X93914000Y-96123000D03*
X93914000Y-94223000D03*
%TD*%
D11*
%TO.C,R11*%
X72517000Y-106785600D03*
X72517000Y-105765600D03*
%TD*%
%TO.C,R13*%
X89255600Y-106959400D03*
X89255600Y-105939400D03*
%TD*%
D12*
%TO.C,C2*%
X78117400Y-96316800D03*
X79667400Y-96316800D03*
%TD*%
D13*
%TO.C,U3*%
X84023600Y-106952400D03*
X84023600Y-106002400D03*
X84023600Y-105052400D03*
X81513600Y-105052400D03*
X81513600Y-106952400D03*
%TD*%
D14*
%TO.C,R20*%
X79456200Y-107082400D03*
X79456200Y-108102400D03*
%TD*%
D15*
%TO.C,U7*%
X64135802Y-97339802D03*
X64635801Y-97339802D03*
X65135800Y-97339802D03*
X65135800Y-95691200D03*
X64135802Y-95691200D03*
%TD*%
D14*
%TO.C,R22*%
X75260200Y-104749600D03*
X75260200Y-105769600D03*
%TD*%
D16*
%TO.C,R4*%
X65790000Y-83693000D03*
X64770000Y-83693000D03*
%TD*%
D11*
%TO.C,R9*%
X81076800Y-97159000D03*
X81076800Y-96139000D03*
%TD*%
D16*
%TO.C,R3*%
X96447800Y-83896200D03*
X95427800Y-83896200D03*
%TD*%
%TO.C,R16*%
X83489800Y-94335600D03*
X82469800Y-94335600D03*
%TD*%
D17*
%TO.C,C8*%
X95961200Y-94208600D03*
X95961200Y-96108600D03*
%TD*%
D18*
%TO.C,L1*%
X100965000Y-83870800D03*
X99923600Y-83870800D03*
%TD*%
D19*
%TO.C,D1*%
X103403400Y-85242400D03*
X103403400Y-83842400D03*
%TD*%
D20*
%TO.C,C5*%
X87389000Y-103759000D03*
X85839000Y-103759000D03*
%TD*%
D11*
%TO.C,R19*%
X84150200Y-109247400D03*
X84150200Y-108227400D03*
%TD*%
D21*
%TO.C,D3*%
X82197400Y-83769200D03*
X80797400Y-83769200D03*
%TD*%
D22*
%TO.C,U2*%
X95279700Y-105826200D03*
X95279700Y-105176200D03*
X95279700Y-104526200D03*
X95279700Y-103876200D03*
X91054700Y-103876200D03*
X91054700Y-104526200D03*
X91054700Y-105176200D03*
X91054700Y-105826200D03*
%TD*%
D14*
%TO.C,R15*%
X89875400Y-95763400D03*
X89875400Y-96783400D03*
%TD*%
D23*
%TO.C,C4*%
X70327600Y-108661200D03*
X68427600Y-108661200D03*
%TD*%
D11*
%TO.C,R8*%
X81040700Y-99582700D03*
X81040700Y-98562700D03*
%TD*%
D24*
%TO.C,R23*%
X88868600Y-98425000D03*
X89888600Y-98425000D03*
%TD*%
D25*
%TO.C,C10*%
X92384800Y-108204000D03*
X94284800Y-108204000D03*
%TD*%
D26*
%TO.C,C11*%
X77089000Y-106756200D03*
X77089000Y-104856200D03*
%TD*%
D11*
%TO.C,R6*%
X76210200Y-99348800D03*
X76210200Y-98328800D03*
%TD*%
D24*
%TO.C,R24*%
X91283600Y-98425000D03*
X92303600Y-98425000D03*
%TD*%
D11*
%TO.C,R2*%
X73812400Y-86766400D03*
X73812400Y-85746400D03*
%TD*%
D23*
%TO.C,C7*%
X78292600Y-94344400D03*
X76392600Y-94344400D03*
%TD*%
D27*
%TO.C,U8*%
X68069800Y-94548200D03*
X68069800Y-95818200D03*
X68069800Y-97088200D03*
X68069800Y-98358200D03*
X73009800Y-98358200D03*
X73009800Y-97088200D03*
X73009800Y-95818200D03*
X73009800Y-94548200D03*
%TD*%
D11*
%TO.C,R5*%
X88087200Y-86817200D03*
X88087200Y-85797200D03*
%TD*%
D28*
%TO.C,D2*%
X73784000Y-83769200D03*
X75184000Y-83769200D03*
%TD*%
D18*
%TO.C,L2*%
X67538600Y-83693000D03*
X68580000Y-83693000D03*
%TD*%
D10*
%TO.C,U1*%
X68351400Y-104729200D03*
X68351400Y-105679200D03*
X68351400Y-106629200D03*
X70861400Y-106629200D03*
X70861400Y-104729200D03*
%TD*%
D23*
%TO.C,C12*%
X88097400Y-94488000D03*
X86197400Y-94488000D03*
%TD*%
D29*
%TO.C,C3*%
X73964800Y-105796200D03*
X73964800Y-106756200D03*
%TD*%
D25*
%TO.C,C6*%
X85775800Y-108432600D03*
X87675800Y-108432600D03*
%TD*%
D11*
%TO.C,R12*%
X97002600Y-106836400D03*
X97002600Y-105816400D03*
%TD*%
D24*
%TO.C,R21*%
X72821800Y-103632000D03*
X73841800Y-103632000D03*
%TD*%
D16*
%TO.C,R10*%
X72948800Y-108661200D03*
X71928800Y-108661200D03*
%TD*%
D11*
%TO.C,R7*%
X76210200Y-96914400D03*
X76210200Y-95894400D03*
%TD*%
D14*
%TO.C,R14*%
X79456200Y-105027000D03*
X79456200Y-106047000D03*
%TD*%
D24*
%TO.C,R1*%
X102362000Y-86766400D03*
X103382000Y-86766400D03*
%TD*%
D12*
%TO.C,C1*%
X77901800Y-99212400D03*
X79451800Y-99212400D03*
%TD*%
M02*
