%TF.GenerationSoftware,KiCad,Pcbnew,8.0.5-8.0.5-0~ubuntu22.04.1*%
%TF.CreationDate,2024-10-23T18:20:19+02:00*%
%TF.ProjectId,EMG_amplifier,454d475f-616d-4706-9c69-666965722e6b,rev?*%
%TF.SameCoordinates,Original*%
%TF.FileFunction,Copper,L1,Top*%
%TF.FilePolarity,Positive*%
%FSLAX46Y46*%
G04 Gerber Fmt 4.6, Leading zero omitted, Abs format (unit mm)*
G04 Created by KiCad (PCBNEW 8.0.5-8.0.5-0~ubuntu22.04.1) date 2024-10-23 18:20:19*
%MOMM*%
%LPD*%
G01*
G04 APERTURE LIST*
G04 Aperture macros list*
%AMRoundRect*
0 Rectangle with rounded corners*
0 $1 Rounding radius*
0 $2 $3 $4 $5 $6 $7 $8 $9 X,Y pos of 4 corners*
0 Add a 4 corners polygon primitive as box body*
4,1,4,$2,$3,$4,$5,$6,$7,$8,$9,$2,$3,0*
0 Add four circle primitives for the rounded corners*
1,1,$1+$1,$2,$3*
1,1,$1+$1,$4,$5*
1,1,$1+$1,$6,$7*
1,1,$1+$1,$8,$9*
0 Add four rect primitives between the rounded corners*
20,1,$1+$1,$2,$3,$4,$5,0*
20,1,$1+$1,$4,$5,$6,$7,0*
20,1,$1+$1,$6,$7,$8,$9,0*
20,1,$1+$1,$8,$9,$2,$3,0*%
G04 Aperture macros list end*
%TA.AperFunction,ComponentPad*%
%ADD10R,1.700000X1.700000*%
%TD*%
%TA.AperFunction,ComponentPad*%
%ADD11O,1.700000X1.700000*%
%TD*%
%TA.AperFunction,SMDPad,CuDef*%
%ADD12RoundRect,0.135000X0.185000X-0.135000X0.185000X0.135000X-0.185000X0.135000X-0.185000X-0.135000X0*%
%TD*%
%TA.AperFunction,SMDPad,CuDef*%
%ADD13RoundRect,0.135000X0.135000X0.185000X-0.135000X0.185000X-0.135000X-0.185000X0.135000X-0.185000X0*%
%TD*%
%TA.AperFunction,SMDPad,CuDef*%
%ADD14RoundRect,0.225000X-0.225000X-0.250000X0.225000X-0.250000X0.225000X0.250000X-0.225000X0.250000X0*%
%TD*%
%TA.AperFunction,SMDPad,CuDef*%
%ADD15RoundRect,0.147500X0.457500X0.147500X-0.457500X0.147500X-0.457500X-0.147500X0.457500X-0.147500X0*%
%TD*%
%TA.AperFunction,SMDPad,CuDef*%
%ADD16RoundRect,0.135000X-0.185000X0.135000X-0.185000X-0.135000X0.185000X-0.135000X0.185000X0.135000X0*%
%TD*%
%TA.AperFunction,SMDPad,CuDef*%
%ADD17R,0.204000X0.353200*%
%TD*%
%TA.AperFunction,SMDPad,CuDef*%
%ADD18R,0.711200X0.558800*%
%TD*%
%TA.AperFunction,SMDPad,CuDef*%
%ADD19RoundRect,0.150000X-0.200000X0.150000X-0.200000X-0.150000X0.200000X-0.150000X0.200000X0.150000X0*%
%TD*%
%TA.AperFunction,SMDPad,CuDef*%
%ADD20RoundRect,0.225000X0.225000X0.250000X-0.225000X0.250000X-0.225000X-0.250000X0.225000X-0.250000X0*%
%TD*%
%TA.AperFunction,SMDPad,CuDef*%
%ADD21RoundRect,0.150000X-0.150000X-0.200000X0.150000X-0.200000X0.150000X0.200000X-0.150000X0.200000X0*%
%TD*%
%TA.AperFunction,SMDPad,CuDef*%
%ADD22RoundRect,0.125000X0.687500X0.125000X-0.687500X0.125000X-0.687500X-0.125000X0.687500X-0.125000X0*%
%TD*%
%TA.AperFunction,SMDPad,CuDef*%
%ADD23RoundRect,0.250000X0.250000X0.475000X-0.250000X0.475000X-0.250000X-0.475000X0.250000X-0.475000X0*%
%TD*%
%TA.AperFunction,SMDPad,CuDef*%
%ADD24RoundRect,0.075000X-0.910000X-0.225000X0.910000X-0.225000X0.910000X0.225000X-0.910000X0.225000X0*%
%TD*%
%TA.AperFunction,SMDPad,CuDef*%
%ADD25RoundRect,0.150000X0.150000X0.200000X-0.150000X0.200000X-0.150000X-0.200000X0.150000X-0.200000X0*%
%TD*%
%TA.AperFunction,SMDPad,CuDef*%
%ADD26RoundRect,0.140000X-0.170000X0.140000X-0.170000X-0.140000X0.170000X-0.140000X0.170000X0.140000X0*%
%TD*%
%TA.AperFunction,SMDPad,CuDef*%
%ADD27RoundRect,0.250000X-0.475000X0.250000X-0.475000X-0.250000X0.475000X-0.250000X0.475000X0.250000X0*%
%TD*%
%TA.AperFunction,SMDPad,CuDef*%
%ADD28RoundRect,0.135000X-0.135000X-0.185000X0.135000X-0.185000X0.135000X0.185000X-0.135000X0.185000X0*%
%TD*%
%TA.AperFunction,SMDPad,CuDef*%
%ADD29RoundRect,0.147500X-0.457500X-0.147500X0.457500X-0.147500X0.457500X0.147500X-0.457500X0.147500X0*%
%TD*%
%TA.AperFunction,ViaPad*%
%ADD30C,0.600000*%
%TD*%
%TA.AperFunction,ViaPad*%
%ADD31C,4.170000*%
%TD*%
%TA.AperFunction,Conductor*%
%ADD32C,0.200000*%
%TD*%
G04 APERTURE END LIST*
D10*
%TO.P,J7,1,Pin_1*%
%TO.N,unconnected-(J7-Pin_1-Pad1)*%
X63982600Y-105003600D03*
D11*
%TO.P,J7,2,Pin_2*%
%TO.N,/Processing_Board/V_EMG_OUT*%
X63982600Y-107543600D03*
%TO.P,J7,3,Pin_3*%
%TO.N,GND*%
X61442600Y-105003600D03*
%TO.P,J7,4,Pin_4*%
X61442600Y-107543600D03*
%TO.P,J7,5,Pin_5*%
%TO.N,+1V8*%
X58902600Y-105003600D03*
%TO.P,J7,6,Pin_6*%
X58902600Y-107543600D03*
%TD*%
D10*
%TO.P,J4,1,Pin_1*%
%TO.N,/Filtering_Board/+V_DD*%
X104044000Y-97790600D03*
D11*
%TO.P,J4,2,Pin_2*%
%TO.N,/Filtering_Board/V_F1*%
X104044000Y-95250600D03*
%TO.P,J4,3,Pin_3*%
%TO.N,/Filtering_Board/V_CM*%
X101504000Y-97790600D03*
%TO.P,J4,4,Pin_4*%
%TO.N,/Filtering_Board/V_F2*%
X101504000Y-95250600D03*
%TO.P,J4,5,Pin_5*%
%TO.N,GND*%
X98964000Y-97790600D03*
%TO.P,J4,6,Pin_6*%
%TO.N,unconnected-(J4-Pin_6-Pad6)*%
X98964000Y-95250600D03*
%TD*%
D12*
%TO.P,R11,1*%
%TO.N,Net-(C4-Pad1)*%
X74686200Y-106349800D03*
%TO.P,R11,2*%
%TO.N,Net-(U1-IN-)*%
X74686200Y-105329800D03*
%TD*%
D13*
%TO.P,R13,1*%
%TO.N,/Processing_Board/V_CM*%
X91926200Y-107823000D03*
%TO.P,R13,2*%
%TO.N,Net-(R13-Pad2)*%
X90906200Y-107823000D03*
%TD*%
D14*
%TO.P,C2,1*%
%TO.N,Net-(U8--INB)*%
X78861800Y-96647600D03*
%TO.P,C2,2*%
%TO.N,/Filtering_Board/V_F2*%
X80411800Y-96647600D03*
%TD*%
D15*
%TO.P,U3,1,OUT*%
%TO.N,Net-(U2-Ref)*%
X83988000Y-106677000D03*
%TO.P,U3,2,V-*%
%TO.N,GND*%
X83988000Y-105727000D03*
%TO.P,U3,3,IN+*%
%TO.N,Net-(U3-IN+)*%
X83988000Y-104777000D03*
%TO.P,U3,4,IN-*%
%TO.N,Net-(U3-IN-)*%
X81478000Y-104777000D03*
%TO.P,U3,5,V+*%
%TO.N,+1V8*%
X81478000Y-106677000D03*
%TD*%
D16*
%TO.P,R20,1*%
%TO.N,Net-(R14-Pad2)*%
X79420600Y-106807000D03*
%TO.P,R20,2*%
%TO.N,/Processing_Board/LPF_400Hz/V_EMG_INA*%
X79420600Y-107827000D03*
%TD*%
D17*
%TO.P,U7,1,VCC*%
%TO.N,/Filtering_Board/+V_DD*%
X64121002Y-97381802D03*
%TO.P,U7,2,NC*%
%TO.N,unconnected-(U7-NC-Pad2)*%
X64621001Y-97381802D03*
%TO.P,U7,3,IO1*%
%TO.N,/Filtering_Board/V_I1*%
X65121000Y-97381802D03*
%TO.P,U7,4,GND*%
%TO.N,GND*%
X65121000Y-95733200D03*
%TO.P,U7,5,IO2*%
%TO.N,/Filtering_Board/V_I2*%
X64121002Y-95733200D03*
%TD*%
D16*
%TO.P,R22,1*%
%TO.N,Net-(U3-IN+)*%
X77399400Y-105333800D03*
%TO.P,R22,2*%
%TO.N,GND*%
X77399400Y-106353800D03*
%TD*%
D13*
%TO.P,R4,1*%
%TO.N,Net-(L2-Pad1)*%
X65790000Y-83693000D03*
%TO.P,R4,2*%
%TO.N,/Electrode_Board/V_I2*%
X64770000Y-83693000D03*
%TD*%
D12*
%TO.P,R9,1*%
%TO.N,Net-(R6-Pad2)*%
X82520000Y-97591400D03*
%TO.P,R9,2*%
%TO.N,/Filtering_Board/V_F2*%
X82520000Y-96571400D03*
%TD*%
D13*
%TO.P,R3,1*%
%TO.N,Net-(L1-Pad2)*%
X96447800Y-83896200D03*
%TO.P,R3,2*%
%TO.N,/Electrode_Board/V_I1*%
X95427800Y-83896200D03*
%TD*%
%TO.P,R16,1*%
%TO.N,Net-(U6-IN-)*%
X84002601Y-94082200D03*
%TO.P,R16,2*%
%TO.N,/Filtering_Board/V_PR*%
X82982601Y-94082200D03*
%TD*%
D18*
%TO.P,L1,1,1*%
%TO.N,Net-(D1-K)*%
X100965000Y-83870800D03*
%TO.P,L1,2,2*%
%TO.N,Net-(L1-Pad2)*%
X99923600Y-83870800D03*
%TD*%
D19*
%TO.P,D1,1,K*%
%TO.N,Net-(D1-K)*%
X103403400Y-85242400D03*
%TO.P,D1,2,A*%
%TO.N,GND*%
X103403400Y-83842400D03*
%TD*%
D20*
%TO.P,C5,1*%
%TO.N,Net-(U2-Ref)*%
X87345400Y-103913400D03*
%TO.P,C5,2*%
%TO.N,Net-(U3-IN-)*%
X85795400Y-103913400D03*
%TD*%
D13*
%TO.P,R19,1*%
%TO.N,Net-(C6-Pad1)*%
X86826800Y-108102400D03*
%TO.P,R19,2*%
%TO.N,Net-(U2-Ref)*%
X85806800Y-108102400D03*
%TD*%
D21*
%TO.P,D3,2,A*%
%TO.N,/Electrode_Board/V_PR*%
X80797400Y-83769200D03*
%TO.P,D3,1,K*%
%TO.N,GND*%
X82197400Y-83769200D03*
%TD*%
D22*
%TO.P,U2,1,Rg*%
%TO.N,Net-(R12-Pad2)*%
X95107800Y-106115400D03*
%TO.P,U2,2,-*%
%TO.N,/Processing_Board/V_F2*%
X95107800Y-105465400D03*
%TO.P,U2,3,+*%
%TO.N,/Processing_Board/V_F1*%
X95107800Y-104815400D03*
%TO.P,U2,4,V-*%
%TO.N,GND*%
X95107800Y-104165400D03*
%TO.P,U2,5,Ref*%
%TO.N,Net-(U2-Ref)*%
X90882800Y-104165400D03*
%TO.P,U2,6*%
%TO.N,/Processing_Board/LPF_400Hz/V_EMG_INA*%
X90882800Y-104815400D03*
%TO.P,U2,7,V+*%
%TO.N,+1V8*%
X90882800Y-105465400D03*
%TO.P,U2,8,Rg*%
%TO.N,Net-(R13-Pad2)*%
X90882800Y-106115400D03*
%TD*%
D16*
%TO.P,R15,1*%
%TO.N,Net-(U5-IN-)*%
X89860600Y-95805400D03*
%TO.P,R15,2*%
%TO.N,Net-(U6-IN-)*%
X89860600Y-96825400D03*
%TD*%
D23*
%TO.P,C4,1*%
%TO.N,Net-(C4-Pad1)*%
X73009800Y-107975400D03*
%TO.P,C4,2*%
%TO.N,/Processing_Board/V_EMG_OUT*%
X71109800Y-107975400D03*
%TD*%
D12*
%TO.P,R8,1*%
%TO.N,/Filtering_Board/V_F1*%
X82520000Y-99572600D03*
%TO.P,R8,2*%
%TO.N,Net-(R6-Pad2)*%
X82520000Y-98552600D03*
%TD*%
%TO.P,R6,1*%
%TO.N,Net-(U8--INA)*%
X76195400Y-99390800D03*
%TO.P,R6,2*%
%TO.N,Net-(R6-Pad2)*%
X76195400Y-98370800D03*
%TD*%
%TO.P,R2,1*%
%TO.N,input_E2*%
X73812400Y-86766400D03*
%TO.P,R2,2*%
%TO.N,Net-(D2-K)*%
X73812400Y-85746400D03*
%TD*%
D24*
%TO.P,U8,1,OUTA*%
%TO.N,Net-(U8--INA)*%
X68055000Y-94590200D03*
%TO.P,U8,2,-INA*%
X68055000Y-95860200D03*
%TO.P,U8,3,+INA*%
%TO.N,/Filtering_Board/V_I1*%
X68055000Y-97130200D03*
%TO.P,U8,4,V-*%
%TO.N,GND*%
X68055000Y-98400200D03*
%TO.P,U8,5,+INB*%
%TO.N,/Filtering_Board/V_I2*%
X72995000Y-98400200D03*
%TO.P,U8,6,-INB*%
%TO.N,Net-(U8--INB)*%
X72995000Y-97130200D03*
%TO.P,U8,7,OUTB*%
X72995000Y-95860200D03*
%TO.P,U8,8,V+*%
%TO.N,/Filtering_Board/+V_DD*%
X72995000Y-94590200D03*
%TD*%
D12*
%TO.P,R5,2*%
%TO.N,GND*%
X88087200Y-85797200D03*
%TO.P,R5,1*%
%TO.N,input_ER*%
X88087200Y-86817200D03*
%TD*%
D25*
%TO.P,D2,1,K*%
%TO.N,Net-(D2-K)*%
X73784000Y-83769200D03*
%TO.P,D2,2,A*%
%TO.N,GND*%
X75184000Y-83769200D03*
%TD*%
D18*
%TO.P,L2,2,2*%
%TO.N,Net-(D2-K)*%
X68580000Y-83693000D03*
%TO.P,L2,1,1*%
%TO.N,Net-(L2-Pad1)*%
X67538600Y-83693000D03*
%TD*%
D26*
%TO.P,C3,1*%
%TO.N,Net-(U1-IN-)*%
X75941700Y-105384600D03*
%TO.P,C3,2*%
%TO.N,GND*%
X75941700Y-106344600D03*
%TD*%
D27*
%TO.P,C6,1*%
%TO.N,Net-(C6-Pad1)*%
X88793200Y-106214600D03*
%TO.P,C6,2*%
%TO.N,GND*%
X88793200Y-108114600D03*
%TD*%
D28*
%TO.P,R12,1*%
%TO.N,/Processing_Board/V_CM*%
X94108600Y-107823000D03*
%TO.P,R12,2*%
%TO.N,Net-(R12-Pad2)*%
X95128600Y-107823000D03*
%TD*%
%TO.P,R21,1*%
%TO.N,+1V8*%
X74681600Y-103936800D03*
%TO.P,R21,2*%
%TO.N,Net-(U3-IN+)*%
X75701600Y-103936800D03*
%TD*%
D10*
%TO.P,J1,1,Pin_1*%
%TO.N,GND*%
X59029600Y-87833200D03*
D11*
%TO.P,J1,2,Pin_2*%
%TO.N,/Electrode_Board/V_I1*%
X61569600Y-87833200D03*
%TO.P,J1,3,Pin_3*%
%TO.N,/Electrode_Board/V_PR*%
X59029600Y-85293200D03*
%TO.P,J1,4,Pin_4*%
%TO.N,/Electrode_Board/V_I2*%
X61569600Y-85293200D03*
%TD*%
D13*
%TO.P,R10,1*%
%TO.N,/Processing_Board/LPF_400Hz/V_EMG_INA*%
X75702200Y-107721400D03*
%TO.P,R10,2*%
%TO.N,Net-(C4-Pad1)*%
X74682200Y-107721400D03*
%TD*%
D12*
%TO.P,R7,1*%
%TO.N,Net-(R6-Pad2)*%
X76195400Y-96956400D03*
%TO.P,R7,2*%
%TO.N,Net-(U8--INB)*%
X76195400Y-95936400D03*
%TD*%
D16*
%TO.P,R14,1*%
%TO.N,Net-(U3-IN-)*%
X79420600Y-104751600D03*
%TO.P,R14,2*%
%TO.N,Net-(R14-Pad2)*%
X79420600Y-105771600D03*
%TD*%
D28*
%TO.P,R1,1*%
%TO.N,input_E1*%
X102383400Y-87172800D03*
%TO.P,R1,2*%
%TO.N,Net-(D1-K)*%
X103403400Y-87172800D03*
%TD*%
D14*
%TO.P,C1,1*%
%TO.N,Net-(U8--INA)*%
X79547600Y-99289200D03*
%TO.P,C1,2*%
%TO.N,/Filtering_Board/V_F1*%
X81097600Y-99289200D03*
%TD*%
D10*
%TO.P,J3,1,Pin_1*%
%TO.N,+1V8*%
X104044000Y-107518200D03*
D11*
%TO.P,J3,2,Pin_2*%
%TO.N,/Processing_Board/V_F1*%
X104044000Y-104978200D03*
%TO.P,J3,3,Pin_3*%
%TO.N,/Processing_Board/V_CM*%
X101504000Y-107518200D03*
%TO.P,J3,4,Pin_4*%
%TO.N,/Processing_Board/V_F2*%
X101504000Y-104978200D03*
%TO.P,J3,5,Pin_5*%
%TO.N,GND*%
X98964000Y-107518200D03*
%TO.P,J3,6,Pin_6*%
%TO.N,unconnected-(J3-Pin_6-Pad6)*%
X98964000Y-104978200D03*
%TD*%
D29*
%TO.P,U1,1,OUT*%
%TO.N,/Processing_Board/V_EMG_OUT*%
X68305200Y-104195800D03*
%TO.P,U1,2,V-*%
%TO.N,GND*%
X68305200Y-105145800D03*
%TO.P,U1,3,IN+*%
%TO.N,/Processing_Board/V_EMG_OUT*%
X68305200Y-106095800D03*
%TO.P,U1,4,IN-*%
%TO.N,Net-(U1-IN-)*%
X70815200Y-106095800D03*
%TO.P,U1,5,V+*%
%TO.N,+1V8*%
X70815200Y-104195800D03*
%TD*%
D11*
%TO.P,J2,4,Pin_4*%
%TO.N,/Filtering_Board/V_I2*%
X61569600Y-95326800D03*
%TO.P,J2,3,Pin_3*%
%TO.N,/Filtering_Board/V_PR*%
X59029600Y-95326800D03*
%TO.P,J2,2,Pin_2*%
%TO.N,/Filtering_Board/V_I1*%
X61569600Y-97866800D03*
D10*
%TO.P,J2,1,Pin_1*%
%TO.N,GND*%
X59029600Y-97866800D03*
%TD*%
D29*
%TO.P,U5,1,OUT*%
%TO.N,Net-(U5-IN-)*%
X91389200Y-94265000D03*
%TO.P,U5,2,V-*%
%TO.N,GND*%
X91389200Y-95215000D03*
%TO.P,U5,3,IN+*%
%TO.N,/Filtering_Board/V_CM*%
X91389200Y-96165000D03*
%TO.P,U5,4,IN-*%
%TO.N,Net-(U5-IN-)*%
X93899200Y-96165000D03*
%TO.P,U5,5,V+*%
%TO.N,/Filtering_Board/+V_DD*%
X93899200Y-94265000D03*
%TD*%
%TO.P,U6,1,OUT*%
%TO.N,/Filtering_Board/V_PR*%
X84785200Y-95794000D03*
%TO.P,U6,2,V-*%
%TO.N,GND*%
X84785200Y-96744000D03*
%TO.P,U6,3,IN+*%
%TO.N,Net-(U6-IN+)*%
X84785200Y-97694000D03*
%TO.P,U6,4,IN-*%
%TO.N,Net-(U6-IN-)*%
X87295200Y-97694000D03*
%TO.P,U6,5,V+*%
%TO.N,/Filtering_Board/+V_DD*%
X87295200Y-95794000D03*
%TD*%
D30*
%TO.N,GND*%
X64511400Y-94793400D03*
X69560200Y-105145800D03*
X57480200Y-89484200D03*
X76438300Y-83829700D03*
X96388400Y-98857400D03*
X104648000Y-83845400D03*
X63418600Y-109222000D03*
X96678000Y-104140000D03*
X92629200Y-95784000D03*
X83485200Y-96266600D03*
X90048600Y-108381800D03*
X91003600Y-97435000D03*
X58898000Y-99670200D03*
X78099800Y-104091200D03*
X77617800Y-97485800D03*
X87833200Y-83896200D03*
X85491200Y-105285000D03*
X85096126Y-93758200D03*
X66264000Y-98857400D03*
%TO.N,Net-(U2-Ref)*%
X85161000Y-106691600D03*
X85161000Y-106691600D03*
X85171800Y-108483400D03*
D31*
%TO.N,input_E1*%
X98000000Y-86766400D03*
D30*
%TO.N,/Filtering_Board/V_PR*%
X81478600Y-95580800D03*
X74595200Y-99441600D03*
D31*
%TO.N,input_ER*%
X84531200Y-86766400D03*
D30*
%TO.N,Net-(U3-IN+)*%
X83988000Y-104782000D03*
X81260200Y-103149400D03*
%TO.N,Net-(U6-IN+)*%
X84806000Y-98746400D03*
%TO.N,+1V8*%
X72821800Y-104495600D03*
X93035000Y-105462800D03*
X102306000Y-109298200D03*
X66192400Y-103759000D03*
X81478000Y-105793000D03*
%TO.N,/Filtering_Board/V_CM*%
X99817400Y-99543200D03*
X93442000Y-98746400D03*
%TO.N,/Filtering_Board/+V_DD*%
X64841600Y-98171600D03*
X93873800Y-95225200D03*
X75458800Y-94006000D03*
X79294200Y-94082200D03*
X88793800Y-95809400D03*
X65679800Y-94209200D03*
X95905800Y-94387000D03*
X89555800Y-93853600D03*
D31*
%TO.N,input_E2*%
X70000000Y-86766400D03*
%TD*%
D32*
%TO.N,/Filtering_Board/V_PR*%
X74595200Y-99441600D02*
X74579400Y-99457400D01*
X74579400Y-99457400D02*
X61154200Y-99457400D01*
X61154200Y-99457400D02*
X60299600Y-98602800D01*
X60299600Y-98602800D02*
X60299600Y-96728400D01*
X60299600Y-96728400D02*
X58898000Y-95326800D01*
%TO.N,/Filtering_Board/V_I2*%
X64121002Y-95733200D02*
X63714602Y-95326800D01*
X63714602Y-95326800D02*
X61569600Y-95326800D01*
%TO.N,/Filtering_Board/V_I1*%
X65121000Y-97381802D02*
X65121000Y-97054000D01*
X65121000Y-97054000D02*
X64927200Y-96860200D01*
X64927200Y-96860200D02*
X64682316Y-96860200D01*
X64682316Y-96860200D02*
X64418916Y-96596800D01*
X64418916Y-96596800D02*
X62839600Y-96596800D01*
X62839600Y-96596800D02*
X61569600Y-97866800D01*
X61569600Y-97866800D02*
X61438000Y-97866800D01*
%TO.N,GND*%
X58898000Y-99670200D02*
X58898000Y-97998400D01*
X58898000Y-97998400D02*
X59029600Y-97866800D01*
%TO.N,/Filtering_Board/V_I2*%
X64121002Y-95733200D02*
X64848002Y-96460200D01*
X64848002Y-96460200D02*
X70657590Y-96460200D01*
X70657590Y-96460200D02*
X72597590Y-98400200D01*
X72597590Y-98400200D02*
X72995000Y-98400200D01*
%TO.N,/Filtering_Board/+V_DD*%
X103932200Y-97790600D02*
X105587800Y-96135000D01*
X105587800Y-96135000D02*
X105587800Y-93797800D01*
X105587800Y-93797800D02*
X104948200Y-93158200D01*
X104948200Y-93158200D02*
X95905800Y-93158200D01*
%TO.N,/Filtering_Board/V_F1*%
X82520000Y-99572600D02*
X82693800Y-99746400D01*
X82693800Y-99746400D02*
X98762746Y-99746400D01*
X98762746Y-99746400D02*
X100253800Y-98255346D01*
X100253800Y-98255346D02*
X100253800Y-97189100D01*
X102774600Y-96520000D02*
X104044000Y-95250600D01*
X100253800Y-97189100D02*
X100922900Y-96520000D01*
X100922900Y-96520000D02*
X102774600Y-96520000D01*
%TO.N,/Filtering_Board/V_F2*%
X82520000Y-96571400D02*
X82748600Y-96571400D01*
X82748600Y-96571400D02*
X83383600Y-97206400D01*
X83383600Y-97206400D02*
X83383600Y-98705000D01*
X101167600Y-95250600D02*
X101504000Y-95250600D01*
X83383600Y-98705000D02*
X84025000Y-99346400D01*
X84025000Y-99346400D02*
X94096000Y-99346400D01*
X94096000Y-99346400D02*
X96896400Y-96546000D01*
X96896400Y-96546000D02*
X99872200Y-96546000D01*
X99872200Y-96546000D02*
X101167600Y-95250600D01*
%TO.N,/Filtering_Board/V_CM*%
X99817400Y-99543200D02*
X99817400Y-99477200D01*
X99817400Y-99477200D02*
X101504000Y-97790600D01*
%TO.N,GND*%
X96388400Y-98857400D02*
X97897200Y-98857400D01*
X97897200Y-98857400D02*
X98964000Y-97790600D01*
%TO.N,/Filtering_Board/V_F2*%
X101504000Y-95250600D02*
X101392200Y-95250600D01*
%TO.N,/Electrode_Board/V_I1*%
X61569600Y-87833200D02*
X63449200Y-89712800D01*
X63449200Y-89712800D02*
X91668600Y-89712800D01*
X91668600Y-89712800D02*
X93319600Y-88061800D01*
X93319600Y-88061800D02*
X93319600Y-84937600D01*
X93319600Y-84937600D02*
X94361000Y-83896200D01*
X94361000Y-83896200D02*
X95427800Y-83896200D01*
%TO.N,Net-(D2-K)*%
X73784000Y-83769200D02*
X68656200Y-83769200D01*
X68656200Y-83769200D02*
X68580000Y-83693000D01*
%TO.N,GND*%
X75184000Y-83769200D02*
X76377800Y-83769200D01*
X76377800Y-83769200D02*
X76438300Y-83829700D01*
X76438300Y-83835700D02*
X76438300Y-83829700D01*
X76428600Y-83845400D02*
X76438300Y-83835700D01*
%TO.N,Net-(D2-K)*%
X73812400Y-83873800D02*
X73784000Y-83845400D01*
%TO.N,input_E2*%
X70000000Y-86766400D02*
X73812400Y-86766400D01*
%TO.N,/Electrode_Board/V_I2*%
X64770000Y-83693000D02*
X63169800Y-83693000D01*
%TO.N,Net-(L2-Pad1)*%
X65790000Y-83693000D02*
X67538600Y-83693000D01*
%TO.N,Net-(L1-Pad2)*%
X96447800Y-83896200D02*
X96473200Y-83870800D01*
X96473200Y-83870800D02*
X99923600Y-83870800D01*
%TO.N,Net-(D1-K)*%
X103403400Y-85242400D02*
X103301800Y-85242400D01*
X103301800Y-85242400D02*
X101930200Y-83870800D01*
X101930200Y-83870800D02*
X100965000Y-83870800D01*
%TO.N,input_E2*%
X70012700Y-86779100D02*
X70000000Y-86766400D01*
%TO.N,/Electrode_Board/V_I2*%
X63169800Y-83693000D02*
X61569600Y-85293200D01*
%TO.N,GND*%
X87426800Y-84353400D02*
X86842600Y-83769200D01*
X86842600Y-83769200D02*
X82197400Y-83769200D01*
%TO.N,+1V8*%
X66192400Y-103759000D02*
X66827400Y-103124000D01*
X66827400Y-103124000D02*
X73805200Y-103124000D01*
X73805200Y-103124000D02*
X74618000Y-103936800D01*
X74618000Y-103936800D02*
X74681600Y-103936800D01*
%TO.N,/Processing_Board/V_EMG_OUT*%
X68305200Y-104195800D02*
X67950200Y-104550800D01*
X67950200Y-104550800D02*
X67658252Y-104550800D01*
X67658252Y-104550800D02*
X66649600Y-105559452D01*
X66649600Y-105559452D02*
X66649600Y-106197400D01*
X66649600Y-106197400D02*
X68326000Y-107873800D01*
X68326000Y-107873800D02*
X71008200Y-107873800D01*
X71008200Y-107873800D02*
X71109800Y-107975400D01*
%TO.N,GND*%
X68193200Y-105130600D02*
X68208400Y-105145800D01*
X68208400Y-105145800D02*
X69529800Y-105145800D01*
X69529800Y-105145800D02*
X69545000Y-105130600D01*
%TO.N,+1V8*%
X72821800Y-104495600D02*
X72522000Y-104195800D01*
X72522000Y-104195800D02*
X70815200Y-104195800D01*
%TO.N,Net-(C4-Pad1)*%
X74682200Y-107721400D02*
X74428200Y-107975400D01*
X74428200Y-107975400D02*
X73009800Y-107975400D01*
%TO.N,+1V8*%
X60172600Y-104089200D02*
X60172600Y-106273600D01*
X66192400Y-103759000D02*
X65559400Y-103126000D01*
X61135800Y-103126000D02*
X60172600Y-104089200D01*
X58959000Y-107487200D02*
X58959000Y-105054400D01*
X65559400Y-103126000D02*
X61135800Y-103126000D01*
X60172600Y-106273600D02*
X58959000Y-107487200D01*
%TO.N,GND*%
X61499000Y-105054400D02*
X61442600Y-105110800D01*
X61442600Y-105110800D02*
X61442600Y-107543600D01*
X61442600Y-107543600D02*
X63121000Y-109222000D01*
X63121000Y-109222000D02*
X63418600Y-109222000D01*
%TO.N,/Processing_Board/V_EMG_OUT*%
X67127000Y-105920000D02*
X65606200Y-105920000D01*
X65606200Y-105920000D02*
X63982600Y-107543600D01*
%TO.N,GND*%
X96678000Y-104140000D02*
X96652600Y-104165400D01*
X96652600Y-104165400D02*
X95107800Y-104165400D01*
X75941700Y-106344600D02*
X75941700Y-106429700D01*
X64511400Y-94793400D02*
X65121000Y-95403000D01*
X87426800Y-84353400D02*
X88087200Y-85013800D01*
X90048600Y-108381800D02*
X89060400Y-108381800D01*
X83962600Y-96744000D02*
X83485200Y-96266600D01*
X85049200Y-105727000D02*
X85491200Y-105285000D01*
X90825200Y-109095000D02*
X90761800Y-109095000D01*
X66721200Y-98400200D02*
X68055000Y-98400200D01*
X97913800Y-107518200D02*
X96335000Y-109097000D01*
X88087200Y-85013800D02*
X88087200Y-85797200D01*
X90827200Y-109097000D02*
X90825200Y-109095000D01*
X92060200Y-95215000D02*
X92629200Y-95784000D01*
X59029600Y-87833200D02*
X59029600Y-87934800D01*
X77399400Y-106566600D02*
X76739000Y-107227000D01*
X104645000Y-83842400D02*
X104648000Y-83845400D01*
X87833200Y-83947000D02*
X87426800Y-84353400D01*
X69661700Y-104970000D02*
X69676900Y-104985200D01*
X83988000Y-105727000D02*
X85049200Y-105727000D01*
X96335000Y-109097000D02*
X90827200Y-109097000D01*
X65121000Y-95403000D02*
X65121000Y-95733200D01*
X91389200Y-95215000D02*
X92060200Y-95215000D01*
X77617800Y-97485800D02*
X77617800Y-97384200D01*
X59029600Y-87934800D02*
X57480200Y-89484200D01*
X77617800Y-97384200D02*
X77643200Y-97358800D01*
X87833200Y-83896200D02*
X87833200Y-83947000D01*
X90761800Y-109095000D02*
X90048600Y-108381800D01*
X77399400Y-106353800D02*
X77399400Y-106566600D01*
X75941700Y-106429700D02*
X76739000Y-107227000D01*
X84785200Y-96744000D02*
X83962600Y-96744000D01*
X66264000Y-98857400D02*
X66721200Y-98400200D01*
X89060400Y-108381800D02*
X88793200Y-108114600D01*
X103403400Y-83842400D02*
X104645000Y-83842400D01*
X98964000Y-107518200D02*
X97913800Y-107518200D01*
%TO.N,Net-(U1-IN-)*%
X70819900Y-105920000D02*
X74096000Y-105920000D01*
X74096000Y-105920000D02*
X74686200Y-105329800D01*
X76049900Y-105329800D02*
X76071300Y-105308400D01*
%TO.N,Net-(U3-IN-)*%
X80258800Y-103913400D02*
X85795400Y-103913400D01*
X79420600Y-104751600D02*
X80258800Y-103913400D01*
X81478000Y-104777000D02*
X79446000Y-104777000D01*
X79446000Y-104777000D02*
X79420600Y-104751600D01*
%TO.N,Net-(U2-Ref)*%
X85171800Y-108483400D02*
X85425800Y-108483400D01*
X85161000Y-106691600D02*
X85161000Y-106555600D01*
X87345400Y-103913400D02*
X89352000Y-103913400D01*
X85425800Y-108483400D02*
X85806800Y-108102400D01*
X89604000Y-104165400D02*
X90882800Y-104165400D01*
X85161000Y-106555600D02*
X87345400Y-104371200D01*
X83988000Y-106677000D02*
X85146400Y-106677000D01*
X85146400Y-106677000D02*
X85161000Y-106691600D01*
X89352000Y-103913400D02*
X89604000Y-104165400D01*
X87345400Y-104371200D02*
X87345400Y-103913400D01*
%TO.N,Net-(C4-Pad1)*%
X74682200Y-106353800D02*
X74686200Y-106349800D01*
X74682200Y-107721400D02*
X74682200Y-106353800D01*
%TO.N,Net-(D1-K)*%
X103403400Y-87172800D02*
X103403400Y-85242400D01*
%TO.N,input_E1*%
X102383400Y-87172800D02*
X98831400Y-87172800D01*
X98831400Y-87172800D02*
X98780600Y-87122000D01*
%TO.N,input_E2*%
X69418200Y-86690200D02*
X69443600Y-86715600D01*
%TO.N,Net-(R6-Pad2)*%
X82520000Y-97591400D02*
X82520000Y-98882800D01*
X76195400Y-96981800D02*
X76195400Y-98370800D01*
X82520000Y-98882800D02*
X82494600Y-98908200D01*
%TO.N,Net-(R13-Pad2)*%
X90882800Y-107799600D02*
X90906200Y-107823000D01*
X90882800Y-106115400D02*
X90882800Y-107799600D01*
X90878800Y-106119400D02*
X90882800Y-106115400D01*
%TO.N,Net-(R14-Pad2)*%
X79420600Y-105771600D02*
X79420600Y-106807000D01*
%TO.N,Net-(U5-IN-)*%
X91389200Y-94265000D02*
X91999200Y-94265000D01*
X89860600Y-95805400D02*
X89860600Y-95098200D01*
X90693800Y-94265000D02*
X91389200Y-94265000D01*
X89860600Y-95098200D02*
X90693800Y-94265000D01*
X91999200Y-94265000D02*
X93899200Y-96165000D01*
%TO.N,Net-(U6-IN-)*%
X89860600Y-97181000D02*
X89860600Y-96825400D01*
X87295200Y-97045326D02*
X87295200Y-97694000D01*
X84002601Y-94082200D02*
X84332074Y-94082200D01*
X87371400Y-97770200D02*
X89271400Y-97770200D01*
X87295200Y-97694000D02*
X87371400Y-97770200D01*
X89271400Y-97770200D02*
X89860600Y-97181000D01*
X84332074Y-94082200D02*
X87295200Y-97045326D01*
%TO.N,/Filtering_Board/V_F1*%
X81377000Y-99568600D02*
X82516000Y-99568600D01*
X81097600Y-99289200D02*
X81377000Y-99568600D01*
X82516000Y-99568600D02*
X82520000Y-99572600D01*
%TO.N,/Filtering_Board/V_F2*%
X80411800Y-96647600D02*
X82443800Y-96647600D01*
X82443800Y-96647600D02*
X82520000Y-96571400D01*
%TO.N,/Processing_Board/V_EMG_OUT*%
X67127000Y-105920000D02*
X68309900Y-105920000D01*
%TO.N,Net-(C6-Pad1)*%
X86826800Y-107946000D02*
X86826800Y-108102400D01*
X88600800Y-106172000D02*
X86826800Y-107946000D01*
%TO.N,/Filtering_Board/V_PR*%
X84694401Y-95794000D02*
X84785200Y-95794000D01*
X81869200Y-95190200D02*
X81874601Y-95190200D01*
X82982601Y-94082200D02*
X84694401Y-95794000D01*
X82982601Y-94290400D02*
X82982601Y-94082200D01*
X82982601Y-94082200D02*
X81874601Y-95190200D01*
X81478600Y-95580800D02*
X81869200Y-95190200D01*
%TO.N,/Filtering_Board/V_I1*%
X66835800Y-97130200D02*
X68055000Y-97130200D01*
X65273400Y-97663600D02*
X66302400Y-97663600D01*
X66302400Y-97663600D02*
X66835800Y-97130200D01*
X67826400Y-97358800D02*
X68055000Y-97130200D01*
X65121000Y-97511200D02*
X65273400Y-97663600D01*
X65121000Y-97381802D02*
X65121000Y-97511200D01*
%TO.N,/Filtering_Board/V_I2*%
X64121002Y-95733200D02*
X64155800Y-95733200D01*
%TO.N,input_ER*%
X84531200Y-86817200D02*
X88087200Y-86817200D01*
%TO.N,/Processing_Board/LPF_400Hz/V_EMG_INA*%
X85440400Y-107266200D02*
X85674096Y-107266200D01*
X79420600Y-107827000D02*
X84879600Y-107827000D01*
X84879600Y-107827000D02*
X85440400Y-107266200D01*
X79420600Y-107827000D02*
X75807800Y-107827000D01*
X85674096Y-107266200D02*
X88124896Y-104815400D01*
X88124896Y-104815400D02*
X90882800Y-104815400D01*
X75807800Y-107827000D02*
X75702200Y-107721400D01*
%TO.N,Net-(R12-Pad2)*%
X95107800Y-107802200D02*
X95128600Y-107823000D01*
X95107800Y-106115400D02*
X95107800Y-107802200D01*
X95101200Y-106122000D02*
X95107800Y-106115400D01*
%TO.N,/Processing_Board/V_CM*%
X100354000Y-106368200D02*
X101504000Y-107518200D01*
X92965600Y-107823000D02*
X94108600Y-107823000D01*
X91926200Y-107823000D02*
X92965600Y-107823000D01*
X96158854Y-108697000D02*
X93839600Y-108697000D01*
X98487654Y-106368200D02*
X96158854Y-108697000D01*
X98487654Y-106368200D02*
X100354000Y-106368200D01*
X93839600Y-108697000D02*
X92965600Y-107823000D01*
%TO.N,Net-(U3-IN+)*%
X76523100Y-104457500D02*
X77831200Y-103149400D01*
X77399400Y-105333800D02*
X76523100Y-104457500D01*
X76002400Y-103936800D02*
X75701600Y-103936800D01*
X76523100Y-104457500D02*
X76002400Y-103936800D01*
X77831200Y-103149400D02*
X81260200Y-103149400D01*
%TO.N,Net-(U6-IN+)*%
X84806000Y-97714800D02*
X84785200Y-97694000D01*
X84806000Y-98746400D02*
X84806000Y-97714800D01*
%TO.N,+1V8*%
X93032400Y-105465400D02*
X90882800Y-105465400D01*
X102306000Y-109256200D02*
X104044000Y-107518200D01*
X81478000Y-105793000D02*
X81478000Y-106677000D01*
X93035000Y-105462800D02*
X93032400Y-105465400D01*
X102306000Y-109298200D02*
X102306000Y-109256200D01*
%TO.N,Net-(U8--INA)*%
X76195400Y-99390800D02*
X79446000Y-99390800D01*
X76195400Y-99390800D02*
X75636600Y-99390800D01*
X74027410Y-96495200D02*
X71962590Y-96495200D01*
X68055000Y-94590200D02*
X68055000Y-95860200D01*
X75636600Y-99390800D02*
X75027000Y-98781200D01*
X75027000Y-98781200D02*
X75027000Y-97494790D01*
X75027000Y-97494790D02*
X74027410Y-96495200D01*
X79446000Y-99390800D02*
X79547600Y-99289200D01*
X70057590Y-94590200D02*
X68055000Y-94590200D01*
X71962590Y-96495200D02*
X70057590Y-94590200D01*
%TO.N,Net-(U8--INB)*%
X76906600Y-96647600D02*
X76195400Y-95936400D01*
X76119200Y-95885600D02*
X76195400Y-95961800D01*
X76195400Y-95936400D02*
X73071200Y-95936400D01*
X78861800Y-96647600D02*
X76906600Y-96647600D01*
X73071200Y-95936400D02*
X72995000Y-95860200D01*
%TO.N,/Filtering_Board/V_CM*%
X91389200Y-96693600D02*
X91389200Y-96165000D01*
X93442000Y-98746400D02*
X91389200Y-96693600D01*
%TO.N,/Processing_Board/V_F1*%
X96934768Y-104815400D02*
X95107800Y-104815400D01*
X102342200Y-103276400D02*
X104044000Y-104978200D01*
X96934768Y-104815400D02*
X98473768Y-103276400D01*
X98473768Y-103276400D02*
X102342200Y-103276400D01*
%TO.N,/Processing_Board/V_F2*%
X96850454Y-105465400D02*
X95107800Y-105465400D01*
X96850454Y-105465400D02*
X98506054Y-103809800D01*
X98506054Y-103809800D02*
X100335600Y-103809800D01*
X100335600Y-103809800D02*
X101504000Y-104978200D01*
%TO.N,/Filtering_Board/+V_DD*%
X89931000Y-93158200D02*
X87295200Y-93158200D01*
X74874600Y-94590200D02*
X72995000Y-94590200D01*
X79751400Y-93625000D02*
X79751400Y-93158200D01*
X87310600Y-95809400D02*
X87295200Y-95794000D01*
X95905800Y-93158200D02*
X95905800Y-94387000D01*
X95006000Y-93158200D02*
X89931000Y-93158200D01*
X64511400Y-98171600D02*
X64121002Y-97781202D01*
X88793800Y-95809400D02*
X87310600Y-95809400D01*
X79294200Y-94082200D02*
X79751400Y-93625000D01*
X89931000Y-93158200D02*
X89931000Y-93478400D01*
X95905800Y-93158200D02*
X95006000Y-93158200D01*
X64841600Y-98171600D02*
X64511400Y-98171600D01*
X89931000Y-93158200D02*
X79751400Y-93158200D01*
X93873800Y-95225200D02*
X93899200Y-95199800D01*
X89931000Y-93478400D02*
X89555800Y-93853600D01*
X93899200Y-95199800D02*
X93899200Y-94265000D01*
X65679800Y-94209200D02*
X66730800Y-93158200D01*
X66730800Y-93158200D02*
X79751400Y-93158200D01*
X95006000Y-93158200D02*
X93899200Y-93158200D01*
X75458800Y-94006000D02*
X74874600Y-94590200D01*
X64121002Y-97781202D02*
X64121002Y-97381802D01*
%TO.N,/Electrode_Board/V_PR*%
X80086200Y-83769200D02*
X80797400Y-83769200D01*
X78943200Y-84912200D02*
X80086200Y-83769200D01*
X78943200Y-86715600D02*
X78943200Y-84912200D01*
X64675546Y-89312800D02*
X76346000Y-89312800D01*
X61951346Y-86588600D02*
X64675546Y-89312800D01*
X76346000Y-89312800D02*
X78943200Y-86715600D01*
X60325000Y-86588600D02*
X61951346Y-86588600D01*
X59029600Y-85293200D02*
X60325000Y-86588600D01*
%TD*%
M02*
