%TF.GenerationSoftware,KiCad,Pcbnew,8.0.5-8.0.5-0~ubuntu22.04.1*%
%TF.CreationDate,2024-10-23T18:20:19+02:00*%
%TF.ProjectId,EMG_amplifier,454d475f-616d-4706-9c69-666965722e6b,rev?*%
%TF.SameCoordinates,Original*%
%TF.FileFunction,Copper,L2,Bot*%
%TF.FilePolarity,Positive*%
%FSLAX46Y46*%
G04 Gerber Fmt 4.6, Leading zero omitted, Abs format (unit mm)*
G04 Created by KiCad (PCBNEW 8.0.5-8.0.5-0~ubuntu22.04.1) date 2024-10-23 18:20:19*
%MOMM*%
%LPD*%
G01*
G04 APERTURE LIST*
G04 Aperture macros list*
%AMRoundRect*
0 Rectangle with rounded corners*
0 $1 Rounding radius*
0 $2 $3 $4 $5 $6 $7 $8 $9 X,Y pos of 4 corners*
0 Add a 4 corners polygon primitive as box body*
4,1,4,$2,$3,$4,$5,$6,$7,$8,$9,$2,$3,0*
0 Add four circle primitives for the rounded corners*
1,1,$1+$1,$2,$3*
1,1,$1+$1,$4,$5*
1,1,$1+$1,$6,$7*
1,1,$1+$1,$8,$9*
0 Add four rect primitives between the rounded corners*
20,1,$1+$1,$2,$3,$4,$5,0*
20,1,$1+$1,$4,$5,$6,$7,0*
20,1,$1+$1,$6,$7,$8,$9,0*
20,1,$1+$1,$8,$9,$2,$3,0*%
G04 Aperture macros list end*
%TA.AperFunction,ComponentPad*%
%ADD10R,1.700000X1.700000*%
%TD*%
%TA.AperFunction,ComponentPad*%
%ADD11O,1.700000X1.700000*%
%TD*%
%TA.AperFunction,SMDPad,CuDef*%
%ADD12RoundRect,0.250000X-0.475000X0.250000X-0.475000X-0.250000X0.475000X-0.250000X0.475000X0.250000X0*%
%TD*%
%TA.AperFunction,SMDPad,CuDef*%
%ADD13RoundRect,0.135000X-0.185000X0.135000X-0.185000X-0.135000X0.185000X-0.135000X0.185000X0.135000X0*%
%TD*%
%TA.AperFunction,SMDPad,CuDef*%
%ADD14RoundRect,0.250000X0.475000X-0.250000X0.475000X0.250000X-0.475000X0.250000X-0.475000X-0.250000X0*%
%TD*%
%TA.AperFunction,SMDPad,CuDef*%
%ADD15RoundRect,0.250000X-0.250000X-0.475000X0.250000X-0.475000X0.250000X0.475000X-0.250000X0.475000X0*%
%TD*%
%TA.AperFunction,SMDPad,CuDef*%
%ADD16RoundRect,0.135000X-0.135000X-0.185000X0.135000X-0.185000X0.135000X0.185000X-0.135000X0.185000X0*%
%TD*%
%TA.AperFunction,SMDPad,CuDef*%
%ADD17RoundRect,0.250000X0.250000X0.475000X-0.250000X0.475000X-0.250000X-0.475000X0.250000X-0.475000X0*%
%TD*%
%TA.AperFunction,ViaPad*%
%ADD18C,0.600000*%
%TD*%
%TA.AperFunction,ViaPad*%
%ADD19C,4.170000*%
%TD*%
%TA.AperFunction,Conductor*%
%ADD20C,0.200000*%
%TD*%
G04 APERTURE END LIST*
D10*
%TO.P,J7,1,Pin_1*%
%TO.N,unconnected-(J7-Pin_1-Pad1)*%
X63982600Y-105003600D03*
D11*
%TO.P,J7,2,Pin_2*%
%TO.N,/Processing_Board/V_EMG_OUT*%
X63982600Y-107543600D03*
%TO.P,J7,3,Pin_3*%
%TO.N,GND*%
X61442600Y-105003600D03*
%TO.P,J7,4,Pin_4*%
X61442600Y-107543600D03*
%TO.P,J7,5,Pin_5*%
%TO.N,+1V8*%
X58902600Y-105003600D03*
%TO.P,J7,6,Pin_6*%
X58902600Y-107543600D03*
%TD*%
D10*
%TO.P,J4,1,Pin_1*%
%TO.N,/Filtering_Board/+V_DD*%
X104044000Y-97790600D03*
D11*
%TO.P,J4,2,Pin_2*%
%TO.N,/Filtering_Board/V_F1*%
X104044000Y-95250600D03*
%TO.P,J4,3,Pin_3*%
%TO.N,/Filtering_Board/V_CM*%
X101504000Y-97790600D03*
%TO.P,J4,4,Pin_4*%
%TO.N,/Filtering_Board/V_F2*%
X101504000Y-95250600D03*
%TO.P,J4,5,Pin_5*%
%TO.N,GND*%
X98964000Y-97790600D03*
%TO.P,J4,6,Pin_6*%
%TO.N,unconnected-(J4-Pin_6-Pad6)*%
X98964000Y-95250600D03*
%TD*%
D10*
%TO.P,J1,1,Pin_1*%
%TO.N,GND*%
X59029600Y-87833200D03*
D11*
%TO.P,J1,2,Pin_2*%
%TO.N,/Electrode_Board/V_I1*%
X61569600Y-87833200D03*
%TO.P,J1,3,Pin_3*%
%TO.N,/Electrode_Board/V_PR*%
X59029600Y-85293200D03*
%TO.P,J1,4,Pin_4*%
%TO.N,/Electrode_Board/V_I2*%
X61569600Y-85293200D03*
%TD*%
D10*
%TO.P,J3,1,Pin_1*%
%TO.N,+1V8*%
X104044000Y-107518200D03*
D11*
%TO.P,J3,2,Pin_2*%
%TO.N,/Processing_Board/V_F1*%
X104044000Y-104978200D03*
%TO.P,J3,3,Pin_3*%
%TO.N,/Processing_Board/V_CM*%
X101504000Y-107518200D03*
%TO.P,J3,4,Pin_4*%
%TO.N,/Processing_Board/V_F2*%
X101504000Y-104978200D03*
%TO.P,J3,5,Pin_5*%
%TO.N,GND*%
X98964000Y-107518200D03*
%TO.P,J3,6,Pin_6*%
%TO.N,unconnected-(J3-Pin_6-Pad6)*%
X98964000Y-104978200D03*
%TD*%
D12*
%TO.P,C8,1*%
%TO.N,/Filtering_Board/+V_DD*%
X95931200Y-95890600D03*
%TO.P,C8,2*%
%TO.N,GND*%
X95931200Y-97790600D03*
%TD*%
D13*
%TO.P,R23,1*%
%TO.N,/Filtering_Board/+V_DD*%
X88819200Y-96825400D03*
%TO.P,R23,2*%
%TO.N,Net-(U6-IN+)*%
X88819200Y-97845400D03*
%TD*%
D14*
%TO.P,C10,1*%
%TO.N,+1V8*%
X76804400Y-106809000D03*
%TO.P,C10,2*%
%TO.N,GND*%
X76804400Y-104909000D03*
%TD*%
D15*
%TO.P,C11,1*%
%TO.N,+1V8*%
X93370200Y-107698000D03*
%TO.P,C11,2*%
%TO.N,GND*%
X95270200Y-107698000D03*
%TD*%
D16*
%TO.P,R24,1*%
%TO.N,Net-(U6-IN+)*%
X89958200Y-98730400D03*
%TO.P,R24,2*%
%TO.N,GND*%
X90978200Y-98730400D03*
%TD*%
D14*
%TO.P,C7,1*%
%TO.N,GND*%
X77694000Y-95997400D03*
%TO.P,C7,2*%
%TO.N,/Filtering_Board/+V_DD*%
X77694000Y-94097400D03*
%TD*%
D17*
%TO.P,C12,1*%
%TO.N,/Filtering_Board/+V_DD*%
X88209600Y-94209200D03*
%TO.P,C12,2*%
%TO.N,GND*%
X86309600Y-94209200D03*
%TD*%
D11*
%TO.P,J2,4,Pin_4*%
%TO.N,/Filtering_Board/V_I2*%
X61569600Y-95326800D03*
%TO.P,J2,3,Pin_3*%
%TO.N,/Filtering_Board/V_PR*%
X59029600Y-95326800D03*
%TO.P,J2,2,Pin_2*%
%TO.N,/Filtering_Board/V_I1*%
X61569600Y-97866800D03*
D10*
%TO.P,J2,1,Pin_1*%
%TO.N,GND*%
X59029600Y-97866800D03*
%TD*%
D18*
%TO.N,GND*%
X64511400Y-94793400D03*
X69560200Y-105145800D03*
X57480200Y-89484200D03*
X76438300Y-83829700D03*
X96388400Y-98857400D03*
X104648000Y-83845400D03*
X63418600Y-109222000D03*
X96678000Y-104140000D03*
X92629200Y-95784000D03*
X83485200Y-96266600D03*
X90048600Y-108381800D03*
X91003600Y-97435000D03*
X58898000Y-99670200D03*
X78099800Y-104091200D03*
X77617800Y-97485800D03*
X87833200Y-83896200D03*
X85491200Y-105285000D03*
X85096126Y-93758200D03*
X66264000Y-98857400D03*
%TO.N,Net-(U2-Ref)*%
X85161000Y-106691600D03*
X85161000Y-106691600D03*
X85171800Y-108483400D03*
D19*
%TO.N,input_E1*%
X98000000Y-86766400D03*
D18*
%TO.N,/Filtering_Board/V_PR*%
X81478600Y-95580800D03*
X74595200Y-99441600D03*
D19*
%TO.N,input_ER*%
X84531200Y-86766400D03*
D18*
%TO.N,Net-(U3-IN+)*%
X83988000Y-104782000D03*
X81260200Y-103149400D03*
%TO.N,Net-(U6-IN+)*%
X84806000Y-98746400D03*
%TO.N,+1V8*%
X72821800Y-104495600D03*
X93035000Y-105462800D03*
X102306000Y-109298200D03*
X66192400Y-103759000D03*
X81478000Y-105793000D03*
%TO.N,/Filtering_Board/V_CM*%
X99817400Y-99543200D03*
X93442000Y-98746400D03*
%TO.N,/Filtering_Board/+V_DD*%
X64841600Y-98171600D03*
X93873800Y-95225200D03*
X75458800Y-94006000D03*
X79294200Y-94082200D03*
X88793800Y-95809400D03*
X65679800Y-94209200D03*
X95905800Y-94387000D03*
X89555800Y-93853600D03*
D19*
%TO.N,input_E2*%
X70000000Y-86766400D03*
%TD*%
D20*
%TO.N,+1V8*%
X72821800Y-104495600D02*
X72941600Y-104495600D01*
X72941600Y-104495600D02*
X75255000Y-106809000D01*
X72941600Y-104495600D02*
X72969000Y-104523000D01*
X75255000Y-106809000D02*
X76804400Y-106809000D01*
X69973200Y-109298200D02*
X92704800Y-109298200D01*
X66192400Y-105517400D02*
X69973200Y-109298200D01*
X66192400Y-103759000D02*
X66192400Y-105517400D01*
%TO.N,GND*%
X96311600Y-107698000D02*
X95270200Y-107698000D01*
X96678000Y-104140000D02*
X96678000Y-107331600D01*
X96678000Y-107331600D02*
X96311600Y-107698000D01*
X76804400Y-104909000D02*
X77282000Y-104909000D01*
X95931200Y-98400200D02*
X96388400Y-98857400D01*
X92629200Y-96698400D02*
X92629200Y-95784000D01*
X77617800Y-97485800D02*
X77694000Y-97409600D01*
X90978200Y-97460400D02*
X90978200Y-98730400D01*
X85547126Y-94209200D02*
X85096126Y-93758200D01*
X91003600Y-97435000D02*
X90978200Y-97460400D01*
X77282000Y-104909000D02*
X78099800Y-104091200D01*
X95931200Y-97790600D02*
X95931200Y-98400200D01*
X86309600Y-94209200D02*
X85547126Y-94209200D01*
X77694000Y-97409600D02*
X77694000Y-95997400D01*
X91892600Y-97435000D02*
X92629200Y-96698400D01*
X91003600Y-97435000D02*
X91892600Y-97435000D01*
%TO.N,Net-(U2-Ref)*%
X85161000Y-108472600D02*
X85161000Y-106691600D01*
X85171800Y-108483400D02*
X85161000Y-108472600D01*
%TO.N,/Filtering_Board/V_PR*%
X77617800Y-99441600D02*
X81478600Y-95580800D01*
X74595200Y-99441600D02*
X77617800Y-99441600D01*
%TO.N,Net-(U3-IN+)*%
X82355400Y-103149400D02*
X83988000Y-104782000D01*
X81260200Y-103149400D02*
X82355400Y-103149400D01*
%TO.N,Net-(U6-IN+)*%
X88971600Y-98755800D02*
X84815400Y-98755800D01*
X89464900Y-98262500D02*
X89490300Y-98262500D01*
X84815400Y-98755800D02*
X84806000Y-98746400D01*
X88819200Y-97845400D02*
X89073200Y-97845400D01*
X89784400Y-98730400D02*
X89958200Y-98730400D01*
X89490300Y-98262500D02*
X89958200Y-98730400D01*
X89073200Y-97845400D02*
X89490300Y-98262500D01*
X88819200Y-97845400D02*
X88819200Y-97866800D01*
X88971600Y-98755800D02*
X89464900Y-98262500D01*
%TO.N,+1V8*%
X93370200Y-105798000D02*
X93035000Y-105462800D01*
X76620800Y-107108800D02*
X76739000Y-107227000D01*
X93370200Y-107698000D02*
X93370200Y-105798000D01*
X92704800Y-109298200D02*
X102306000Y-109298200D01*
X80462000Y-106809000D02*
X81478000Y-105793000D01*
X92704800Y-109298200D02*
X93370200Y-108632800D01*
X93370200Y-108632800D02*
X93370200Y-107698000D01*
X76804400Y-106809000D02*
X80462000Y-106809000D01*
X77414000Y-109298200D02*
X77388600Y-109298200D01*
X76575800Y-106834400D02*
X76880600Y-107139200D01*
%TO.N,/Filtering_Board/V_CM*%
X94238800Y-99543200D02*
X99817400Y-99543200D01*
X93442000Y-98746400D02*
X94238800Y-99543200D01*
%TO.N,/Filtering_Board/+V_DD*%
X88209600Y-94209200D02*
X88209600Y-94666400D01*
X93873800Y-95225200D02*
X94539200Y-95890600D01*
X95905800Y-94387000D02*
X95905800Y-95865200D01*
X65679800Y-94209200D02*
X65679800Y-97739800D01*
X88565200Y-93853600D02*
X88209600Y-94209200D01*
X77709200Y-94082200D02*
X77694000Y-94097400D01*
X89555800Y-93853600D02*
X88565200Y-93853600D01*
X94539200Y-95890600D02*
X95931200Y-95890600D01*
X65679800Y-97739800D02*
X65248000Y-98171600D01*
X88793800Y-95250600D02*
X88793800Y-95809400D01*
X88209600Y-94666400D02*
X88793800Y-95250600D01*
X79294200Y-94082200D02*
X77709200Y-94082200D01*
X65248000Y-98171600D02*
X64841600Y-98171600D01*
X95905800Y-95865200D02*
X95931200Y-95890600D01*
X75550200Y-94097400D02*
X77694000Y-94097400D01*
X75458800Y-94006000D02*
X75550200Y-94097400D01*
%TD*%
%TA.AperFunction,Conductor*%
%TO.N,GND*%
G36*
X105944739Y-83019385D02*
G01*
X105990494Y-83072189D01*
X106001700Y-83123700D01*
X106001700Y-89875700D01*
X105982015Y-89942739D01*
X105929211Y-89988494D01*
X105877700Y-89999700D01*
X57139500Y-89999700D01*
X57072461Y-89980015D01*
X57026706Y-89927211D01*
X57015500Y-89875700D01*
X57015500Y-85293199D01*
X57673941Y-85293199D01*
X57673941Y-85293200D01*
X57694536Y-85528603D01*
X57694538Y-85528613D01*
X57755694Y-85756855D01*
X57755696Y-85756859D01*
X57755697Y-85756863D01*
X57798154Y-85847911D01*
X57855565Y-85971030D01*
X57855567Y-85971034D01*
X57963881Y-86125721D01*
X57991101Y-86164596D01*
X57991106Y-86164602D01*
X58113418Y-86286914D01*
X58146903Y-86348237D01*
X58141919Y-86417929D01*
X58100047Y-86473862D01*
X58069071Y-86490777D01*
X57937512Y-86539846D01*
X57937506Y-86539849D01*
X57822412Y-86626009D01*
X57822409Y-86626012D01*
X57736249Y-86741106D01*
X57736245Y-86741113D01*
X57686003Y-86875820D01*
X57686001Y-86875827D01*
X57679600Y-86935355D01*
X57679600Y-87583200D01*
X58596588Y-87583200D01*
X58563675Y-87640207D01*
X58529600Y-87767374D01*
X58529600Y-87899026D01*
X58563675Y-88026193D01*
X58596588Y-88083200D01*
X57679600Y-88083200D01*
X57679600Y-88731044D01*
X57686001Y-88790572D01*
X57686003Y-88790579D01*
X57736245Y-88925286D01*
X57736249Y-88925293D01*
X57822409Y-89040387D01*
X57822412Y-89040390D01*
X57937506Y-89126550D01*
X57937513Y-89126554D01*
X58072220Y-89176796D01*
X58072227Y-89176798D01*
X58131755Y-89183199D01*
X58131772Y-89183200D01*
X58779600Y-89183200D01*
X58779600Y-88266212D01*
X58836607Y-88299125D01*
X58963774Y-88333200D01*
X59095426Y-88333200D01*
X59222593Y-88299125D01*
X59279600Y-88266212D01*
X59279600Y-89183200D01*
X59927428Y-89183200D01*
X59927444Y-89183199D01*
X59986972Y-89176798D01*
X59986979Y-89176796D01*
X60121686Y-89126554D01*
X60121693Y-89126550D01*
X60236787Y-89040390D01*
X60236790Y-89040387D01*
X60322950Y-88925293D01*
X60322954Y-88925286D01*
X60372022Y-88793729D01*
X60413893Y-88737795D01*
X60479357Y-88713378D01*
X60547630Y-88728230D01*
X60575885Y-88749381D01*
X60698199Y-88871695D01*
X60774735Y-88925286D01*
X60891765Y-89007232D01*
X60891767Y-89007233D01*
X60891770Y-89007235D01*
X61105937Y-89107103D01*
X61334192Y-89168263D01*
X61504919Y-89183200D01*
X61569599Y-89188859D01*
X61569600Y-89188859D01*
X61569601Y-89188859D01*
X61634281Y-89183200D01*
X61805008Y-89168263D01*
X62033263Y-89107103D01*
X62247430Y-89007235D01*
X62441001Y-88871695D01*
X62608095Y-88704601D01*
X62743635Y-88511030D01*
X62843503Y-88296863D01*
X62904663Y-88068608D01*
X62925259Y-87833200D01*
X62904663Y-87597792D01*
X62847990Y-87386282D01*
X62843505Y-87369544D01*
X62843504Y-87369543D01*
X62843503Y-87369537D01*
X62743635Y-87155371D01*
X62689892Y-87078617D01*
X62608094Y-86961797D01*
X62441002Y-86794706D01*
X62440996Y-86794701D01*
X62400578Y-86766400D01*
X67409774Y-86766400D01*
X67428659Y-87078612D01*
X67485040Y-87386281D01*
X67578090Y-87684888D01*
X67578094Y-87684899D01*
X67578095Y-87684902D01*
X67578097Y-87684907D01*
X67706469Y-87970138D01*
X67868286Y-88237816D01*
X67868291Y-88237822D01*
X67868292Y-88237824D01*
X68061190Y-88484041D01*
X68282358Y-88705209D01*
X68494866Y-88871698D01*
X68528584Y-88898114D01*
X68796262Y-89059931D01*
X69081493Y-89188303D01*
X69081503Y-89188306D01*
X69081511Y-89188309D01*
X69380118Y-89281359D01*
X69687783Y-89337740D01*
X70000000Y-89356626D01*
X70312217Y-89337740D01*
X70619882Y-89281359D01*
X70918507Y-89188303D01*
X71203738Y-89059931D01*
X71471416Y-88898114D01*
X71717638Y-88705212D01*
X71938812Y-88484038D01*
X72131714Y-88237816D01*
X72293531Y-87970138D01*
X72421903Y-87684907D01*
X72514959Y-87386282D01*
X72571340Y-87078617D01*
X72590226Y-86766400D01*
X81940974Y-86766400D01*
X81959859Y-87078612D01*
X82016240Y-87386281D01*
X82109290Y-87684888D01*
X82109294Y-87684899D01*
X82109295Y-87684902D01*
X82109297Y-87684907D01*
X82237669Y-87970138D01*
X82399486Y-88237816D01*
X82399491Y-88237822D01*
X82399492Y-88237824D01*
X82592390Y-88484041D01*
X82813558Y-88705209D01*
X83026066Y-88871698D01*
X83059784Y-88898114D01*
X83327462Y-89059931D01*
X83612693Y-89188303D01*
X83612703Y-89188306D01*
X83612711Y-89188309D01*
X83911318Y-89281359D01*
X84218983Y-89337740D01*
X84531200Y-89356626D01*
X84843417Y-89337740D01*
X85151082Y-89281359D01*
X85449707Y-89188303D01*
X85734938Y-89059931D01*
X86002616Y-88898114D01*
X86248838Y-88705212D01*
X86470012Y-88484038D01*
X86662914Y-88237816D01*
X86824731Y-87970138D01*
X86953103Y-87684907D01*
X87046159Y-87386282D01*
X87102540Y-87078617D01*
X87121426Y-86766400D01*
X95409774Y-86766400D01*
X95428659Y-87078612D01*
X95485040Y-87386281D01*
X95578090Y-87684888D01*
X95578094Y-87684899D01*
X95578095Y-87684902D01*
X95578097Y-87684907D01*
X95706469Y-87970138D01*
X95868286Y-88237816D01*
X95868291Y-88237822D01*
X95868292Y-88237824D01*
X96061190Y-88484041D01*
X96282358Y-88705209D01*
X96494866Y-88871698D01*
X96528584Y-88898114D01*
X96796262Y-89059931D01*
X97081493Y-89188303D01*
X97081503Y-89188306D01*
X97081511Y-89188309D01*
X97380118Y-89281359D01*
X97687783Y-89337740D01*
X98000000Y-89356626D01*
X98312217Y-89337740D01*
X98619882Y-89281359D01*
X98918507Y-89188303D01*
X99203738Y-89059931D01*
X99471416Y-88898114D01*
X99717638Y-88705212D01*
X99938812Y-88484038D01*
X100131714Y-88237816D01*
X100293531Y-87970138D01*
X100421903Y-87684907D01*
X100514959Y-87386282D01*
X100571340Y-87078617D01*
X100590226Y-86766400D01*
X100571340Y-86454183D01*
X100514959Y-86146518D01*
X100460276Y-85971034D01*
X100421909Y-85847911D01*
X100421905Y-85847900D01*
X100421903Y-85847893D01*
X100293531Y-85562662D01*
X100131714Y-85294984D01*
X99938812Y-85048762D01*
X99938809Y-85048758D01*
X99717641Y-84827590D01*
X99471424Y-84634692D01*
X99471422Y-84634691D01*
X99471416Y-84634686D01*
X99203738Y-84472869D01*
X98918507Y-84344497D01*
X98918502Y-84344495D01*
X98918499Y-84344494D01*
X98918488Y-84344490D01*
X98619881Y-84251440D01*
X98312212Y-84195059D01*
X98000000Y-84176174D01*
X97687787Y-84195059D01*
X97380118Y-84251440D01*
X97081511Y-84344490D01*
X97081500Y-84344494D01*
X97081494Y-84344496D01*
X97081493Y-84344497D01*
X96796262Y-84472869D01*
X96528584Y-84634686D01*
X96528580Y-84634688D01*
X96528575Y-84634692D01*
X96282358Y-84827590D01*
X96061190Y-85048758D01*
X95868292Y-85294975D01*
X95868288Y-85294980D01*
X95868286Y-85294984D01*
X95706469Y-85562662D01*
X95706468Y-85562664D01*
X95706467Y-85562666D01*
X95578094Y-85847900D01*
X95578090Y-85847911D01*
X95485040Y-86146518D01*
X95428659Y-86454187D01*
X95409774Y-86766400D01*
X87121426Y-86766400D01*
X87102540Y-86454183D01*
X87046159Y-86146518D01*
X86991476Y-85971034D01*
X86953109Y-85847911D01*
X86953105Y-85847900D01*
X86953103Y-85847893D01*
X86824731Y-85562662D01*
X86662914Y-85294984D01*
X86470012Y-85048762D01*
X86470009Y-85048758D01*
X86248841Y-84827590D01*
X86002624Y-84634692D01*
X86002622Y-84634691D01*
X86002616Y-84634686D01*
X85734938Y-84472869D01*
X85449707Y-84344497D01*
X85449702Y-84344495D01*
X85449699Y-84344494D01*
X85449688Y-84344490D01*
X85151081Y-84251440D01*
X84843412Y-84195059D01*
X84531200Y-84176174D01*
X84218987Y-84195059D01*
X83911318Y-84251440D01*
X83612711Y-84344490D01*
X83612700Y-84344494D01*
X83612694Y-84344496D01*
X83612693Y-84344497D01*
X83327462Y-84472869D01*
X83059784Y-84634686D01*
X83059780Y-84634688D01*
X83059775Y-84634692D01*
X82813558Y-84827590D01*
X82592390Y-85048758D01*
X82399492Y-85294975D01*
X82399488Y-85294980D01*
X82399486Y-85294984D01*
X82237669Y-85562662D01*
X82237668Y-85562664D01*
X82237667Y-85562666D01*
X82109294Y-85847900D01*
X82109290Y-85847911D01*
X82016240Y-86146518D01*
X81959859Y-86454187D01*
X81940974Y-86766400D01*
X72590226Y-86766400D01*
X72571340Y-86454183D01*
X72514959Y-86146518D01*
X72460276Y-85971034D01*
X72421909Y-85847911D01*
X72421905Y-85847900D01*
X72421903Y-85847893D01*
X72293531Y-85562662D01*
X72131714Y-85294984D01*
X71938812Y-85048762D01*
X71938809Y-85048758D01*
X71717641Y-84827590D01*
X71471424Y-84634692D01*
X71471422Y-84634691D01*
X71471416Y-84634686D01*
X71203738Y-84472869D01*
X70918507Y-84344497D01*
X70918502Y-84344495D01*
X70918499Y-84344494D01*
X70918488Y-84344490D01*
X70619881Y-84251440D01*
X70312212Y-84195059D01*
X70000000Y-84176174D01*
X69687787Y-84195059D01*
X69380118Y-84251440D01*
X69081511Y-84344490D01*
X69081500Y-84344494D01*
X69081494Y-84344496D01*
X69081493Y-84344497D01*
X68796262Y-84472869D01*
X68528584Y-84634686D01*
X68528580Y-84634688D01*
X68528575Y-84634692D01*
X68282358Y-84827590D01*
X68061190Y-85048758D01*
X67868292Y-85294975D01*
X67868288Y-85294980D01*
X67868286Y-85294984D01*
X67706469Y-85562662D01*
X67706468Y-85562664D01*
X67706467Y-85562666D01*
X67578094Y-85847900D01*
X67578090Y-85847911D01*
X67485040Y-86146518D01*
X67428659Y-86454187D01*
X67409774Y-86766400D01*
X62400578Y-86766400D01*
X62255442Y-86664775D01*
X62211817Y-86610198D01*
X62204623Y-86540700D01*
X62236146Y-86478345D01*
X62255442Y-86461625D01*
X62367100Y-86383441D01*
X62441001Y-86331695D01*
X62608095Y-86164601D01*
X62743635Y-85971030D01*
X62843503Y-85756863D01*
X62904663Y-85528608D01*
X62925259Y-85293200D01*
X62904663Y-85057792D01*
X62843503Y-84829537D01*
X62743635Y-84615371D01*
X62738025Y-84607358D01*
X62608094Y-84421797D01*
X62441002Y-84254706D01*
X62440995Y-84254701D01*
X62436339Y-84251441D01*
X62402121Y-84227481D01*
X62247434Y-84119167D01*
X62247430Y-84119165D01*
X62247428Y-84119164D01*
X62033263Y-84019297D01*
X62033259Y-84019296D01*
X62033255Y-84019294D01*
X61805013Y-83958138D01*
X61805003Y-83958136D01*
X61569601Y-83937541D01*
X61569599Y-83937541D01*
X61334196Y-83958136D01*
X61334186Y-83958138D01*
X61105944Y-84019294D01*
X61105935Y-84019298D01*
X60891771Y-84119164D01*
X60891769Y-84119165D01*
X60698197Y-84254705D01*
X60531105Y-84421797D01*
X60401175Y-84607358D01*
X60346598Y-84650983D01*
X60277100Y-84658177D01*
X60214745Y-84626654D01*
X60198025Y-84607358D01*
X60068094Y-84421797D01*
X59901002Y-84254706D01*
X59900995Y-84254701D01*
X59896339Y-84251441D01*
X59862121Y-84227481D01*
X59707434Y-84119167D01*
X59707430Y-84119165D01*
X59707428Y-84119164D01*
X59493263Y-84019297D01*
X59493259Y-84019296D01*
X59493255Y-84019294D01*
X59265013Y-83958138D01*
X59265003Y-83958136D01*
X59029601Y-83937541D01*
X59029599Y-83937541D01*
X58794196Y-83958136D01*
X58794186Y-83958138D01*
X58565944Y-84019294D01*
X58565935Y-84019298D01*
X58351771Y-84119164D01*
X58351769Y-84119165D01*
X58158197Y-84254705D01*
X57991105Y-84421797D01*
X57855565Y-84615369D01*
X57855564Y-84615371D01*
X57755698Y-84829535D01*
X57755694Y-84829544D01*
X57694538Y-85057786D01*
X57694536Y-85057796D01*
X57673941Y-85293199D01*
X57015500Y-85293199D01*
X57015500Y-83123700D01*
X57035185Y-83056661D01*
X57087989Y-83010906D01*
X57139500Y-82999700D01*
X105877700Y-82999700D01*
X105944739Y-83019385D01*
G37*
%TD.AperFunction*%
%TD*%
%TA.AperFunction,Conductor*%
%TO.N,GND*%
G36*
X65958324Y-102780585D02*
G01*
X66004079Y-102833389D01*
X66014023Y-102902547D01*
X65984998Y-102966103D01*
X65932239Y-103001942D01*
X65842878Y-103033210D01*
X65690137Y-103129184D01*
X65562584Y-103256737D01*
X65466611Y-103409476D01*
X65407031Y-103579745D01*
X65407030Y-103579749D01*
X65391921Y-103713849D01*
X65364854Y-103778263D01*
X65307259Y-103817818D01*
X65237422Y-103819955D01*
X65194390Y-103799231D01*
X65074935Y-103709806D01*
X65074928Y-103709802D01*
X64940082Y-103659508D01*
X64940083Y-103659508D01*
X64880483Y-103653101D01*
X64880481Y-103653100D01*
X64880473Y-103653100D01*
X64880464Y-103653100D01*
X63084729Y-103653100D01*
X63084723Y-103653101D01*
X63025116Y-103659508D01*
X62890271Y-103709802D01*
X62890264Y-103709806D01*
X62775055Y-103796052D01*
X62775052Y-103796055D01*
X62688806Y-103911264D01*
X62688802Y-103911271D01*
X62639597Y-104043198D01*
X62597726Y-104099132D01*
X62532261Y-104123549D01*
X62463988Y-104108697D01*
X62435734Y-104087546D01*
X62313682Y-103965494D01*
X62120178Y-103829999D01*
X61906092Y-103730170D01*
X61906086Y-103730167D01*
X61692600Y-103672964D01*
X61692600Y-104570588D01*
X61635593Y-104537675D01*
X61508426Y-104503600D01*
X61376774Y-104503600D01*
X61249607Y-104537675D01*
X61192600Y-104570588D01*
X61192600Y-103672964D01*
X61192599Y-103672964D01*
X60979113Y-103730167D01*
X60979107Y-103730170D01*
X60765022Y-103829999D01*
X60765020Y-103830000D01*
X60571526Y-103965486D01*
X60571520Y-103965491D01*
X60404491Y-104132520D01*
X60404490Y-104132522D01*
X60274480Y-104318195D01*
X60219903Y-104361819D01*
X60150404Y-104369012D01*
X60088050Y-104337490D01*
X60071330Y-104318194D01*
X59941094Y-104132197D01*
X59774002Y-103965106D01*
X59773995Y-103965101D01*
X59759519Y-103954965D01*
X59708862Y-103919494D01*
X59580434Y-103829567D01*
X59580430Y-103829565D01*
X59559821Y-103819955D01*
X59366263Y-103729697D01*
X59366259Y-103729696D01*
X59366255Y-103729694D01*
X59138013Y-103668538D01*
X59138003Y-103668536D01*
X58902601Y-103647941D01*
X58902599Y-103647941D01*
X58667196Y-103668536D01*
X58667186Y-103668538D01*
X58438944Y-103729694D01*
X58438935Y-103729698D01*
X58224771Y-103829564D01*
X58224769Y-103829565D01*
X58031197Y-103965105D01*
X57864105Y-104132197D01*
X57728565Y-104325769D01*
X57728564Y-104325771D01*
X57628698Y-104539935D01*
X57628694Y-104539944D01*
X57567538Y-104768186D01*
X57567536Y-104768196D01*
X57546941Y-105003599D01*
X57546941Y-105003600D01*
X57567536Y-105239003D01*
X57567538Y-105239013D01*
X57628694Y-105467255D01*
X57628696Y-105467259D01*
X57628697Y-105467263D01*
X57710201Y-105642049D01*
X57728565Y-105681430D01*
X57728567Y-105681434D01*
X57806684Y-105792996D01*
X57864101Y-105874996D01*
X57864106Y-105875002D01*
X58031197Y-106042093D01*
X58031203Y-106042098D01*
X58216758Y-106172025D01*
X58260383Y-106226602D01*
X58267577Y-106296100D01*
X58236054Y-106358455D01*
X58216758Y-106375175D01*
X58031197Y-106505105D01*
X57864105Y-106672197D01*
X57728565Y-106865769D01*
X57728564Y-106865771D01*
X57628698Y-107079935D01*
X57628694Y-107079944D01*
X57567538Y-107308186D01*
X57567536Y-107308196D01*
X57546941Y-107543599D01*
X57546941Y-107543600D01*
X57567536Y-107779003D01*
X57567538Y-107779013D01*
X57628694Y-108007255D01*
X57628696Y-108007259D01*
X57628697Y-108007263D01*
X57708401Y-108178188D01*
X57728565Y-108221430D01*
X57728567Y-108221434D01*
X57801645Y-108325799D01*
X57864105Y-108415001D01*
X58031199Y-108582095D01*
X58081097Y-108617034D01*
X58224765Y-108717632D01*
X58224767Y-108717633D01*
X58224770Y-108717635D01*
X58438937Y-108817503D01*
X58667192Y-108878663D01*
X58855518Y-108895139D01*
X58902599Y-108899259D01*
X58902600Y-108899259D01*
X58902601Y-108899259D01*
X58941834Y-108895826D01*
X59138008Y-108878663D01*
X59366263Y-108817503D01*
X59580430Y-108717635D01*
X59774001Y-108582095D01*
X59941095Y-108415001D01*
X60071330Y-108229005D01*
X60125907Y-108185381D01*
X60195405Y-108178187D01*
X60257760Y-108209710D01*
X60274479Y-108229005D01*
X60404490Y-108414678D01*
X60571517Y-108581705D01*
X60765021Y-108717200D01*
X60979107Y-108817029D01*
X60979116Y-108817033D01*
X61192600Y-108874234D01*
X61192600Y-107976612D01*
X61249607Y-108009525D01*
X61376774Y-108043600D01*
X61508426Y-108043600D01*
X61635593Y-108009525D01*
X61692600Y-107976612D01*
X61692600Y-108874233D01*
X61906083Y-108817033D01*
X61906092Y-108817029D01*
X62120178Y-108717200D01*
X62313682Y-108581705D01*
X62480705Y-108414682D01*
X62610719Y-108229005D01*
X62665296Y-108185381D01*
X62734795Y-108178188D01*
X62797149Y-108209710D01*
X62813869Y-108229005D01*
X62944105Y-108415001D01*
X63111199Y-108582095D01*
X63161097Y-108617034D01*
X63304765Y-108717632D01*
X63304767Y-108717633D01*
X63304770Y-108717635D01*
X63518937Y-108817503D01*
X63747192Y-108878663D01*
X63935518Y-108895139D01*
X63982599Y-108899259D01*
X63982600Y-108899259D01*
X63982601Y-108899259D01*
X64021834Y-108895826D01*
X64218008Y-108878663D01*
X64446263Y-108817503D01*
X64660430Y-108717635D01*
X64854001Y-108582095D01*
X65021095Y-108415001D01*
X65156635Y-108221430D01*
X65256503Y-108007263D01*
X65317663Y-107779008D01*
X65338259Y-107543600D01*
X65317663Y-107308192D01*
X65256503Y-107079937D01*
X65156635Y-106865771D01*
X65151330Y-106858195D01*
X65021096Y-106672200D01*
X64962112Y-106613216D01*
X64899167Y-106550271D01*
X64865684Y-106488951D01*
X64870668Y-106419259D01*
X64912539Y-106363325D01*
X64943515Y-106346410D01*
X65074931Y-106297396D01*
X65190146Y-106211146D01*
X65276396Y-106095931D01*
X65326691Y-105961083D01*
X65333100Y-105901473D01*
X65333099Y-104326451D01*
X65352784Y-104259413D01*
X65405587Y-104213658D01*
X65474746Y-104203714D01*
X65538302Y-104232739D01*
X65558151Y-104255885D01*
X65558240Y-104255815D01*
X65560211Y-104258286D01*
X65562093Y-104260481D01*
X65562582Y-104261260D01*
X65564845Y-104264097D01*
X65565735Y-104266278D01*
X65566289Y-104267159D01*
X65566134Y-104267255D01*
X65591255Y-104328783D01*
X65591900Y-104341412D01*
X65591900Y-105430730D01*
X65591899Y-105430748D01*
X65591899Y-105596454D01*
X65591898Y-105596454D01*
X65603081Y-105638187D01*
X65611527Y-105669710D01*
X65632824Y-105749187D01*
X65643294Y-105767321D01*
X65643295Y-105767323D01*
X65711877Y-105886112D01*
X65711881Y-105886117D01*
X65830749Y-106004985D01*
X65830755Y-106004990D01*
X69374983Y-109549219D01*
X69408468Y-109610542D01*
X69403484Y-109680234D01*
X69361612Y-109736167D01*
X69296148Y-109760584D01*
X69287302Y-109760900D01*
X57119700Y-109760900D01*
X57052661Y-109741215D01*
X57006906Y-109688411D01*
X56995700Y-109636900D01*
X56995700Y-102884900D01*
X57015385Y-102817861D01*
X57068189Y-102772106D01*
X57119700Y-102760900D01*
X65891285Y-102760900D01*
X65958324Y-102780585D01*
G37*
%TD.AperFunction*%
%TA.AperFunction,Conductor*%
G36*
X80440327Y-102780585D02*
G01*
X80486082Y-102833389D01*
X80496026Y-102902547D01*
X80490329Y-102925855D01*
X80474833Y-102970137D01*
X80474830Y-102970150D01*
X80454635Y-103149396D01*
X80454635Y-103149403D01*
X80474830Y-103328649D01*
X80474831Y-103328654D01*
X80534411Y-103498923D01*
X80612086Y-103622541D01*
X80630384Y-103651662D01*
X80757938Y-103779216D01*
X80910678Y-103875189D01*
X81080945Y-103934768D01*
X81080950Y-103934769D01*
X81260196Y-103954965D01*
X81260200Y-103954965D01*
X81260204Y-103954965D01*
X81439449Y-103934769D01*
X81439452Y-103934768D01*
X81439455Y-103934768D01*
X81609722Y-103875189D01*
X81762462Y-103779216D01*
X81762467Y-103779210D01*
X81765297Y-103776955D01*
X81767475Y-103776065D01*
X81768358Y-103775511D01*
X81768455Y-103775665D01*
X81829983Y-103750545D01*
X81842612Y-103749900D01*
X82055303Y-103749900D01*
X82122342Y-103769585D01*
X82142984Y-103786219D01*
X83157298Y-104800533D01*
X83190783Y-104861856D01*
X83192837Y-104874330D01*
X83202630Y-104961249D01*
X83262210Y-105131521D01*
X83318678Y-105221389D01*
X83358184Y-105284262D01*
X83485738Y-105411816D01*
X83566883Y-105462803D01*
X83591258Y-105478119D01*
X83638478Y-105507789D01*
X83805433Y-105566209D01*
X83808745Y-105567368D01*
X83808750Y-105567369D01*
X83987996Y-105587565D01*
X83988000Y-105587565D01*
X83988004Y-105587565D01*
X84167249Y-105567369D01*
X84167252Y-105567368D01*
X84167255Y-105567368D01*
X84337522Y-105507789D01*
X84490262Y-105411816D01*
X84617816Y-105284262D01*
X84713789Y-105131522D01*
X84773368Y-104961255D01*
X84783162Y-104874330D01*
X84793565Y-104782003D01*
X84793565Y-104781996D01*
X84773369Y-104602750D01*
X84773368Y-104602745D01*
X84751393Y-104539944D01*
X84713789Y-104432478D01*
X84617816Y-104279738D01*
X84490262Y-104152184D01*
X84420776Y-104108523D01*
X84337521Y-104056210D01*
X84167249Y-103996630D01*
X84080330Y-103986837D01*
X84015916Y-103959770D01*
X84006533Y-103951298D01*
X83027816Y-102972581D01*
X82994331Y-102911258D01*
X82999315Y-102841566D01*
X83041187Y-102785633D01*
X83106651Y-102761216D01*
X83115497Y-102760900D01*
X105857900Y-102760900D01*
X105924939Y-102780585D01*
X105970694Y-102833389D01*
X105981900Y-102884900D01*
X105981900Y-109636900D01*
X105962215Y-109703939D01*
X105909411Y-109749694D01*
X105857900Y-109760900D01*
X103166949Y-109760900D01*
X103099910Y-109741215D01*
X103054155Y-109688411D01*
X103044211Y-109619253D01*
X103049907Y-109595946D01*
X103091367Y-109477457D01*
X103091368Y-109477455D01*
X103111565Y-109298200D01*
X103091368Y-109118945D01*
X103091367Y-109118943D01*
X103091366Y-109118937D01*
X103061524Y-109033654D01*
X103057962Y-108963875D01*
X103092690Y-108903248D01*
X103154684Y-108871020D01*
X103178554Y-108868699D01*
X104941872Y-108868699D01*
X105001483Y-108862291D01*
X105136331Y-108811996D01*
X105251546Y-108725746D01*
X105337796Y-108610531D01*
X105388091Y-108475683D01*
X105394500Y-108416073D01*
X105394499Y-106620328D01*
X105388091Y-106560717D01*
X105386857Y-106557409D01*
X105337797Y-106425871D01*
X105337793Y-106425864D01*
X105251547Y-106310655D01*
X105251544Y-106310652D01*
X105136335Y-106224406D01*
X105136328Y-106224402D01*
X105004917Y-106175389D01*
X104948983Y-106133518D01*
X104924566Y-106068053D01*
X104939418Y-105999780D01*
X104960563Y-105971532D01*
X105082495Y-105849601D01*
X105218035Y-105656030D01*
X105317903Y-105441863D01*
X105379063Y-105213608D01*
X105399659Y-104978200D01*
X105398176Y-104961255D01*
X105384115Y-104800533D01*
X105379063Y-104742792D01*
X105317903Y-104514537D01*
X105218035Y-104300371D01*
X105212425Y-104292358D01*
X105082494Y-104106797D01*
X104915402Y-103939706D01*
X104915395Y-103939701D01*
X104913328Y-103938254D01*
X104823263Y-103875189D01*
X104721834Y-103804167D01*
X104721830Y-103804165D01*
X104668327Y-103779216D01*
X104507663Y-103704297D01*
X104507659Y-103704296D01*
X104507655Y-103704294D01*
X104279413Y-103643138D01*
X104279403Y-103643136D01*
X104044001Y-103622541D01*
X104043999Y-103622541D01*
X103808596Y-103643136D01*
X103808586Y-103643138D01*
X103580344Y-103704294D01*
X103580335Y-103704298D01*
X103366171Y-103804164D01*
X103366169Y-103804165D01*
X103172597Y-103939705D01*
X103005505Y-104106797D01*
X102875575Y-104292358D01*
X102820998Y-104335983D01*
X102751500Y-104343177D01*
X102689145Y-104311654D01*
X102672425Y-104292358D01*
X102542494Y-104106797D01*
X102375402Y-103939706D01*
X102375395Y-103939701D01*
X102373328Y-103938254D01*
X102283263Y-103875189D01*
X102181834Y-103804167D01*
X102181830Y-103804165D01*
X102128327Y-103779216D01*
X101967663Y-103704297D01*
X101967659Y-103704296D01*
X101967655Y-103704294D01*
X101739413Y-103643138D01*
X101739403Y-103643136D01*
X101504001Y-103622541D01*
X101503999Y-103622541D01*
X101268596Y-103643136D01*
X101268586Y-103643138D01*
X101040344Y-103704294D01*
X101040335Y-103704298D01*
X100826171Y-103804164D01*
X100826169Y-103804165D01*
X100632597Y-103939705D01*
X100465505Y-104106797D01*
X100335575Y-104292358D01*
X100280998Y-104335983D01*
X100211500Y-104343177D01*
X100149145Y-104311654D01*
X100132425Y-104292358D01*
X100002494Y-104106797D01*
X99835402Y-103939706D01*
X99835395Y-103939701D01*
X99833328Y-103938254D01*
X99743263Y-103875189D01*
X99641834Y-103804167D01*
X99641830Y-103804165D01*
X99588327Y-103779216D01*
X99427663Y-103704297D01*
X99427659Y-103704296D01*
X99427655Y-103704294D01*
X99199413Y-103643138D01*
X99199403Y-103643136D01*
X98964001Y-103622541D01*
X98963999Y-103622541D01*
X98728596Y-103643136D01*
X98728586Y-103643138D01*
X98500344Y-103704294D01*
X98500335Y-103704298D01*
X98286171Y-103804164D01*
X98286169Y-103804165D01*
X98092597Y-103939705D01*
X97925505Y-104106797D01*
X97789965Y-104300369D01*
X97789964Y-104300371D01*
X97690098Y-104514535D01*
X97690094Y-104514544D01*
X97628938Y-104742786D01*
X97628936Y-104742796D01*
X97608341Y-104978199D01*
X97608341Y-104978200D01*
X97628936Y-105213603D01*
X97628938Y-105213613D01*
X97690094Y-105441855D01*
X97690096Y-105441859D01*
X97690097Y-105441863D01*
X97773358Y-105620417D01*
X97789965Y-105656030D01*
X97789967Y-105656034D01*
X97885875Y-105793003D01*
X97925505Y-105849601D01*
X98092599Y-106016695D01*
X98272298Y-106142522D01*
X98278594Y-106146930D01*
X98322219Y-106201507D01*
X98329413Y-106271005D01*
X98297890Y-106333360D01*
X98278595Y-106350080D01*
X98092922Y-106480090D01*
X98092920Y-106480091D01*
X97925891Y-106647120D01*
X97925886Y-106647126D01*
X97790400Y-106840620D01*
X97790399Y-106840622D01*
X97690570Y-107054707D01*
X97690567Y-107054713D01*
X97633364Y-107268199D01*
X97633364Y-107268200D01*
X98530988Y-107268200D01*
X98498075Y-107325207D01*
X98464000Y-107452374D01*
X98464000Y-107584026D01*
X98498075Y-107711193D01*
X98530988Y-107768200D01*
X97633364Y-107768200D01*
X97690567Y-107981686D01*
X97690570Y-107981692D01*
X97790399Y-108195778D01*
X97925894Y-108389282D01*
X98022631Y-108486019D01*
X98056116Y-108547342D01*
X98051132Y-108617034D01*
X98009260Y-108672967D01*
X97943796Y-108697384D01*
X97934950Y-108697700D01*
X96299931Y-108697700D01*
X96232892Y-108678015D01*
X96187137Y-108625211D01*
X96177193Y-108556053D01*
X96194392Y-108508603D01*
X96204556Y-108492124D01*
X96204558Y-108492119D01*
X96259705Y-108325697D01*
X96259706Y-108325690D01*
X96270199Y-108222986D01*
X96270200Y-108222973D01*
X96270200Y-107948000D01*
X95144200Y-107948000D01*
X95077161Y-107928315D01*
X95031406Y-107875511D01*
X95020200Y-107824000D01*
X95020200Y-107448000D01*
X95520200Y-107448000D01*
X96270199Y-107448000D01*
X96270199Y-107173028D01*
X96270198Y-107173013D01*
X96259705Y-107070302D01*
X96204558Y-106903880D01*
X96204556Y-106903875D01*
X96112515Y-106754654D01*
X95988545Y-106630684D01*
X95839324Y-106538643D01*
X95839319Y-106538641D01*
X95672897Y-106483494D01*
X95672890Y-106483493D01*
X95570186Y-106473000D01*
X95520200Y-106473000D01*
X95520200Y-107448000D01*
X95020200Y-107448000D01*
X95020200Y-106473000D01*
X95020199Y-106472999D01*
X94970229Y-106473000D01*
X94970211Y-106473001D01*
X94867502Y-106483494D01*
X94701080Y-106538641D01*
X94701075Y-106538643D01*
X94551854Y-106630684D01*
X94427883Y-106754655D01*
X94427879Y-106754660D01*
X94426026Y-106757665D01*
X94424218Y-106759290D01*
X94423402Y-106760323D01*
X94423225Y-106760183D01*
X94374074Y-106804385D01*
X94305111Y-106815601D01*
X94241031Y-106787752D01*
X94214953Y-106757653D01*
X94214937Y-106757628D01*
X94212912Y-106754344D01*
X94088856Y-106630288D01*
X94088855Y-106630287D01*
X94029602Y-106593739D01*
X93982878Y-106541791D01*
X93970700Y-106488201D01*
X93970700Y-105718945D01*
X93970700Y-105718943D01*
X93929777Y-105566216D01*
X93929773Y-105566209D01*
X93846657Y-105422245D01*
X93849437Y-105420639D01*
X93830531Y-105373746D01*
X93820369Y-105283550D01*
X93820368Y-105283545D01*
X93798618Y-105221388D01*
X93760789Y-105113278D01*
X93664816Y-104960538D01*
X93537262Y-104832984D01*
X93485617Y-104800533D01*
X93384523Y-104737011D01*
X93214254Y-104677431D01*
X93214249Y-104677430D01*
X93035004Y-104657235D01*
X93034996Y-104657235D01*
X92855750Y-104677430D01*
X92855745Y-104677431D01*
X92685476Y-104737011D01*
X92532737Y-104832984D01*
X92405184Y-104960537D01*
X92309211Y-105113276D01*
X92249631Y-105283545D01*
X92249630Y-105283550D01*
X92229435Y-105462796D01*
X92229435Y-105462803D01*
X92249630Y-105642049D01*
X92249631Y-105642054D01*
X92309211Y-105812323D01*
X92388281Y-105938161D01*
X92405184Y-105965062D01*
X92532738Y-106092616D01*
X92685478Y-106188589D01*
X92686649Y-106188998D01*
X92687304Y-106189468D01*
X92691751Y-106191610D01*
X92691375Y-106192388D01*
X92743426Y-106229717D01*
X92769177Y-106294668D01*
X92769700Y-106306042D01*
X92769700Y-106488201D01*
X92750015Y-106555240D01*
X92710798Y-106593739D01*
X92651544Y-106630287D01*
X92527489Y-106754342D01*
X92435387Y-106903663D01*
X92435385Y-106903668D01*
X92407549Y-106987670D01*
X92380201Y-107070203D01*
X92380201Y-107070204D01*
X92380200Y-107070204D01*
X92369700Y-107172983D01*
X92369700Y-108223001D01*
X92369701Y-108223019D01*
X92380200Y-108325796D01*
X92380201Y-108325799D01*
X92410119Y-108416083D01*
X92435386Y-108492334D01*
X92435390Y-108492340D01*
X92445421Y-108508604D01*
X92463861Y-108575997D01*
X92442938Y-108642660D01*
X92389295Y-108687429D01*
X92339882Y-108697700D01*
X86091976Y-108697700D01*
X86024937Y-108678015D01*
X85979182Y-108625211D01*
X85968756Y-108559817D01*
X85977365Y-108483404D01*
X85977365Y-108483396D01*
X85957169Y-108304150D01*
X85957168Y-108304145D01*
X85924124Y-108209710D01*
X85897589Y-108133878D01*
X85801616Y-107981138D01*
X85797819Y-107977341D01*
X85764334Y-107916018D01*
X85761500Y-107889660D01*
X85761500Y-107274012D01*
X85781185Y-107206973D01*
X85788555Y-107196697D01*
X85790810Y-107193867D01*
X85790816Y-107193862D01*
X85886789Y-107041122D01*
X85946368Y-106870855D01*
X85946941Y-106865769D01*
X85966565Y-106691603D01*
X85966565Y-106691596D01*
X85946369Y-106512350D01*
X85946368Y-106512345D01*
X85896407Y-106369565D01*
X85886789Y-106342078D01*
X85881119Y-106333055D01*
X85814231Y-106226603D01*
X85790816Y-106189338D01*
X85663262Y-106061784D01*
X85631311Y-106041708D01*
X85510523Y-105965811D01*
X85340254Y-105906231D01*
X85340249Y-105906230D01*
X85161004Y-105886035D01*
X85160996Y-105886035D01*
X84981750Y-105906230D01*
X84981745Y-105906231D01*
X84811476Y-105965811D01*
X84658737Y-106061784D01*
X84531184Y-106189337D01*
X84435211Y-106342076D01*
X84375631Y-106512345D01*
X84375630Y-106512350D01*
X84355435Y-106691596D01*
X84355435Y-106691603D01*
X84375630Y-106870849D01*
X84375631Y-106870854D01*
X84435211Y-107041123D01*
X84483580Y-107118101D01*
X84518070Y-107172992D01*
X84531185Y-107193863D01*
X84533445Y-107196697D01*
X84534334Y-107198875D01*
X84534889Y-107199758D01*
X84534734Y-107199855D01*
X84559855Y-107261383D01*
X84560500Y-107274012D01*
X84560500Y-107915946D01*
X84541494Y-107981918D01*
X84446011Y-108133876D01*
X84386431Y-108304145D01*
X84386430Y-108304150D01*
X84366235Y-108483396D01*
X84366235Y-108483404D01*
X84374844Y-108559817D01*
X84362789Y-108628639D01*
X84315440Y-108680018D01*
X84251624Y-108697700D01*
X70273298Y-108697700D01*
X70206259Y-108678015D01*
X70185617Y-108661381D01*
X66829219Y-105304983D01*
X66795734Y-105243660D01*
X66792900Y-105217302D01*
X66792900Y-104495596D01*
X72016235Y-104495596D01*
X72016235Y-104495603D01*
X72036430Y-104674849D01*
X72036431Y-104674854D01*
X72096011Y-104845123D01*
X72185432Y-104987435D01*
X72191984Y-104997862D01*
X72319538Y-105125416D01*
X72409880Y-105182182D01*
X72465773Y-105217302D01*
X72472278Y-105221389D01*
X72535925Y-105243660D01*
X72642545Y-105280968D01*
X72642550Y-105280969D01*
X72821797Y-105301165D01*
X72821798Y-105301164D01*
X72821800Y-105301165D01*
X72830873Y-105300142D01*
X72899693Y-105312191D01*
X72932444Y-105335679D01*
X74886284Y-107289520D01*
X74886286Y-107289521D01*
X74886290Y-107289524D01*
X75023209Y-107368573D01*
X75023212Y-107368575D01*
X75023216Y-107368577D01*
X75175943Y-107409501D01*
X75175945Y-107409501D01*
X75341654Y-107409501D01*
X75341670Y-107409500D01*
X75594602Y-107409500D01*
X75661641Y-107429185D01*
X75700139Y-107468401D01*
X75736688Y-107527656D01*
X75860744Y-107651712D01*
X76010066Y-107743814D01*
X76176603Y-107798999D01*
X76279391Y-107809500D01*
X76576437Y-107809499D01*
X76608532Y-107813725D01*
X76636209Y-107821141D01*
X76659943Y-107827501D01*
X76659944Y-107827501D01*
X76818056Y-107827501D01*
X76818057Y-107827501D01*
X76869468Y-107813724D01*
X76901562Y-107809499D01*
X77329402Y-107809499D01*
X77329408Y-107809499D01*
X77432197Y-107798999D01*
X77598734Y-107743814D01*
X77748056Y-107651712D01*
X77872112Y-107527656D01*
X77908659Y-107468402D01*
X77960607Y-107421679D01*
X78014198Y-107409500D01*
X80375331Y-107409500D01*
X80375347Y-107409501D01*
X80382943Y-107409501D01*
X80541054Y-107409501D01*
X80541057Y-107409501D01*
X80693785Y-107368577D01*
X80761842Y-107329284D01*
X80830716Y-107289520D01*
X80942520Y-107177716D01*
X80942520Y-107177714D01*
X80952724Y-107167511D01*
X80952728Y-107167506D01*
X81496535Y-106623698D01*
X81557856Y-106590215D01*
X81570311Y-106588163D01*
X81657255Y-106578368D01*
X81827522Y-106518789D01*
X81980262Y-106422816D01*
X82107816Y-106295262D01*
X82203789Y-106142522D01*
X82263368Y-105972255D01*
X82263450Y-105971526D01*
X82283565Y-105793003D01*
X82283565Y-105792996D01*
X82263369Y-105613750D01*
X82263368Y-105613745D01*
X82226292Y-105507788D01*
X82203789Y-105443478D01*
X82200562Y-105438343D01*
X82120981Y-105311690D01*
X82107816Y-105290738D01*
X81980262Y-105163184D01*
X81929874Y-105131523D01*
X81827523Y-105067211D01*
X81657254Y-105007631D01*
X81657249Y-105007630D01*
X81478004Y-104987435D01*
X81477996Y-104987435D01*
X81298750Y-105007630D01*
X81298745Y-105007631D01*
X81128476Y-105067211D01*
X80975737Y-105163184D01*
X80848184Y-105290737D01*
X80752210Y-105443478D01*
X80692630Y-105613750D01*
X80682837Y-105700668D01*
X80655770Y-105765082D01*
X80647298Y-105774465D01*
X80249584Y-106172181D01*
X80188261Y-106205666D01*
X80161903Y-106208500D01*
X78014198Y-106208500D01*
X77947159Y-106188815D01*
X77908659Y-106149597D01*
X77904296Y-106142523D01*
X77872112Y-106090344D01*
X77748056Y-105966288D01*
X77744742Y-105964243D01*
X77742946Y-105962248D01*
X77742389Y-105961807D01*
X77742464Y-105961711D01*
X77698018Y-105912297D01*
X77686797Y-105843334D01*
X77714640Y-105779252D01*
X77744748Y-105753165D01*
X77747742Y-105751318D01*
X77871715Y-105627345D01*
X77963756Y-105478124D01*
X77963758Y-105478119D01*
X78018905Y-105311697D01*
X78018906Y-105311690D01*
X78029399Y-105208986D01*
X78029400Y-105208973D01*
X78029400Y-105159000D01*
X75579401Y-105159000D01*
X75579401Y-105208986D01*
X75589894Y-105311697D01*
X75645041Y-105478119D01*
X75645043Y-105478124D01*
X75737084Y-105627345D01*
X75861055Y-105751316D01*
X75861059Y-105751319D01*
X75864056Y-105753168D01*
X75865679Y-105754972D01*
X75866723Y-105755798D01*
X75866581Y-105755976D01*
X75910781Y-105805116D01*
X75922002Y-105874079D01*
X75894159Y-105938161D01*
X75864061Y-105964241D01*
X75860749Y-105966283D01*
X75860743Y-105966288D01*
X75736689Y-106090342D01*
X75733244Y-106095928D01*
X75704505Y-106142522D01*
X75700141Y-106149597D01*
X75648193Y-106196321D01*
X75594602Y-106208500D01*
X75555098Y-106208500D01*
X75488059Y-106188815D01*
X75467417Y-106172181D01*
X73904248Y-104609013D01*
X75579400Y-104609013D01*
X75579400Y-104659000D01*
X76554400Y-104659000D01*
X77054400Y-104659000D01*
X78029399Y-104659000D01*
X78029399Y-104609028D01*
X78029398Y-104609013D01*
X78018905Y-104506302D01*
X77963758Y-104339880D01*
X77963756Y-104339875D01*
X77871715Y-104190654D01*
X77747745Y-104066684D01*
X77598524Y-103974643D01*
X77598519Y-103974641D01*
X77432097Y-103919494D01*
X77432090Y-103919493D01*
X77329386Y-103909000D01*
X77054400Y-103909000D01*
X77054400Y-104659000D01*
X76554400Y-104659000D01*
X76554400Y-103909000D01*
X76279429Y-103909000D01*
X76279412Y-103909001D01*
X76176702Y-103919494D01*
X76010280Y-103974641D01*
X76010275Y-103974643D01*
X75861054Y-104066684D01*
X75737084Y-104190654D01*
X75645043Y-104339875D01*
X75645041Y-104339880D01*
X75589894Y-104506302D01*
X75589893Y-104506309D01*
X75579400Y-104609013D01*
X73904248Y-104609013D01*
X73624807Y-104329572D01*
X73595447Y-104282846D01*
X73547590Y-104146081D01*
X73547589Y-104146077D01*
X73482945Y-104043198D01*
X73451616Y-103993338D01*
X73324062Y-103865784D01*
X73171323Y-103769811D01*
X73001054Y-103710231D01*
X73001049Y-103710230D01*
X72821804Y-103690035D01*
X72821796Y-103690035D01*
X72642550Y-103710230D01*
X72642545Y-103710231D01*
X72472276Y-103769811D01*
X72319537Y-103865784D01*
X72191984Y-103993337D01*
X72096011Y-104146076D01*
X72036431Y-104316345D01*
X72036430Y-104316350D01*
X72016235Y-104495596D01*
X66792900Y-104495596D01*
X66792900Y-104341412D01*
X66812585Y-104274373D01*
X66819955Y-104264097D01*
X66822210Y-104261267D01*
X66822216Y-104261262D01*
X66918189Y-104108522D01*
X66977768Y-103938255D01*
X66979882Y-103919493D01*
X66997965Y-103759003D01*
X66997965Y-103758996D01*
X66977769Y-103579750D01*
X66977768Y-103579745D01*
X66918188Y-103409476D01*
X66822215Y-103256737D01*
X66694662Y-103129184D01*
X66541921Y-103033210D01*
X66452561Y-103001942D01*
X66395784Y-102961220D01*
X66370037Y-102896267D01*
X66383493Y-102827706D01*
X66431880Y-102777303D01*
X66493515Y-102760900D01*
X80373288Y-102760900D01*
X80440327Y-102780585D01*
G37*
%TD.AperFunction*%
%TA.AperFunction,Conductor*%
G36*
X61692600Y-107110588D02*
G01*
X61635593Y-107077675D01*
X61508426Y-107043600D01*
X61376774Y-107043600D01*
X61249607Y-107077675D01*
X61192600Y-107110588D01*
X61192600Y-105436612D01*
X61249607Y-105469525D01*
X61376774Y-105503600D01*
X61508426Y-105503600D01*
X61635593Y-105469525D01*
X61692600Y-105436612D01*
X61692600Y-107110588D01*
G37*
%TD.AperFunction*%
%TD*%
%TA.AperFunction,Conductor*%
%TO.N,GND*%
G36*
X75098436Y-93078385D02*
G01*
X75144191Y-93131189D01*
X75154135Y-93200347D01*
X75125110Y-93263903D01*
X75097369Y-93287694D01*
X74956537Y-93376184D01*
X74828984Y-93503737D01*
X74733011Y-93656476D01*
X74673431Y-93826745D01*
X74673430Y-93826750D01*
X74653235Y-94005996D01*
X74653235Y-94006003D01*
X74673430Y-94185249D01*
X74673431Y-94185254D01*
X74733011Y-94355523D01*
X74813372Y-94483416D01*
X74828984Y-94508262D01*
X74956538Y-94635816D01*
X74977471Y-94648969D01*
X75102273Y-94727388D01*
X75109278Y-94731789D01*
X75224886Y-94772242D01*
X75279545Y-94791368D01*
X75279550Y-94791369D01*
X75458796Y-94811565D01*
X75458800Y-94811565D01*
X75458804Y-94811565D01*
X75638049Y-94791369D01*
X75638052Y-94791368D01*
X75638055Y-94791368D01*
X75808322Y-94731789D01*
X75808324Y-94731788D01*
X75832007Y-94716907D01*
X75897980Y-94697900D01*
X76484202Y-94697900D01*
X76551241Y-94717585D01*
X76589739Y-94756801D01*
X76626288Y-94816056D01*
X76750344Y-94940112D01*
X76753381Y-94941985D01*
X76753653Y-94942153D01*
X76755445Y-94944146D01*
X76756011Y-94944593D01*
X76755934Y-94944689D01*
X76800379Y-94994099D01*
X76811603Y-95063061D01*
X76783761Y-95127144D01*
X76753665Y-95153226D01*
X76750660Y-95155079D01*
X76750655Y-95155083D01*
X76626684Y-95279054D01*
X76534643Y-95428275D01*
X76534641Y-95428280D01*
X76479494Y-95594702D01*
X76479493Y-95594709D01*
X76469000Y-95697413D01*
X76469000Y-95747400D01*
X78918999Y-95747400D01*
X78918999Y-95697428D01*
X78918998Y-95697413D01*
X78908505Y-95594702D01*
X78853358Y-95428280D01*
X78853356Y-95428275D01*
X78761315Y-95279054D01*
X78637344Y-95155083D01*
X78637341Y-95155081D01*
X78634339Y-95153229D01*
X78632713Y-95151421D01*
X78631677Y-95150602D01*
X78631817Y-95150424D01*
X78587617Y-95101280D01*
X78576397Y-95032317D01*
X78604243Y-94968236D01*
X78634344Y-94942154D01*
X78637656Y-94940112D01*
X78761712Y-94816056D01*
X78761712Y-94816055D01*
X78766819Y-94810949D01*
X78769020Y-94813150D01*
X78814571Y-94780816D01*
X78884366Y-94777596D01*
X78920922Y-94793062D01*
X78944678Y-94807989D01*
X78944680Y-94807990D01*
X79114937Y-94867566D01*
X79114943Y-94867567D01*
X79114945Y-94867568D01*
X79114946Y-94867568D01*
X79114950Y-94867569D01*
X79294196Y-94887765D01*
X79294200Y-94887765D01*
X79294204Y-94887765D01*
X79473449Y-94867569D01*
X79473452Y-94867568D01*
X79473455Y-94867568D01*
X79643722Y-94807989D01*
X79761179Y-94734186D01*
X85309601Y-94734186D01*
X85320094Y-94836897D01*
X85375241Y-95003319D01*
X85375243Y-95003324D01*
X85467284Y-95152545D01*
X85591254Y-95276515D01*
X85740475Y-95368556D01*
X85740480Y-95368558D01*
X85906902Y-95423705D01*
X85906909Y-95423706D01*
X86009619Y-95434199D01*
X86059599Y-95434198D01*
X86059600Y-95434198D01*
X86059600Y-94459200D01*
X85309601Y-94459200D01*
X85309601Y-94734186D01*
X79761179Y-94734186D01*
X79796462Y-94712016D01*
X79924016Y-94584462D01*
X80019989Y-94431722D01*
X80079568Y-94261455D01*
X80079569Y-94261449D01*
X80099765Y-94082203D01*
X80099765Y-94082196D01*
X80079569Y-93902950D01*
X80079568Y-93902945D01*
X80064428Y-93859678D01*
X80019989Y-93732678D01*
X80003815Y-93706938D01*
X79937647Y-93601632D01*
X79924016Y-93579938D01*
X79796462Y-93452384D01*
X79751022Y-93423832D01*
X79643723Y-93356411D01*
X79481771Y-93299742D01*
X79424995Y-93259020D01*
X79399248Y-93194067D01*
X79412704Y-93125506D01*
X79461091Y-93075103D01*
X79522726Y-93058700D01*
X85375077Y-93058700D01*
X85442116Y-93078385D01*
X85487871Y-93131189D01*
X85497815Y-93200347D01*
X85470823Y-93259451D01*
X85471761Y-93260193D01*
X85467284Y-93265853D01*
X85375243Y-93415075D01*
X85375241Y-93415080D01*
X85320094Y-93581502D01*
X85320093Y-93581509D01*
X85309600Y-93684213D01*
X85309600Y-93959200D01*
X86435600Y-93959200D01*
X86502639Y-93978885D01*
X86548394Y-94031689D01*
X86559600Y-94083200D01*
X86559600Y-95434199D01*
X86609572Y-95434199D01*
X86609586Y-95434198D01*
X86712297Y-95423705D01*
X86878719Y-95368558D01*
X86878724Y-95368556D01*
X87027945Y-95276515D01*
X87151918Y-95152542D01*
X87153765Y-95149548D01*
X87155569Y-95147924D01*
X87156398Y-95146877D01*
X87156576Y-95147018D01*
X87205710Y-95102821D01*
X87274673Y-95091596D01*
X87338756Y-95119436D01*
X87364843Y-95149541D01*
X87366888Y-95152856D01*
X87490944Y-95276912D01*
X87640266Y-95369014D01*
X87806803Y-95424199D01*
X87857810Y-95429410D01*
X87912732Y-95435021D01*
X87912621Y-95436105D01*
X87974385Y-95457705D01*
X88017400Y-95512764D01*
X88023818Y-95582338D01*
X88019177Y-95599434D01*
X88008433Y-95630138D01*
X88008430Y-95630150D01*
X87988235Y-95809396D01*
X87988235Y-95809403D01*
X88008430Y-95988649D01*
X88008431Y-95988654D01*
X88068011Y-96158923D01*
X88101033Y-96211477D01*
X88120033Y-96278714D01*
X88102772Y-96340569D01*
X88046330Y-96436008D01*
X88046329Y-96436011D01*
X88001535Y-96590191D01*
X88001534Y-96590197D01*
X87998700Y-96626211D01*
X87998700Y-97024569D01*
X87998701Y-97024591D01*
X88001535Y-97060605D01*
X88046329Y-97214788D01*
X88046332Y-97214795D01*
X88080328Y-97272281D01*
X88097509Y-97340005D01*
X88080328Y-97398519D01*
X88046332Y-97456004D01*
X88046329Y-97456011D01*
X88001535Y-97610191D01*
X88001534Y-97610197D01*
X87998700Y-97646211D01*
X87998700Y-97646226D01*
X87998701Y-98031300D01*
X87979017Y-98098339D01*
X87926213Y-98144094D01*
X87874701Y-98155300D01*
X85398340Y-98155300D01*
X85331301Y-98135615D01*
X85310659Y-98118981D01*
X85308262Y-98116584D01*
X85155523Y-98020611D01*
X84985254Y-97961031D01*
X84985249Y-97961030D01*
X84806004Y-97940835D01*
X84805996Y-97940835D01*
X84626750Y-97961030D01*
X84626745Y-97961031D01*
X84456476Y-98020611D01*
X84303737Y-98116584D01*
X84176184Y-98244137D01*
X84080211Y-98396876D01*
X84020631Y-98567145D01*
X84020630Y-98567150D01*
X84000435Y-98746396D01*
X84000435Y-98746403D01*
X84020630Y-98925649D01*
X84020631Y-98925654D01*
X84080211Y-99095923D01*
X84176184Y-99248662D01*
X84303738Y-99376216D01*
X84375220Y-99421131D01*
X84451372Y-99468981D01*
X84456478Y-99472189D01*
X84626742Y-99531767D01*
X84626745Y-99531768D01*
X84626750Y-99531769D01*
X84805996Y-99551965D01*
X84806000Y-99551965D01*
X84806004Y-99551965D01*
X84985249Y-99531769D01*
X84985252Y-99531768D01*
X84985255Y-99531768D01*
X85155522Y-99472189D01*
X85308262Y-99376216D01*
X85308262Y-99376215D01*
X85309710Y-99375306D01*
X85375682Y-99356300D01*
X88884931Y-99356300D01*
X88884947Y-99356301D01*
X88892543Y-99356301D01*
X89050654Y-99356301D01*
X89050657Y-99356301D01*
X89203385Y-99315377D01*
X89203387Y-99315375D01*
X89203389Y-99315375D01*
X89210899Y-99312265D01*
X89212097Y-99315159D01*
X89265607Y-99302167D01*
X89331639Y-99325006D01*
X89347413Y-99338347D01*
X89430596Y-99421530D01*
X89430600Y-99421533D01*
X89430602Y-99421535D01*
X89568807Y-99503269D01*
X89609468Y-99515082D01*
X89722991Y-99548064D01*
X89722994Y-99548064D01*
X89722996Y-99548065D01*
X89759019Y-99550900D01*
X90157380Y-99550899D01*
X90193404Y-99548065D01*
X90347593Y-99503269D01*
X90405569Y-99468981D01*
X90473293Y-99451798D01*
X90531812Y-99468981D01*
X90589005Y-99502804D01*
X90728200Y-99543244D01*
X90728200Y-99543243D01*
X91228200Y-99543243D01*
X91367394Y-99502804D01*
X91505485Y-99421138D01*
X91505494Y-99421131D01*
X91618931Y-99307694D01*
X91618938Y-99307685D01*
X91700606Y-99169591D01*
X91700607Y-99169588D01*
X91745366Y-99015528D01*
X91745367Y-99015522D01*
X91748131Y-98980400D01*
X91228200Y-98980400D01*
X91228200Y-99543243D01*
X90728200Y-99543243D01*
X90728200Y-98990808D01*
X90728582Y-98981079D01*
X90728700Y-98979581D01*
X90728699Y-98481220D01*
X90728634Y-98480400D01*
X90728582Y-98479732D01*
X90728200Y-98470007D01*
X90728200Y-97917554D01*
X91228200Y-97917554D01*
X91228200Y-98480400D01*
X91748131Y-98480400D01*
X91745367Y-98445277D01*
X91745366Y-98445271D01*
X91700607Y-98291211D01*
X91700606Y-98291208D01*
X91618938Y-98153114D01*
X91618931Y-98153105D01*
X91505494Y-98039668D01*
X91505485Y-98039661D01*
X91367391Y-97957993D01*
X91367388Y-97957991D01*
X91228201Y-97917553D01*
X91228200Y-97917554D01*
X90728200Y-97917554D01*
X90728198Y-97917553D01*
X90589011Y-97957991D01*
X90589010Y-97957992D01*
X90531811Y-97991819D01*
X90464086Y-98009000D01*
X90405571Y-97991819D01*
X90391739Y-97983639D01*
X90347593Y-97957531D01*
X90347592Y-97957530D01*
X90347591Y-97957530D01*
X90347588Y-97957529D01*
X90193408Y-97912735D01*
X90193402Y-97912734D01*
X90157388Y-97909900D01*
X90157381Y-97909900D01*
X90038298Y-97909900D01*
X89971259Y-97890215D01*
X89950621Y-97873585D01*
X89859016Y-97781980D01*
X89859015Y-97781979D01*
X89854685Y-97777649D01*
X89854674Y-97777639D01*
X89638753Y-97561718D01*
X89607358Y-97508632D01*
X89592069Y-97456007D01*
X89558069Y-97398517D01*
X89540888Y-97330798D01*
X89558069Y-97272282D01*
X89592069Y-97214793D01*
X89609147Y-97156012D01*
X89636864Y-97060608D01*
X89636864Y-97060606D01*
X89636865Y-97060604D01*
X89639700Y-97024581D01*
X89639699Y-96626220D01*
X89636865Y-96590196D01*
X89592069Y-96436007D01*
X89510996Y-96298920D01*
X89493814Y-96231198D01*
X89512738Y-96169825D01*
X89519588Y-96158923D01*
X89519589Y-96158922D01*
X89579168Y-95988655D01*
X89581381Y-95969017D01*
X89599365Y-95809403D01*
X89599365Y-95809396D01*
X89579169Y-95630150D01*
X89579168Y-95630145D01*
X89555415Y-95562264D01*
X89519589Y-95459878D01*
X89504651Y-95436105D01*
X89462209Y-95368558D01*
X89423616Y-95307138D01*
X89423615Y-95307137D01*
X89421355Y-95304303D01*
X89420465Y-95302124D01*
X89419911Y-95301242D01*
X89420065Y-95301144D01*
X89394946Y-95239616D01*
X89394301Y-95226989D01*
X89394301Y-95225196D01*
X93068235Y-95225196D01*
X93068235Y-95225203D01*
X93088430Y-95404449D01*
X93088431Y-95404454D01*
X93148011Y-95574723D01*
X93235691Y-95714264D01*
X93243984Y-95727462D01*
X93371538Y-95855016D01*
X93524278Y-95950989D01*
X93694545Y-96010568D01*
X93781469Y-96020361D01*
X93845880Y-96047426D01*
X93855264Y-96055899D01*
X94170484Y-96371120D01*
X94170486Y-96371121D01*
X94170490Y-96371124D01*
X94282945Y-96436049D01*
X94307416Y-96450177D01*
X94460143Y-96491101D01*
X94460145Y-96491101D01*
X94625854Y-96491101D01*
X94625870Y-96491100D01*
X94721402Y-96491100D01*
X94788441Y-96510785D01*
X94826939Y-96550001D01*
X94863488Y-96609256D01*
X94987544Y-96733312D01*
X94990828Y-96735337D01*
X94990853Y-96735353D01*
X94992645Y-96737346D01*
X94993211Y-96737793D01*
X94993134Y-96737889D01*
X95037579Y-96787299D01*
X95048803Y-96856261D01*
X95020961Y-96920344D01*
X94990865Y-96946426D01*
X94987860Y-96948279D01*
X94987855Y-96948283D01*
X94863884Y-97072254D01*
X94771843Y-97221475D01*
X94771841Y-97221480D01*
X94716694Y-97387902D01*
X94716693Y-97387909D01*
X94706200Y-97490613D01*
X94706200Y-97540600D01*
X97156199Y-97540600D01*
X97156199Y-97490628D01*
X97156198Y-97490613D01*
X97145705Y-97387902D01*
X97090558Y-97221480D01*
X97090556Y-97221475D01*
X96998515Y-97072254D01*
X96874544Y-96948283D01*
X96874541Y-96948281D01*
X96871539Y-96946429D01*
X96869913Y-96944621D01*
X96868877Y-96943802D01*
X96869017Y-96943624D01*
X96824817Y-96894480D01*
X96813597Y-96825517D01*
X96841443Y-96761436D01*
X96871544Y-96735354D01*
X96874856Y-96733312D01*
X96998912Y-96609256D01*
X97091014Y-96459934D01*
X97146199Y-96293397D01*
X97156700Y-96190609D01*
X97156699Y-95590592D01*
X97155698Y-95580796D01*
X97146199Y-95487803D01*
X97146198Y-95487800D01*
X97145603Y-95486003D01*
X97091014Y-95321266D01*
X96998912Y-95171944D01*
X96874856Y-95047888D01*
X96725534Y-94955786D01*
X96725533Y-94955785D01*
X96725525Y-94955782D01*
X96683888Y-94941985D01*
X96626443Y-94902212D01*
X96599621Y-94837696D01*
X96611937Y-94768920D01*
X96617894Y-94758317D01*
X96631589Y-94736522D01*
X96691168Y-94566255D01*
X96692017Y-94558722D01*
X96711365Y-94387003D01*
X96711365Y-94386996D01*
X96691169Y-94207750D01*
X96691168Y-94207745D01*
X96647238Y-94082200D01*
X96631589Y-94037478D01*
X96628680Y-94032849D01*
X96554968Y-93915537D01*
X96535616Y-93884738D01*
X96408062Y-93757184D01*
X96369058Y-93732676D01*
X96255323Y-93661211D01*
X96085054Y-93601631D01*
X96085049Y-93601630D01*
X95905804Y-93581435D01*
X95905796Y-93581435D01*
X95726550Y-93601630D01*
X95726545Y-93601631D01*
X95556276Y-93661211D01*
X95403537Y-93757184D01*
X95275984Y-93884737D01*
X95180011Y-94037476D01*
X95120431Y-94207745D01*
X95120430Y-94207750D01*
X95100235Y-94386996D01*
X95100235Y-94387003D01*
X95120430Y-94566249D01*
X95120431Y-94566254D01*
X95180012Y-94736525D01*
X95202454Y-94772242D01*
X95221454Y-94839479D01*
X95201086Y-94906314D01*
X95147817Y-94951527D01*
X95137157Y-94955651D01*
X95136863Y-94955787D01*
X94987545Y-95047887D01*
X94874688Y-95160744D01*
X94813365Y-95194228D01*
X94743673Y-95189244D01*
X94687740Y-95147372D01*
X94663787Y-95086945D01*
X94659168Y-95045945D01*
X94599589Y-94875678D01*
X94503616Y-94722938D01*
X94376062Y-94595384D01*
X94358680Y-94584462D01*
X94223323Y-94499411D01*
X94053054Y-94439831D01*
X94053049Y-94439830D01*
X93873804Y-94419635D01*
X93873796Y-94419635D01*
X93694550Y-94439830D01*
X93694545Y-94439831D01*
X93524276Y-94499411D01*
X93371537Y-94595384D01*
X93243984Y-94722937D01*
X93148011Y-94875676D01*
X93088431Y-95045945D01*
X93088430Y-95045950D01*
X93068235Y-95225196D01*
X89394301Y-95225196D01*
X89394301Y-95171544D01*
X89389889Y-95155079D01*
X89353377Y-95018816D01*
X89307937Y-94940111D01*
X89274324Y-94881890D01*
X89274318Y-94881882D01*
X89244029Y-94851593D01*
X89210544Y-94790270D01*
X89208353Y-94751305D01*
X89209267Y-94742359D01*
X89235668Y-94677671D01*
X89292852Y-94637523D01*
X89362663Y-94634665D01*
X89373580Y-94637931D01*
X89376541Y-94638967D01*
X89376544Y-94638967D01*
X89376545Y-94638968D01*
X89376546Y-94638968D01*
X89376550Y-94638969D01*
X89555796Y-94659165D01*
X89555800Y-94659165D01*
X89555804Y-94659165D01*
X89735049Y-94638969D01*
X89735052Y-94638968D01*
X89735055Y-94638968D01*
X89905322Y-94579389D01*
X90058062Y-94483416D01*
X90185616Y-94355862D01*
X90281589Y-94203122D01*
X90341168Y-94032855D01*
X90341169Y-94032849D01*
X90361365Y-93853603D01*
X90361365Y-93853596D01*
X90341169Y-93674350D01*
X90341168Y-93674345D01*
X90334915Y-93656476D01*
X90281589Y-93504078D01*
X90281375Y-93503738D01*
X90242382Y-93441680D01*
X90185616Y-93351338D01*
X90104659Y-93270381D01*
X90071174Y-93209058D01*
X90076158Y-93139366D01*
X90118030Y-93083433D01*
X90183494Y-93059016D01*
X90192340Y-93058700D01*
X105873100Y-93058700D01*
X105940139Y-93078385D01*
X105985894Y-93131189D01*
X105997100Y-93182700D01*
X105997100Y-99934700D01*
X105977415Y-100001739D01*
X105924611Y-100047494D01*
X105873100Y-100058700D01*
X100659873Y-100058700D01*
X100592834Y-100039015D01*
X100547079Y-99986211D01*
X100537135Y-99917053D01*
X100542831Y-99893745D01*
X100602768Y-99722454D01*
X100602769Y-99722449D01*
X100622965Y-99543203D01*
X100622965Y-99543196D01*
X100602769Y-99363950D01*
X100602768Y-99363945D01*
X100575068Y-99284782D01*
X100543189Y-99193678D01*
X100522124Y-99160154D01*
X100474522Y-99084396D01*
X100447216Y-99040938D01*
X100319662Y-98913384D01*
X100271203Y-98882935D01*
X100166921Y-98817410D01*
X100101475Y-98794510D01*
X100044699Y-98753788D01*
X100018951Y-98688836D01*
X100032407Y-98620274D01*
X100040854Y-98606344D01*
X100132119Y-98476005D01*
X100186696Y-98432380D01*
X100256195Y-98425188D01*
X100318549Y-98456710D01*
X100335269Y-98476005D01*
X100465505Y-98662001D01*
X100632599Y-98829095D01*
X100729384Y-98896865D01*
X100826165Y-98964632D01*
X100826167Y-98964633D01*
X100826170Y-98964635D01*
X101040337Y-99064503D01*
X101268592Y-99125663D01*
X101445034Y-99141100D01*
X101503999Y-99146259D01*
X101504000Y-99146259D01*
X101504001Y-99146259D01*
X101562966Y-99141100D01*
X101739408Y-99125663D01*
X101967663Y-99064503D01*
X102181830Y-98964635D01*
X102375401Y-98829095D01*
X102497329Y-98707166D01*
X102558648Y-98673684D01*
X102628340Y-98678668D01*
X102684274Y-98720539D01*
X102701189Y-98751517D01*
X102750202Y-98882928D01*
X102750206Y-98882935D01*
X102836452Y-98998144D01*
X102836455Y-98998147D01*
X102951664Y-99084393D01*
X102951671Y-99084397D01*
X103086517Y-99134691D01*
X103086516Y-99134691D01*
X103093444Y-99135435D01*
X103146127Y-99141100D01*
X104941872Y-99141099D01*
X105001483Y-99134691D01*
X105136331Y-99084396D01*
X105251546Y-98998146D01*
X105337796Y-98882931D01*
X105388091Y-98748083D01*
X105394500Y-98688473D01*
X105394499Y-96892728D01*
X105388091Y-96833117D01*
X105386810Y-96829683D01*
X105337797Y-96698271D01*
X105337793Y-96698264D01*
X105251547Y-96583055D01*
X105251544Y-96583052D01*
X105136335Y-96496806D01*
X105136328Y-96496802D01*
X105004917Y-96447789D01*
X104948983Y-96405918D01*
X104924566Y-96340453D01*
X104939418Y-96272180D01*
X104960563Y-96243932D01*
X105082495Y-96122001D01*
X105218035Y-95928430D01*
X105317903Y-95714263D01*
X105379063Y-95486008D01*
X105399659Y-95250600D01*
X105379063Y-95015192D01*
X105317903Y-94786937D01*
X105218035Y-94572771D01*
X105213473Y-94566255D01*
X105082494Y-94379197D01*
X104915402Y-94212106D01*
X104915395Y-94212101D01*
X104911256Y-94209203D01*
X104830655Y-94152765D01*
X104721834Y-94076567D01*
X104721830Y-94076565D01*
X104671074Y-94052897D01*
X104507663Y-93976697D01*
X104507659Y-93976696D01*
X104507655Y-93976694D01*
X104279413Y-93915538D01*
X104279403Y-93915536D01*
X104044001Y-93894941D01*
X104043999Y-93894941D01*
X103808596Y-93915536D01*
X103808586Y-93915538D01*
X103580344Y-93976694D01*
X103580335Y-93976698D01*
X103366171Y-94076564D01*
X103366169Y-94076565D01*
X103172597Y-94212105D01*
X103005505Y-94379197D01*
X102875575Y-94564758D01*
X102820998Y-94608383D01*
X102751500Y-94615577D01*
X102689145Y-94584054D01*
X102672425Y-94564758D01*
X102542494Y-94379197D01*
X102375402Y-94212106D01*
X102375395Y-94212101D01*
X102371256Y-94209203D01*
X102290655Y-94152765D01*
X102181834Y-94076567D01*
X102181830Y-94076565D01*
X102131074Y-94052897D01*
X101967663Y-93976697D01*
X101967659Y-93976696D01*
X101967655Y-93976694D01*
X101739413Y-93915538D01*
X101739403Y-93915536D01*
X101504001Y-93894941D01*
X101503999Y-93894941D01*
X101268596Y-93915536D01*
X101268586Y-93915538D01*
X101040344Y-93976694D01*
X101040335Y-93976698D01*
X100826171Y-94076564D01*
X100826169Y-94076565D01*
X100632597Y-94212105D01*
X100465505Y-94379197D01*
X100335575Y-94564758D01*
X100280998Y-94608383D01*
X100211500Y-94615577D01*
X100149145Y-94584054D01*
X100132425Y-94564758D01*
X100002494Y-94379197D01*
X99835402Y-94212106D01*
X99835395Y-94212101D01*
X99831256Y-94209203D01*
X99750655Y-94152765D01*
X99641834Y-94076567D01*
X99641830Y-94076565D01*
X99591074Y-94052897D01*
X99427663Y-93976697D01*
X99427659Y-93976696D01*
X99427655Y-93976694D01*
X99199413Y-93915538D01*
X99199403Y-93915536D01*
X98964001Y-93894941D01*
X98963999Y-93894941D01*
X98728596Y-93915536D01*
X98728586Y-93915538D01*
X98500344Y-93976694D01*
X98500335Y-93976698D01*
X98286171Y-94076564D01*
X98286169Y-94076565D01*
X98092597Y-94212105D01*
X97925505Y-94379197D01*
X97789965Y-94572769D01*
X97789964Y-94572771D01*
X97690098Y-94786935D01*
X97690094Y-94786944D01*
X97628938Y-95015186D01*
X97628936Y-95015196D01*
X97608341Y-95250599D01*
X97608341Y-95250600D01*
X97628936Y-95486003D01*
X97628938Y-95486013D01*
X97690094Y-95714255D01*
X97690096Y-95714259D01*
X97690097Y-95714263D01*
X97770004Y-95885623D01*
X97789965Y-95928430D01*
X97789967Y-95928434D01*
X97898240Y-96083062D01*
X97925501Y-96121996D01*
X97925506Y-96122002D01*
X98092597Y-96289093D01*
X98092603Y-96289098D01*
X98137470Y-96320514D01*
X98267411Y-96411500D01*
X98278594Y-96419330D01*
X98322219Y-96473907D01*
X98329413Y-96543405D01*
X98297890Y-96605760D01*
X98278595Y-96622480D01*
X98092922Y-96752490D01*
X98092920Y-96752491D01*
X97925891Y-96919520D01*
X97925886Y-96919526D01*
X97790400Y-97113020D01*
X97790399Y-97113022D01*
X97690570Y-97327107D01*
X97690567Y-97327113D01*
X97633364Y-97540599D01*
X97633364Y-97540600D01*
X98530988Y-97540600D01*
X98498075Y-97597607D01*
X98464000Y-97724774D01*
X98464000Y-97856426D01*
X98498075Y-97983593D01*
X98530988Y-98040600D01*
X97633364Y-98040600D01*
X97690567Y-98254086D01*
X97690570Y-98254092D01*
X97790399Y-98468178D01*
X97925894Y-98661682D01*
X97995231Y-98731019D01*
X98028716Y-98792342D01*
X98023732Y-98862034D01*
X97981860Y-98917967D01*
X97916396Y-98942384D01*
X97907550Y-98942700D01*
X96809544Y-98942700D01*
X96742505Y-98923015D01*
X96696750Y-98870211D01*
X96686806Y-98801053D01*
X96715831Y-98737497D01*
X96744447Y-98713161D01*
X96874545Y-98632915D01*
X96998515Y-98508945D01*
X97090556Y-98359724D01*
X97090558Y-98359719D01*
X97145705Y-98193297D01*
X97145706Y-98193290D01*
X97156199Y-98090586D01*
X97156200Y-98090573D01*
X97156200Y-98040600D01*
X94706201Y-98040600D01*
X94706201Y-98090586D01*
X94716694Y-98193297D01*
X94771841Y-98359719D01*
X94771843Y-98359724D01*
X94863884Y-98508945D01*
X94987854Y-98632915D01*
X95117953Y-98713161D01*
X95164677Y-98765109D01*
X95175900Y-98834072D01*
X95148056Y-98898154D01*
X95089987Y-98937010D01*
X95052856Y-98942700D01*
X94538897Y-98942700D01*
X94471858Y-98923015D01*
X94451216Y-98906381D01*
X94272700Y-98727865D01*
X94239215Y-98666542D01*
X94237163Y-98654086D01*
X94227368Y-98567145D01*
X94167789Y-98396878D01*
X94071816Y-98244138D01*
X93944262Y-98116584D01*
X93791523Y-98020611D01*
X93621254Y-97961031D01*
X93621249Y-97961030D01*
X93442004Y-97940835D01*
X93441996Y-97940835D01*
X93262750Y-97961030D01*
X93262745Y-97961031D01*
X93092476Y-98020611D01*
X92939737Y-98116584D01*
X92812184Y-98244137D01*
X92716211Y-98396876D01*
X92656631Y-98567145D01*
X92656630Y-98567150D01*
X92636435Y-98746396D01*
X92636435Y-98746403D01*
X92656630Y-98925649D01*
X92656631Y-98925654D01*
X92716211Y-99095923D01*
X92812184Y-99248662D01*
X92939738Y-99376216D01*
X93092478Y-99472189D01*
X93262745Y-99531768D01*
X93349669Y-99541561D01*
X93414080Y-99568626D01*
X93423465Y-99577100D01*
X93693384Y-99847019D01*
X93726869Y-99908342D01*
X93721885Y-99978034D01*
X93680013Y-100033967D01*
X93614549Y-100058384D01*
X93605703Y-100058700D01*
X78149298Y-100058700D01*
X78082259Y-100039015D01*
X78036504Y-99986211D01*
X78026560Y-99917053D01*
X78055585Y-99853497D01*
X78061617Y-99847019D01*
X78098320Y-99810316D01*
X78098320Y-99810314D01*
X78108524Y-99800111D01*
X78108527Y-99800106D01*
X81497136Y-96411498D01*
X81558457Y-96378015D01*
X81570910Y-96375963D01*
X81657855Y-96366168D01*
X81828122Y-96306589D01*
X81980862Y-96210616D01*
X82108416Y-96083062D01*
X82204389Y-95930322D01*
X82263968Y-95760055D01*
X82265394Y-95747400D01*
X82284165Y-95580803D01*
X82284165Y-95580796D01*
X82263969Y-95401550D01*
X82263968Y-95401545D01*
X82252425Y-95368556D01*
X82204389Y-95231278D01*
X82200567Y-95225196D01*
X82165182Y-95168880D01*
X82108416Y-95078538D01*
X81980862Y-94950984D01*
X81963553Y-94940108D01*
X81828123Y-94855011D01*
X81657854Y-94795431D01*
X81657849Y-94795430D01*
X81478604Y-94775235D01*
X81478596Y-94775235D01*
X81299350Y-94795430D01*
X81299345Y-94795431D01*
X81129076Y-94855011D01*
X80976337Y-94950984D01*
X80848784Y-95078537D01*
X80752810Y-95231278D01*
X80693230Y-95401550D01*
X80683437Y-95488467D01*
X80656370Y-95552881D01*
X80647898Y-95562264D01*
X77405384Y-98804781D01*
X77344061Y-98838266D01*
X77317703Y-98841100D01*
X75177612Y-98841100D01*
X75110573Y-98821415D01*
X75100297Y-98814045D01*
X75097463Y-98811785D01*
X75097462Y-98811784D01*
X75011598Y-98757832D01*
X74944723Y-98715811D01*
X74774454Y-98656231D01*
X74774449Y-98656230D01*
X74595204Y-98636035D01*
X74595196Y-98636035D01*
X74415950Y-98656230D01*
X74415945Y-98656231D01*
X74245676Y-98715811D01*
X74092937Y-98811784D01*
X73965384Y-98939337D01*
X73869411Y-99092076D01*
X73809831Y-99262345D01*
X73809830Y-99262350D01*
X73789635Y-99441596D01*
X73789635Y-99441603D01*
X73809830Y-99620849D01*
X73809831Y-99620854D01*
X73869411Y-99791123D01*
X73918174Y-99868728D01*
X73937174Y-99935965D01*
X73916806Y-100002800D01*
X73863539Y-100048014D01*
X73813180Y-100058700D01*
X57134900Y-100058700D01*
X57067861Y-100039015D01*
X57022106Y-99986211D01*
X57010900Y-99934700D01*
X57010900Y-95326799D01*
X57673941Y-95326799D01*
X57673941Y-95326800D01*
X57694536Y-95562203D01*
X57694538Y-95562213D01*
X57755694Y-95790455D01*
X57755696Y-95790459D01*
X57755697Y-95790463D01*
X57820032Y-95928430D01*
X57855565Y-96004630D01*
X57855567Y-96004634D01*
X57937749Y-96122001D01*
X57991101Y-96198196D01*
X57991106Y-96198202D01*
X58113418Y-96320514D01*
X58146903Y-96381837D01*
X58141919Y-96451529D01*
X58100047Y-96507462D01*
X58069071Y-96524377D01*
X57937512Y-96573446D01*
X57937506Y-96573449D01*
X57822412Y-96659609D01*
X57822409Y-96659612D01*
X57736249Y-96774706D01*
X57736245Y-96774713D01*
X57686003Y-96909420D01*
X57686001Y-96909427D01*
X57679600Y-96968955D01*
X57679600Y-97616800D01*
X58596588Y-97616800D01*
X58563675Y-97673807D01*
X58529600Y-97800974D01*
X58529600Y-97932626D01*
X58563675Y-98059793D01*
X58596588Y-98116800D01*
X57679600Y-98116800D01*
X57679600Y-98764644D01*
X57686001Y-98824172D01*
X57686003Y-98824179D01*
X57736245Y-98958886D01*
X57736249Y-98958893D01*
X57822409Y-99073987D01*
X57822412Y-99073990D01*
X57937506Y-99160150D01*
X57937513Y-99160154D01*
X58072220Y-99210396D01*
X58072227Y-99210398D01*
X58131755Y-99216799D01*
X58131772Y-99216800D01*
X58779600Y-99216800D01*
X58779600Y-98299812D01*
X58836607Y-98332725D01*
X58963774Y-98366800D01*
X59095426Y-98366800D01*
X59222593Y-98332725D01*
X59279600Y-98299812D01*
X59279600Y-99216800D01*
X59927428Y-99216800D01*
X59927444Y-99216799D01*
X59986972Y-99210398D01*
X59986979Y-99210396D01*
X60121686Y-99160154D01*
X60121693Y-99160150D01*
X60236787Y-99073990D01*
X60236790Y-99073987D01*
X60322950Y-98958893D01*
X60322954Y-98958886D01*
X60372022Y-98827329D01*
X60413893Y-98771395D01*
X60479357Y-98746978D01*
X60547630Y-98761830D01*
X60575885Y-98782981D01*
X60698199Y-98905295D01*
X60751168Y-98942384D01*
X60891765Y-99040832D01*
X60891767Y-99040833D01*
X60891770Y-99040835D01*
X61105937Y-99140703D01*
X61105943Y-99140704D01*
X61105944Y-99140705D01*
X61160885Y-99155426D01*
X61334192Y-99201863D01*
X61504919Y-99216800D01*
X61569599Y-99222459D01*
X61569600Y-99222459D01*
X61569601Y-99222459D01*
X61634281Y-99216800D01*
X61805008Y-99201863D01*
X62033263Y-99140703D01*
X62247430Y-99040835D01*
X62441001Y-98905295D01*
X62608095Y-98738201D01*
X62743635Y-98544630D01*
X62843503Y-98330463D01*
X62886071Y-98171596D01*
X64036035Y-98171596D01*
X64036035Y-98171603D01*
X64056230Y-98350849D01*
X64056231Y-98350854D01*
X64115811Y-98521123D01*
X64199345Y-98654066D01*
X64211784Y-98673862D01*
X64339338Y-98801416D01*
X64402495Y-98841100D01*
X64469074Y-98882935D01*
X64492078Y-98897389D01*
X64662345Y-98956968D01*
X64662350Y-98956969D01*
X64841596Y-98977165D01*
X64841600Y-98977165D01*
X64841604Y-98977165D01*
X65020849Y-98956969D01*
X65020852Y-98956968D01*
X65020855Y-98956968D01*
X65191122Y-98897389D01*
X65343862Y-98801416D01*
X65366562Y-98778715D01*
X65422150Y-98746620D01*
X65479785Y-98731177D01*
X65553750Y-98688473D01*
X65616716Y-98652120D01*
X65728520Y-98540316D01*
X65728520Y-98540314D01*
X65738724Y-98530111D01*
X65738728Y-98530106D01*
X66038306Y-98230528D01*
X66038311Y-98230524D01*
X66048514Y-98220320D01*
X66048516Y-98220320D01*
X66160320Y-98108516D01*
X66239377Y-97971584D01*
X66280300Y-97818857D01*
X66280300Y-96297386D01*
X76469001Y-96297386D01*
X76479494Y-96400097D01*
X76534641Y-96566519D01*
X76534643Y-96566524D01*
X76626684Y-96715745D01*
X76750654Y-96839715D01*
X76899875Y-96931756D01*
X76899880Y-96931758D01*
X77066302Y-96986905D01*
X77066309Y-96986906D01*
X77169019Y-96997399D01*
X77443999Y-96997399D01*
X77944000Y-96997399D01*
X78218972Y-96997399D01*
X78218986Y-96997398D01*
X78321697Y-96986905D01*
X78488119Y-96931758D01*
X78488124Y-96931756D01*
X78637345Y-96839715D01*
X78761315Y-96715745D01*
X78853356Y-96566524D01*
X78853358Y-96566519D01*
X78908505Y-96400097D01*
X78908506Y-96400090D01*
X78918999Y-96297386D01*
X78919000Y-96297373D01*
X78919000Y-96247400D01*
X77944000Y-96247400D01*
X77944000Y-96997399D01*
X77443999Y-96997399D01*
X77444000Y-96997398D01*
X77444000Y-96247400D01*
X76469001Y-96247400D01*
X76469001Y-96297386D01*
X66280300Y-96297386D01*
X66280300Y-94791612D01*
X66299985Y-94724573D01*
X66307355Y-94714297D01*
X66309610Y-94711467D01*
X66309616Y-94711462D01*
X66405589Y-94558722D01*
X66465168Y-94388455D01*
X66465332Y-94387000D01*
X66485365Y-94209203D01*
X66485365Y-94209196D01*
X66465169Y-94029950D01*
X66465168Y-94029945D01*
X66446535Y-93976694D01*
X66405589Y-93859678D01*
X66401767Y-93853596D01*
X66341188Y-93757184D01*
X66309616Y-93706938D01*
X66182062Y-93579384D01*
X66029323Y-93483411D01*
X65859054Y-93423831D01*
X65859049Y-93423830D01*
X65679804Y-93403635D01*
X65679796Y-93403635D01*
X65500550Y-93423830D01*
X65500545Y-93423831D01*
X65330276Y-93483411D01*
X65177537Y-93579384D01*
X65049984Y-93706937D01*
X64954011Y-93859676D01*
X64894431Y-94029945D01*
X64894430Y-94029950D01*
X64874235Y-94209196D01*
X64874235Y-94209203D01*
X64894430Y-94388449D01*
X64894431Y-94388454D01*
X64954011Y-94558723D01*
X65005683Y-94640958D01*
X65041462Y-94697900D01*
X65049985Y-94711463D01*
X65052245Y-94714297D01*
X65053134Y-94716475D01*
X65053689Y-94717358D01*
X65053534Y-94717455D01*
X65078655Y-94778983D01*
X65079300Y-94791612D01*
X65079300Y-97254060D01*
X65059615Y-97321099D01*
X65006811Y-97366854D01*
X64941418Y-97377280D01*
X64841605Y-97366035D01*
X64841596Y-97366035D01*
X64662350Y-97386230D01*
X64662345Y-97386231D01*
X64492076Y-97445811D01*
X64339337Y-97541784D01*
X64211784Y-97669337D01*
X64115811Y-97822076D01*
X64056231Y-97992345D01*
X64056230Y-97992350D01*
X64036035Y-98171596D01*
X62886071Y-98171596D01*
X62904663Y-98102208D01*
X62925259Y-97866800D01*
X62904663Y-97631392D01*
X62857669Y-97456007D01*
X62843505Y-97403144D01*
X62843504Y-97403143D01*
X62843503Y-97403137D01*
X62743635Y-97188971D01*
X62715521Y-97148819D01*
X62608094Y-96995397D01*
X62441002Y-96828306D01*
X62440996Y-96828301D01*
X62255442Y-96698375D01*
X62211817Y-96643798D01*
X62204623Y-96574300D01*
X62236146Y-96511945D01*
X62255442Y-96495225D01*
X62340388Y-96435745D01*
X62441001Y-96365295D01*
X62608095Y-96198201D01*
X62743635Y-96004630D01*
X62843503Y-95790463D01*
X62904663Y-95562208D01*
X62925259Y-95326800D01*
X62904663Y-95091392D01*
X62843503Y-94863137D01*
X62743635Y-94648971D01*
X62738025Y-94640958D01*
X62608094Y-94455397D01*
X62441002Y-94288306D01*
X62440995Y-94288301D01*
X62247434Y-94152767D01*
X62247430Y-94152765D01*
X62247428Y-94152764D01*
X62033263Y-94052897D01*
X62033259Y-94052896D01*
X62033255Y-94052894D01*
X61805013Y-93991738D01*
X61805003Y-93991736D01*
X61569601Y-93971141D01*
X61569599Y-93971141D01*
X61334196Y-93991736D01*
X61334186Y-93991738D01*
X61105944Y-94052894D01*
X61105935Y-94052898D01*
X60891771Y-94152764D01*
X60891769Y-94152765D01*
X60698197Y-94288305D01*
X60531105Y-94455397D01*
X60401175Y-94640958D01*
X60346598Y-94684583D01*
X60277100Y-94691777D01*
X60214745Y-94660254D01*
X60198025Y-94640958D01*
X60068094Y-94455397D01*
X59901002Y-94288306D01*
X59900995Y-94288301D01*
X59707434Y-94152767D01*
X59707430Y-94152765D01*
X59707428Y-94152764D01*
X59493263Y-94052897D01*
X59493259Y-94052896D01*
X59493255Y-94052894D01*
X59265013Y-93991738D01*
X59265003Y-93991736D01*
X59029601Y-93971141D01*
X59029599Y-93971141D01*
X58794196Y-93991736D01*
X58794186Y-93991738D01*
X58565944Y-94052894D01*
X58565935Y-94052898D01*
X58351771Y-94152764D01*
X58351769Y-94152765D01*
X58158197Y-94288305D01*
X57991105Y-94455397D01*
X57855565Y-94648969D01*
X57855564Y-94648971D01*
X57755698Y-94863135D01*
X57755694Y-94863144D01*
X57694538Y-95091386D01*
X57694536Y-95091396D01*
X57673941Y-95326799D01*
X57010900Y-95326799D01*
X57010900Y-93182700D01*
X57030585Y-93115661D01*
X57083389Y-93069906D01*
X57134900Y-93058700D01*
X75031397Y-93058700D01*
X75098436Y-93078385D01*
G37*
%TD.AperFunction*%
%TD*%
M02*
