%TF.GenerationSoftware,KiCad,Pcbnew,8.0.5-8.0.5-0~ubuntu22.04.1*%
%TF.CreationDate,2024-10-28T16:31:18+01:00*%
%TF.ProjectId,EMG_amplifier,454d475f-616d-4706-9c69-666965722e6b,rev?*%
%TF.SameCoordinates,Original*%
%TF.FileFunction,Copper,L2,Bot*%
%TF.FilePolarity,Positive*%
%FSLAX46Y46*%
G04 Gerber Fmt 4.6, Leading zero omitted, Abs format (unit mm)*
G04 Created by KiCad (PCBNEW 8.0.5-8.0.5-0~ubuntu22.04.1) date 2024-10-28 16:31:18*
%MOMM*%
%LPD*%
G01*
G04 APERTURE LIST*
%TA.AperFunction,ComponentPad*%
%ADD10R,1.700000X1.700000*%
%TD*%
%TA.AperFunction,ComponentPad*%
%ADD11O,1.700000X1.700000*%
%TD*%
%TA.AperFunction,ViaPad*%
%ADD12C,0.600000*%
%TD*%
%TA.AperFunction,ViaPad*%
%ADD13C,4.350000*%
%TD*%
%TA.AperFunction,Conductor*%
%ADD14C,0.200000*%
%TD*%
G04 APERTURE END LIST*
D10*
%TO.P,J4,1,Pin_1*%
%TO.N,/Filtering_Board/+V_DD*%
X104058800Y-97748600D03*
D11*
%TO.P,J4,2,Pin_2*%
%TO.N,/Filtering_Board/V_F1*%
X104058800Y-95208600D03*
%TO.P,J4,3,Pin_3*%
%TO.N,/Filtering_Board/V_CM*%
X101518800Y-97748600D03*
%TO.P,J4,4,Pin_4*%
%TO.N,/Filtering_Board/V_F2*%
X101518800Y-95208600D03*
%TO.P,J4,5,Pin_5*%
%TO.N,GND*%
X98978800Y-97748600D03*
%TO.P,J4,6,Pin_6*%
%TO.N,unconnected-(J4-Pin_6-Pad6)*%
X98978800Y-95208600D03*
%TD*%
D10*
%TO.P,J7,1,Pin_1*%
%TO.N,unconnected-(J7-Pin_1-Pad1)*%
X64018200Y-105279000D03*
D11*
%TO.P,J7,2,Pin_2*%
%TO.N,/Processing_Board/V_EMG_OUT*%
X64018200Y-107819000D03*
%TO.P,J7,3,Pin_3*%
%TO.N,GND*%
X61478200Y-105279000D03*
%TO.P,J7,4,Pin_4*%
X61478200Y-107819000D03*
%TO.P,J7,5,Pin_5*%
%TO.N,+1V8*%
X58938200Y-105279000D03*
%TO.P,J7,6,Pin_6*%
X58938200Y-107819000D03*
%TD*%
D10*
%TO.P,J1,1,Pin_1*%
%TO.N,GND*%
X59029600Y-87833200D03*
D11*
%TO.P,J1,2,Pin_2*%
%TO.N,/Electrode_Board/V_I1*%
X61569600Y-87833200D03*
%TO.P,J1,3,Pin_3*%
%TO.N,/Electrode_Board/V_PR*%
X59029600Y-85293200D03*
%TO.P,J1,4,Pin_4*%
%TO.N,/Electrode_Board/V_I2*%
X61569600Y-85293200D03*
%TD*%
D10*
%TO.P,J3,1,Pin_1*%
%TO.N,+1V8*%
X104079600Y-107793600D03*
D11*
%TO.P,J3,2,Pin_2*%
%TO.N,/Processing_Board/V_F1*%
X104079600Y-105253600D03*
%TO.P,J3,3,Pin_3*%
%TO.N,/Processing_Board/V_CM*%
X101539600Y-107793600D03*
%TO.P,J3,4,Pin_4*%
%TO.N,/Processing_Board/V_F2*%
X101539600Y-105253600D03*
%TO.P,J3,5,Pin_5*%
%TO.N,GND*%
X98999600Y-107793600D03*
%TO.P,J3,6,Pin_6*%
%TO.N,unconnected-(J3-Pin_6-Pad6)*%
X98999600Y-105253600D03*
%TD*%
D10*
%TO.P,J2,1,Pin_1*%
%TO.N,GND*%
X59044400Y-97824800D03*
D11*
%TO.P,J2,2,Pin_2*%
%TO.N,/Filtering_Board/V_I1*%
X61584400Y-97824800D03*
%TO.P,J2,3,Pin_3*%
%TO.N,/Filtering_Board/V_PR*%
X59044400Y-95284800D03*
%TO.P,J2,4,Pin_4*%
%TO.N,/Filtering_Board/V_I2*%
X61584400Y-95284800D03*
%TD*%
D12*
%TO.N,GND*%
X96621600Y-108483400D03*
X95580200Y-108204000D03*
X93624400Y-97434400D03*
X74853800Y-108000800D03*
X73964800Y-107721400D03*
X64526200Y-94751400D03*
X91541600Y-97383600D03*
X69606400Y-105679200D03*
X59029600Y-89662000D03*
X76438300Y-83829700D03*
X96875600Y-98374200D03*
X95961200Y-97409000D03*
X104648000Y-83845400D03*
X79516800Y-94344400D03*
X78435200Y-104825800D03*
X61468000Y-109575600D03*
X96697800Y-103886000D03*
X89154000Y-108432600D03*
X81889600Y-95351600D03*
X59055000Y-99618800D03*
X87833200Y-83896200D03*
X85526800Y-105560400D03*
X84963000Y-93903800D03*
X66278800Y-98815400D03*
D13*
%TO.N,input_E1*%
X98000000Y-86766400D03*
%TO.N,input_E2*%
X70000000Y-86766400D03*
D12*
%TO.N,/Filtering_Board/V_F2*%
X82245200Y-96596200D03*
X94659400Y-99104400D03*
%TO.N,/Filtering_Board/V_PR*%
X81000600Y-94335600D03*
X74610000Y-99399600D03*
D13*
%TO.N,input_ER*%
X84531200Y-86766400D03*
D12*
%TO.N,/Processing_Board/LPF_400Hz/V_EMG_INA*%
X89408000Y-104521000D03*
X80492600Y-108102400D03*
%TO.N,Net-(U3-IN+)*%
X83882771Y-104009901D03*
X79273400Y-103424800D03*
%TO.N,+1V8*%
X72857400Y-104771000D03*
X75514200Y-106934000D03*
X78536800Y-107188000D03*
X92430600Y-105232200D03*
X102341600Y-109573600D03*
X66228000Y-104034400D03*
X90932000Y-109573600D03*
X91033600Y-107746800D03*
X77089000Y-108061200D03*
X80619600Y-106045000D03*
%TO.N,Net-(U8--INA)*%
X70764400Y-95199200D03*
X74879200Y-96748600D03*
%TO.N,/Filtering_Board/V_CM*%
X100711000Y-99501200D03*
X94945200Y-98044000D03*
%TO.N,/Filtering_Board/+V_DD*%
X64856400Y-98129600D03*
X88432965Y-97450200D03*
X65694600Y-94167200D03*
X88417400Y-96139000D03*
%TD*%
D14*
%TO.N,/Filtering_Board/V_PR*%
X81000600Y-94335600D02*
X75936600Y-99399600D01*
X75936600Y-99399600D02*
X74610000Y-99399600D01*
%TO.N,+1V8*%
X77089000Y-109573600D02*
X102341600Y-109573600D01*
%TO.N,/Filtering_Board/V_F2*%
X82245200Y-98399600D02*
X82245200Y-96596200D01*
X94659400Y-99104400D02*
X94449800Y-99314000D01*
X83159600Y-99314000D02*
X82245200Y-98399600D01*
X94449800Y-99314000D02*
X83159600Y-99314000D01*
%TO.N,/Filtering_Board/V_CM*%
X100711000Y-99501200D02*
X96240471Y-99501200D01*
X96240471Y-99501200D02*
X94945200Y-98205929D01*
X94945200Y-98205929D02*
X94945200Y-98044000D01*
%TO.N,Net-(U3-IN+)*%
X79273400Y-103424800D02*
X83297670Y-103424800D01*
X83297670Y-103424800D02*
X83882771Y-104009901D01*
%TO.N,GND*%
X96697800Y-103886000D02*
X96713600Y-103901800D01*
%TO.N,/Processing_Board/LPF_400Hz/V_EMG_INA*%
X85174296Y-108077000D02*
X80518000Y-108077000D01*
X89408000Y-104521000D02*
X88730296Y-104521000D01*
X80518000Y-108077000D02*
X80492600Y-108102400D01*
X88730296Y-104521000D02*
X85174296Y-108077000D01*
%TO.N,+1V8*%
X75140200Y-106934000D02*
X72977200Y-104771000D01*
X80619600Y-106045000D02*
X79476600Y-107188000D01*
X72857400Y-104771000D02*
X72977200Y-104771000D01*
X72977200Y-104771000D02*
X73004600Y-104798400D01*
X79476600Y-107188000D02*
X78536800Y-107188000D01*
X92430600Y-106349800D02*
X92430600Y-105232200D01*
X77089000Y-109573600D02*
X77089000Y-108061200D01*
X91033600Y-107746800D02*
X92430600Y-106349800D01*
X75514200Y-106934000D02*
X75140200Y-106934000D01*
%TO.N,Net-(U8--INA)*%
X72313800Y-96748600D02*
X70764400Y-95199200D01*
X74879200Y-96748600D02*
X72313800Y-96748600D01*
%TO.N,/Filtering_Board/+V_DD*%
X88417400Y-97434635D02*
X88432965Y-97450200D01*
X65694600Y-94167200D02*
X65694600Y-97697800D01*
X65694600Y-97697800D02*
X65262800Y-98129600D01*
X88417400Y-96139000D02*
X88417400Y-97434635D01*
X65262800Y-98129600D02*
X64856400Y-98129600D01*
%TO.N,+1V8*%
X66228000Y-104034400D02*
X66228000Y-105792800D01*
X70008800Y-109573600D02*
X77089000Y-109573600D01*
X66228000Y-105792800D02*
X70008800Y-109573600D01*
%TD*%
%TA.AperFunction,Conductor*%
%TO.N,GND*%
G36*
X105944739Y-83019385D02*
G01*
X105990494Y-83072189D01*
X106001700Y-83123700D01*
X106001700Y-90376200D01*
X105982015Y-90443239D01*
X105929211Y-90488994D01*
X105877700Y-90500200D01*
X104981904Y-90500200D01*
X104914865Y-90480515D01*
X104869110Y-90427711D01*
X104862129Y-90408293D01*
X104834991Y-90307012D01*
X104826163Y-90291721D01*
X104769100Y-90192886D01*
X104675914Y-90099700D01*
X104618850Y-90066754D01*
X104561787Y-90033808D01*
X104498139Y-90016754D01*
X104434492Y-89999700D01*
X58612892Y-89999700D01*
X58481108Y-89999700D01*
X58353812Y-90033808D01*
X58239686Y-90099700D01*
X58239683Y-90099702D01*
X58146502Y-90192883D01*
X58146500Y-90192886D01*
X58080608Y-90307012D01*
X58053471Y-90408293D01*
X58017106Y-90467954D01*
X57954259Y-90498483D01*
X57933696Y-90500200D01*
X57155300Y-90500200D01*
X57088261Y-90480515D01*
X57042506Y-90427711D01*
X57031300Y-90376200D01*
X57031300Y-85293199D01*
X57673941Y-85293199D01*
X57673941Y-85293200D01*
X57694536Y-85528603D01*
X57694538Y-85528613D01*
X57755694Y-85756855D01*
X57755696Y-85756859D01*
X57755697Y-85756863D01*
X57835604Y-85928223D01*
X57855565Y-85971030D01*
X57855567Y-85971034D01*
X57963328Y-86124932D01*
X57991101Y-86164596D01*
X57991106Y-86164602D01*
X58113418Y-86286914D01*
X58146903Y-86348237D01*
X58141919Y-86417929D01*
X58100047Y-86473862D01*
X58069071Y-86490777D01*
X57937512Y-86539846D01*
X57937506Y-86539849D01*
X57822412Y-86626009D01*
X57822409Y-86626012D01*
X57736249Y-86741106D01*
X57736245Y-86741113D01*
X57686003Y-86875820D01*
X57686001Y-86875827D01*
X57679600Y-86935355D01*
X57679600Y-87583200D01*
X58596588Y-87583200D01*
X58563675Y-87640207D01*
X58529600Y-87767374D01*
X58529600Y-87899026D01*
X58563675Y-88026193D01*
X58596588Y-88083200D01*
X57679600Y-88083200D01*
X57679600Y-88731044D01*
X57686001Y-88790572D01*
X57686003Y-88790579D01*
X57736245Y-88925286D01*
X57736249Y-88925293D01*
X57822409Y-89040387D01*
X57822412Y-89040390D01*
X57937506Y-89126550D01*
X57937513Y-89126554D01*
X58072220Y-89176796D01*
X58072227Y-89176798D01*
X58131755Y-89183199D01*
X58131772Y-89183200D01*
X58779600Y-89183200D01*
X58779600Y-88266212D01*
X58836607Y-88299125D01*
X58963774Y-88333200D01*
X59095426Y-88333200D01*
X59222593Y-88299125D01*
X59279600Y-88266212D01*
X59279600Y-89183200D01*
X59927428Y-89183200D01*
X59927444Y-89183199D01*
X59986972Y-89176798D01*
X59986979Y-89176796D01*
X60121686Y-89126554D01*
X60121693Y-89126550D01*
X60236787Y-89040390D01*
X60236790Y-89040387D01*
X60322950Y-88925293D01*
X60322954Y-88925286D01*
X60372022Y-88793729D01*
X60413893Y-88737795D01*
X60479357Y-88713378D01*
X60547630Y-88728230D01*
X60575885Y-88749381D01*
X60698199Y-88871695D01*
X60774735Y-88925286D01*
X60891765Y-89007232D01*
X60891767Y-89007233D01*
X60891770Y-89007235D01*
X61105937Y-89107103D01*
X61334192Y-89168263D01*
X61504919Y-89183200D01*
X61569599Y-89188859D01*
X61569600Y-89188859D01*
X61569601Y-89188859D01*
X61634281Y-89183200D01*
X61805008Y-89168263D01*
X62033263Y-89107103D01*
X62247430Y-89007235D01*
X62441001Y-88871695D01*
X62608095Y-88704601D01*
X62743635Y-88511030D01*
X62843503Y-88296863D01*
X62904663Y-88068608D01*
X62925259Y-87833200D01*
X62904663Y-87597792D01*
X62843503Y-87369537D01*
X62743635Y-87155371D01*
X62697502Y-87089485D01*
X62608094Y-86961797D01*
X62441002Y-86794706D01*
X62440996Y-86794701D01*
X62400578Y-86766400D01*
X67319610Y-86766400D01*
X67339152Y-87089479D01*
X67339152Y-87089484D01*
X67339153Y-87089485D01*
X67397497Y-87407859D01*
X67397498Y-87407863D01*
X67397499Y-87407867D01*
X67493785Y-87716861D01*
X67493791Y-87716876D01*
X67493792Y-87716879D01*
X67626633Y-88012039D01*
X67626635Y-88012043D01*
X67626636Y-88012044D01*
X67794076Y-88289026D01*
X67794086Y-88289041D01*
X67993701Y-88543830D01*
X68222569Y-88772698D01*
X68477358Y-88972313D01*
X68477362Y-88972315D01*
X68477365Y-88972318D01*
X68754361Y-89139767D01*
X69049521Y-89272608D01*
X69049530Y-89272610D01*
X69049538Y-89272614D01*
X69291273Y-89347941D01*
X69358541Y-89368903D01*
X69676915Y-89427247D01*
X70000000Y-89446790D01*
X70323085Y-89427247D01*
X70641459Y-89368903D01*
X70815944Y-89314530D01*
X70950461Y-89272614D01*
X70950465Y-89272612D01*
X70950479Y-89272608D01*
X71245639Y-89139767D01*
X71522635Y-88972318D01*
X71777427Y-88772701D01*
X72006301Y-88543827D01*
X72205918Y-88289035D01*
X72373367Y-88012039D01*
X72506208Y-87716879D01*
X72602503Y-87407859D01*
X72660847Y-87089485D01*
X72680390Y-86766400D01*
X81850810Y-86766400D01*
X81870352Y-87089479D01*
X81870352Y-87089484D01*
X81870353Y-87089485D01*
X81928697Y-87407859D01*
X81928698Y-87407863D01*
X81928699Y-87407867D01*
X82024985Y-87716861D01*
X82024991Y-87716876D01*
X82024992Y-87716879D01*
X82157833Y-88012039D01*
X82157835Y-88012043D01*
X82157836Y-88012044D01*
X82325276Y-88289026D01*
X82325286Y-88289041D01*
X82524901Y-88543830D01*
X82753769Y-88772698D01*
X83008558Y-88972313D01*
X83008562Y-88972315D01*
X83008565Y-88972318D01*
X83285561Y-89139767D01*
X83580721Y-89272608D01*
X83580730Y-89272610D01*
X83580738Y-89272614D01*
X83822473Y-89347941D01*
X83889741Y-89368903D01*
X84208115Y-89427247D01*
X84531200Y-89446790D01*
X84854285Y-89427247D01*
X85172659Y-89368903D01*
X85347144Y-89314530D01*
X85481661Y-89272614D01*
X85481665Y-89272612D01*
X85481679Y-89272608D01*
X85776839Y-89139767D01*
X86053835Y-88972318D01*
X86308627Y-88772701D01*
X86537501Y-88543827D01*
X86737118Y-88289035D01*
X86904567Y-88012039D01*
X87037408Y-87716879D01*
X87133703Y-87407859D01*
X87192047Y-87089485D01*
X87211590Y-86766400D01*
X95319610Y-86766400D01*
X95339152Y-87089479D01*
X95339152Y-87089484D01*
X95339153Y-87089485D01*
X95397497Y-87407859D01*
X95397498Y-87407863D01*
X95397499Y-87407867D01*
X95493785Y-87716861D01*
X95493791Y-87716876D01*
X95493792Y-87716879D01*
X95626633Y-88012039D01*
X95626635Y-88012043D01*
X95626636Y-88012044D01*
X95794076Y-88289026D01*
X95794086Y-88289041D01*
X95993701Y-88543830D01*
X96222569Y-88772698D01*
X96477358Y-88972313D01*
X96477362Y-88972315D01*
X96477365Y-88972318D01*
X96754361Y-89139767D01*
X97049521Y-89272608D01*
X97049530Y-89272610D01*
X97049538Y-89272614D01*
X97291273Y-89347941D01*
X97358541Y-89368903D01*
X97676915Y-89427247D01*
X98000000Y-89446790D01*
X98323085Y-89427247D01*
X98641459Y-89368903D01*
X98815944Y-89314530D01*
X98950461Y-89272614D01*
X98950465Y-89272612D01*
X98950479Y-89272608D01*
X99245639Y-89139767D01*
X99522635Y-88972318D01*
X99777427Y-88772701D01*
X100006301Y-88543827D01*
X100205918Y-88289035D01*
X100373367Y-88012039D01*
X100506208Y-87716879D01*
X100602503Y-87407859D01*
X100660847Y-87089485D01*
X100680390Y-86766400D01*
X100660847Y-86443315D01*
X100602503Y-86124941D01*
X100557039Y-85979042D01*
X100506214Y-85815938D01*
X100506210Y-85815930D01*
X100506208Y-85815921D01*
X100373367Y-85520761D01*
X100205918Y-85243765D01*
X100060220Y-85057796D01*
X100006298Y-84988969D01*
X99777430Y-84760101D01*
X99522641Y-84560486D01*
X99522626Y-84560476D01*
X99245644Y-84393036D01*
X99245643Y-84393035D01*
X99245639Y-84393033D01*
X98950479Y-84260192D01*
X98950476Y-84260191D01*
X98950461Y-84260185D01*
X98641467Y-84163899D01*
X98641463Y-84163898D01*
X98641459Y-84163897D01*
X98323085Y-84105553D01*
X98323084Y-84105552D01*
X98323079Y-84105552D01*
X98000000Y-84086010D01*
X97676920Y-84105552D01*
X97676915Y-84105553D01*
X97358541Y-84163897D01*
X97358538Y-84163897D01*
X97358532Y-84163899D01*
X97049538Y-84260185D01*
X97049523Y-84260191D01*
X96754365Y-84393031D01*
X96754355Y-84393036D01*
X96477373Y-84560476D01*
X96477358Y-84560486D01*
X96222569Y-84760101D01*
X95993701Y-84988969D01*
X95794086Y-85243758D01*
X95794076Y-85243773D01*
X95626636Y-85520755D01*
X95626631Y-85520765D01*
X95493791Y-85815923D01*
X95493785Y-85815938D01*
X95397499Y-86124932D01*
X95397497Y-86124938D01*
X95397497Y-86124941D01*
X95362637Y-86315168D01*
X95339152Y-86443320D01*
X95319610Y-86766400D01*
X87211590Y-86766400D01*
X87192047Y-86443315D01*
X87133703Y-86124941D01*
X87088239Y-85979042D01*
X87037414Y-85815938D01*
X87037410Y-85815930D01*
X87037408Y-85815921D01*
X86904567Y-85520761D01*
X86737118Y-85243765D01*
X86591420Y-85057796D01*
X86537498Y-84988969D01*
X86308630Y-84760101D01*
X86053841Y-84560486D01*
X86053826Y-84560476D01*
X85776844Y-84393036D01*
X85776843Y-84393035D01*
X85776839Y-84393033D01*
X85481679Y-84260192D01*
X85481676Y-84260191D01*
X85481661Y-84260185D01*
X85172667Y-84163899D01*
X85172663Y-84163898D01*
X85172659Y-84163897D01*
X84854285Y-84105553D01*
X84854284Y-84105552D01*
X84854279Y-84105552D01*
X84531200Y-84086010D01*
X84208120Y-84105552D01*
X84208115Y-84105553D01*
X83889741Y-84163897D01*
X83889738Y-84163897D01*
X83889732Y-84163899D01*
X83580738Y-84260185D01*
X83580723Y-84260191D01*
X83285565Y-84393031D01*
X83285555Y-84393036D01*
X83008573Y-84560476D01*
X83008558Y-84560486D01*
X82753769Y-84760101D01*
X82524901Y-84988969D01*
X82325286Y-85243758D01*
X82325276Y-85243773D01*
X82157836Y-85520755D01*
X82157831Y-85520765D01*
X82024991Y-85815923D01*
X82024985Y-85815938D01*
X81928699Y-86124932D01*
X81928697Y-86124938D01*
X81928697Y-86124941D01*
X81893837Y-86315168D01*
X81870352Y-86443320D01*
X81850810Y-86766400D01*
X72680390Y-86766400D01*
X72660847Y-86443315D01*
X72602503Y-86124941D01*
X72557039Y-85979042D01*
X72506214Y-85815938D01*
X72506210Y-85815930D01*
X72506208Y-85815921D01*
X72373367Y-85520761D01*
X72205918Y-85243765D01*
X72060220Y-85057796D01*
X72006298Y-84988969D01*
X71777430Y-84760101D01*
X71522641Y-84560486D01*
X71522626Y-84560476D01*
X71245644Y-84393036D01*
X71245643Y-84393035D01*
X71245639Y-84393033D01*
X70950479Y-84260192D01*
X70950476Y-84260191D01*
X70950461Y-84260185D01*
X70641467Y-84163899D01*
X70641463Y-84163898D01*
X70641459Y-84163897D01*
X70323085Y-84105553D01*
X70323084Y-84105552D01*
X70323079Y-84105552D01*
X70000000Y-84086010D01*
X69676920Y-84105552D01*
X69676915Y-84105553D01*
X69358541Y-84163897D01*
X69358538Y-84163897D01*
X69358532Y-84163899D01*
X69049538Y-84260185D01*
X69049523Y-84260191D01*
X68754365Y-84393031D01*
X68754355Y-84393036D01*
X68477373Y-84560476D01*
X68477358Y-84560486D01*
X68222569Y-84760101D01*
X67993701Y-84988969D01*
X67794086Y-85243758D01*
X67794076Y-85243773D01*
X67626636Y-85520755D01*
X67626631Y-85520765D01*
X67493791Y-85815923D01*
X67493785Y-85815938D01*
X67397499Y-86124932D01*
X67397497Y-86124938D01*
X67397497Y-86124941D01*
X67362637Y-86315168D01*
X67339152Y-86443320D01*
X67319610Y-86766400D01*
X62400578Y-86766400D01*
X62255442Y-86664775D01*
X62211817Y-86610198D01*
X62204623Y-86540700D01*
X62236146Y-86478345D01*
X62255442Y-86461625D01*
X62367100Y-86383441D01*
X62441001Y-86331695D01*
X62608095Y-86164601D01*
X62743635Y-85971030D01*
X62843503Y-85756863D01*
X62904663Y-85528608D01*
X62925259Y-85293200D01*
X62904663Y-85057792D01*
X62843503Y-84829537D01*
X62743635Y-84615371D01*
X62738025Y-84607358D01*
X62608094Y-84421797D01*
X62441002Y-84254706D01*
X62440995Y-84254701D01*
X62247434Y-84119167D01*
X62247430Y-84119165D01*
X62176329Y-84086010D01*
X62033263Y-84019297D01*
X62033259Y-84019296D01*
X62033255Y-84019294D01*
X61805013Y-83958138D01*
X61805003Y-83958136D01*
X61569601Y-83937541D01*
X61569599Y-83937541D01*
X61334196Y-83958136D01*
X61334186Y-83958138D01*
X61105944Y-84019294D01*
X61105935Y-84019298D01*
X60891771Y-84119164D01*
X60891769Y-84119165D01*
X60698197Y-84254705D01*
X60531105Y-84421797D01*
X60401175Y-84607358D01*
X60346598Y-84650983D01*
X60277100Y-84658177D01*
X60214745Y-84626654D01*
X60198025Y-84607358D01*
X60068094Y-84421797D01*
X59901002Y-84254706D01*
X59900995Y-84254701D01*
X59707434Y-84119167D01*
X59707430Y-84119165D01*
X59636329Y-84086010D01*
X59493263Y-84019297D01*
X59493259Y-84019296D01*
X59493255Y-84019294D01*
X59265013Y-83958138D01*
X59265003Y-83958136D01*
X59029601Y-83937541D01*
X59029599Y-83937541D01*
X58794196Y-83958136D01*
X58794186Y-83958138D01*
X58565944Y-84019294D01*
X58565935Y-84019298D01*
X58351771Y-84119164D01*
X58351769Y-84119165D01*
X58158197Y-84254705D01*
X57991105Y-84421797D01*
X57855565Y-84615369D01*
X57855564Y-84615371D01*
X57755698Y-84829535D01*
X57755694Y-84829544D01*
X57694538Y-85057786D01*
X57694536Y-85057796D01*
X57673941Y-85293199D01*
X57031300Y-85293199D01*
X57031300Y-83123700D01*
X57050985Y-83056661D01*
X57103789Y-83010906D01*
X57155300Y-82999700D01*
X105877700Y-82999700D01*
X105944739Y-83019385D01*
G37*
%TD.AperFunction*%
%TD*%
%TA.AperFunction,Conductor*%
%TO.N,GND*%
G36*
X58126663Y-102555485D02*
G01*
X58172418Y-102608289D01*
X58179399Y-102627707D01*
X58207608Y-102732987D01*
X58240554Y-102790050D01*
X58273500Y-102847114D01*
X58366686Y-102940300D01*
X58480814Y-103006192D01*
X58608108Y-103040300D01*
X58739892Y-103040300D01*
X65915453Y-103040300D01*
X65982492Y-103059985D01*
X66028247Y-103112789D01*
X66038191Y-103181947D01*
X66009166Y-103245503D01*
X65956408Y-103281341D01*
X65878480Y-103308609D01*
X65725737Y-103404584D01*
X65598184Y-103532137D01*
X65502211Y-103684876D01*
X65442631Y-103855145D01*
X65442630Y-103855149D01*
X65427521Y-103989249D01*
X65400454Y-104053663D01*
X65342859Y-104093218D01*
X65273022Y-104095355D01*
X65229990Y-104074631D01*
X65110535Y-103985206D01*
X65110528Y-103985202D01*
X64975682Y-103934908D01*
X64975683Y-103934908D01*
X64916083Y-103928501D01*
X64916081Y-103928500D01*
X64916073Y-103928500D01*
X64916064Y-103928500D01*
X63120329Y-103928500D01*
X63120323Y-103928501D01*
X63060716Y-103934908D01*
X62925871Y-103985202D01*
X62925864Y-103985206D01*
X62810655Y-104071452D01*
X62810652Y-104071455D01*
X62724406Y-104186664D01*
X62724402Y-104186671D01*
X62675197Y-104318598D01*
X62633326Y-104374532D01*
X62567861Y-104398949D01*
X62499588Y-104384097D01*
X62471334Y-104362946D01*
X62349282Y-104240894D01*
X62155778Y-104105399D01*
X61941692Y-104005570D01*
X61941686Y-104005567D01*
X61728200Y-103948364D01*
X61728200Y-104845988D01*
X61671193Y-104813075D01*
X61544026Y-104779000D01*
X61412374Y-104779000D01*
X61285207Y-104813075D01*
X61228200Y-104845988D01*
X61228200Y-103948364D01*
X61228199Y-103948364D01*
X61014713Y-104005567D01*
X61014707Y-104005570D01*
X60800622Y-104105399D01*
X60800620Y-104105400D01*
X60607126Y-104240886D01*
X60607120Y-104240891D01*
X60440091Y-104407920D01*
X60440090Y-104407922D01*
X60310080Y-104593595D01*
X60255503Y-104637219D01*
X60186004Y-104644412D01*
X60123650Y-104612890D01*
X60106930Y-104593594D01*
X59976694Y-104407597D01*
X59809602Y-104240506D01*
X59809595Y-104240501D01*
X59795119Y-104230365D01*
X59732718Y-104186671D01*
X59616034Y-104104967D01*
X59616030Y-104104965D01*
X59595421Y-104095355D01*
X59401863Y-104005097D01*
X59401859Y-104005096D01*
X59401855Y-104005094D01*
X59173613Y-103943938D01*
X59173603Y-103943936D01*
X58938201Y-103923341D01*
X58938199Y-103923341D01*
X58702796Y-103943936D01*
X58702786Y-103943938D01*
X58474544Y-104005094D01*
X58474535Y-104005098D01*
X58260371Y-104104964D01*
X58260369Y-104104965D01*
X58066797Y-104240505D01*
X57899705Y-104407597D01*
X57764165Y-104601169D01*
X57764164Y-104601171D01*
X57664298Y-104815335D01*
X57664294Y-104815344D01*
X57603138Y-105043586D01*
X57603136Y-105043596D01*
X57582541Y-105278999D01*
X57582541Y-105279000D01*
X57603136Y-105514403D01*
X57603138Y-105514413D01*
X57664294Y-105742655D01*
X57664296Y-105742659D01*
X57664297Y-105742663D01*
X57747059Y-105920146D01*
X57764165Y-105956830D01*
X57764167Y-105956834D01*
X57872481Y-106111521D01*
X57899701Y-106150396D01*
X57899706Y-106150402D01*
X58066797Y-106317493D01*
X58066803Y-106317498D01*
X58252358Y-106447425D01*
X58295983Y-106502002D01*
X58303177Y-106571500D01*
X58271654Y-106633855D01*
X58252358Y-106650575D01*
X58066797Y-106780505D01*
X57899705Y-106947597D01*
X57764165Y-107141169D01*
X57764164Y-107141171D01*
X57664298Y-107355335D01*
X57664294Y-107355344D01*
X57603138Y-107583586D01*
X57603136Y-107583596D01*
X57582541Y-107818999D01*
X57582541Y-107819000D01*
X57603136Y-108054403D01*
X57603138Y-108054413D01*
X57664294Y-108282655D01*
X57664296Y-108282659D01*
X57664297Y-108282663D01*
X57744001Y-108453588D01*
X57764165Y-108496830D01*
X57764167Y-108496834D01*
X57839670Y-108604662D01*
X57899705Y-108690401D01*
X58066799Y-108857495D01*
X58116697Y-108892434D01*
X58260365Y-108993032D01*
X58260367Y-108993033D01*
X58260370Y-108993035D01*
X58474537Y-109092903D01*
X58702792Y-109154063D01*
X58891118Y-109170539D01*
X58938199Y-109174659D01*
X58938200Y-109174659D01*
X58938201Y-109174659D01*
X58977434Y-109171226D01*
X59173608Y-109154063D01*
X59401863Y-109092903D01*
X59616030Y-108993035D01*
X59809601Y-108857495D01*
X59976695Y-108690401D01*
X60106930Y-108504405D01*
X60161507Y-108460781D01*
X60231005Y-108453587D01*
X60293360Y-108485110D01*
X60310079Y-108504405D01*
X60440090Y-108690078D01*
X60607117Y-108857105D01*
X60800621Y-108992600D01*
X61014707Y-109092429D01*
X61014716Y-109092433D01*
X61228200Y-109149634D01*
X61228200Y-108252012D01*
X61285207Y-108284925D01*
X61412374Y-108319000D01*
X61544026Y-108319000D01*
X61671193Y-108284925D01*
X61728200Y-108252012D01*
X61728200Y-109149633D01*
X61941683Y-109092433D01*
X61941692Y-109092429D01*
X62155778Y-108992600D01*
X62349282Y-108857105D01*
X62516305Y-108690082D01*
X62646319Y-108504405D01*
X62700896Y-108460781D01*
X62770395Y-108453588D01*
X62832749Y-108485110D01*
X62849469Y-108504405D01*
X62979705Y-108690401D01*
X63146799Y-108857495D01*
X63196697Y-108892434D01*
X63340365Y-108993032D01*
X63340367Y-108993033D01*
X63340370Y-108993035D01*
X63554537Y-109092903D01*
X63782792Y-109154063D01*
X63971118Y-109170539D01*
X64018199Y-109174659D01*
X64018200Y-109174659D01*
X64018201Y-109174659D01*
X64057434Y-109171226D01*
X64253608Y-109154063D01*
X64481863Y-109092903D01*
X64696030Y-108993035D01*
X64889601Y-108857495D01*
X65056695Y-108690401D01*
X65192235Y-108496830D01*
X65292103Y-108282663D01*
X65353263Y-108054408D01*
X65373859Y-107819000D01*
X65353263Y-107583592D01*
X65292103Y-107355337D01*
X65192235Y-107141171D01*
X65186930Y-107133595D01*
X65056696Y-106947600D01*
X64997712Y-106888616D01*
X64934767Y-106825671D01*
X64901284Y-106764351D01*
X64906268Y-106694659D01*
X64948139Y-106638725D01*
X64979115Y-106621810D01*
X65110531Y-106572796D01*
X65225746Y-106486546D01*
X65311996Y-106371331D01*
X65362291Y-106236483D01*
X65368700Y-106176873D01*
X65368699Y-104601851D01*
X65388384Y-104534813D01*
X65441187Y-104489058D01*
X65510346Y-104479114D01*
X65573902Y-104508139D01*
X65593751Y-104531285D01*
X65593840Y-104531215D01*
X65595811Y-104533686D01*
X65597693Y-104535881D01*
X65598182Y-104536660D01*
X65600445Y-104539497D01*
X65601335Y-104541678D01*
X65601889Y-104542559D01*
X65601734Y-104542655D01*
X65626855Y-104604183D01*
X65627500Y-104616812D01*
X65627500Y-105706130D01*
X65627499Y-105706148D01*
X65627499Y-105871854D01*
X65627498Y-105871854D01*
X65668423Y-106024586D01*
X65669508Y-106026465D01*
X65676029Y-106037758D01*
X65676031Y-106037767D01*
X65676034Y-106037766D01*
X65744771Y-106156824D01*
X65747479Y-106161514D01*
X65747481Y-106161517D01*
X65866349Y-106280385D01*
X65866355Y-106280390D01*
X69409583Y-109823619D01*
X69443068Y-109884942D01*
X69438084Y-109954634D01*
X69396212Y-110010567D01*
X69330748Y-110034984D01*
X69321902Y-110035300D01*
X57155300Y-110035300D01*
X57088261Y-110015615D01*
X57042506Y-109962811D01*
X57031300Y-109911300D01*
X57031300Y-102659800D01*
X57050985Y-102592761D01*
X57103789Y-102547006D01*
X57155300Y-102535800D01*
X58059624Y-102535800D01*
X58126663Y-102555485D01*
G37*
%TD.AperFunction*%
%TA.AperFunction,Conductor*%
G36*
X105944739Y-102555485D02*
G01*
X105990494Y-102608289D01*
X106001700Y-102659800D01*
X106001700Y-109911300D01*
X105982015Y-109978339D01*
X105929211Y-110024094D01*
X105877700Y-110035300D01*
X103202898Y-110035300D01*
X103135859Y-110015615D01*
X103090104Y-109962811D01*
X103080160Y-109893653D01*
X103085857Y-109870345D01*
X103126966Y-109752862D01*
X103126969Y-109752849D01*
X103147165Y-109573603D01*
X103147165Y-109573596D01*
X103126969Y-109394350D01*
X103126966Y-109394337D01*
X103097124Y-109309054D01*
X103093562Y-109239275D01*
X103128290Y-109178648D01*
X103190284Y-109146420D01*
X103214154Y-109144099D01*
X104977472Y-109144099D01*
X105037083Y-109137691D01*
X105171931Y-109087396D01*
X105287146Y-109001146D01*
X105373396Y-108885931D01*
X105423691Y-108751083D01*
X105430100Y-108691473D01*
X105430099Y-106895728D01*
X105423691Y-106836117D01*
X105422410Y-106832683D01*
X105373397Y-106701271D01*
X105373393Y-106701264D01*
X105287147Y-106586055D01*
X105287144Y-106586052D01*
X105171935Y-106499806D01*
X105171928Y-106499802D01*
X105040517Y-106450789D01*
X104984583Y-106408918D01*
X104960166Y-106343453D01*
X104975018Y-106275180D01*
X104996163Y-106246932D01*
X105118095Y-106125001D01*
X105253635Y-105931430D01*
X105353503Y-105717263D01*
X105414663Y-105489008D01*
X105435259Y-105253600D01*
X105414663Y-105018192D01*
X105353503Y-104789937D01*
X105253635Y-104575771D01*
X105248025Y-104567758D01*
X105118094Y-104382197D01*
X104951002Y-104215106D01*
X104950995Y-104215101D01*
X104948928Y-104213654D01*
X104888695Y-104171478D01*
X104757434Y-104079567D01*
X104757430Y-104079565D01*
X104703927Y-104054616D01*
X104543263Y-103979697D01*
X104543259Y-103979696D01*
X104543255Y-103979694D01*
X104315013Y-103918538D01*
X104315003Y-103918536D01*
X104079601Y-103897941D01*
X104079599Y-103897941D01*
X103844196Y-103918536D01*
X103844186Y-103918538D01*
X103615944Y-103979694D01*
X103615935Y-103979698D01*
X103401771Y-104079564D01*
X103401769Y-104079565D01*
X103208197Y-104215105D01*
X103041105Y-104382197D01*
X102911175Y-104567758D01*
X102856598Y-104611383D01*
X102787100Y-104618577D01*
X102724745Y-104587054D01*
X102708025Y-104567758D01*
X102578094Y-104382197D01*
X102411002Y-104215106D01*
X102410995Y-104215101D01*
X102408928Y-104213654D01*
X102348695Y-104171478D01*
X102217434Y-104079567D01*
X102217430Y-104079565D01*
X102163927Y-104054616D01*
X102003263Y-103979697D01*
X102003259Y-103979696D01*
X102003255Y-103979694D01*
X101775013Y-103918538D01*
X101775003Y-103918536D01*
X101539601Y-103897941D01*
X101539599Y-103897941D01*
X101304196Y-103918536D01*
X101304186Y-103918538D01*
X101075944Y-103979694D01*
X101075935Y-103979698D01*
X100861771Y-104079564D01*
X100861769Y-104079565D01*
X100668197Y-104215105D01*
X100501105Y-104382197D01*
X100371175Y-104567758D01*
X100316598Y-104611383D01*
X100247100Y-104618577D01*
X100184745Y-104587054D01*
X100168025Y-104567758D01*
X100038094Y-104382197D01*
X99871002Y-104215106D01*
X99870995Y-104215101D01*
X99868928Y-104213654D01*
X99808695Y-104171478D01*
X99677434Y-104079567D01*
X99677430Y-104079565D01*
X99623927Y-104054616D01*
X99463263Y-103979697D01*
X99463259Y-103979696D01*
X99463255Y-103979694D01*
X99235013Y-103918538D01*
X99235003Y-103918536D01*
X98999601Y-103897941D01*
X98999599Y-103897941D01*
X98764196Y-103918536D01*
X98764186Y-103918538D01*
X98535944Y-103979694D01*
X98535935Y-103979698D01*
X98321771Y-104079564D01*
X98321769Y-104079565D01*
X98128197Y-104215105D01*
X97961105Y-104382197D01*
X97825565Y-104575769D01*
X97825564Y-104575771D01*
X97725698Y-104789935D01*
X97725694Y-104789944D01*
X97664538Y-105018186D01*
X97664536Y-105018196D01*
X97643941Y-105253599D01*
X97643941Y-105253600D01*
X97664536Y-105489003D01*
X97664538Y-105489013D01*
X97725694Y-105717255D01*
X97725696Y-105717259D01*
X97725697Y-105717263D01*
X97794938Y-105865750D01*
X97825565Y-105931430D01*
X97825567Y-105931434D01*
X97905090Y-106045003D01*
X97961105Y-106125001D01*
X98128199Y-106292095D01*
X98295039Y-106408918D01*
X98314194Y-106422330D01*
X98357819Y-106476907D01*
X98365013Y-106546405D01*
X98333490Y-106608760D01*
X98314195Y-106625480D01*
X98128522Y-106755490D01*
X98128520Y-106755491D01*
X97961491Y-106922520D01*
X97961486Y-106922526D01*
X97826000Y-107116020D01*
X97825999Y-107116022D01*
X97726170Y-107330107D01*
X97726167Y-107330113D01*
X97668964Y-107543599D01*
X97668964Y-107543600D01*
X98566588Y-107543600D01*
X98533675Y-107600607D01*
X98499600Y-107727774D01*
X98499600Y-107859426D01*
X98533675Y-107986593D01*
X98566588Y-108043600D01*
X97668964Y-108043600D01*
X97726167Y-108257086D01*
X97726170Y-108257092D01*
X97825999Y-108471178D01*
X97961494Y-108664682D01*
X98058231Y-108761419D01*
X98091716Y-108822742D01*
X98086732Y-108892434D01*
X98044860Y-108948367D01*
X97979396Y-108972784D01*
X97970550Y-108973100D01*
X91514412Y-108973100D01*
X91447373Y-108953415D01*
X91437097Y-108946045D01*
X91434263Y-108943785D01*
X91434262Y-108943784D01*
X91342185Y-108885928D01*
X91281523Y-108847811D01*
X91111253Y-108788231D01*
X91105241Y-108786859D01*
X91044263Y-108752749D01*
X91011407Y-108691087D01*
X91017103Y-108621449D01*
X91059544Y-108565947D01*
X91118954Y-108542748D01*
X91212849Y-108532169D01*
X91212852Y-108532168D01*
X91212855Y-108532168D01*
X91383122Y-108472589D01*
X91535862Y-108376616D01*
X91663416Y-108249062D01*
X91759389Y-108096322D01*
X91818968Y-107926055D01*
X91828761Y-107839129D01*
X91855826Y-107774718D01*
X91864290Y-107765343D01*
X92789106Y-106840528D01*
X92789111Y-106840524D01*
X92799314Y-106830320D01*
X92799316Y-106830320D01*
X92911120Y-106718516D01*
X92990177Y-106581584D01*
X93025566Y-106449509D01*
X93031100Y-106428858D01*
X93031100Y-106270743D01*
X93031100Y-105814612D01*
X93050785Y-105747573D01*
X93058155Y-105737297D01*
X93060410Y-105734467D01*
X93060416Y-105734462D01*
X93156389Y-105581722D01*
X93215968Y-105411455D01*
X93217167Y-105400815D01*
X93236165Y-105232203D01*
X93236165Y-105232196D01*
X93215969Y-105052950D01*
X93215968Y-105052945D01*
X93156388Y-104882676D01*
X93064030Y-104735690D01*
X93060416Y-104729938D01*
X92932862Y-104602384D01*
X92915930Y-104591745D01*
X92780123Y-104506411D01*
X92609854Y-104446831D01*
X92609849Y-104446830D01*
X92430604Y-104426635D01*
X92430596Y-104426635D01*
X92251350Y-104446830D01*
X92251345Y-104446831D01*
X92081076Y-104506411D01*
X91928337Y-104602384D01*
X91800784Y-104729937D01*
X91704811Y-104882676D01*
X91645231Y-105052945D01*
X91645230Y-105052950D01*
X91625035Y-105232196D01*
X91625035Y-105232203D01*
X91645230Y-105411449D01*
X91645231Y-105411454D01*
X91704811Y-105581723D01*
X91765115Y-105677696D01*
X91787765Y-105713743D01*
X91800785Y-105734463D01*
X91803045Y-105737297D01*
X91803934Y-105739475D01*
X91804489Y-105740358D01*
X91804334Y-105740455D01*
X91829455Y-105801983D01*
X91830100Y-105814612D01*
X91830100Y-106049702D01*
X91810415Y-106116741D01*
X91793781Y-106137383D01*
X91015065Y-106916098D01*
X90953742Y-106949583D01*
X90941268Y-106951637D01*
X90854350Y-106961430D01*
X90684078Y-107021010D01*
X90531337Y-107116984D01*
X90403784Y-107244537D01*
X90307811Y-107397276D01*
X90248231Y-107567545D01*
X90248230Y-107567550D01*
X90228035Y-107746796D01*
X90228035Y-107746803D01*
X90248230Y-107926049D01*
X90248231Y-107926054D01*
X90307811Y-108096323D01*
X90326463Y-108126007D01*
X90403784Y-108249062D01*
X90531338Y-108376616D01*
X90585619Y-108410723D01*
X90665285Y-108460781D01*
X90684078Y-108472589D01*
X90775003Y-108504405D01*
X90854348Y-108532169D01*
X90860351Y-108533539D01*
X90921331Y-108567645D01*
X90954191Y-108629305D01*
X90948498Y-108698943D01*
X90906061Y-108754448D01*
X90846647Y-108777651D01*
X90752749Y-108788230D01*
X90752745Y-108788231D01*
X90582476Y-108847811D01*
X90429736Y-108943785D01*
X90426903Y-108946045D01*
X90424724Y-108946934D01*
X90423842Y-108947489D01*
X90423744Y-108947334D01*
X90362217Y-108972455D01*
X90349588Y-108973100D01*
X81041911Y-108973100D01*
X80974872Y-108953415D01*
X80929117Y-108900611D01*
X80919173Y-108831453D01*
X80948198Y-108767897D01*
X80975938Y-108744107D01*
X80994860Y-108732217D01*
X80994859Y-108732217D01*
X80994862Y-108732216D01*
X81013259Y-108713819D01*
X81074582Y-108680334D01*
X81100940Y-108677500D01*
X85087627Y-108677500D01*
X85087643Y-108677501D01*
X85095239Y-108677501D01*
X85253350Y-108677501D01*
X85253353Y-108677501D01*
X85406081Y-108636577D01*
X85476121Y-108596139D01*
X85543012Y-108557520D01*
X85654816Y-108445716D01*
X85654816Y-108445714D01*
X85665020Y-108435511D01*
X85665024Y-108435506D01*
X88862822Y-105237707D01*
X88924143Y-105204224D01*
X88993835Y-105209208D01*
X89016473Y-105220396D01*
X89044027Y-105237709D01*
X89058478Y-105246789D01*
X89150529Y-105278999D01*
X89228745Y-105306368D01*
X89228750Y-105306369D01*
X89407996Y-105326565D01*
X89408000Y-105326565D01*
X89408004Y-105326565D01*
X89587249Y-105306369D01*
X89587252Y-105306368D01*
X89587255Y-105306368D01*
X89757522Y-105246789D01*
X89910262Y-105150816D01*
X90037816Y-105023262D01*
X90133789Y-104870522D01*
X90193368Y-104700255D01*
X90200189Y-104639716D01*
X90213565Y-104521003D01*
X90213565Y-104520996D01*
X90193369Y-104341750D01*
X90193368Y-104341745D01*
X90186290Y-104321517D01*
X90133789Y-104171478D01*
X90037816Y-104018738D01*
X89910262Y-103891184D01*
X89757523Y-103795211D01*
X89587254Y-103735631D01*
X89587249Y-103735630D01*
X89408004Y-103715435D01*
X89407996Y-103715435D01*
X89228750Y-103735630D01*
X89228745Y-103735631D01*
X89058476Y-103795211D01*
X88905736Y-103891185D01*
X88902903Y-103893445D01*
X88900724Y-103894334D01*
X88899842Y-103894889D01*
X88899744Y-103894734D01*
X88838217Y-103919855D01*
X88825588Y-103920500D01*
X88809353Y-103920500D01*
X88651238Y-103920500D01*
X88621379Y-103928501D01*
X88597468Y-103934908D01*
X88498510Y-103961423D01*
X88498505Y-103961426D01*
X88361586Y-104040475D01*
X88361578Y-104040481D01*
X88304271Y-104097789D01*
X88249776Y-104152284D01*
X88249774Y-104152286D01*
X86600078Y-105801983D01*
X84961880Y-107440181D01*
X84900557Y-107473666D01*
X84874199Y-107476500D01*
X81036818Y-107476500D01*
X80970846Y-107457494D01*
X80956540Y-107448505D01*
X80842122Y-107376611D01*
X80815384Y-107367255D01*
X80671854Y-107317031D01*
X80671850Y-107317030D01*
X80500776Y-107297755D01*
X80436362Y-107270688D01*
X80396807Y-107213093D01*
X80394670Y-107143256D01*
X80426977Y-107086856D01*
X80638135Y-106875698D01*
X80699456Y-106842215D01*
X80711911Y-106840163D01*
X80798855Y-106830368D01*
X80969122Y-106770789D01*
X81121862Y-106674816D01*
X81249416Y-106547262D01*
X81345389Y-106394522D01*
X81404968Y-106224255D01*
X81406776Y-106208211D01*
X81425165Y-106045003D01*
X81425165Y-106044996D01*
X81404969Y-105865750D01*
X81404968Y-105865745D01*
X81382657Y-105801983D01*
X81345389Y-105695478D01*
X81335097Y-105679099D01*
X81249415Y-105542737D01*
X81121862Y-105415184D01*
X80969123Y-105319211D01*
X80798854Y-105259631D01*
X80798849Y-105259630D01*
X80619604Y-105239435D01*
X80619596Y-105239435D01*
X80440350Y-105259630D01*
X80440345Y-105259631D01*
X80270076Y-105319211D01*
X80117337Y-105415184D01*
X79989784Y-105542737D01*
X79893810Y-105695478D01*
X79834230Y-105865750D01*
X79824437Y-105952668D01*
X79797370Y-106017082D01*
X79788898Y-106026465D01*
X79264184Y-106551181D01*
X79202861Y-106584666D01*
X79176503Y-106587500D01*
X79119212Y-106587500D01*
X79052173Y-106567815D01*
X79041897Y-106560445D01*
X79039063Y-106558185D01*
X79039062Y-106558184D01*
X78949649Y-106502002D01*
X78886323Y-106462211D01*
X78716054Y-106402631D01*
X78716049Y-106402630D01*
X78536804Y-106382435D01*
X78536796Y-106382435D01*
X78357550Y-106402630D01*
X78357545Y-106402631D01*
X78187276Y-106462211D01*
X78034537Y-106558184D01*
X77906984Y-106685737D01*
X77811011Y-106838476D01*
X77751431Y-107008745D01*
X77751430Y-107008750D01*
X77731235Y-107187996D01*
X77731235Y-107188004D01*
X77742581Y-107288710D01*
X77730526Y-107357532D01*
X77683177Y-107408911D01*
X77615566Y-107426535D01*
X77553389Y-107407587D01*
X77536982Y-107397278D01*
X77438522Y-107335411D01*
X77416414Y-107327675D01*
X77268254Y-107275831D01*
X77268249Y-107275830D01*
X77089004Y-107255635D01*
X77088996Y-107255635D01*
X76909750Y-107275830D01*
X76909745Y-107275831D01*
X76739476Y-107335411D01*
X76586737Y-107431384D01*
X76459184Y-107558937D01*
X76363211Y-107711676D01*
X76303631Y-107881945D01*
X76303630Y-107881950D01*
X76283435Y-108061196D01*
X76283435Y-108061203D01*
X76303630Y-108240449D01*
X76303631Y-108240454D01*
X76363211Y-108410723D01*
X76406116Y-108479005D01*
X76455450Y-108557520D01*
X76459185Y-108563463D01*
X76461445Y-108566297D01*
X76462334Y-108568475D01*
X76462889Y-108569358D01*
X76462734Y-108569455D01*
X76487855Y-108630983D01*
X76488500Y-108643612D01*
X76488500Y-108849100D01*
X76468815Y-108916139D01*
X76416011Y-108961894D01*
X76364500Y-108973100D01*
X70308898Y-108973100D01*
X70241859Y-108953415D01*
X70221217Y-108936781D01*
X66864819Y-105580383D01*
X66831334Y-105519060D01*
X66828500Y-105492702D01*
X66828500Y-104770996D01*
X72051835Y-104770996D01*
X72051835Y-104771003D01*
X72072030Y-104950249D01*
X72072031Y-104950254D01*
X72131611Y-105120523D01*
X72219018Y-105259630D01*
X72227584Y-105273262D01*
X72355138Y-105400816D01*
X72372070Y-105411455D01*
X72501373Y-105492702D01*
X72507878Y-105496789D01*
X72571525Y-105519060D01*
X72678145Y-105556368D01*
X72678150Y-105556369D01*
X72857397Y-105576565D01*
X72857398Y-105576564D01*
X72857400Y-105576565D01*
X72866473Y-105575542D01*
X72935293Y-105587591D01*
X72968045Y-105611080D01*
X74655339Y-107298374D01*
X74655349Y-107298385D01*
X74659679Y-107302715D01*
X74659680Y-107302716D01*
X74771484Y-107414520D01*
X74830347Y-107448504D01*
X74908415Y-107493577D01*
X74921790Y-107497161D01*
X74977376Y-107529254D01*
X75011938Y-107563816D01*
X75164678Y-107659789D01*
X75303269Y-107708284D01*
X75334945Y-107719368D01*
X75334950Y-107719369D01*
X75514196Y-107739565D01*
X75514200Y-107739565D01*
X75514204Y-107739565D01*
X75693449Y-107719369D01*
X75693452Y-107719368D01*
X75693455Y-107719368D01*
X75863722Y-107659789D01*
X76016462Y-107563816D01*
X76144016Y-107436262D01*
X76239989Y-107283522D01*
X76299568Y-107113255D01*
X76300138Y-107108195D01*
X76319765Y-106934003D01*
X76319765Y-106933996D01*
X76299569Y-106754750D01*
X76299568Y-106754745D01*
X76275421Y-106685737D01*
X76239989Y-106584478D01*
X76238174Y-106581590D01*
X76178453Y-106486544D01*
X76144016Y-106431738D01*
X76016462Y-106304184D01*
X75997227Y-106292098D01*
X75863723Y-106208211D01*
X75693454Y-106148631D01*
X75693449Y-106148630D01*
X75514204Y-106128435D01*
X75514196Y-106128435D01*
X75334947Y-106148631D01*
X75311533Y-106156824D01*
X75241754Y-106160385D01*
X75182898Y-106127463D01*
X73660407Y-104604972D01*
X73631047Y-104558246D01*
X73585664Y-104428551D01*
X73583189Y-104421478D01*
X73583189Y-104421477D01*
X73487215Y-104268737D01*
X73359662Y-104141184D01*
X73206923Y-104045211D01*
X73036654Y-103985631D01*
X73036649Y-103985630D01*
X72857404Y-103965435D01*
X72857396Y-103965435D01*
X72678150Y-103985630D01*
X72678145Y-103985631D01*
X72507876Y-104045211D01*
X72355137Y-104141184D01*
X72227584Y-104268737D01*
X72131611Y-104421476D01*
X72072031Y-104591745D01*
X72072030Y-104591750D01*
X72051835Y-104770996D01*
X66828500Y-104770996D01*
X66828500Y-104616812D01*
X66848185Y-104549773D01*
X66855555Y-104539497D01*
X66857810Y-104536667D01*
X66857816Y-104536662D01*
X66953789Y-104383922D01*
X67013368Y-104213655D01*
X67013761Y-104210168D01*
X67033565Y-104034403D01*
X67033565Y-104034396D01*
X67013369Y-103855150D01*
X67013368Y-103855145D01*
X66985087Y-103774322D01*
X66953789Y-103684878D01*
X66857816Y-103532138D01*
X66730262Y-103404584D01*
X66577522Y-103308611D01*
X66577519Y-103308609D01*
X66499592Y-103281341D01*
X66442816Y-103240620D01*
X66417069Y-103175667D01*
X66430525Y-103107105D01*
X66478913Y-103056703D01*
X66540547Y-103040300D01*
X78385088Y-103040300D01*
X78452127Y-103059985D01*
X78497882Y-103112789D01*
X78507826Y-103181947D01*
X78502130Y-103205254D01*
X78488032Y-103245542D01*
X78488030Y-103245550D01*
X78467835Y-103424796D01*
X78467835Y-103424803D01*
X78488030Y-103604049D01*
X78488031Y-103604054D01*
X78547611Y-103774323D01*
X78623271Y-103894734D01*
X78643584Y-103927062D01*
X78771138Y-104054616D01*
X78851266Y-104104964D01*
X78899733Y-104135418D01*
X78923878Y-104150589D01*
X79034096Y-104189156D01*
X79094145Y-104210168D01*
X79094150Y-104210169D01*
X79273396Y-104230365D01*
X79273400Y-104230365D01*
X79273404Y-104230365D01*
X79452649Y-104210169D01*
X79452652Y-104210168D01*
X79452655Y-104210168D01*
X79622922Y-104150589D01*
X79775662Y-104054616D01*
X79775667Y-104054610D01*
X79778497Y-104052355D01*
X79780675Y-104051465D01*
X79781558Y-104050911D01*
X79781655Y-104051065D01*
X79843183Y-104025945D01*
X79855812Y-104025300D01*
X82968128Y-104025300D01*
X83035167Y-104044985D01*
X83080922Y-104097789D01*
X83091348Y-104135418D01*
X83097401Y-104189149D01*
X83097402Y-104189154D01*
X83097403Y-104189156D01*
X83115371Y-104240505D01*
X83156981Y-104359422D01*
X83211904Y-104446831D01*
X83252955Y-104512163D01*
X83380509Y-104639717D01*
X83470851Y-104696483D01*
X83524094Y-104729938D01*
X83533249Y-104735690D01*
X83634168Y-104771003D01*
X83703516Y-104795269D01*
X83703521Y-104795270D01*
X83882767Y-104815466D01*
X83882771Y-104815466D01*
X83882775Y-104815466D01*
X84062020Y-104795270D01*
X84062023Y-104795269D01*
X84062026Y-104795269D01*
X84232293Y-104735690D01*
X84385033Y-104639717D01*
X84512587Y-104512163D01*
X84608560Y-104359423D01*
X84668139Y-104189156D01*
X84668419Y-104186671D01*
X84688336Y-104009904D01*
X84688336Y-104009897D01*
X84668140Y-103830651D01*
X84668139Y-103830646D01*
X84627825Y-103715435D01*
X84608560Y-103660379D01*
X84573165Y-103604049D01*
X84569353Y-103597981D01*
X84512587Y-103507639D01*
X84385033Y-103380085D01*
X84232293Y-103284112D01*
X84232290Y-103284110D01*
X84224377Y-103281341D01*
X84167601Y-103240619D01*
X84141854Y-103175667D01*
X84155311Y-103107105D01*
X84203698Y-103056702D01*
X84265332Y-103040300D01*
X104561490Y-103040300D01*
X104561492Y-103040300D01*
X104688786Y-103006192D01*
X104802914Y-102940300D01*
X104896100Y-102847114D01*
X104961992Y-102732986D01*
X104990201Y-102627706D01*
X105026566Y-102568046D01*
X105089413Y-102537517D01*
X105109976Y-102535800D01*
X105877700Y-102535800D01*
X105944739Y-102555485D01*
G37*
%TD.AperFunction*%
%TA.AperFunction,Conductor*%
G36*
X61728200Y-107385988D02*
G01*
X61671193Y-107353075D01*
X61544026Y-107319000D01*
X61412374Y-107319000D01*
X61285207Y-107353075D01*
X61228200Y-107385988D01*
X61228200Y-105712012D01*
X61285207Y-105744925D01*
X61412374Y-105779000D01*
X61544026Y-105779000D01*
X61671193Y-105744925D01*
X61728200Y-105712012D01*
X61728200Y-107385988D01*
G37*
%TD.AperFunction*%
%TD*%
%TA.AperFunction,Conductor*%
%TO.N,GND*%
G36*
X58003254Y-92535885D02*
G01*
X58049009Y-92588689D01*
X58055987Y-92608099D01*
X58064589Y-92640200D01*
X58080608Y-92699987D01*
X58113554Y-92757050D01*
X58146500Y-92814114D01*
X58239686Y-92907300D01*
X58353814Y-92973192D01*
X58481108Y-93007300D01*
X58481110Y-93007300D01*
X104434490Y-93007300D01*
X104434492Y-93007300D01*
X104561786Y-92973192D01*
X104675914Y-92907300D01*
X104769100Y-92814114D01*
X104834992Y-92699986D01*
X104859611Y-92608105D01*
X104895975Y-92548446D01*
X104958821Y-92517917D01*
X104979385Y-92516200D01*
X105877700Y-92516200D01*
X105944739Y-92535885D01*
X105990494Y-92588689D01*
X106001700Y-92640200D01*
X106001700Y-100393200D01*
X105982015Y-100460239D01*
X105929211Y-100505994D01*
X105877700Y-100517200D01*
X105104617Y-100517200D01*
X105037578Y-100497515D01*
X104991823Y-100444711D01*
X104984842Y-100425293D01*
X104961991Y-100340012D01*
X104953163Y-100324721D01*
X104896100Y-100225886D01*
X104802914Y-100132700D01*
X104745850Y-100099754D01*
X104688787Y-100066808D01*
X104625139Y-100049754D01*
X104561492Y-100032700D01*
X104561491Y-100032700D01*
X101546498Y-100032700D01*
X101479459Y-100013015D01*
X101433704Y-99960211D01*
X101423760Y-99891053D01*
X101434780Y-99854894D01*
X101436788Y-99850724D01*
X101436789Y-99850722D01*
X101496368Y-99680455D01*
X101496369Y-99680449D01*
X101516565Y-99501203D01*
X101516565Y-99501196D01*
X101496369Y-99321950D01*
X101496368Y-99321945D01*
X101475815Y-99263208D01*
X101472254Y-99193429D01*
X101506983Y-99132801D01*
X101568976Y-99100574D01*
X101582045Y-99098725D01*
X101754208Y-99083663D01*
X101982463Y-99022503D01*
X102196630Y-98922635D01*
X102390201Y-98787095D01*
X102512129Y-98665166D01*
X102573448Y-98631684D01*
X102643140Y-98636668D01*
X102699074Y-98678539D01*
X102715989Y-98709517D01*
X102765002Y-98840928D01*
X102765006Y-98840935D01*
X102851252Y-98956144D01*
X102851255Y-98956147D01*
X102966464Y-99042393D01*
X102966471Y-99042397D01*
X103101317Y-99092691D01*
X103101316Y-99092691D01*
X103108244Y-99093435D01*
X103160927Y-99099100D01*
X104956672Y-99099099D01*
X105016283Y-99092691D01*
X105151131Y-99042396D01*
X105266346Y-98956146D01*
X105352596Y-98840931D01*
X105402891Y-98706083D01*
X105409300Y-98646473D01*
X105409299Y-96850728D01*
X105402891Y-96791117D01*
X105401610Y-96787683D01*
X105352597Y-96656271D01*
X105352593Y-96656264D01*
X105266347Y-96541055D01*
X105266344Y-96541052D01*
X105151135Y-96454806D01*
X105151128Y-96454802D01*
X105019717Y-96405789D01*
X104963783Y-96363918D01*
X104939366Y-96298453D01*
X104954218Y-96230180D01*
X104975363Y-96201932D01*
X105097295Y-96080001D01*
X105232835Y-95886430D01*
X105332703Y-95672263D01*
X105393863Y-95444008D01*
X105414459Y-95208600D01*
X105393863Y-94973192D01*
X105332703Y-94744937D01*
X105232835Y-94530771D01*
X105227225Y-94522758D01*
X105097294Y-94337197D01*
X104930202Y-94170106D01*
X104930195Y-94170101D01*
X104926056Y-94167203D01*
X104845455Y-94110765D01*
X104736634Y-94034567D01*
X104736630Y-94034565D01*
X104685874Y-94010897D01*
X104522463Y-93934697D01*
X104522459Y-93934696D01*
X104522455Y-93934694D01*
X104294213Y-93873538D01*
X104294203Y-93873536D01*
X104058801Y-93852941D01*
X104058799Y-93852941D01*
X103823396Y-93873536D01*
X103823386Y-93873538D01*
X103595144Y-93934694D01*
X103595135Y-93934698D01*
X103380971Y-94034564D01*
X103380969Y-94034565D01*
X103187397Y-94170105D01*
X103020305Y-94337197D01*
X102890375Y-94522758D01*
X102835798Y-94566383D01*
X102766300Y-94573577D01*
X102703945Y-94542054D01*
X102687225Y-94522758D01*
X102557294Y-94337197D01*
X102390202Y-94170106D01*
X102390195Y-94170101D01*
X102386056Y-94167203D01*
X102305455Y-94110765D01*
X102196634Y-94034567D01*
X102196630Y-94034565D01*
X102145874Y-94010897D01*
X101982463Y-93934697D01*
X101982459Y-93934696D01*
X101982455Y-93934694D01*
X101754213Y-93873538D01*
X101754203Y-93873536D01*
X101518801Y-93852941D01*
X101518799Y-93852941D01*
X101283396Y-93873536D01*
X101283386Y-93873538D01*
X101055144Y-93934694D01*
X101055135Y-93934698D01*
X100840971Y-94034564D01*
X100840969Y-94034565D01*
X100647397Y-94170105D01*
X100480305Y-94337197D01*
X100350375Y-94522758D01*
X100295798Y-94566383D01*
X100226300Y-94573577D01*
X100163945Y-94542054D01*
X100147225Y-94522758D01*
X100017294Y-94337197D01*
X99850202Y-94170106D01*
X99850195Y-94170101D01*
X99846056Y-94167203D01*
X99765455Y-94110765D01*
X99656634Y-94034567D01*
X99656630Y-94034565D01*
X99605874Y-94010897D01*
X99442463Y-93934697D01*
X99442459Y-93934696D01*
X99442455Y-93934694D01*
X99214213Y-93873538D01*
X99214203Y-93873536D01*
X98978801Y-93852941D01*
X98978799Y-93852941D01*
X98743396Y-93873536D01*
X98743386Y-93873538D01*
X98515144Y-93934694D01*
X98515135Y-93934698D01*
X98300971Y-94034564D01*
X98300969Y-94034565D01*
X98107397Y-94170105D01*
X97940305Y-94337197D01*
X97804765Y-94530769D01*
X97804764Y-94530771D01*
X97704898Y-94744935D01*
X97704894Y-94744944D01*
X97643738Y-94973186D01*
X97643736Y-94973196D01*
X97623141Y-95208599D01*
X97623141Y-95208600D01*
X97643736Y-95444003D01*
X97643738Y-95444013D01*
X97704894Y-95672255D01*
X97704896Y-95672259D01*
X97704897Y-95672263D01*
X97760095Y-95790635D01*
X97804765Y-95886430D01*
X97804767Y-95886434D01*
X97858542Y-95963232D01*
X97940301Y-96079996D01*
X97940306Y-96080002D01*
X98107397Y-96247093D01*
X98107403Y-96247098D01*
X98152270Y-96278514D01*
X98274239Y-96363918D01*
X98293394Y-96377330D01*
X98337019Y-96431907D01*
X98344213Y-96501405D01*
X98312690Y-96563760D01*
X98293395Y-96580480D01*
X98107722Y-96710490D01*
X98107720Y-96710491D01*
X97940691Y-96877520D01*
X97940686Y-96877526D01*
X97805200Y-97071020D01*
X97805199Y-97071022D01*
X97705370Y-97285107D01*
X97705367Y-97285113D01*
X97648164Y-97498599D01*
X97648164Y-97498600D01*
X98545788Y-97498600D01*
X98512875Y-97555607D01*
X98478800Y-97682774D01*
X98478800Y-97814426D01*
X98512875Y-97941593D01*
X98545788Y-97998600D01*
X97648164Y-97998600D01*
X97705367Y-98212086D01*
X97705370Y-98212092D01*
X97805199Y-98426178D01*
X97940694Y-98619682D01*
X98010031Y-98689019D01*
X98043516Y-98750342D01*
X98038532Y-98820034D01*
X97996660Y-98875967D01*
X97931196Y-98900384D01*
X97922350Y-98900700D01*
X96540568Y-98900700D01*
X96473529Y-98881015D01*
X96452887Y-98864381D01*
X95781014Y-98192508D01*
X95747529Y-98131185D01*
X95745475Y-98090945D01*
X95750765Y-98044000D01*
X95750765Y-98043996D01*
X95730569Y-97864750D01*
X95730568Y-97864745D01*
X95670988Y-97694476D01*
X95608159Y-97594485D01*
X95575016Y-97541738D01*
X95447462Y-97414184D01*
X95294723Y-97318211D01*
X95124454Y-97258631D01*
X95124449Y-97258630D01*
X94945204Y-97238435D01*
X94945196Y-97238435D01*
X94765950Y-97258630D01*
X94765945Y-97258631D01*
X94595676Y-97318211D01*
X94442937Y-97414184D01*
X94315384Y-97541737D01*
X94219411Y-97694476D01*
X94159831Y-97864745D01*
X94159830Y-97864750D01*
X94139635Y-98043996D01*
X94139635Y-98044003D01*
X94159830Y-98223249D01*
X94159832Y-98223257D01*
X94198942Y-98335028D01*
X94202503Y-98404807D01*
X94167774Y-98465434D01*
X94159219Y-98472924D01*
X94157139Y-98474582D01*
X94029584Y-98602137D01*
X93996072Y-98655472D01*
X93943737Y-98701763D01*
X93891078Y-98713500D01*
X83459697Y-98713500D01*
X83392658Y-98693815D01*
X83372016Y-98677181D01*
X82882019Y-98187184D01*
X82848534Y-98125861D01*
X82845700Y-98099503D01*
X82845700Y-97178612D01*
X82865385Y-97111573D01*
X82872755Y-97101297D01*
X82875010Y-97098467D01*
X82875016Y-97098462D01*
X82970989Y-96945722D01*
X83030568Y-96775455D01*
X83030569Y-96775449D01*
X83050765Y-96596203D01*
X83050765Y-96596196D01*
X83030569Y-96416950D01*
X83030568Y-96416945D01*
X83022450Y-96393745D01*
X82970989Y-96246678D01*
X82970775Y-96246338D01*
X82903328Y-96138996D01*
X87611835Y-96138996D01*
X87611835Y-96139003D01*
X87632030Y-96318249D01*
X87632031Y-96318254D01*
X87691611Y-96488523D01*
X87742399Y-96569350D01*
X87787079Y-96640459D01*
X87787585Y-96641263D01*
X87789845Y-96644097D01*
X87790734Y-96646275D01*
X87791289Y-96647158D01*
X87791134Y-96647255D01*
X87816255Y-96708783D01*
X87816900Y-96721412D01*
X87816900Y-96890329D01*
X87797894Y-96956301D01*
X87707176Y-97100676D01*
X87647596Y-97270945D01*
X87647595Y-97270950D01*
X87627400Y-97450196D01*
X87627400Y-97450203D01*
X87647595Y-97629449D01*
X87647596Y-97629454D01*
X87707176Y-97799723D01*
X87796320Y-97941593D01*
X87803149Y-97952462D01*
X87930703Y-98080016D01*
X88083443Y-98175989D01*
X88218527Y-98223257D01*
X88253710Y-98235568D01*
X88253715Y-98235569D01*
X88432961Y-98255765D01*
X88432965Y-98255765D01*
X88432969Y-98255765D01*
X88612214Y-98235569D01*
X88612217Y-98235568D01*
X88612220Y-98235568D01*
X88782487Y-98175989D01*
X88935227Y-98080016D01*
X89062781Y-97952462D01*
X89158754Y-97799722D01*
X89218333Y-97629455D01*
X89218572Y-97627337D01*
X89238530Y-97450203D01*
X89238530Y-97450196D01*
X89218334Y-97270950D01*
X89218333Y-97270945D01*
X89181605Y-97165983D01*
X89158754Y-97100678D01*
X89062781Y-96947938D01*
X89054219Y-96939376D01*
X89020734Y-96878053D01*
X89017900Y-96851695D01*
X89017900Y-96721412D01*
X89037585Y-96654373D01*
X89044955Y-96644097D01*
X89047210Y-96641267D01*
X89047216Y-96641262D01*
X89143189Y-96488522D01*
X89202768Y-96318255D01*
X89202769Y-96318249D01*
X89222965Y-96139003D01*
X89222965Y-96138996D01*
X89202769Y-95959750D01*
X89202768Y-95959745D01*
X89177114Y-95886430D01*
X89143189Y-95789478D01*
X89047216Y-95636738D01*
X88919662Y-95509184D01*
X88766923Y-95413211D01*
X88596654Y-95353631D01*
X88596649Y-95353630D01*
X88417404Y-95333435D01*
X88417396Y-95333435D01*
X88238150Y-95353630D01*
X88238145Y-95353631D01*
X88067876Y-95413211D01*
X87915137Y-95509184D01*
X87787584Y-95636737D01*
X87691611Y-95789476D01*
X87632031Y-95959745D01*
X87632030Y-95959750D01*
X87611835Y-96138996D01*
X82903328Y-96138996D01*
X82890628Y-96118784D01*
X82875016Y-96093938D01*
X82747462Y-95966384D01*
X82723529Y-95951346D01*
X82594723Y-95870411D01*
X82424454Y-95810831D01*
X82424449Y-95810830D01*
X82245204Y-95790635D01*
X82245196Y-95790635D01*
X82065950Y-95810830D01*
X82065945Y-95810831D01*
X81895676Y-95870411D01*
X81742937Y-95966384D01*
X81615384Y-96093937D01*
X81519411Y-96246676D01*
X81459831Y-96416945D01*
X81459830Y-96416950D01*
X81439635Y-96596196D01*
X81439635Y-96596203D01*
X81459830Y-96775449D01*
X81459831Y-96775454D01*
X81519411Y-96945723D01*
X81526058Y-96956301D01*
X81615170Y-97098122D01*
X81615385Y-97098463D01*
X81617645Y-97101297D01*
X81618534Y-97103475D01*
X81619089Y-97104358D01*
X81618934Y-97104455D01*
X81644055Y-97165983D01*
X81644700Y-97178612D01*
X81644700Y-98312930D01*
X81644699Y-98312948D01*
X81644699Y-98478654D01*
X81644698Y-98478654D01*
X81682572Y-98620001D01*
X81685623Y-98631385D01*
X81707273Y-98668883D01*
X81763053Y-98765498D01*
X81764679Y-98768314D01*
X81764681Y-98768317D01*
X81883549Y-98887185D01*
X81883555Y-98887190D01*
X82674739Y-99678374D01*
X82674749Y-99678385D01*
X82679079Y-99682715D01*
X82679080Y-99682716D01*
X82790884Y-99794520D01*
X82790886Y-99794521D01*
X82790887Y-99794522D01*
X82802648Y-99801312D01*
X82850864Y-99851878D01*
X82864089Y-99920485D01*
X82838122Y-99985350D01*
X82781209Y-100025879D01*
X82740650Y-100032700D01*
X76452098Y-100032700D01*
X76385059Y-100013015D01*
X76339304Y-99960211D01*
X76329360Y-99891053D01*
X76358385Y-99827497D01*
X76364417Y-99821019D01*
X76390916Y-99794520D01*
X76417120Y-99768316D01*
X76417120Y-99768314D01*
X76427324Y-99758111D01*
X76427328Y-99758106D01*
X81019135Y-95166298D01*
X81080456Y-95132815D01*
X81092911Y-95130763D01*
X81179855Y-95120968D01*
X81350122Y-95061389D01*
X81502862Y-94965416D01*
X81630416Y-94837862D01*
X81726389Y-94685122D01*
X81785968Y-94514855D01*
X81790638Y-94473411D01*
X81806165Y-94335603D01*
X81806165Y-94335596D01*
X81785969Y-94156350D01*
X81785968Y-94156345D01*
X81726389Y-93986078D01*
X81703554Y-93949737D01*
X81630415Y-93833337D01*
X81502862Y-93705784D01*
X81350123Y-93609811D01*
X81179854Y-93550231D01*
X81179849Y-93550230D01*
X81000604Y-93530035D01*
X81000596Y-93530035D01*
X80821350Y-93550230D01*
X80821345Y-93550231D01*
X80651076Y-93609811D01*
X80498337Y-93705784D01*
X80370784Y-93833337D01*
X80274810Y-93986078D01*
X80215230Y-94156350D01*
X80205437Y-94243268D01*
X80178370Y-94307682D01*
X80169898Y-94317065D01*
X75724184Y-98762781D01*
X75662861Y-98796266D01*
X75636503Y-98799100D01*
X75192412Y-98799100D01*
X75125373Y-98779415D01*
X75115097Y-98772045D01*
X75112263Y-98769785D01*
X75112262Y-98769784D01*
X75022687Y-98713500D01*
X74959523Y-98673811D01*
X74789254Y-98614231D01*
X74789249Y-98614230D01*
X74610004Y-98594035D01*
X74609996Y-98594035D01*
X74430750Y-98614230D01*
X74430745Y-98614231D01*
X74260476Y-98673811D01*
X74107737Y-98769784D01*
X73980184Y-98897337D01*
X73884211Y-99050076D01*
X73824631Y-99220345D01*
X73824630Y-99220350D01*
X73804435Y-99399596D01*
X73804435Y-99399603D01*
X73824630Y-99578849D01*
X73824631Y-99578854D01*
X73884211Y-99749124D01*
X73943027Y-99842727D01*
X73962028Y-99909964D01*
X73941661Y-99976799D01*
X73888393Y-100022014D01*
X73838034Y-100032700D01*
X58608108Y-100032700D01*
X58480812Y-100066808D01*
X58366686Y-100132700D01*
X58366683Y-100132702D01*
X58273502Y-100225883D01*
X58273500Y-100225886D01*
X58207608Y-100340012D01*
X58184758Y-100425293D01*
X58148393Y-100484954D01*
X58085546Y-100515483D01*
X58064983Y-100517200D01*
X57155300Y-100517200D01*
X57088261Y-100497515D01*
X57042506Y-100444711D01*
X57031300Y-100393200D01*
X57031300Y-95284799D01*
X57688741Y-95284799D01*
X57688741Y-95284800D01*
X57709336Y-95520203D01*
X57709338Y-95520213D01*
X57770494Y-95748455D01*
X57770496Y-95748459D01*
X57770497Y-95748463D01*
X57834832Y-95886430D01*
X57870365Y-95962630D01*
X57870367Y-95962634D01*
X57952549Y-96080001D01*
X58005901Y-96156196D01*
X58005906Y-96156202D01*
X58128218Y-96278514D01*
X58161703Y-96339837D01*
X58156719Y-96409529D01*
X58114847Y-96465462D01*
X58083871Y-96482377D01*
X57952312Y-96531446D01*
X57952306Y-96531449D01*
X57837212Y-96617609D01*
X57837209Y-96617612D01*
X57751049Y-96732706D01*
X57751045Y-96732713D01*
X57700803Y-96867420D01*
X57700801Y-96867427D01*
X57694400Y-96926955D01*
X57694400Y-97574800D01*
X58611388Y-97574800D01*
X58578475Y-97631807D01*
X58544400Y-97758974D01*
X58544400Y-97890626D01*
X58578475Y-98017793D01*
X58611388Y-98074800D01*
X57694400Y-98074800D01*
X57694400Y-98722644D01*
X57700801Y-98782172D01*
X57700803Y-98782179D01*
X57751045Y-98916886D01*
X57751049Y-98916893D01*
X57837209Y-99031987D01*
X57837212Y-99031990D01*
X57952306Y-99118150D01*
X57952313Y-99118154D01*
X58087020Y-99168396D01*
X58087027Y-99168398D01*
X58146555Y-99174799D01*
X58146572Y-99174800D01*
X58794400Y-99174800D01*
X58794400Y-98257812D01*
X58851407Y-98290725D01*
X58978574Y-98324800D01*
X59110226Y-98324800D01*
X59237393Y-98290725D01*
X59294400Y-98257812D01*
X59294400Y-99174800D01*
X59942228Y-99174800D01*
X59942244Y-99174799D01*
X60001772Y-99168398D01*
X60001779Y-99168396D01*
X60136486Y-99118154D01*
X60136493Y-99118150D01*
X60251587Y-99031990D01*
X60251590Y-99031987D01*
X60337750Y-98916893D01*
X60337754Y-98916886D01*
X60386822Y-98785329D01*
X60428693Y-98729395D01*
X60494157Y-98704978D01*
X60562430Y-98719830D01*
X60590685Y-98740981D01*
X60712999Y-98863295D01*
X60765498Y-98900055D01*
X60906565Y-98998832D01*
X60906567Y-98998833D01*
X60906570Y-98998835D01*
X61120737Y-99098703D01*
X61120743Y-99098704D01*
X61120744Y-99098705D01*
X61175685Y-99113426D01*
X61348992Y-99159863D01*
X61519719Y-99174800D01*
X61584399Y-99180459D01*
X61584400Y-99180459D01*
X61584401Y-99180459D01*
X61649081Y-99174800D01*
X61819808Y-99159863D01*
X62048063Y-99098703D01*
X62262230Y-98998835D01*
X62455801Y-98863295D01*
X62622895Y-98696201D01*
X62758435Y-98502630D01*
X62858303Y-98288463D01*
X62900871Y-98129596D01*
X64050835Y-98129596D01*
X64050835Y-98129603D01*
X64071030Y-98308849D01*
X64071031Y-98308854D01*
X64130611Y-98479123D01*
X64215505Y-98614230D01*
X64226584Y-98631862D01*
X64354138Y-98759416D01*
X64417295Y-98799100D01*
X64483874Y-98840935D01*
X64506878Y-98855389D01*
X64677145Y-98914968D01*
X64677150Y-98914969D01*
X64856396Y-98935165D01*
X64856400Y-98935165D01*
X64856404Y-98935165D01*
X65035649Y-98914969D01*
X65035652Y-98914968D01*
X65035655Y-98914968D01*
X65205922Y-98855389D01*
X65358662Y-98759416D01*
X65381362Y-98736715D01*
X65436950Y-98704620D01*
X65494585Y-98689177D01*
X65568550Y-98646473D01*
X65631516Y-98610120D01*
X65743320Y-98498316D01*
X65743320Y-98498314D01*
X65753524Y-98488111D01*
X65753528Y-98488106D01*
X66053106Y-98188528D01*
X66053111Y-98188524D01*
X66063314Y-98178320D01*
X66063316Y-98178320D01*
X66175120Y-98066516D01*
X66254177Y-97929584D01*
X66295100Y-97776857D01*
X66295100Y-95199196D01*
X69958835Y-95199196D01*
X69958835Y-95199203D01*
X69979030Y-95378449D01*
X69979031Y-95378454D01*
X70038611Y-95548723D01*
X70093915Y-95636738D01*
X70134584Y-95701462D01*
X70262138Y-95829016D01*
X70414878Y-95924989D01*
X70585145Y-95984568D01*
X70672069Y-95994361D01*
X70736480Y-96021426D01*
X70745865Y-96029900D01*
X71828939Y-97112974D01*
X71828949Y-97112985D01*
X71833279Y-97117315D01*
X71833280Y-97117316D01*
X71945084Y-97229120D01*
X71945086Y-97229121D01*
X71945090Y-97229124D01*
X72082009Y-97308173D01*
X72082016Y-97308177D01*
X72193819Y-97338134D01*
X72234742Y-97349100D01*
X72234743Y-97349100D01*
X74296788Y-97349100D01*
X74363827Y-97368785D01*
X74374103Y-97376155D01*
X74376936Y-97378414D01*
X74376938Y-97378416D01*
X74529678Y-97474389D01*
X74602253Y-97499784D01*
X74699945Y-97533968D01*
X74699950Y-97533969D01*
X74879196Y-97554165D01*
X74879200Y-97554165D01*
X74879204Y-97554165D01*
X75058449Y-97533969D01*
X75058452Y-97533968D01*
X75058455Y-97533968D01*
X75228722Y-97474389D01*
X75381462Y-97378416D01*
X75509016Y-97250862D01*
X75604989Y-97098122D01*
X75664568Y-96927855D01*
X75664569Y-96927849D01*
X75684765Y-96748603D01*
X75684765Y-96748596D01*
X75664569Y-96569350D01*
X75664568Y-96569345D01*
X75651308Y-96531449D01*
X75604989Y-96399078D01*
X75604374Y-96398100D01*
X75541762Y-96298453D01*
X75509016Y-96246338D01*
X75381462Y-96118784D01*
X75341920Y-96093938D01*
X75228723Y-96022811D01*
X75058454Y-95963231D01*
X75058449Y-95963230D01*
X74879204Y-95943035D01*
X74879196Y-95943035D01*
X74699950Y-95963230D01*
X74699945Y-95963231D01*
X74529676Y-96022811D01*
X74376936Y-96118785D01*
X74374103Y-96121045D01*
X74371924Y-96121934D01*
X74371042Y-96122489D01*
X74370944Y-96122334D01*
X74309417Y-96147455D01*
X74296788Y-96148100D01*
X72613897Y-96148100D01*
X72546858Y-96128415D01*
X72526216Y-96111781D01*
X71595100Y-95180665D01*
X71561615Y-95119342D01*
X71559563Y-95106886D01*
X71549768Y-95019945D01*
X71490189Y-94849678D01*
X71394216Y-94696938D01*
X71266662Y-94569384D01*
X71205207Y-94530769D01*
X71113923Y-94473411D01*
X70943654Y-94413831D01*
X70943649Y-94413830D01*
X70764404Y-94393635D01*
X70764396Y-94393635D01*
X70585150Y-94413830D01*
X70585145Y-94413831D01*
X70414876Y-94473411D01*
X70262137Y-94569384D01*
X70134584Y-94696937D01*
X70038611Y-94849676D01*
X69979031Y-95019945D01*
X69979030Y-95019950D01*
X69958835Y-95199196D01*
X66295100Y-95199196D01*
X66295100Y-94749612D01*
X66314785Y-94682573D01*
X66322155Y-94672297D01*
X66324410Y-94669467D01*
X66324416Y-94669462D01*
X66420389Y-94516722D01*
X66479968Y-94346455D01*
X66481192Y-94335596D01*
X66500165Y-94167203D01*
X66500165Y-94167196D01*
X66479969Y-93987950D01*
X66479968Y-93987945D01*
X66461335Y-93934694D01*
X66420389Y-93817678D01*
X66324416Y-93664938D01*
X66196862Y-93537384D01*
X66185166Y-93530035D01*
X66044123Y-93441411D01*
X65873854Y-93381831D01*
X65873849Y-93381830D01*
X65694604Y-93361635D01*
X65694596Y-93361635D01*
X65515350Y-93381830D01*
X65515345Y-93381831D01*
X65345076Y-93441411D01*
X65192337Y-93537384D01*
X65064784Y-93664937D01*
X64968811Y-93817676D01*
X64909231Y-93987945D01*
X64909230Y-93987950D01*
X64889035Y-94167196D01*
X64889035Y-94167203D01*
X64909230Y-94346449D01*
X64909231Y-94346454D01*
X64968811Y-94516723D01*
X65064785Y-94669463D01*
X65067045Y-94672297D01*
X65067934Y-94674475D01*
X65068489Y-94675358D01*
X65068334Y-94675455D01*
X65093455Y-94736983D01*
X65094100Y-94749612D01*
X65094100Y-97212060D01*
X65074415Y-97279099D01*
X65021611Y-97324854D01*
X64956218Y-97335280D01*
X64856405Y-97324035D01*
X64856396Y-97324035D01*
X64677150Y-97344230D01*
X64677145Y-97344231D01*
X64506876Y-97403811D01*
X64354137Y-97499784D01*
X64226584Y-97627337D01*
X64130611Y-97780076D01*
X64071031Y-97950345D01*
X64071030Y-97950350D01*
X64050835Y-98129596D01*
X62900871Y-98129596D01*
X62919463Y-98060208D01*
X62940059Y-97824800D01*
X62919463Y-97589392D01*
X62858303Y-97361137D01*
X62758435Y-97146971D01*
X62737671Y-97117316D01*
X62622894Y-96953397D01*
X62455802Y-96786306D01*
X62455796Y-96786301D01*
X62270242Y-96656375D01*
X62226617Y-96601798D01*
X62219423Y-96532300D01*
X62250946Y-96469945D01*
X62270242Y-96453225D01*
X62347572Y-96399078D01*
X62455801Y-96323295D01*
X62622895Y-96156201D01*
X62758435Y-95962630D01*
X62858303Y-95748463D01*
X62919463Y-95520208D01*
X62940059Y-95284800D01*
X62919463Y-95049392D01*
X62873026Y-94876085D01*
X62858305Y-94821144D01*
X62858304Y-94821143D01*
X62858303Y-94821137D01*
X62758435Y-94606971D01*
X62752825Y-94598958D01*
X62622894Y-94413397D01*
X62455802Y-94246306D01*
X62455795Y-94246301D01*
X62451463Y-94243268D01*
X62346978Y-94170106D01*
X62262234Y-94110767D01*
X62262230Y-94110765D01*
X62262228Y-94110764D01*
X62048063Y-94010897D01*
X62048059Y-94010896D01*
X62048055Y-94010894D01*
X61819813Y-93949738D01*
X61819803Y-93949736D01*
X61584401Y-93929141D01*
X61584399Y-93929141D01*
X61348996Y-93949736D01*
X61348986Y-93949738D01*
X61120744Y-94010894D01*
X61120735Y-94010898D01*
X60906571Y-94110764D01*
X60906569Y-94110765D01*
X60712997Y-94246305D01*
X60545905Y-94413397D01*
X60415975Y-94598958D01*
X60361398Y-94642583D01*
X60291900Y-94649777D01*
X60229545Y-94618254D01*
X60212825Y-94598958D01*
X60082894Y-94413397D01*
X59915802Y-94246306D01*
X59915795Y-94246301D01*
X59911463Y-94243268D01*
X59806978Y-94170106D01*
X59722234Y-94110767D01*
X59722230Y-94110765D01*
X59722228Y-94110764D01*
X59508063Y-94010897D01*
X59508059Y-94010896D01*
X59508055Y-94010894D01*
X59279813Y-93949738D01*
X59279803Y-93949736D01*
X59044401Y-93929141D01*
X59044399Y-93929141D01*
X58808996Y-93949736D01*
X58808986Y-93949738D01*
X58580744Y-94010894D01*
X58580735Y-94010898D01*
X58366571Y-94110764D01*
X58366569Y-94110765D01*
X58172997Y-94246305D01*
X58005905Y-94413397D01*
X57870365Y-94606969D01*
X57870364Y-94606971D01*
X57770498Y-94821135D01*
X57770494Y-94821144D01*
X57709338Y-95049386D01*
X57709336Y-95049396D01*
X57688741Y-95284799D01*
X57031300Y-95284799D01*
X57031300Y-92640200D01*
X57050985Y-92573161D01*
X57103789Y-92527406D01*
X57155300Y-92516200D01*
X57936215Y-92516200D01*
X58003254Y-92535885D01*
G37*
%TD.AperFunction*%
%TD*%
M02*
