%TF.GenerationSoftware,KiCad,Pcbnew,8.0.5-8.0.5-0~ubuntu22.04.1*%
%TF.CreationDate,2024-10-23T18:20:31+02:00*%
%TF.ProjectId,EMG_amplifier,454d475f-616d-4706-9c69-666965722e6b,rev?*%
%TF.SameCoordinates,Original*%
%TF.FileFunction,Legend,Bot*%
%TF.FilePolarity,Positive*%
%FSLAX46Y46*%
G04 Gerber Fmt 4.6, Leading zero omitted, Abs format (unit mm)*
G04 Created by KiCad (PCBNEW 8.0.5-8.0.5-0~ubuntu22.04.1) date 2024-10-23 18:20:31*
%MOMM*%
%LPD*%
G01*
G04 APERTURE LIST*
%ADD10C,0.150000*%
%ADD11C,0.120000*%
G04 APERTURE END LIST*
D10*
X78843980Y-105216142D02*
X78891600Y-105168523D01*
X78891600Y-105168523D02*
X78939219Y-105025666D01*
X78939219Y-105025666D02*
X78939219Y-104930428D01*
X78939219Y-104930428D02*
X78891600Y-104787571D01*
X78891600Y-104787571D02*
X78796361Y-104692333D01*
X78796361Y-104692333D02*
X78701123Y-104644714D01*
X78701123Y-104644714D02*
X78510647Y-104597095D01*
X78510647Y-104597095D02*
X78367790Y-104597095D01*
X78367790Y-104597095D02*
X78177314Y-104644714D01*
X78177314Y-104644714D02*
X78082076Y-104692333D01*
X78082076Y-104692333D02*
X77986838Y-104787571D01*
X77986838Y-104787571D02*
X77939219Y-104930428D01*
X77939219Y-104930428D02*
X77939219Y-105025666D01*
X77939219Y-105025666D02*
X77986838Y-105168523D01*
X77986838Y-105168523D02*
X78034457Y-105216142D01*
X78939219Y-106168523D02*
X78939219Y-105597095D01*
X78939219Y-105882809D02*
X77939219Y-105882809D01*
X77939219Y-105882809D02*
X78082076Y-105787571D01*
X78082076Y-105787571D02*
X78177314Y-105692333D01*
X78177314Y-105692333D02*
X78224933Y-105597095D01*
X77939219Y-106787571D02*
X77939219Y-106882809D01*
X77939219Y-106882809D02*
X77986838Y-106978047D01*
X77986838Y-106978047D02*
X78034457Y-107025666D01*
X78034457Y-107025666D02*
X78129695Y-107073285D01*
X78129695Y-107073285D02*
X78320171Y-107120904D01*
X78320171Y-107120904D02*
X78558266Y-107120904D01*
X78558266Y-107120904D02*
X78748742Y-107073285D01*
X78748742Y-107073285D02*
X78843980Y-107025666D01*
X78843980Y-107025666D02*
X78891600Y-106978047D01*
X78891600Y-106978047D02*
X78939219Y-106882809D01*
X78939219Y-106882809D02*
X78939219Y-106787571D01*
X78939219Y-106787571D02*
X78891600Y-106692333D01*
X78891600Y-106692333D02*
X78843980Y-106644714D01*
X78843980Y-106644714D02*
X78748742Y-106597095D01*
X78748742Y-106597095D02*
X78558266Y-106549476D01*
X78558266Y-106549476D02*
X78320171Y-106549476D01*
X78320171Y-106549476D02*
X78129695Y-106597095D01*
X78129695Y-106597095D02*
X78034457Y-106644714D01*
X78034457Y-106644714D02*
X77986838Y-106692333D01*
X77986838Y-106692333D02*
X77939219Y-106787571D01*
D11*
%TO.C,J3*%
X97634000Y-103648200D02*
X97634000Y-108848200D01*
X97634000Y-103648200D02*
X105374000Y-103648200D01*
X97634000Y-108848200D02*
X102774000Y-108848200D01*
X102774000Y-106248200D02*
X102774000Y-108848200D01*
X105374000Y-103648200D02*
X105374000Y-106248200D01*
X105374000Y-106248200D02*
X102774000Y-106248200D01*
X105374000Y-107518200D02*
X105374000Y-108848200D01*
X105374000Y-108848200D02*
X104044000Y-108848200D01*
%TO.C,C8*%
X95196200Y-97101852D02*
X95196200Y-96579348D01*
X96666200Y-97101852D02*
X96666200Y-96579348D01*
%TO.C,R23*%
X88439200Y-97489041D02*
X88439200Y-97181759D01*
X89199200Y-97489041D02*
X89199200Y-97181759D01*
%TO.C,C10*%
X76069400Y-105597748D02*
X76069400Y-106120252D01*
X77539400Y-105597748D02*
X77539400Y-106120252D01*
%TO.C,C11*%
X94581452Y-106963000D02*
X94058948Y-106963000D01*
X94581452Y-108433000D02*
X94058948Y-108433000D01*
%TO.C,R24*%
X90621841Y-98350400D02*
X90314559Y-98350400D01*
X90621841Y-99110400D02*
X90314559Y-99110400D01*
%TO.C,C7*%
X76959000Y-94786148D02*
X76959000Y-95308652D01*
X78429000Y-94786148D02*
X78429000Y-95308652D01*
%TO.C,C12*%
X86998348Y-93474200D02*
X87520852Y-93474200D01*
X86998348Y-94944200D02*
X87520852Y-94944200D01*
%TO.C,J2*%
X62899600Y-93996800D02*
X62899600Y-99196800D01*
X60299600Y-99196800D02*
X60299600Y-96596800D01*
X62899600Y-99196800D02*
X60299600Y-99196800D01*
X62899600Y-93996800D02*
X57699600Y-93996800D01*
X60299600Y-96596800D02*
X57699600Y-96596800D01*
X57699600Y-93996800D02*
X57699600Y-96596800D01*
X57699600Y-99196800D02*
X57699600Y-97866800D01*
X59029600Y-99196800D02*
X57699600Y-99196800D01*
%TD*%
M02*
