%TF.GenerationSoftware,KiCad,Pcbnew,8.0.5-8.0.5-0~ubuntu22.04.1*%
%TF.CreationDate,2024-10-28T14:37:05+01:00*%
%TF.ProjectId,EMG_amplifier,454d475f-616d-4706-9c69-666965722e6b,rev?*%
%TF.SameCoordinates,Original*%
%TF.FileFunction,Legend,Top*%
%TF.FilePolarity,Positive*%
%FSLAX46Y46*%
G04 Gerber Fmt 4.6, Leading zero omitted, Abs format (unit mm)*
G04 Created by KiCad (PCBNEW 8.0.5-8.0.5-0~ubuntu22.04.1) date 2024-10-28 14:37:05*
%MOMM*%
%LPD*%
G01*
G04 APERTURE LIST*
%ADD10C,0.127000*%
%ADD11C,0.200000*%
%ADD12C,0.120000*%
%ADD13C,0.152400*%
G04 APERTURE END LIST*
D10*
%TO.C,U6*%
X85075200Y-95821800D02*
X85735200Y-95821800D01*
X85735200Y-98721800D02*
X85075200Y-98721800D01*
X86205200Y-96936800D02*
X86205200Y-97606800D01*
D11*
X83095200Y-96221800D02*
G75*
G02*
X82895200Y-96221800I-100000J0D01*
G01*
X82895200Y-96221800D02*
G75*
G02*
X83095200Y-96221800I100000J0D01*
G01*
D10*
%TO.C,U5*%
X92329000Y-93723000D02*
X92989000Y-93723000D01*
X92989000Y-96623000D02*
X92329000Y-96623000D01*
X93459000Y-94838000D02*
X93459000Y-95508000D01*
D11*
X90349000Y-94123000D02*
G75*
G02*
X90149000Y-94123000I-100000J0D01*
G01*
X90149000Y-94123000D02*
G75*
G02*
X90349000Y-94123000I100000J0D01*
G01*
D12*
%TO.C,J4*%
X97648800Y-93878600D02*
X97648800Y-99078600D01*
X102788800Y-96478600D02*
X102788800Y-99078600D01*
X102788800Y-99078600D02*
X97648800Y-99078600D01*
X105388800Y-93878600D02*
X97648800Y-93878600D01*
X105388800Y-93878600D02*
X105388800Y-96478600D01*
X105388800Y-96478600D02*
X102788800Y-96478600D01*
X105388800Y-97748600D02*
X105388800Y-99078600D01*
X105388800Y-99078600D02*
X104058800Y-99078600D01*
%TO.C,R11*%
X72137000Y-106429241D02*
X72137000Y-106121959D01*
X72897000Y-106429241D02*
X72897000Y-106121959D01*
%TO.C,J7*%
X57608200Y-103949000D02*
X57608200Y-109149000D01*
X62748200Y-103949000D02*
X57608200Y-103949000D01*
X62748200Y-103949000D02*
X62748200Y-106549000D01*
X62748200Y-106549000D02*
X65348200Y-106549000D01*
X64018200Y-103949000D02*
X65348200Y-103949000D01*
X65348200Y-103949000D02*
X65348200Y-105279000D01*
X65348200Y-106549000D02*
X65348200Y-109149000D01*
X65348200Y-109149000D02*
X57608200Y-109149000D01*
%TO.C,R13*%
X88875600Y-106603041D02*
X88875600Y-106295759D01*
X89635600Y-106603041D02*
X89635600Y-106295759D01*
%TO.C,C2*%
X78751820Y-95806800D02*
X79032980Y-95806800D01*
X78751820Y-96826800D02*
X79032980Y-96826800D01*
D10*
%TO.C,U3*%
X81968600Y-106337400D02*
X81968600Y-105667400D01*
X82438600Y-104552400D02*
X83098600Y-104552400D01*
X83098600Y-107452400D02*
X82438600Y-107452400D01*
D11*
X85278600Y-107052400D02*
G75*
G02*
X85078600Y-107052400I-100000J0D01*
G01*
X85078600Y-107052400D02*
G75*
G02*
X85278600Y-107052400I100000J0D01*
G01*
D12*
%TO.C,R20*%
X79076200Y-107438759D02*
X79076200Y-107746041D01*
X79836200Y-107438759D02*
X79836200Y-107746041D01*
D13*
%TO.C,U7*%
X63657901Y-95740801D02*
X63657901Y-97290201D01*
X65613701Y-97290201D02*
X65613701Y-95740801D01*
D12*
%TO.C,R22*%
X74880200Y-105105959D02*
X74880200Y-105413241D01*
X75640200Y-105105959D02*
X75640200Y-105413241D01*
%TO.C,R4*%
X65433641Y-83313000D02*
X65126359Y-83313000D01*
X65433641Y-84073000D02*
X65126359Y-84073000D01*
%TO.C,R9*%
X80696800Y-96802641D02*
X80696800Y-96495359D01*
X81456800Y-96802641D02*
X81456800Y-96495359D01*
%TO.C,R3*%
X96091441Y-83516200D02*
X95784159Y-83516200D01*
X96091441Y-84276200D02*
X95784159Y-84276200D01*
%TO.C,R16*%
X83133441Y-93955600D02*
X82826159Y-93955600D01*
X83133441Y-94715600D02*
X82826159Y-94715600D01*
%TO.C,C8*%
X95226200Y-94897348D02*
X95226200Y-95419852D01*
X96696200Y-94897348D02*
X96696200Y-95419852D01*
D13*
%TO.C,L1*%
X102235000Y-83870800D02*
G75*
G02*
X102082600Y-83870800I-76200J0D01*
G01*
X102082600Y-83870800D02*
G75*
G02*
X102235000Y-83870800I76200J0D01*
G01*
D12*
%TO.C,D1*%
X102803400Y-83842400D02*
X102803400Y-85802400D01*
X102803400Y-85802400D02*
X104003400Y-85802400D01*
X104003400Y-83842400D02*
X104003400Y-85802400D01*
%TO.C,C5*%
X86754580Y-103249000D02*
X86473420Y-103249000D01*
X86754580Y-104269000D02*
X86473420Y-104269000D01*
%TO.C,R19*%
X84530200Y-108891041D02*
X84530200Y-108583759D01*
X83770200Y-108891041D02*
X83770200Y-108583759D01*
%TO.C,D3*%
X80797400Y-83169200D02*
X82757400Y-83169200D01*
X80797400Y-84369200D02*
X82757400Y-84369200D01*
X82757400Y-84369200D02*
X82757400Y-83169200D01*
%TO.C,U2*%
X93167200Y-103241200D02*
X91667200Y-103241200D01*
X93167200Y-103241200D02*
X94667200Y-103241200D01*
X93167200Y-106461200D02*
X91667200Y-106461200D01*
X93167200Y-106461200D02*
X94667200Y-106461200D01*
X95619700Y-106666200D02*
X95139700Y-106666200D01*
X95379700Y-106336200D01*
X95619700Y-106666200D01*
G36*
X95619700Y-106666200D02*
G01*
X95139700Y-106666200D01*
X95379700Y-106336200D01*
X95619700Y-106666200D01*
G37*
%TO.C,R15*%
X89495400Y-96119759D02*
X89495400Y-96427041D01*
X90255400Y-96119759D02*
X90255400Y-96427041D01*
%TO.C,C4*%
X69638852Y-107926200D02*
X69116348Y-107926200D01*
X69638852Y-109396200D02*
X69116348Y-109396200D01*
%TO.C,R8*%
X80660700Y-99226341D02*
X80660700Y-98919059D01*
X81420700Y-99226341D02*
X81420700Y-98919059D01*
%TO.C,R23*%
X89224959Y-98045000D02*
X89532241Y-98045000D01*
X89224959Y-98805000D02*
X89532241Y-98805000D01*
%TO.C,C10*%
X93073548Y-107469000D02*
X93596052Y-107469000D01*
X93073548Y-108939000D02*
X93596052Y-108939000D01*
%TO.C,C11*%
X76354000Y-106067452D02*
X76354000Y-105544948D01*
X77824000Y-106067452D02*
X77824000Y-105544948D01*
%TO.C,R6*%
X75830200Y-98992441D02*
X75830200Y-98685159D01*
X76590200Y-98992441D02*
X76590200Y-98685159D01*
%TO.C,R24*%
X91639959Y-98045000D02*
X91947241Y-98045000D01*
X91639959Y-98805000D02*
X91947241Y-98805000D01*
%TO.C,R2*%
X73432400Y-86410041D02*
X73432400Y-86102759D01*
X74192400Y-86410041D02*
X74192400Y-86102759D01*
%TO.C,C7*%
X77603852Y-93609400D02*
X77081348Y-93609400D01*
X77603852Y-95079400D02*
X77081348Y-95079400D01*
D10*
%TO.C,U8*%
X68589800Y-93928200D02*
X72489800Y-93928200D01*
X68589800Y-98978200D02*
X72489800Y-98978200D01*
D11*
X66599800Y-94148200D02*
G75*
G02*
X66399800Y-94148200I-100000J0D01*
G01*
X66399800Y-94148200D02*
G75*
G02*
X66599800Y-94148200I100000J0D01*
G01*
D12*
%TO.C,R5*%
X87707200Y-86460841D02*
X87707200Y-86153559D01*
X88467200Y-86460841D02*
X88467200Y-86153559D01*
%TO.C,D2*%
X73224000Y-83169200D02*
X73224000Y-84369200D01*
X75184000Y-83169200D02*
X73224000Y-83169200D01*
X75184000Y-84369200D02*
X73224000Y-84369200D01*
D13*
%TO.C,L2*%
X66421000Y-83693000D02*
G75*
G02*
X66268600Y-83693000I-76200J0D01*
G01*
X66268600Y-83693000D02*
G75*
G02*
X66421000Y-83693000I76200J0D01*
G01*
D10*
%TO.C,U1*%
X69276400Y-104229200D02*
X69936400Y-104229200D01*
X69936400Y-107129200D02*
X69276400Y-107129200D01*
X70406400Y-105344200D02*
X70406400Y-106014200D01*
D11*
X67296400Y-104629200D02*
G75*
G02*
X67096400Y-104629200I-100000J0D01*
G01*
X67096400Y-104629200D02*
G75*
G02*
X67296400Y-104629200I100000J0D01*
G01*
D12*
%TO.C,C12*%
X87408652Y-93753000D02*
X86886148Y-93753000D01*
X87408652Y-95223000D02*
X86886148Y-95223000D01*
%TO.C,C3*%
X73604800Y-106168364D02*
X73604800Y-106384036D01*
X74324800Y-106168364D02*
X74324800Y-106384036D01*
%TO.C,C6*%
X86464548Y-107697600D02*
X86987052Y-107697600D01*
X86464548Y-109167600D02*
X86987052Y-109167600D01*
%TO.C,R12*%
X96622600Y-106480041D02*
X96622600Y-106172759D01*
X97382600Y-106480041D02*
X97382600Y-106172759D01*
%TO.C,R21*%
X73178159Y-103252000D02*
X73485441Y-103252000D01*
X73178159Y-104012000D02*
X73485441Y-104012000D01*
%TO.C,J1*%
X57699600Y-86563200D02*
X57699600Y-83963200D01*
X57699600Y-89163200D02*
X57699600Y-87833200D01*
X59029600Y-89163200D02*
X57699600Y-89163200D01*
X60299600Y-86563200D02*
X57699600Y-86563200D01*
X60299600Y-89163200D02*
X60299600Y-86563200D01*
X62899600Y-83963200D02*
X57699600Y-83963200D01*
X62899600Y-89163200D02*
X60299600Y-89163200D01*
X62899600Y-89163200D02*
X62899600Y-83963200D01*
%TO.C,R10*%
X72592441Y-108281200D02*
X72285159Y-108281200D01*
X72592441Y-109041200D02*
X72285159Y-109041200D01*
%TO.C,R7*%
X75830200Y-96558041D02*
X75830200Y-96250759D01*
X76590200Y-96558041D02*
X76590200Y-96250759D01*
%TO.C,R14*%
X79076200Y-105383359D02*
X79076200Y-105690641D01*
X79836200Y-105383359D02*
X79836200Y-105690641D01*
%TO.C,R1*%
X102718359Y-86386400D02*
X103025641Y-86386400D01*
X102718359Y-87146400D02*
X103025641Y-87146400D01*
%TO.C,C1*%
X78536220Y-98702400D02*
X78817380Y-98702400D01*
X78536220Y-99722400D02*
X78817380Y-99722400D01*
%TD*%
M02*
