%TF.GenerationSoftware,KiCad,Pcbnew,8.0.5-8.0.5-0~ubuntu22.04.1*%
%TF.CreationDate,2024-10-23T18:20:28+02:00*%
%TF.ProjectId,EMG_amplifier,454d475f-616d-4706-9c69-666965722e6b,rev?*%
%TF.SameCoordinates,Original*%
%TF.FileFunction,Legend,Top*%
%TF.FilePolarity,Positive*%
%FSLAX46Y46*%
G04 Gerber Fmt 4.6, Leading zero omitted, Abs format (unit mm)*
G04 Created by KiCad (PCBNEW 8.0.5-8.0.5-0~ubuntu22.04.1) date 2024-10-23 18:20:28*
%MOMM*%
%LPD*%
G01*
G04 APERTURE LIST*
%ADD10C,0.150000*%
%ADD11C,0.120000*%
%ADD12C,0.127000*%
%ADD13C,0.200000*%
%ADD14C,0.152400*%
G04 APERTURE END LIST*
D10*
X79470133Y-95577180D02*
X79422514Y-95624800D01*
X79422514Y-95624800D02*
X79279657Y-95672419D01*
X79279657Y-95672419D02*
X79184419Y-95672419D01*
X79184419Y-95672419D02*
X79041562Y-95624800D01*
X79041562Y-95624800D02*
X78946324Y-95529561D01*
X78946324Y-95529561D02*
X78898705Y-95434323D01*
X78898705Y-95434323D02*
X78851086Y-95243847D01*
X78851086Y-95243847D02*
X78851086Y-95100990D01*
X78851086Y-95100990D02*
X78898705Y-94910514D01*
X78898705Y-94910514D02*
X78946324Y-94815276D01*
X78946324Y-94815276D02*
X79041562Y-94720038D01*
X79041562Y-94720038D02*
X79184419Y-94672419D01*
X79184419Y-94672419D02*
X79279657Y-94672419D01*
X79279657Y-94672419D02*
X79422514Y-94720038D01*
X79422514Y-94720038D02*
X79470133Y-94767657D01*
X79851086Y-94767657D02*
X79898705Y-94720038D01*
X79898705Y-94720038D02*
X79993943Y-94672419D01*
X79993943Y-94672419D02*
X80232038Y-94672419D01*
X80232038Y-94672419D02*
X80327276Y-94720038D01*
X80327276Y-94720038D02*
X80374895Y-94767657D01*
X80374895Y-94767657D02*
X80422514Y-94862895D01*
X80422514Y-94862895D02*
X80422514Y-94958133D01*
X80422514Y-94958133D02*
X80374895Y-95100990D01*
X80374895Y-95100990D02*
X79803467Y-95672419D01*
X79803467Y-95672419D02*
X80422514Y-95672419D01*
X64075820Y-97319405D02*
X64885343Y-97319405D01*
X64885343Y-97319405D02*
X64980581Y-97271786D01*
X64980581Y-97271786D02*
X65028201Y-97224167D01*
X65028201Y-97224167D02*
X65075820Y-97128929D01*
X65075820Y-97128929D02*
X65075820Y-96938453D01*
X65075820Y-96938453D02*
X65028201Y-96843215D01*
X65028201Y-96843215D02*
X64980581Y-96795596D01*
X64980581Y-96795596D02*
X64885343Y-96747977D01*
X64885343Y-96747977D02*
X64075820Y-96747977D01*
X64075820Y-96367024D02*
X64075820Y-95700358D01*
X64075820Y-95700358D02*
X65075820Y-96128929D01*
X100610966Y-83415980D02*
X101087156Y-83415980D01*
X101087156Y-83415980D02*
X101087156Y-84415980D01*
X99753823Y-83415980D02*
X100325251Y-83415980D01*
X100039537Y-83415980D02*
X100039537Y-84415980D01*
X100039537Y-84415980D02*
X100134775Y-84273123D01*
X100134775Y-84273123D02*
X100230013Y-84177885D01*
X100230013Y-84177885D02*
X100325251Y-84130266D01*
X67892633Y-84147819D02*
X67416443Y-84147819D01*
X67416443Y-84147819D02*
X67416443Y-83147819D01*
X68178348Y-83243057D02*
X68225967Y-83195438D01*
X68225967Y-83195438D02*
X68321205Y-83147819D01*
X68321205Y-83147819D02*
X68559300Y-83147819D01*
X68559300Y-83147819D02*
X68654538Y-83195438D01*
X68654538Y-83195438D02*
X68702157Y-83243057D01*
X68702157Y-83243057D02*
X68749776Y-83338295D01*
X68749776Y-83338295D02*
X68749776Y-83433533D01*
X68749776Y-83433533D02*
X68702157Y-83576390D01*
X68702157Y-83576390D02*
X68130729Y-84147819D01*
X68130729Y-84147819D02*
X68749776Y-84147819D01*
X80155933Y-98218780D02*
X80108314Y-98266400D01*
X80108314Y-98266400D02*
X79965457Y-98314019D01*
X79965457Y-98314019D02*
X79870219Y-98314019D01*
X79870219Y-98314019D02*
X79727362Y-98266400D01*
X79727362Y-98266400D02*
X79632124Y-98171161D01*
X79632124Y-98171161D02*
X79584505Y-98075923D01*
X79584505Y-98075923D02*
X79536886Y-97885447D01*
X79536886Y-97885447D02*
X79536886Y-97742590D01*
X79536886Y-97742590D02*
X79584505Y-97552114D01*
X79584505Y-97552114D02*
X79632124Y-97456876D01*
X79632124Y-97456876D02*
X79727362Y-97361638D01*
X79727362Y-97361638D02*
X79870219Y-97314019D01*
X79870219Y-97314019D02*
X79965457Y-97314019D01*
X79965457Y-97314019D02*
X80108314Y-97361638D01*
X80108314Y-97361638D02*
X80155933Y-97409257D01*
X81108314Y-98314019D02*
X80536886Y-98314019D01*
X80822600Y-98314019D02*
X80822600Y-97314019D01*
X80822600Y-97314019D02*
X80727362Y-97456876D01*
X80727362Y-97456876D02*
X80632124Y-97552114D01*
X80632124Y-97552114D02*
X80536886Y-97599733D01*
X91974676Y-92269295D02*
X91974676Y-92916914D01*
X91974676Y-92916914D02*
X92012771Y-92993104D01*
X92012771Y-92993104D02*
X92050866Y-93031200D01*
X92050866Y-93031200D02*
X92127057Y-93069295D01*
X92127057Y-93069295D02*
X92279438Y-93069295D01*
X92279438Y-93069295D02*
X92355628Y-93031200D01*
X92355628Y-93031200D02*
X92393723Y-92993104D01*
X92393723Y-92993104D02*
X92431819Y-92916914D01*
X92431819Y-92916914D02*
X92431819Y-92269295D01*
X93193723Y-92269295D02*
X92812771Y-92269295D01*
X92812771Y-92269295D02*
X92774675Y-92650247D01*
X92774675Y-92650247D02*
X92812771Y-92612152D01*
X92812771Y-92612152D02*
X92888961Y-92574057D01*
X92888961Y-92574057D02*
X93079437Y-92574057D01*
X93079437Y-92574057D02*
X93155628Y-92612152D01*
X93155628Y-92612152D02*
X93193723Y-92650247D01*
X93193723Y-92650247D02*
X93231818Y-92726438D01*
X93231818Y-92726438D02*
X93231818Y-92916914D01*
X93231818Y-92916914D02*
X93193723Y-92993104D01*
X93193723Y-92993104D02*
X93155628Y-93031200D01*
X93155628Y-93031200D02*
X93079437Y-93069295D01*
X93079437Y-93069295D02*
X92888961Y-93069295D01*
X92888961Y-93069295D02*
X92812771Y-93031200D01*
X92812771Y-93031200D02*
X92774675Y-92993104D01*
X85370676Y-93798295D02*
X85370676Y-94445914D01*
X85370676Y-94445914D02*
X85408771Y-94522104D01*
X85408771Y-94522104D02*
X85446866Y-94560200D01*
X85446866Y-94560200D02*
X85523057Y-94598295D01*
X85523057Y-94598295D02*
X85675438Y-94598295D01*
X85675438Y-94598295D02*
X85751628Y-94560200D01*
X85751628Y-94560200D02*
X85789723Y-94522104D01*
X85789723Y-94522104D02*
X85827819Y-94445914D01*
X85827819Y-94445914D02*
X85827819Y-93798295D01*
X86551628Y-93798295D02*
X86399247Y-93798295D01*
X86399247Y-93798295D02*
X86323056Y-93836390D01*
X86323056Y-93836390D02*
X86284961Y-93874485D01*
X86284961Y-93874485D02*
X86208771Y-93988771D01*
X86208771Y-93988771D02*
X86170675Y-94141152D01*
X86170675Y-94141152D02*
X86170675Y-94445914D01*
X86170675Y-94445914D02*
X86208771Y-94522104D01*
X86208771Y-94522104D02*
X86246866Y-94560200D01*
X86246866Y-94560200D02*
X86323056Y-94598295D01*
X86323056Y-94598295D02*
X86475437Y-94598295D01*
X86475437Y-94598295D02*
X86551628Y-94560200D01*
X86551628Y-94560200D02*
X86589723Y-94522104D01*
X86589723Y-94522104D02*
X86627818Y-94445914D01*
X86627818Y-94445914D02*
X86627818Y-94255438D01*
X86627818Y-94255438D02*
X86589723Y-94179247D01*
X86589723Y-94179247D02*
X86551628Y-94141152D01*
X86551628Y-94141152D02*
X86475437Y-94103057D01*
X86475437Y-94103057D02*
X86323056Y-94103057D01*
X86323056Y-94103057D02*
X86246866Y-94141152D01*
X86246866Y-94141152D02*
X86208771Y-94179247D01*
X86208771Y-94179247D02*
X86170675Y-94255438D01*
D11*
%TO.C,J7*%
X65312600Y-103673600D02*
X65312600Y-105003600D01*
X63982600Y-103673600D02*
X65312600Y-103673600D01*
X62712600Y-103673600D02*
X57572600Y-103673600D01*
X62712600Y-103673600D02*
X62712600Y-106273600D01*
X57572600Y-103673600D02*
X57572600Y-108873600D01*
X65312600Y-106273600D02*
X65312600Y-108873600D01*
X62712600Y-106273600D02*
X65312600Y-106273600D01*
X65312600Y-108873600D02*
X57572600Y-108873600D01*
%TO.C,J4*%
X97634000Y-93920600D02*
X97634000Y-99120600D01*
X102774000Y-96520600D02*
X102774000Y-99120600D01*
X102774000Y-99120600D02*
X97634000Y-99120600D01*
X105374000Y-93920600D02*
X97634000Y-93920600D01*
X105374000Y-93920600D02*
X105374000Y-96520600D01*
X105374000Y-96520600D02*
X102774000Y-96520600D01*
X105374000Y-97790600D02*
X105374000Y-99120600D01*
X105374000Y-99120600D02*
X104044000Y-99120600D01*
%TO.C,R11*%
X74306200Y-105993441D02*
X74306200Y-105686159D01*
X75066200Y-105993441D02*
X75066200Y-105686159D01*
%TO.C,R13*%
X91569841Y-107443000D02*
X91262559Y-107443000D01*
X91569841Y-108203000D02*
X91262559Y-108203000D01*
%TO.C,C2*%
X79496220Y-96137600D02*
X79777380Y-96137600D01*
X79496220Y-97157600D02*
X79777380Y-97157600D01*
D12*
%TO.C,U3*%
X81933000Y-106062000D02*
X81933000Y-105392000D01*
X82403000Y-104277000D02*
X83063000Y-104277000D01*
X83063000Y-107177000D02*
X82403000Y-107177000D01*
D13*
X85243000Y-106777000D02*
G75*
G02*
X85043000Y-106777000I-100000J0D01*
G01*
X85043000Y-106777000D02*
G75*
G02*
X85243000Y-106777000I100000J0D01*
G01*
D11*
%TO.C,R20*%
X79040600Y-107163359D02*
X79040600Y-107470641D01*
X79800600Y-107163359D02*
X79800600Y-107470641D01*
D14*
%TO.C,U7*%
X63643101Y-95782801D02*
X63643101Y-97332201D01*
X65598901Y-97332201D02*
X65598901Y-95782801D01*
D11*
%TO.C,R22*%
X77019400Y-105690159D02*
X77019400Y-105997441D01*
X77779400Y-105690159D02*
X77779400Y-105997441D01*
%TO.C,R4*%
X65433641Y-83313000D02*
X65126359Y-83313000D01*
X65433641Y-84073000D02*
X65126359Y-84073000D01*
%TO.C,R9*%
X82140000Y-97235041D02*
X82140000Y-96927759D01*
X82900000Y-97235041D02*
X82900000Y-96927759D01*
%TO.C,R3*%
X96091441Y-83516200D02*
X95784159Y-83516200D01*
X96091441Y-84276200D02*
X95784159Y-84276200D01*
%TO.C,R16*%
X83646242Y-93702200D02*
X83338960Y-93702200D01*
X83646242Y-94462200D02*
X83338960Y-94462200D01*
D14*
%TO.C,L1*%
X102235000Y-83870800D02*
G75*
G02*
X102082600Y-83870800I-76200J0D01*
G01*
X102082600Y-83870800D02*
G75*
G02*
X102235000Y-83870800I76200J0D01*
G01*
D11*
%TO.C,D1*%
X102803400Y-83842400D02*
X102803400Y-85802400D01*
X102803400Y-85802400D02*
X104003400Y-85802400D01*
X104003400Y-83842400D02*
X104003400Y-85802400D01*
%TO.C,C5*%
X86710980Y-103403400D02*
X86429820Y-103403400D01*
X86710980Y-104423400D02*
X86429820Y-104423400D01*
%TO.C,R19*%
X86470441Y-107722400D02*
X86163159Y-107722400D01*
X86470441Y-108482400D02*
X86163159Y-108482400D01*
%TO.C,D3*%
X82757400Y-84369200D02*
X82757400Y-83169200D01*
X80797400Y-84369200D02*
X82757400Y-84369200D01*
X80797400Y-83169200D02*
X82757400Y-83169200D01*
%TO.C,U2*%
X92995300Y-103530400D02*
X91495300Y-103530400D01*
X92995300Y-103530400D02*
X94495300Y-103530400D01*
X92995300Y-106750400D02*
X91495300Y-106750400D01*
X92995300Y-106750400D02*
X94495300Y-106750400D01*
X95447800Y-106955400D02*
X94967800Y-106955400D01*
X95207800Y-106625400D01*
X95447800Y-106955400D01*
G36*
X95447800Y-106955400D02*
G01*
X94967800Y-106955400D01*
X95207800Y-106625400D01*
X95447800Y-106955400D01*
G37*
%TO.C,R15*%
X89480600Y-96161759D02*
X89480600Y-96469041D01*
X90240600Y-96161759D02*
X90240600Y-96469041D01*
%TO.C,C4*%
X72321052Y-107240400D02*
X71798548Y-107240400D01*
X72321052Y-108710400D02*
X71798548Y-108710400D01*
%TO.C,R8*%
X82140000Y-99216241D02*
X82140000Y-98908959D01*
X82900000Y-99216241D02*
X82900000Y-98908959D01*
%TO.C,R6*%
X75815400Y-99034441D02*
X75815400Y-98727159D01*
X76575400Y-99034441D02*
X76575400Y-98727159D01*
%TO.C,R2*%
X73432400Y-86410041D02*
X73432400Y-86102759D01*
X74192400Y-86410041D02*
X74192400Y-86102759D01*
D12*
%TO.C,U8*%
X68575000Y-93970200D02*
X72475000Y-93970200D01*
X68575000Y-99020200D02*
X72475000Y-99020200D01*
D13*
X66585000Y-94190200D02*
G75*
G02*
X66385000Y-94190200I-100000J0D01*
G01*
X66385000Y-94190200D02*
G75*
G02*
X66585000Y-94190200I100000J0D01*
G01*
D11*
%TO.C,R5*%
X88467200Y-86460841D02*
X88467200Y-86153559D01*
X87707200Y-86460841D02*
X87707200Y-86153559D01*
%TO.C,D2*%
X75184000Y-83169200D02*
X73224000Y-83169200D01*
X73224000Y-83169200D02*
X73224000Y-84369200D01*
X75184000Y-84369200D02*
X73224000Y-84369200D01*
D14*
%TO.C,L2*%
X66421000Y-83693000D02*
G75*
G02*
X66268600Y-83693000I-76200J0D01*
G01*
X66268600Y-83693000D02*
G75*
G02*
X66421000Y-83693000I76200J0D01*
G01*
D11*
%TO.C,C3*%
X75581700Y-105756764D02*
X75581700Y-105972436D01*
X76301700Y-105756764D02*
X76301700Y-105972436D01*
%TO.C,C6*%
X88058200Y-106903348D02*
X88058200Y-107425852D01*
X89528200Y-106903348D02*
X89528200Y-107425852D01*
%TO.C,R12*%
X94464959Y-107443000D02*
X94772241Y-107443000D01*
X94464959Y-108203000D02*
X94772241Y-108203000D01*
%TO.C,R21*%
X75037959Y-103556800D02*
X75345241Y-103556800D01*
X75037959Y-104316800D02*
X75345241Y-104316800D01*
%TO.C,J1*%
X57699600Y-86563200D02*
X57699600Y-83963200D01*
X57699600Y-89163200D02*
X57699600Y-87833200D01*
X59029600Y-89163200D02*
X57699600Y-89163200D01*
X60299600Y-86563200D02*
X57699600Y-86563200D01*
X60299600Y-89163200D02*
X60299600Y-86563200D01*
X62899600Y-83963200D02*
X57699600Y-83963200D01*
X62899600Y-89163200D02*
X60299600Y-89163200D01*
X62899600Y-89163200D02*
X62899600Y-83963200D01*
%TO.C,R10*%
X75345841Y-107341400D02*
X75038559Y-107341400D01*
X75345841Y-108101400D02*
X75038559Y-108101400D01*
%TO.C,R7*%
X75815400Y-96600041D02*
X75815400Y-96292759D01*
X76575400Y-96600041D02*
X76575400Y-96292759D01*
%TO.C,R14*%
X79040600Y-105107959D02*
X79040600Y-105415241D01*
X79800600Y-105107959D02*
X79800600Y-105415241D01*
%TO.C,R1*%
X102739759Y-86792800D02*
X103047041Y-86792800D01*
X102739759Y-87552800D02*
X103047041Y-87552800D01*
%TO.C,C1*%
X80182020Y-98779200D02*
X80463180Y-98779200D01*
X80182020Y-99799200D02*
X80463180Y-99799200D01*
D12*
%TO.C,U1*%
X69230200Y-103695800D02*
X69890200Y-103695800D01*
X69890200Y-106595800D02*
X69230200Y-106595800D01*
X70360200Y-104810800D02*
X70360200Y-105480800D01*
D13*
X67250200Y-104095800D02*
G75*
G02*
X67050200Y-104095800I-100000J0D01*
G01*
X67050200Y-104095800D02*
G75*
G02*
X67250200Y-104095800I100000J0D01*
G01*
D12*
%TO.C,U5*%
X92314200Y-93765000D02*
X92974200Y-93765000D01*
X92974200Y-96665000D02*
X92314200Y-96665000D01*
X93444200Y-94880000D02*
X93444200Y-95550000D01*
D13*
X90334200Y-94165000D02*
G75*
G02*
X90134200Y-94165000I-100000J0D01*
G01*
X90134200Y-94165000D02*
G75*
G02*
X90334200Y-94165000I100000J0D01*
G01*
D12*
%TO.C,U6*%
X85710200Y-95294000D02*
X86370200Y-95294000D01*
X86370200Y-98194000D02*
X85710200Y-98194000D01*
X86840200Y-96409000D02*
X86840200Y-97079000D01*
D13*
X83730200Y-95694000D02*
G75*
G02*
X83530200Y-95694000I-100000J0D01*
G01*
X83530200Y-95694000D02*
G75*
G02*
X83730200Y-95694000I100000J0D01*
G01*
%TD*%
M02*
