%TF.GenerationSoftware,KiCad,Pcbnew,8.0.6*%
%TF.CreationDate,2024-11-24T15:25:40+01:00*%
%TF.ProjectId,EMG_amplifier,454d475f-616d-4706-9c69-666965722e6b,rev?*%
%TF.SameCoordinates,Original*%
%TF.FileFunction,Drillmap*%
%TF.FilePolarity,Positive*%
%FSLAX45Y45*%
G04 Gerber Fmt 4.5, Leading zero omitted, Abs format (unit mm)*
G04 Created by KiCad (PCBNEW 8.0.6) date 2024-11-24 15:25:40*
%MOMM*%
%LPD*%
G01*
G04 APERTURE LIST*
%ADD10C,0.050000*%
%ADD11C,0.200000*%
G04 APERTURE END LIST*
D10*
X1200000Y-1200000D02*
X6197140Y-1200000D01*
X6197140Y-4003660D01*
X1200000Y-4003660D01*
X1200000Y-1200000D01*
X1261320Y-3003400D02*
X6139480Y-3003400D01*
X6139480Y-3204060D01*
X1261320Y-3204060D01*
X1261320Y-3003400D01*
X1269620Y-2000100D02*
X6142780Y-2000100D01*
X6142780Y-2200760D01*
X1269620Y-2200760D01*
X1269620Y-2000100D01*
D11*
X1458277Y-4317644D02*
X1458277Y-4117644D01*
X1458277Y-4117644D02*
X1505896Y-4117644D01*
X1505896Y-4117644D02*
X1534467Y-4127168D01*
X1534467Y-4127168D02*
X1553515Y-4146215D01*
X1553515Y-4146215D02*
X1563039Y-4165263D01*
X1563039Y-4165263D02*
X1572562Y-4203358D01*
X1572562Y-4203358D02*
X1572562Y-4231930D01*
X1572562Y-4231930D02*
X1563039Y-4270025D01*
X1563039Y-4270025D02*
X1553515Y-4289072D01*
X1553515Y-4289072D02*
X1534467Y-4308120D01*
X1534467Y-4308120D02*
X1505896Y-4317644D01*
X1505896Y-4317644D02*
X1458277Y-4317644D01*
X1658277Y-4317644D02*
X1658277Y-4184310D01*
X1658277Y-4222406D02*
X1667801Y-4203358D01*
X1667801Y-4203358D02*
X1677324Y-4193834D01*
X1677324Y-4193834D02*
X1696372Y-4184310D01*
X1696372Y-4184310D02*
X1715420Y-4184310D01*
X1782086Y-4317644D02*
X1782086Y-4184310D01*
X1782086Y-4117644D02*
X1772562Y-4127168D01*
X1772562Y-4127168D02*
X1782086Y-4136691D01*
X1782086Y-4136691D02*
X1791610Y-4127168D01*
X1791610Y-4127168D02*
X1782086Y-4117644D01*
X1782086Y-4117644D02*
X1782086Y-4136691D01*
X1905896Y-4317644D02*
X1886848Y-4308120D01*
X1886848Y-4308120D02*
X1877324Y-4289072D01*
X1877324Y-4289072D02*
X1877324Y-4117644D01*
X2010658Y-4317644D02*
X1991610Y-4308120D01*
X1991610Y-4308120D02*
X1982086Y-4289072D01*
X1982086Y-4289072D02*
X1982086Y-4117644D01*
X2239229Y-4317644D02*
X2239229Y-4117644D01*
X2239229Y-4117644D02*
X2305896Y-4260501D01*
X2305896Y-4260501D02*
X2372563Y-4117644D01*
X2372563Y-4117644D02*
X2372563Y-4317644D01*
X2553515Y-4317644D02*
X2553515Y-4212882D01*
X2553515Y-4212882D02*
X2543991Y-4193834D01*
X2543991Y-4193834D02*
X2524944Y-4184310D01*
X2524944Y-4184310D02*
X2486848Y-4184310D01*
X2486848Y-4184310D02*
X2467801Y-4193834D01*
X2553515Y-4308120D02*
X2534467Y-4317644D01*
X2534467Y-4317644D02*
X2486848Y-4317644D01*
X2486848Y-4317644D02*
X2467801Y-4308120D01*
X2467801Y-4308120D02*
X2458277Y-4289072D01*
X2458277Y-4289072D02*
X2458277Y-4270025D01*
X2458277Y-4270025D02*
X2467801Y-4250977D01*
X2467801Y-4250977D02*
X2486848Y-4241453D01*
X2486848Y-4241453D02*
X2534467Y-4241453D01*
X2534467Y-4241453D02*
X2553515Y-4231930D01*
X2648753Y-4184310D02*
X2648753Y-4384310D01*
X2648753Y-4193834D02*
X2667801Y-4184310D01*
X2667801Y-4184310D02*
X2705896Y-4184310D01*
X2705896Y-4184310D02*
X2724944Y-4193834D01*
X2724944Y-4193834D02*
X2734467Y-4203358D01*
X2734467Y-4203358D02*
X2743991Y-4222406D01*
X2743991Y-4222406D02*
X2743991Y-4279549D01*
X2743991Y-4279549D02*
X2734467Y-4298596D01*
X2734467Y-4298596D02*
X2724944Y-4308120D01*
X2724944Y-4308120D02*
X2705896Y-4317644D01*
X2705896Y-4317644D02*
X2667801Y-4317644D01*
X2667801Y-4317644D02*
X2648753Y-4308120D01*
X2829705Y-4298596D02*
X2839229Y-4308120D01*
X2839229Y-4308120D02*
X2829705Y-4317644D01*
X2829705Y-4317644D02*
X2820182Y-4308120D01*
X2820182Y-4308120D02*
X2829705Y-4298596D01*
X2829705Y-4298596D02*
X2829705Y-4317644D01*
X2829705Y-4193834D02*
X2839229Y-4203358D01*
X2839229Y-4203358D02*
X2829705Y-4212882D01*
X2829705Y-4212882D02*
X2820182Y-4203358D01*
X2820182Y-4203358D02*
X2829705Y-4193834D01*
X2829705Y-4193834D02*
X2829705Y-4212882D01*
M02*
