%TF.GenerationSoftware,KiCad,Pcbnew,8.0.6*%
%TF.CreationDate,2024-11-24T15:25:40+01:00*%
%TF.ProjectId,EMG_amplifier,454d475f-616d-4706-9c69-666965722e6b,rev?*%
%TF.SameCoordinates,Original*%
%TF.FileFunction,Drillmap*%
%TF.FilePolarity,Positive*%
%FSLAX45Y45*%
G04 Gerber Fmt 4.5, Leading zero omitted, Abs format (unit mm)*
G04 Created by KiCad (PCBNEW 8.0.6) date 2024-11-24 15:25:40*
%MOMM*%
%LPD*%
G01*
G04 APERTURE LIST*
%ADD10C,0.050000*%
%ADD11C,0.200000*%
%ADD12C,0.100000*%
%ADD13C,0.387000*%
G04 APERTURE END LIST*
D10*
X1200000Y-1200000D02*
X6197140Y-1200000D01*
X6197140Y-4003660D01*
X1200000Y-4003660D01*
X1200000Y-1200000D01*
X1261320Y-3003400D02*
X6139480Y-3003400D01*
X6139480Y-3204060D01*
X1261320Y-3204060D01*
X1261320Y-3003400D01*
X1269620Y-2000100D02*
X6142780Y-2000100D01*
X6142780Y-2200760D01*
X1269620Y-2200760D01*
X1269620Y-2000100D01*
D11*
D12*
X1265000Y-1715000D02*
X1295000Y-1745000D01*
X1295000Y-1715000D02*
X1265000Y-1745000D01*
X1265000Y-1805000D02*
X1295000Y-1835000D01*
X1295000Y-1805000D02*
X1265000Y-1835000D01*
X1265000Y-2725000D02*
X1295000Y-2755000D01*
X1295000Y-2725000D02*
X1265000Y-2755000D01*
X1265000Y-2810000D02*
X1295000Y-2840000D01*
X1295000Y-2810000D02*
X1265000Y-2840000D01*
X1280000Y-1890000D02*
X1310000Y-1920000D01*
X1310000Y-1890000D02*
X1280000Y-1920000D01*
X1280000Y-2895000D02*
X1310000Y-2925000D01*
X1310000Y-2895000D02*
X1280000Y-2925000D01*
X1360000Y-1890000D02*
X1390000Y-1920000D01*
X1390000Y-1890000D02*
X1360000Y-1920000D01*
X1360000Y-2895000D02*
X1390000Y-2925000D01*
X1390000Y-2895000D02*
X1360000Y-2925000D01*
X1434880Y-1890000D02*
X1464880Y-1920000D01*
X1464880Y-1890000D02*
X1434880Y-1920000D01*
X1436360Y-2895900D02*
X1466360Y-2925900D01*
X1466360Y-2895900D02*
X1436360Y-2925900D01*
X2045000Y-2850000D02*
X2075000Y-2880000D01*
X2075000Y-2850000D02*
X2045000Y-2880000D01*
X2051000Y-2407000D02*
X2081000Y-2437000D01*
X2081000Y-2407000D02*
X2051000Y-2437000D01*
X2095000Y-1449000D02*
X2125000Y-1479000D01*
X2125000Y-1449000D02*
X2095000Y-1479000D01*
X2175000Y-3887000D02*
X2205000Y-3917000D01*
X2205000Y-3887000D02*
X2175000Y-3917000D01*
X2295000Y-2856000D02*
X2325000Y-2886000D01*
X2325000Y-2856000D02*
X2295000Y-2886000D01*
X2312000Y-3749000D02*
X2342000Y-3779000D01*
X2342000Y-3749000D02*
X2312000Y-3779000D01*
X2545000Y-3665000D02*
X2575000Y-3695000D01*
X2575000Y-3665000D02*
X2545000Y-3695000D01*
X2664000Y-2609000D02*
X2694000Y-2639000D01*
X2694000Y-2609000D02*
X2664000Y-2639000D01*
X2751455Y-3439515D02*
X2781455Y-3469515D01*
X2781455Y-3439515D02*
X2751455Y-3469515D01*
X2954455Y-3581000D02*
X2984455Y-3611000D01*
X2984455Y-3581000D02*
X2954455Y-3611000D01*
X2996000Y-3294000D02*
X3026000Y-3324000D01*
X3026000Y-3294000D02*
X2996000Y-3324000D01*
X3013000Y-3736000D02*
X3043000Y-3766000D01*
X3043000Y-3736000D02*
X3013000Y-3766000D01*
X3126000Y-2795000D02*
X3156000Y-2825000D01*
X3156000Y-2795000D02*
X3126000Y-2825000D01*
X3192000Y-2278500D02*
X3222000Y-2308500D01*
X3222000Y-2278500D02*
X3192000Y-2308500D01*
X3260000Y-1563000D02*
X3290000Y-1593000D01*
X3290000Y-1563000D02*
X3260000Y-1593000D01*
X3327000Y-2421000D02*
X3357000Y-2451000D01*
X3357000Y-2421000D02*
X3327000Y-2451000D01*
X3418000Y-3431000D02*
X3448000Y-3461000D01*
X3448000Y-3431000D02*
X3418000Y-3461000D01*
X3419000Y-3908660D02*
X3449000Y-3938660D01*
X3449000Y-3908660D02*
X3419000Y-3938660D01*
X3489000Y-2348000D02*
X3519000Y-2378000D01*
X3519000Y-2348000D02*
X3489000Y-2378000D01*
X3645000Y-3269060D02*
X3675000Y-3299060D01*
X3675000Y-3269060D02*
X3645000Y-3299060D01*
X3871000Y-2570000D02*
X3901000Y-2600000D01*
X3901000Y-2570000D02*
X3871000Y-2600000D01*
X3923000Y-3345000D02*
X3953000Y-3375000D01*
X3953000Y-3345000D02*
X3923000Y-3375000D01*
X3960073Y-3546073D02*
X3990073Y-3576073D01*
X3990073Y-3546073D02*
X3960073Y-3576073D01*
X4212000Y-2348000D02*
X4242000Y-2378000D01*
X4242000Y-2348000D02*
X4212000Y-2378000D01*
X4283000Y-3442000D02*
X4313000Y-3472000D01*
X4313000Y-3442000D02*
X4283000Y-3472000D01*
X4347000Y-3638000D02*
X4377000Y-3668000D01*
X4377000Y-3638000D02*
X4347000Y-3668000D01*
X4389000Y-2443000D02*
X4419000Y-2473000D01*
X4419000Y-2443000D02*
X4389000Y-2473000D01*
X4403500Y-2658500D02*
X4433500Y-2688500D01*
X4433500Y-2658500D02*
X4403500Y-2688500D01*
X4524000Y-3641000D02*
X4554000Y-3671000D01*
X4554000Y-3641000D02*
X4524000Y-3671000D01*
X4629000Y-2454000D02*
X4659000Y-2484000D01*
X4659000Y-2454000D02*
X4629000Y-2484000D01*
X4714000Y-1555000D02*
X4744000Y-1585000D01*
X4744000Y-1555000D02*
X4714000Y-1585000D01*
X4841000Y-2784000D02*
X4871000Y-2814000D01*
X4871000Y-2784000D02*
X4841000Y-2814000D01*
X4991000Y-2697000D02*
X5021000Y-2727000D01*
X5021000Y-2697000D02*
X4991000Y-2727000D01*
X5154000Y-2540000D02*
X5184000Y-2570000D01*
X5184000Y-2540000D02*
X5154000Y-2570000D01*
X5219480Y-2772500D02*
X5249480Y-2802500D01*
X5249480Y-2772500D02*
X5219480Y-2802500D01*
X5250000Y-3285000D02*
X5280000Y-3315000D01*
X5280000Y-3285000D02*
X5250000Y-3315000D01*
X5269000Y-3789000D02*
X5299000Y-3819000D01*
X5299000Y-3789000D02*
X5269000Y-3819000D01*
X5593000Y-2887000D02*
X5623000Y-2917000D01*
X5623000Y-2887000D02*
X5593000Y-2917000D01*
X1490740Y-3476480D02*
G75*
G02*
X1390740Y-3476480I-50000J0D01*
G01*
X1390740Y-3476480D02*
G75*
G02*
X1490740Y-3476480I50000J0D01*
G01*
X1490740Y-3730480D02*
G75*
G02*
X1390740Y-3730480I-50000J0D01*
G01*
X1390740Y-3730480D02*
G75*
G02*
X1490740Y-3730480I50000J0D01*
G01*
X1499880Y-1471500D02*
G75*
G02*
X1399880Y-1471500I-50000J0D01*
G01*
X1399880Y-1471500D02*
G75*
G02*
X1499880Y-1471500I50000J0D01*
G01*
X1499880Y-1725500D02*
G75*
G02*
X1399880Y-1725500I-50000J0D01*
G01*
X1399880Y-1725500D02*
G75*
G02*
X1499880Y-1725500I50000J0D01*
G01*
X1499880Y-2475460D02*
G75*
G02*
X1399880Y-2475460I-50000J0D01*
G01*
X1399880Y-2475460D02*
G75*
G02*
X1499880Y-2475460I50000J0D01*
G01*
X1499880Y-2729460D02*
G75*
G02*
X1399880Y-2729460I-50000J0D01*
G01*
X1399880Y-2729460D02*
G75*
G02*
X1499880Y-2729460I50000J0D01*
G01*
X1744740Y-3476480D02*
G75*
G02*
X1644740Y-3476480I-50000J0D01*
G01*
X1644740Y-3476480D02*
G75*
G02*
X1744740Y-3476480I50000J0D01*
G01*
X1744740Y-3730480D02*
G75*
G02*
X1644740Y-3730480I-50000J0D01*
G01*
X1644740Y-3730480D02*
G75*
G02*
X1744740Y-3730480I50000J0D01*
G01*
X1753880Y-1471500D02*
G75*
G02*
X1653880Y-1471500I-50000J0D01*
G01*
X1653880Y-1471500D02*
G75*
G02*
X1753880Y-1471500I50000J0D01*
G01*
X1753880Y-1725500D02*
G75*
G02*
X1653880Y-1725500I-50000J0D01*
G01*
X1653880Y-1725500D02*
G75*
G02*
X1753880Y-1725500I50000J0D01*
G01*
X1753880Y-2475460D02*
G75*
G02*
X1653880Y-2475460I-50000J0D01*
G01*
X1653880Y-2475460D02*
G75*
G02*
X1753880Y-2475460I50000J0D01*
G01*
X1753880Y-2729460D02*
G75*
G02*
X1653880Y-2729460I-50000J0D01*
G01*
X1653880Y-2729460D02*
G75*
G02*
X1753880Y-2729460I50000J0D01*
G01*
X1998740Y-3476480D02*
G75*
G02*
X1898740Y-3476480I-50000J0D01*
G01*
X1898740Y-3476480D02*
G75*
G02*
X1998740Y-3476480I50000J0D01*
G01*
X1998740Y-3730480D02*
G75*
G02*
X1898740Y-3730480I-50000J0D01*
G01*
X1898740Y-3730480D02*
G75*
G02*
X1998740Y-3730480I50000J0D01*
G01*
X5494800Y-2475460D02*
G75*
G02*
X5394800Y-2475460I-50000J0D01*
G01*
X5394800Y-2475460D02*
G75*
G02*
X5494800Y-2475460I50000J0D01*
G01*
X5494800Y-2729460D02*
G75*
G02*
X5394800Y-2729460I-50000J0D01*
G01*
X5394800Y-2729460D02*
G75*
G02*
X5494800Y-2729460I50000J0D01*
G01*
X5494800Y-3476940D02*
G75*
G02*
X5394800Y-3476940I-50000J0D01*
G01*
X5394800Y-3476940D02*
G75*
G02*
X5494800Y-3476940I50000J0D01*
G01*
X5494800Y-3730940D02*
G75*
G02*
X5394800Y-3730940I-50000J0D01*
G01*
X5394800Y-3730940D02*
G75*
G02*
X5494800Y-3730940I50000J0D01*
G01*
X5748800Y-2475460D02*
G75*
G02*
X5648800Y-2475460I-50000J0D01*
G01*
X5648800Y-2475460D02*
G75*
G02*
X5748800Y-2475460I50000J0D01*
G01*
X5748800Y-2729460D02*
G75*
G02*
X5648800Y-2729460I-50000J0D01*
G01*
X5648800Y-2729460D02*
G75*
G02*
X5748800Y-2729460I50000J0D01*
G01*
X5748800Y-3476940D02*
G75*
G02*
X5648800Y-3476940I-50000J0D01*
G01*
X5648800Y-3476940D02*
G75*
G02*
X5748800Y-3476940I50000J0D01*
G01*
X5748800Y-3730940D02*
G75*
G02*
X5648800Y-3730940I-50000J0D01*
G01*
X5648800Y-3730940D02*
G75*
G02*
X5748800Y-3730940I50000J0D01*
G01*
X6002800Y-2475460D02*
G75*
G02*
X5902800Y-2475460I-50000J0D01*
G01*
X5902800Y-2475460D02*
G75*
G02*
X6002800Y-2475460I50000J0D01*
G01*
X6002800Y-2729460D02*
G75*
G02*
X5902800Y-2729460I-50000J0D01*
G01*
X5902800Y-2729460D02*
G75*
G02*
X6002800Y-2729460I50000J0D01*
G01*
X6002800Y-3476940D02*
G75*
G02*
X5902800Y-3476940I-50000J0D01*
G01*
X5902800Y-3476940D02*
G75*
G02*
X6002800Y-3476940I50000J0D01*
G01*
X6002800Y-3730940D02*
G75*
G02*
X5902800Y-3730940I-50000J0D01*
G01*
X5902800Y-3730940D02*
G75*
G02*
X6002800Y-3730940I50000J0D01*
G01*
D13*
X2653160Y-1413220D02*
X2653160Y-1800220D01*
X2459660Y-1606720D02*
X2846660Y-1606720D01*
X4000040Y-1413220D02*
X4000040Y-1800220D01*
X3806540Y-1606720D02*
X4193540Y-1606720D01*
X5346920Y-1413220D02*
X5346920Y-1800220D01*
X5153420Y-1606720D02*
X5540420Y-1606720D01*
D11*
X1458277Y-4317644D02*
X1458277Y-4117644D01*
X1458277Y-4117644D02*
X1505896Y-4117644D01*
X1505896Y-4117644D02*
X1534467Y-4127168D01*
X1534467Y-4127168D02*
X1553515Y-4146215D01*
X1553515Y-4146215D02*
X1563039Y-4165263D01*
X1563039Y-4165263D02*
X1572562Y-4203358D01*
X1572562Y-4203358D02*
X1572562Y-4231930D01*
X1572562Y-4231930D02*
X1563039Y-4270025D01*
X1563039Y-4270025D02*
X1553515Y-4289072D01*
X1553515Y-4289072D02*
X1534467Y-4308120D01*
X1534467Y-4308120D02*
X1505896Y-4317644D01*
X1505896Y-4317644D02*
X1458277Y-4317644D01*
X1658277Y-4317644D02*
X1658277Y-4184310D01*
X1658277Y-4222406D02*
X1667801Y-4203358D01*
X1667801Y-4203358D02*
X1677324Y-4193834D01*
X1677324Y-4193834D02*
X1696372Y-4184310D01*
X1696372Y-4184310D02*
X1715420Y-4184310D01*
X1782086Y-4317644D02*
X1782086Y-4184310D01*
X1782086Y-4117644D02*
X1772562Y-4127168D01*
X1772562Y-4127168D02*
X1782086Y-4136691D01*
X1782086Y-4136691D02*
X1791610Y-4127168D01*
X1791610Y-4127168D02*
X1782086Y-4117644D01*
X1782086Y-4117644D02*
X1782086Y-4136691D01*
X1905896Y-4317644D02*
X1886848Y-4308120D01*
X1886848Y-4308120D02*
X1877324Y-4289072D01*
X1877324Y-4289072D02*
X1877324Y-4117644D01*
X2010658Y-4317644D02*
X1991610Y-4308120D01*
X1991610Y-4308120D02*
X1982086Y-4289072D01*
X1982086Y-4289072D02*
X1982086Y-4117644D01*
X2239229Y-4317644D02*
X2239229Y-4117644D01*
X2239229Y-4117644D02*
X2305896Y-4260501D01*
X2305896Y-4260501D02*
X2372563Y-4117644D01*
X2372563Y-4117644D02*
X2372563Y-4317644D01*
X2553515Y-4317644D02*
X2553515Y-4212882D01*
X2553515Y-4212882D02*
X2543991Y-4193834D01*
X2543991Y-4193834D02*
X2524944Y-4184310D01*
X2524944Y-4184310D02*
X2486848Y-4184310D01*
X2486848Y-4184310D02*
X2467801Y-4193834D01*
X2553515Y-4308120D02*
X2534467Y-4317644D01*
X2534467Y-4317644D02*
X2486848Y-4317644D01*
X2486848Y-4317644D02*
X2467801Y-4308120D01*
X2467801Y-4308120D02*
X2458277Y-4289072D01*
X2458277Y-4289072D02*
X2458277Y-4270025D01*
X2458277Y-4270025D02*
X2467801Y-4250977D01*
X2467801Y-4250977D02*
X2486848Y-4241453D01*
X2486848Y-4241453D02*
X2534467Y-4241453D01*
X2534467Y-4241453D02*
X2553515Y-4231930D01*
X2648753Y-4184310D02*
X2648753Y-4384310D01*
X2648753Y-4193834D02*
X2667801Y-4184310D01*
X2667801Y-4184310D02*
X2705896Y-4184310D01*
X2705896Y-4184310D02*
X2724944Y-4193834D01*
X2724944Y-4193834D02*
X2734467Y-4203358D01*
X2734467Y-4203358D02*
X2743991Y-4222406D01*
X2743991Y-4222406D02*
X2743991Y-4279549D01*
X2743991Y-4279549D02*
X2734467Y-4298596D01*
X2734467Y-4298596D02*
X2724944Y-4308120D01*
X2724944Y-4308120D02*
X2705896Y-4317644D01*
X2705896Y-4317644D02*
X2667801Y-4317644D01*
X2667801Y-4317644D02*
X2648753Y-4308120D01*
X2829705Y-4298596D02*
X2839229Y-4308120D01*
X2839229Y-4308120D02*
X2829705Y-4317644D01*
X2829705Y-4317644D02*
X2820182Y-4308120D01*
X2820182Y-4308120D02*
X2829705Y-4298596D01*
X2829705Y-4298596D02*
X2829705Y-4317644D01*
X2829705Y-4193834D02*
X2839229Y-4203358D01*
X2839229Y-4203358D02*
X2829705Y-4212882D01*
X2829705Y-4212882D02*
X2820182Y-4203358D01*
X2820182Y-4203358D02*
X2829705Y-4193834D01*
X2829705Y-4193834D02*
X2829705Y-4212882D01*
D12*
X1167500Y-4631160D02*
X1197500Y-4661160D01*
X1197500Y-4631160D02*
X1167500Y-4661160D01*
D11*
X1496372Y-4537644D02*
X1515420Y-4537644D01*
X1515420Y-4537644D02*
X1534467Y-4547168D01*
X1534467Y-4547168D02*
X1543991Y-4556691D01*
X1543991Y-4556691D02*
X1553515Y-4575739D01*
X1553515Y-4575739D02*
X1563039Y-4613834D01*
X1563039Y-4613834D02*
X1563039Y-4661453D01*
X1563039Y-4661453D02*
X1553515Y-4699549D01*
X1553515Y-4699549D02*
X1543991Y-4718596D01*
X1543991Y-4718596D02*
X1534467Y-4728120D01*
X1534467Y-4728120D02*
X1515420Y-4737644D01*
X1515420Y-4737644D02*
X1496372Y-4737644D01*
X1496372Y-4737644D02*
X1477324Y-4728120D01*
X1477324Y-4728120D02*
X1467801Y-4718596D01*
X1467801Y-4718596D02*
X1458277Y-4699549D01*
X1458277Y-4699549D02*
X1448753Y-4661453D01*
X1448753Y-4661453D02*
X1448753Y-4613834D01*
X1448753Y-4613834D02*
X1458277Y-4575739D01*
X1458277Y-4575739D02*
X1467801Y-4556691D01*
X1467801Y-4556691D02*
X1477324Y-4547168D01*
X1477324Y-4547168D02*
X1496372Y-4537644D01*
X1648753Y-4718596D02*
X1658277Y-4728120D01*
X1658277Y-4728120D02*
X1648753Y-4737644D01*
X1648753Y-4737644D02*
X1639229Y-4728120D01*
X1639229Y-4728120D02*
X1648753Y-4718596D01*
X1648753Y-4718596D02*
X1648753Y-4737644D01*
X1724943Y-4537644D02*
X1848753Y-4537644D01*
X1848753Y-4537644D02*
X1782086Y-4613834D01*
X1782086Y-4613834D02*
X1810658Y-4613834D01*
X1810658Y-4613834D02*
X1829705Y-4623358D01*
X1829705Y-4623358D02*
X1839229Y-4632882D01*
X1839229Y-4632882D02*
X1848753Y-4651930D01*
X1848753Y-4651930D02*
X1848753Y-4699549D01*
X1848753Y-4699549D02*
X1839229Y-4718596D01*
X1839229Y-4718596D02*
X1829705Y-4728120D01*
X1829705Y-4728120D02*
X1810658Y-4737644D01*
X1810658Y-4737644D02*
X1753515Y-4737644D01*
X1753515Y-4737644D02*
X1734467Y-4728120D01*
X1734467Y-4728120D02*
X1724943Y-4718596D01*
X1972562Y-4537644D02*
X1991610Y-4537644D01*
X1991610Y-4537644D02*
X2010658Y-4547168D01*
X2010658Y-4547168D02*
X2020182Y-4556691D01*
X2020182Y-4556691D02*
X2029705Y-4575739D01*
X2029705Y-4575739D02*
X2039229Y-4613834D01*
X2039229Y-4613834D02*
X2039229Y-4661453D01*
X2039229Y-4661453D02*
X2029705Y-4699549D01*
X2029705Y-4699549D02*
X2020182Y-4718596D01*
X2020182Y-4718596D02*
X2010658Y-4728120D01*
X2010658Y-4728120D02*
X1991610Y-4737644D01*
X1991610Y-4737644D02*
X1972562Y-4737644D01*
X1972562Y-4737644D02*
X1953515Y-4728120D01*
X1953515Y-4728120D02*
X1943991Y-4718596D01*
X1943991Y-4718596D02*
X1934467Y-4699549D01*
X1934467Y-4699549D02*
X1924943Y-4661453D01*
X1924943Y-4661453D02*
X1924943Y-4613834D01*
X1924943Y-4613834D02*
X1934467Y-4575739D01*
X1934467Y-4575739D02*
X1943991Y-4556691D01*
X1943991Y-4556691D02*
X1953515Y-4547168D01*
X1953515Y-4547168D02*
X1972562Y-4537644D01*
X2163039Y-4537644D02*
X2182086Y-4537644D01*
X2182086Y-4537644D02*
X2201134Y-4547168D01*
X2201134Y-4547168D02*
X2210658Y-4556691D01*
X2210658Y-4556691D02*
X2220182Y-4575739D01*
X2220182Y-4575739D02*
X2229705Y-4613834D01*
X2229705Y-4613834D02*
X2229705Y-4661453D01*
X2229705Y-4661453D02*
X2220182Y-4699549D01*
X2220182Y-4699549D02*
X2210658Y-4718596D01*
X2210658Y-4718596D02*
X2201134Y-4728120D01*
X2201134Y-4728120D02*
X2182086Y-4737644D01*
X2182086Y-4737644D02*
X2163039Y-4737644D01*
X2163039Y-4737644D02*
X2143991Y-4728120D01*
X2143991Y-4728120D02*
X2134467Y-4718596D01*
X2134467Y-4718596D02*
X2124944Y-4699549D01*
X2124944Y-4699549D02*
X2115420Y-4661453D01*
X2115420Y-4661453D02*
X2115420Y-4613834D01*
X2115420Y-4613834D02*
X2124944Y-4575739D01*
X2124944Y-4575739D02*
X2134467Y-4556691D01*
X2134467Y-4556691D02*
X2143991Y-4547168D01*
X2143991Y-4547168D02*
X2163039Y-4537644D01*
X2315420Y-4737644D02*
X2315420Y-4604310D01*
X2315420Y-4623358D02*
X2324944Y-4613834D01*
X2324944Y-4613834D02*
X2343991Y-4604310D01*
X2343991Y-4604310D02*
X2372563Y-4604310D01*
X2372563Y-4604310D02*
X2391610Y-4613834D01*
X2391610Y-4613834D02*
X2401134Y-4632882D01*
X2401134Y-4632882D02*
X2401134Y-4737644D01*
X2401134Y-4632882D02*
X2410658Y-4613834D01*
X2410658Y-4613834D02*
X2429705Y-4604310D01*
X2429705Y-4604310D02*
X2458277Y-4604310D01*
X2458277Y-4604310D02*
X2477325Y-4613834D01*
X2477325Y-4613834D02*
X2486848Y-4632882D01*
X2486848Y-4632882D02*
X2486848Y-4737644D01*
X2582086Y-4737644D02*
X2582086Y-4604310D01*
X2582086Y-4623358D02*
X2591610Y-4613834D01*
X2591610Y-4613834D02*
X2610658Y-4604310D01*
X2610658Y-4604310D02*
X2639229Y-4604310D01*
X2639229Y-4604310D02*
X2658277Y-4613834D01*
X2658277Y-4613834D02*
X2667801Y-4632882D01*
X2667801Y-4632882D02*
X2667801Y-4737644D01*
X2667801Y-4632882D02*
X2677325Y-4613834D01*
X2677325Y-4613834D02*
X2696372Y-4604310D01*
X2696372Y-4604310D02*
X2724944Y-4604310D01*
X2724944Y-4604310D02*
X2743991Y-4613834D01*
X2743991Y-4613834D02*
X2753515Y-4632882D01*
X2753515Y-4632882D02*
X2753515Y-4737644D01*
X3143991Y-4528120D02*
X2972563Y-4785263D01*
X3401134Y-4537644D02*
X3420182Y-4537644D01*
X3420182Y-4537644D02*
X3439229Y-4547168D01*
X3439229Y-4547168D02*
X3448753Y-4556691D01*
X3448753Y-4556691D02*
X3458277Y-4575739D01*
X3458277Y-4575739D02*
X3467801Y-4613834D01*
X3467801Y-4613834D02*
X3467801Y-4661453D01*
X3467801Y-4661453D02*
X3458277Y-4699549D01*
X3458277Y-4699549D02*
X3448753Y-4718596D01*
X3448753Y-4718596D02*
X3439229Y-4728120D01*
X3439229Y-4728120D02*
X3420182Y-4737644D01*
X3420182Y-4737644D02*
X3401134Y-4737644D01*
X3401134Y-4737644D02*
X3382086Y-4728120D01*
X3382086Y-4728120D02*
X3372563Y-4718596D01*
X3372563Y-4718596D02*
X3363039Y-4699549D01*
X3363039Y-4699549D02*
X3353515Y-4661453D01*
X3353515Y-4661453D02*
X3353515Y-4613834D01*
X3353515Y-4613834D02*
X3363039Y-4575739D01*
X3363039Y-4575739D02*
X3372563Y-4556691D01*
X3372563Y-4556691D02*
X3382086Y-4547168D01*
X3382086Y-4547168D02*
X3401134Y-4537644D01*
X3553515Y-4718596D02*
X3563039Y-4728120D01*
X3563039Y-4728120D02*
X3553515Y-4737644D01*
X3553515Y-4737644D02*
X3543991Y-4728120D01*
X3543991Y-4728120D02*
X3553515Y-4718596D01*
X3553515Y-4718596D02*
X3553515Y-4737644D01*
X3686848Y-4537644D02*
X3705896Y-4537644D01*
X3705896Y-4537644D02*
X3724944Y-4547168D01*
X3724944Y-4547168D02*
X3734467Y-4556691D01*
X3734467Y-4556691D02*
X3743991Y-4575739D01*
X3743991Y-4575739D02*
X3753515Y-4613834D01*
X3753515Y-4613834D02*
X3753515Y-4661453D01*
X3753515Y-4661453D02*
X3743991Y-4699549D01*
X3743991Y-4699549D02*
X3734467Y-4718596D01*
X3734467Y-4718596D02*
X3724944Y-4728120D01*
X3724944Y-4728120D02*
X3705896Y-4737644D01*
X3705896Y-4737644D02*
X3686848Y-4737644D01*
X3686848Y-4737644D02*
X3667801Y-4728120D01*
X3667801Y-4728120D02*
X3658277Y-4718596D01*
X3658277Y-4718596D02*
X3648753Y-4699549D01*
X3648753Y-4699549D02*
X3639229Y-4661453D01*
X3639229Y-4661453D02*
X3639229Y-4613834D01*
X3639229Y-4613834D02*
X3648753Y-4575739D01*
X3648753Y-4575739D02*
X3658277Y-4556691D01*
X3658277Y-4556691D02*
X3667801Y-4547168D01*
X3667801Y-4547168D02*
X3686848Y-4537644D01*
X3943991Y-4737644D02*
X3829706Y-4737644D01*
X3886848Y-4737644D02*
X3886848Y-4537644D01*
X3886848Y-4537644D02*
X3867801Y-4566215D01*
X3867801Y-4566215D02*
X3848753Y-4585263D01*
X3848753Y-4585263D02*
X3829706Y-4594787D01*
X4134467Y-4737644D02*
X4020182Y-4737644D01*
X4077325Y-4737644D02*
X4077325Y-4537644D01*
X4077325Y-4537644D02*
X4058277Y-4566215D01*
X4058277Y-4566215D02*
X4039229Y-4585263D01*
X4039229Y-4585263D02*
X4020182Y-4594787D01*
X4248753Y-4623358D02*
X4229706Y-4613834D01*
X4229706Y-4613834D02*
X4220182Y-4604310D01*
X4220182Y-4604310D02*
X4210658Y-4585263D01*
X4210658Y-4585263D02*
X4210658Y-4575739D01*
X4210658Y-4575739D02*
X4220182Y-4556691D01*
X4220182Y-4556691D02*
X4229706Y-4547168D01*
X4229706Y-4547168D02*
X4248753Y-4537644D01*
X4248753Y-4537644D02*
X4286849Y-4537644D01*
X4286849Y-4537644D02*
X4305896Y-4547168D01*
X4305896Y-4547168D02*
X4315420Y-4556691D01*
X4315420Y-4556691D02*
X4324944Y-4575739D01*
X4324944Y-4575739D02*
X4324944Y-4585263D01*
X4324944Y-4585263D02*
X4315420Y-4604310D01*
X4315420Y-4604310D02*
X4305896Y-4613834D01*
X4305896Y-4613834D02*
X4286849Y-4623358D01*
X4286849Y-4623358D02*
X4248753Y-4623358D01*
X4248753Y-4623358D02*
X4229706Y-4632882D01*
X4229706Y-4632882D02*
X4220182Y-4642406D01*
X4220182Y-4642406D02*
X4210658Y-4661453D01*
X4210658Y-4661453D02*
X4210658Y-4699549D01*
X4210658Y-4699549D02*
X4220182Y-4718596D01*
X4220182Y-4718596D02*
X4229706Y-4728120D01*
X4229706Y-4728120D02*
X4248753Y-4737644D01*
X4248753Y-4737644D02*
X4286849Y-4737644D01*
X4286849Y-4737644D02*
X4305896Y-4728120D01*
X4305896Y-4728120D02*
X4315420Y-4718596D01*
X4315420Y-4718596D02*
X4324944Y-4699549D01*
X4324944Y-4699549D02*
X4324944Y-4661453D01*
X4324944Y-4661453D02*
X4315420Y-4642406D01*
X4315420Y-4642406D02*
X4305896Y-4632882D01*
X4305896Y-4632882D02*
X4286849Y-4623358D01*
X4401134Y-4537644D02*
X4401134Y-4575739D01*
X4477325Y-4537644D02*
X4477325Y-4575739D01*
X4772563Y-4813834D02*
X4763039Y-4804310D01*
X4763039Y-4804310D02*
X4743991Y-4775739D01*
X4743991Y-4775739D02*
X4734468Y-4756691D01*
X4734468Y-4756691D02*
X4724944Y-4728120D01*
X4724944Y-4728120D02*
X4715420Y-4680501D01*
X4715420Y-4680501D02*
X4715420Y-4642406D01*
X4715420Y-4642406D02*
X4724944Y-4594787D01*
X4724944Y-4594787D02*
X4734468Y-4566215D01*
X4734468Y-4566215D02*
X4743991Y-4547168D01*
X4743991Y-4547168D02*
X4763039Y-4518596D01*
X4763039Y-4518596D02*
X4772563Y-4509072D01*
X4934468Y-4604310D02*
X4934468Y-4737644D01*
X4886849Y-4528120D02*
X4839230Y-4670977D01*
X4839230Y-4670977D02*
X4963039Y-4670977D01*
X5067801Y-4623358D02*
X5048753Y-4613834D01*
X5048753Y-4613834D02*
X5039230Y-4604310D01*
X5039230Y-4604310D02*
X5029706Y-4585263D01*
X5029706Y-4585263D02*
X5029706Y-4575739D01*
X5029706Y-4575739D02*
X5039230Y-4556691D01*
X5039230Y-4556691D02*
X5048753Y-4547168D01*
X5048753Y-4547168D02*
X5067801Y-4537644D01*
X5067801Y-4537644D02*
X5105896Y-4537644D01*
X5105896Y-4537644D02*
X5124944Y-4547168D01*
X5124944Y-4547168D02*
X5134468Y-4556691D01*
X5134468Y-4556691D02*
X5143991Y-4575739D01*
X5143991Y-4575739D02*
X5143991Y-4585263D01*
X5143991Y-4585263D02*
X5134468Y-4604310D01*
X5134468Y-4604310D02*
X5124944Y-4613834D01*
X5124944Y-4613834D02*
X5105896Y-4623358D01*
X5105896Y-4623358D02*
X5067801Y-4623358D01*
X5067801Y-4623358D02*
X5048753Y-4632882D01*
X5048753Y-4632882D02*
X5039230Y-4642406D01*
X5039230Y-4642406D02*
X5029706Y-4661453D01*
X5029706Y-4661453D02*
X5029706Y-4699549D01*
X5029706Y-4699549D02*
X5039230Y-4718596D01*
X5039230Y-4718596D02*
X5048753Y-4728120D01*
X5048753Y-4728120D02*
X5067801Y-4737644D01*
X5067801Y-4737644D02*
X5105896Y-4737644D01*
X5105896Y-4737644D02*
X5124944Y-4728120D01*
X5124944Y-4728120D02*
X5134468Y-4718596D01*
X5134468Y-4718596D02*
X5143991Y-4699549D01*
X5143991Y-4699549D02*
X5143991Y-4661453D01*
X5143991Y-4661453D02*
X5134468Y-4642406D01*
X5134468Y-4642406D02*
X5124944Y-4632882D01*
X5124944Y-4632882D02*
X5105896Y-4623358D01*
X5382087Y-4737644D02*
X5382087Y-4537644D01*
X5467801Y-4737644D02*
X5467801Y-4632882D01*
X5467801Y-4632882D02*
X5458277Y-4613834D01*
X5458277Y-4613834D02*
X5439230Y-4604310D01*
X5439230Y-4604310D02*
X5410658Y-4604310D01*
X5410658Y-4604310D02*
X5391611Y-4613834D01*
X5391611Y-4613834D02*
X5382087Y-4623358D01*
X5591611Y-4737644D02*
X5572563Y-4728120D01*
X5572563Y-4728120D02*
X5563039Y-4718596D01*
X5563039Y-4718596D02*
X5553515Y-4699549D01*
X5553515Y-4699549D02*
X5553515Y-4642406D01*
X5553515Y-4642406D02*
X5563039Y-4623358D01*
X5563039Y-4623358D02*
X5572563Y-4613834D01*
X5572563Y-4613834D02*
X5591611Y-4604310D01*
X5591611Y-4604310D02*
X5620182Y-4604310D01*
X5620182Y-4604310D02*
X5639230Y-4613834D01*
X5639230Y-4613834D02*
X5648753Y-4623358D01*
X5648753Y-4623358D02*
X5658277Y-4642406D01*
X5658277Y-4642406D02*
X5658277Y-4699549D01*
X5658277Y-4699549D02*
X5648753Y-4718596D01*
X5648753Y-4718596D02*
X5639230Y-4728120D01*
X5639230Y-4728120D02*
X5620182Y-4737644D01*
X5620182Y-4737644D02*
X5591611Y-4737644D01*
X5772563Y-4737644D02*
X5753515Y-4728120D01*
X5753515Y-4728120D02*
X5743991Y-4709072D01*
X5743991Y-4709072D02*
X5743991Y-4537644D01*
X5924944Y-4728120D02*
X5905896Y-4737644D01*
X5905896Y-4737644D02*
X5867801Y-4737644D01*
X5867801Y-4737644D02*
X5848753Y-4728120D01*
X5848753Y-4728120D02*
X5839230Y-4709072D01*
X5839230Y-4709072D02*
X5839230Y-4632882D01*
X5839230Y-4632882D02*
X5848753Y-4613834D01*
X5848753Y-4613834D02*
X5867801Y-4604310D01*
X5867801Y-4604310D02*
X5905896Y-4604310D01*
X5905896Y-4604310D02*
X5924944Y-4613834D01*
X5924944Y-4613834D02*
X5934468Y-4632882D01*
X5934468Y-4632882D02*
X5934468Y-4651930D01*
X5934468Y-4651930D02*
X5839230Y-4670977D01*
X6010658Y-4728120D02*
X6029706Y-4737644D01*
X6029706Y-4737644D02*
X6067801Y-4737644D01*
X6067801Y-4737644D02*
X6086849Y-4728120D01*
X6086849Y-4728120D02*
X6096372Y-4709072D01*
X6096372Y-4709072D02*
X6096372Y-4699549D01*
X6096372Y-4699549D02*
X6086849Y-4680501D01*
X6086849Y-4680501D02*
X6067801Y-4670977D01*
X6067801Y-4670977D02*
X6039230Y-4670977D01*
X6039230Y-4670977D02*
X6020182Y-4661453D01*
X6020182Y-4661453D02*
X6010658Y-4642406D01*
X6010658Y-4642406D02*
X6010658Y-4632882D01*
X6010658Y-4632882D02*
X6020182Y-4613834D01*
X6020182Y-4613834D02*
X6039230Y-4604310D01*
X6039230Y-4604310D02*
X6067801Y-4604310D01*
X6067801Y-4604310D02*
X6086849Y-4613834D01*
X6163039Y-4813834D02*
X6172563Y-4804310D01*
X6172563Y-4804310D02*
X6191611Y-4775739D01*
X6191611Y-4775739D02*
X6201134Y-4756691D01*
X6201134Y-4756691D02*
X6210658Y-4728120D01*
X6210658Y-4728120D02*
X6220182Y-4680501D01*
X6220182Y-4680501D02*
X6220182Y-4642406D01*
X6220182Y-4642406D02*
X6210658Y-4594787D01*
X6210658Y-4594787D02*
X6201134Y-4566215D01*
X6201134Y-4566215D02*
X6191611Y-4547168D01*
X6191611Y-4547168D02*
X6172563Y-4518596D01*
X6172563Y-4518596D02*
X6163039Y-4509072D01*
D12*
X1197500Y-4910160D02*
G75*
G02*
X1097500Y-4910160I-50000J0D01*
G01*
X1097500Y-4910160D02*
G75*
G02*
X1197500Y-4910160I50000J0D01*
G01*
D11*
X1563039Y-5001644D02*
X1448753Y-5001644D01*
X1505896Y-5001644D02*
X1505896Y-4801644D01*
X1505896Y-4801644D02*
X1486848Y-4830215D01*
X1486848Y-4830215D02*
X1467801Y-4849263D01*
X1467801Y-4849263D02*
X1448753Y-4858787D01*
X1648753Y-4982596D02*
X1658277Y-4992120D01*
X1658277Y-4992120D02*
X1648753Y-5001644D01*
X1648753Y-5001644D02*
X1639229Y-4992120D01*
X1639229Y-4992120D02*
X1648753Y-4982596D01*
X1648753Y-4982596D02*
X1648753Y-5001644D01*
X1782086Y-4801644D02*
X1801134Y-4801644D01*
X1801134Y-4801644D02*
X1820182Y-4811168D01*
X1820182Y-4811168D02*
X1829705Y-4820691D01*
X1829705Y-4820691D02*
X1839229Y-4839739D01*
X1839229Y-4839739D02*
X1848753Y-4877834D01*
X1848753Y-4877834D02*
X1848753Y-4925453D01*
X1848753Y-4925453D02*
X1839229Y-4963549D01*
X1839229Y-4963549D02*
X1829705Y-4982596D01*
X1829705Y-4982596D02*
X1820182Y-4992120D01*
X1820182Y-4992120D02*
X1801134Y-5001644D01*
X1801134Y-5001644D02*
X1782086Y-5001644D01*
X1782086Y-5001644D02*
X1763039Y-4992120D01*
X1763039Y-4992120D02*
X1753515Y-4982596D01*
X1753515Y-4982596D02*
X1743991Y-4963549D01*
X1743991Y-4963549D02*
X1734467Y-4925453D01*
X1734467Y-4925453D02*
X1734467Y-4877834D01*
X1734467Y-4877834D02*
X1743991Y-4839739D01*
X1743991Y-4839739D02*
X1753515Y-4820691D01*
X1753515Y-4820691D02*
X1763039Y-4811168D01*
X1763039Y-4811168D02*
X1782086Y-4801644D01*
X1972562Y-4801644D02*
X1991610Y-4801644D01*
X1991610Y-4801644D02*
X2010658Y-4811168D01*
X2010658Y-4811168D02*
X2020182Y-4820691D01*
X2020182Y-4820691D02*
X2029705Y-4839739D01*
X2029705Y-4839739D02*
X2039229Y-4877834D01*
X2039229Y-4877834D02*
X2039229Y-4925453D01*
X2039229Y-4925453D02*
X2029705Y-4963549D01*
X2029705Y-4963549D02*
X2020182Y-4982596D01*
X2020182Y-4982596D02*
X2010658Y-4992120D01*
X2010658Y-4992120D02*
X1991610Y-5001644D01*
X1991610Y-5001644D02*
X1972562Y-5001644D01*
X1972562Y-5001644D02*
X1953515Y-4992120D01*
X1953515Y-4992120D02*
X1943991Y-4982596D01*
X1943991Y-4982596D02*
X1934467Y-4963549D01*
X1934467Y-4963549D02*
X1924943Y-4925453D01*
X1924943Y-4925453D02*
X1924943Y-4877834D01*
X1924943Y-4877834D02*
X1934467Y-4839739D01*
X1934467Y-4839739D02*
X1943991Y-4820691D01*
X1943991Y-4820691D02*
X1953515Y-4811168D01*
X1953515Y-4811168D02*
X1972562Y-4801644D01*
X2163039Y-4801644D02*
X2182086Y-4801644D01*
X2182086Y-4801644D02*
X2201134Y-4811168D01*
X2201134Y-4811168D02*
X2210658Y-4820691D01*
X2210658Y-4820691D02*
X2220182Y-4839739D01*
X2220182Y-4839739D02*
X2229705Y-4877834D01*
X2229705Y-4877834D02*
X2229705Y-4925453D01*
X2229705Y-4925453D02*
X2220182Y-4963549D01*
X2220182Y-4963549D02*
X2210658Y-4982596D01*
X2210658Y-4982596D02*
X2201134Y-4992120D01*
X2201134Y-4992120D02*
X2182086Y-5001644D01*
X2182086Y-5001644D02*
X2163039Y-5001644D01*
X2163039Y-5001644D02*
X2143991Y-4992120D01*
X2143991Y-4992120D02*
X2134467Y-4982596D01*
X2134467Y-4982596D02*
X2124944Y-4963549D01*
X2124944Y-4963549D02*
X2115420Y-4925453D01*
X2115420Y-4925453D02*
X2115420Y-4877834D01*
X2115420Y-4877834D02*
X2124944Y-4839739D01*
X2124944Y-4839739D02*
X2134467Y-4820691D01*
X2134467Y-4820691D02*
X2143991Y-4811168D01*
X2143991Y-4811168D02*
X2163039Y-4801644D01*
X2315420Y-5001644D02*
X2315420Y-4868310D01*
X2315420Y-4887358D02*
X2324944Y-4877834D01*
X2324944Y-4877834D02*
X2343991Y-4868310D01*
X2343991Y-4868310D02*
X2372563Y-4868310D01*
X2372563Y-4868310D02*
X2391610Y-4877834D01*
X2391610Y-4877834D02*
X2401134Y-4896882D01*
X2401134Y-4896882D02*
X2401134Y-5001644D01*
X2401134Y-4896882D02*
X2410658Y-4877834D01*
X2410658Y-4877834D02*
X2429705Y-4868310D01*
X2429705Y-4868310D02*
X2458277Y-4868310D01*
X2458277Y-4868310D02*
X2477325Y-4877834D01*
X2477325Y-4877834D02*
X2486848Y-4896882D01*
X2486848Y-4896882D02*
X2486848Y-5001644D01*
X2582086Y-5001644D02*
X2582086Y-4868310D01*
X2582086Y-4887358D02*
X2591610Y-4877834D01*
X2591610Y-4877834D02*
X2610658Y-4868310D01*
X2610658Y-4868310D02*
X2639229Y-4868310D01*
X2639229Y-4868310D02*
X2658277Y-4877834D01*
X2658277Y-4877834D02*
X2667801Y-4896882D01*
X2667801Y-4896882D02*
X2667801Y-5001644D01*
X2667801Y-4896882D02*
X2677325Y-4877834D01*
X2677325Y-4877834D02*
X2696372Y-4868310D01*
X2696372Y-4868310D02*
X2724944Y-4868310D01*
X2724944Y-4868310D02*
X2743991Y-4877834D01*
X2743991Y-4877834D02*
X2753515Y-4896882D01*
X2753515Y-4896882D02*
X2753515Y-5001644D01*
X3143991Y-4792120D02*
X2972563Y-5049263D01*
X3401134Y-4801644D02*
X3420182Y-4801644D01*
X3420182Y-4801644D02*
X3439229Y-4811168D01*
X3439229Y-4811168D02*
X3448753Y-4820691D01*
X3448753Y-4820691D02*
X3458277Y-4839739D01*
X3458277Y-4839739D02*
X3467801Y-4877834D01*
X3467801Y-4877834D02*
X3467801Y-4925453D01*
X3467801Y-4925453D02*
X3458277Y-4963549D01*
X3458277Y-4963549D02*
X3448753Y-4982596D01*
X3448753Y-4982596D02*
X3439229Y-4992120D01*
X3439229Y-4992120D02*
X3420182Y-5001644D01*
X3420182Y-5001644D02*
X3401134Y-5001644D01*
X3401134Y-5001644D02*
X3382086Y-4992120D01*
X3382086Y-4992120D02*
X3372563Y-4982596D01*
X3372563Y-4982596D02*
X3363039Y-4963549D01*
X3363039Y-4963549D02*
X3353515Y-4925453D01*
X3353515Y-4925453D02*
X3353515Y-4877834D01*
X3353515Y-4877834D02*
X3363039Y-4839739D01*
X3363039Y-4839739D02*
X3372563Y-4820691D01*
X3372563Y-4820691D02*
X3382086Y-4811168D01*
X3382086Y-4811168D02*
X3401134Y-4801644D01*
X3553515Y-4982596D02*
X3563039Y-4992120D01*
X3563039Y-4992120D02*
X3553515Y-5001644D01*
X3553515Y-5001644D02*
X3543991Y-4992120D01*
X3543991Y-4992120D02*
X3553515Y-4982596D01*
X3553515Y-4982596D02*
X3553515Y-5001644D01*
X3686848Y-4801644D02*
X3705896Y-4801644D01*
X3705896Y-4801644D02*
X3724944Y-4811168D01*
X3724944Y-4811168D02*
X3734467Y-4820691D01*
X3734467Y-4820691D02*
X3743991Y-4839739D01*
X3743991Y-4839739D02*
X3753515Y-4877834D01*
X3753515Y-4877834D02*
X3753515Y-4925453D01*
X3753515Y-4925453D02*
X3743991Y-4963549D01*
X3743991Y-4963549D02*
X3734467Y-4982596D01*
X3734467Y-4982596D02*
X3724944Y-4992120D01*
X3724944Y-4992120D02*
X3705896Y-5001644D01*
X3705896Y-5001644D02*
X3686848Y-5001644D01*
X3686848Y-5001644D02*
X3667801Y-4992120D01*
X3667801Y-4992120D02*
X3658277Y-4982596D01*
X3658277Y-4982596D02*
X3648753Y-4963549D01*
X3648753Y-4963549D02*
X3639229Y-4925453D01*
X3639229Y-4925453D02*
X3639229Y-4877834D01*
X3639229Y-4877834D02*
X3648753Y-4839739D01*
X3648753Y-4839739D02*
X3658277Y-4820691D01*
X3658277Y-4820691D02*
X3667801Y-4811168D01*
X3667801Y-4811168D02*
X3686848Y-4801644D01*
X3820182Y-4801644D02*
X3943991Y-4801644D01*
X3943991Y-4801644D02*
X3877325Y-4877834D01*
X3877325Y-4877834D02*
X3905896Y-4877834D01*
X3905896Y-4877834D02*
X3924944Y-4887358D01*
X3924944Y-4887358D02*
X3934467Y-4896882D01*
X3934467Y-4896882D02*
X3943991Y-4915930D01*
X3943991Y-4915930D02*
X3943991Y-4963549D01*
X3943991Y-4963549D02*
X3934467Y-4982596D01*
X3934467Y-4982596D02*
X3924944Y-4992120D01*
X3924944Y-4992120D02*
X3905896Y-5001644D01*
X3905896Y-5001644D02*
X3848753Y-5001644D01*
X3848753Y-5001644D02*
X3829706Y-4992120D01*
X3829706Y-4992120D02*
X3820182Y-4982596D01*
X4039229Y-5001644D02*
X4077325Y-5001644D01*
X4077325Y-5001644D02*
X4096372Y-4992120D01*
X4096372Y-4992120D02*
X4105896Y-4982596D01*
X4105896Y-4982596D02*
X4124944Y-4954025D01*
X4124944Y-4954025D02*
X4134467Y-4915930D01*
X4134467Y-4915930D02*
X4134467Y-4839739D01*
X4134467Y-4839739D02*
X4124944Y-4820691D01*
X4124944Y-4820691D02*
X4115420Y-4811168D01*
X4115420Y-4811168D02*
X4096372Y-4801644D01*
X4096372Y-4801644D02*
X4058277Y-4801644D01*
X4058277Y-4801644D02*
X4039229Y-4811168D01*
X4039229Y-4811168D02*
X4029706Y-4820691D01*
X4029706Y-4820691D02*
X4020182Y-4839739D01*
X4020182Y-4839739D02*
X4020182Y-4887358D01*
X4020182Y-4887358D02*
X4029706Y-4906406D01*
X4029706Y-4906406D02*
X4039229Y-4915930D01*
X4039229Y-4915930D02*
X4058277Y-4925453D01*
X4058277Y-4925453D02*
X4096372Y-4925453D01*
X4096372Y-4925453D02*
X4115420Y-4915930D01*
X4115420Y-4915930D02*
X4124944Y-4906406D01*
X4124944Y-4906406D02*
X4134467Y-4887358D01*
X4305896Y-4868310D02*
X4305896Y-5001644D01*
X4258277Y-4792120D02*
X4210658Y-4934977D01*
X4210658Y-4934977D02*
X4334468Y-4934977D01*
X4401134Y-4801644D02*
X4401134Y-4839739D01*
X4477325Y-4801644D02*
X4477325Y-4839739D01*
X4772563Y-5077834D02*
X4763039Y-5068310D01*
X4763039Y-5068310D02*
X4743991Y-5039739D01*
X4743991Y-5039739D02*
X4734468Y-5020691D01*
X4734468Y-5020691D02*
X4724944Y-4992120D01*
X4724944Y-4992120D02*
X4715420Y-4944501D01*
X4715420Y-4944501D02*
X4715420Y-4906406D01*
X4715420Y-4906406D02*
X4724944Y-4858787D01*
X4724944Y-4858787D02*
X4734468Y-4830215D01*
X4734468Y-4830215D02*
X4743991Y-4811168D01*
X4743991Y-4811168D02*
X4763039Y-4782596D01*
X4763039Y-4782596D02*
X4772563Y-4773072D01*
X4839230Y-4820691D02*
X4848753Y-4811168D01*
X4848753Y-4811168D02*
X4867801Y-4801644D01*
X4867801Y-4801644D02*
X4915420Y-4801644D01*
X4915420Y-4801644D02*
X4934468Y-4811168D01*
X4934468Y-4811168D02*
X4943991Y-4820691D01*
X4943991Y-4820691D02*
X4953515Y-4839739D01*
X4953515Y-4839739D02*
X4953515Y-4858787D01*
X4953515Y-4858787D02*
X4943991Y-4887358D01*
X4943991Y-4887358D02*
X4829706Y-5001644D01*
X4829706Y-5001644D02*
X4953515Y-5001644D01*
X5124944Y-4801644D02*
X5086849Y-4801644D01*
X5086849Y-4801644D02*
X5067801Y-4811168D01*
X5067801Y-4811168D02*
X5058277Y-4820691D01*
X5058277Y-4820691D02*
X5039230Y-4849263D01*
X5039230Y-4849263D02*
X5029706Y-4887358D01*
X5029706Y-4887358D02*
X5029706Y-4963549D01*
X5029706Y-4963549D02*
X5039230Y-4982596D01*
X5039230Y-4982596D02*
X5048753Y-4992120D01*
X5048753Y-4992120D02*
X5067801Y-5001644D01*
X5067801Y-5001644D02*
X5105896Y-5001644D01*
X5105896Y-5001644D02*
X5124944Y-4992120D01*
X5124944Y-4992120D02*
X5134468Y-4982596D01*
X5134468Y-4982596D02*
X5143991Y-4963549D01*
X5143991Y-4963549D02*
X5143991Y-4915930D01*
X5143991Y-4915930D02*
X5134468Y-4896882D01*
X5134468Y-4896882D02*
X5124944Y-4887358D01*
X5124944Y-4887358D02*
X5105896Y-4877834D01*
X5105896Y-4877834D02*
X5067801Y-4877834D01*
X5067801Y-4877834D02*
X5048753Y-4887358D01*
X5048753Y-4887358D02*
X5039230Y-4896882D01*
X5039230Y-4896882D02*
X5029706Y-4915930D01*
X5382087Y-5001644D02*
X5382087Y-4801644D01*
X5467801Y-5001644D02*
X5467801Y-4896882D01*
X5467801Y-4896882D02*
X5458277Y-4877834D01*
X5458277Y-4877834D02*
X5439230Y-4868310D01*
X5439230Y-4868310D02*
X5410658Y-4868310D01*
X5410658Y-4868310D02*
X5391611Y-4877834D01*
X5391611Y-4877834D02*
X5382087Y-4887358D01*
X5591611Y-5001644D02*
X5572563Y-4992120D01*
X5572563Y-4992120D02*
X5563039Y-4982596D01*
X5563039Y-4982596D02*
X5553515Y-4963549D01*
X5553515Y-4963549D02*
X5553515Y-4906406D01*
X5553515Y-4906406D02*
X5563039Y-4887358D01*
X5563039Y-4887358D02*
X5572563Y-4877834D01*
X5572563Y-4877834D02*
X5591611Y-4868310D01*
X5591611Y-4868310D02*
X5620182Y-4868310D01*
X5620182Y-4868310D02*
X5639230Y-4877834D01*
X5639230Y-4877834D02*
X5648753Y-4887358D01*
X5648753Y-4887358D02*
X5658277Y-4906406D01*
X5658277Y-4906406D02*
X5658277Y-4963549D01*
X5658277Y-4963549D02*
X5648753Y-4982596D01*
X5648753Y-4982596D02*
X5639230Y-4992120D01*
X5639230Y-4992120D02*
X5620182Y-5001644D01*
X5620182Y-5001644D02*
X5591611Y-5001644D01*
X5772563Y-5001644D02*
X5753515Y-4992120D01*
X5753515Y-4992120D02*
X5743991Y-4973072D01*
X5743991Y-4973072D02*
X5743991Y-4801644D01*
X5924944Y-4992120D02*
X5905896Y-5001644D01*
X5905896Y-5001644D02*
X5867801Y-5001644D01*
X5867801Y-5001644D02*
X5848753Y-4992120D01*
X5848753Y-4992120D02*
X5839230Y-4973072D01*
X5839230Y-4973072D02*
X5839230Y-4896882D01*
X5839230Y-4896882D02*
X5848753Y-4877834D01*
X5848753Y-4877834D02*
X5867801Y-4868310D01*
X5867801Y-4868310D02*
X5905896Y-4868310D01*
X5905896Y-4868310D02*
X5924944Y-4877834D01*
X5924944Y-4877834D02*
X5934468Y-4896882D01*
X5934468Y-4896882D02*
X5934468Y-4915930D01*
X5934468Y-4915930D02*
X5839230Y-4934977D01*
X6010658Y-4992120D02*
X6029706Y-5001644D01*
X6029706Y-5001644D02*
X6067801Y-5001644D01*
X6067801Y-5001644D02*
X6086849Y-4992120D01*
X6086849Y-4992120D02*
X6096372Y-4973072D01*
X6096372Y-4973072D02*
X6096372Y-4963549D01*
X6096372Y-4963549D02*
X6086849Y-4944501D01*
X6086849Y-4944501D02*
X6067801Y-4934977D01*
X6067801Y-4934977D02*
X6039230Y-4934977D01*
X6039230Y-4934977D02*
X6020182Y-4925453D01*
X6020182Y-4925453D02*
X6010658Y-4906406D01*
X6010658Y-4906406D02*
X6010658Y-4896882D01*
X6010658Y-4896882D02*
X6020182Y-4877834D01*
X6020182Y-4877834D02*
X6039230Y-4868310D01*
X6039230Y-4868310D02*
X6067801Y-4868310D01*
X6067801Y-4868310D02*
X6086849Y-4877834D01*
X6163039Y-5077834D02*
X6172563Y-5068310D01*
X6172563Y-5068310D02*
X6191611Y-5039739D01*
X6191611Y-5039739D02*
X6201134Y-5020691D01*
X6201134Y-5020691D02*
X6210658Y-4992120D01*
X6210658Y-4992120D02*
X6220182Y-4944501D01*
X6220182Y-4944501D02*
X6220182Y-4906406D01*
X6220182Y-4906406D02*
X6210658Y-4858787D01*
X6210658Y-4858787D02*
X6201134Y-4830215D01*
X6201134Y-4830215D02*
X6191611Y-4811168D01*
X6191611Y-4811168D02*
X6172563Y-4782596D01*
X6172563Y-4782596D02*
X6163039Y-4773072D01*
X1097500Y-5074160D02*
X1097500Y-5274160D01*
X997500Y-5174160D02*
X1197500Y-5174160D01*
X1439229Y-5065644D02*
X1563039Y-5065644D01*
X1563039Y-5065644D02*
X1496372Y-5141834D01*
X1496372Y-5141834D02*
X1524943Y-5141834D01*
X1524943Y-5141834D02*
X1543991Y-5151358D01*
X1543991Y-5151358D02*
X1553515Y-5160882D01*
X1553515Y-5160882D02*
X1563039Y-5179930D01*
X1563039Y-5179930D02*
X1563039Y-5227549D01*
X1563039Y-5227549D02*
X1553515Y-5246596D01*
X1553515Y-5246596D02*
X1543991Y-5256120D01*
X1543991Y-5256120D02*
X1524943Y-5265644D01*
X1524943Y-5265644D02*
X1467801Y-5265644D01*
X1467801Y-5265644D02*
X1448753Y-5256120D01*
X1448753Y-5256120D02*
X1439229Y-5246596D01*
X1648753Y-5246596D02*
X1658277Y-5256120D01*
X1658277Y-5256120D02*
X1648753Y-5265644D01*
X1648753Y-5265644D02*
X1639229Y-5256120D01*
X1639229Y-5256120D02*
X1648753Y-5246596D01*
X1648753Y-5246596D02*
X1648753Y-5265644D01*
X1772562Y-5151358D02*
X1753515Y-5141834D01*
X1753515Y-5141834D02*
X1743991Y-5132310D01*
X1743991Y-5132310D02*
X1734467Y-5113263D01*
X1734467Y-5113263D02*
X1734467Y-5103739D01*
X1734467Y-5103739D02*
X1743991Y-5084691D01*
X1743991Y-5084691D02*
X1753515Y-5075168D01*
X1753515Y-5075168D02*
X1772562Y-5065644D01*
X1772562Y-5065644D02*
X1810658Y-5065644D01*
X1810658Y-5065644D02*
X1829705Y-5075168D01*
X1829705Y-5075168D02*
X1839229Y-5084691D01*
X1839229Y-5084691D02*
X1848753Y-5103739D01*
X1848753Y-5103739D02*
X1848753Y-5113263D01*
X1848753Y-5113263D02*
X1839229Y-5132310D01*
X1839229Y-5132310D02*
X1829705Y-5141834D01*
X1829705Y-5141834D02*
X1810658Y-5151358D01*
X1810658Y-5151358D02*
X1772562Y-5151358D01*
X1772562Y-5151358D02*
X1753515Y-5160882D01*
X1753515Y-5160882D02*
X1743991Y-5170406D01*
X1743991Y-5170406D02*
X1734467Y-5189453D01*
X1734467Y-5189453D02*
X1734467Y-5227549D01*
X1734467Y-5227549D02*
X1743991Y-5246596D01*
X1743991Y-5246596D02*
X1753515Y-5256120D01*
X1753515Y-5256120D02*
X1772562Y-5265644D01*
X1772562Y-5265644D02*
X1810658Y-5265644D01*
X1810658Y-5265644D02*
X1829705Y-5256120D01*
X1829705Y-5256120D02*
X1839229Y-5246596D01*
X1839229Y-5246596D02*
X1848753Y-5227549D01*
X1848753Y-5227549D02*
X1848753Y-5189453D01*
X1848753Y-5189453D02*
X1839229Y-5170406D01*
X1839229Y-5170406D02*
X1829705Y-5160882D01*
X1829705Y-5160882D02*
X1810658Y-5151358D01*
X1915420Y-5065644D02*
X2048753Y-5065644D01*
X2048753Y-5065644D02*
X1963039Y-5265644D01*
X2163039Y-5065644D02*
X2182086Y-5065644D01*
X2182086Y-5065644D02*
X2201134Y-5075168D01*
X2201134Y-5075168D02*
X2210658Y-5084691D01*
X2210658Y-5084691D02*
X2220182Y-5103739D01*
X2220182Y-5103739D02*
X2229705Y-5141834D01*
X2229705Y-5141834D02*
X2229705Y-5189453D01*
X2229705Y-5189453D02*
X2220182Y-5227549D01*
X2220182Y-5227549D02*
X2210658Y-5246596D01*
X2210658Y-5246596D02*
X2201134Y-5256120D01*
X2201134Y-5256120D02*
X2182086Y-5265644D01*
X2182086Y-5265644D02*
X2163039Y-5265644D01*
X2163039Y-5265644D02*
X2143991Y-5256120D01*
X2143991Y-5256120D02*
X2134467Y-5246596D01*
X2134467Y-5246596D02*
X2124944Y-5227549D01*
X2124944Y-5227549D02*
X2115420Y-5189453D01*
X2115420Y-5189453D02*
X2115420Y-5141834D01*
X2115420Y-5141834D02*
X2124944Y-5103739D01*
X2124944Y-5103739D02*
X2134467Y-5084691D01*
X2134467Y-5084691D02*
X2143991Y-5075168D01*
X2143991Y-5075168D02*
X2163039Y-5065644D01*
X2315420Y-5265644D02*
X2315420Y-5132310D01*
X2315420Y-5151358D02*
X2324944Y-5141834D01*
X2324944Y-5141834D02*
X2343991Y-5132310D01*
X2343991Y-5132310D02*
X2372563Y-5132310D01*
X2372563Y-5132310D02*
X2391610Y-5141834D01*
X2391610Y-5141834D02*
X2401134Y-5160882D01*
X2401134Y-5160882D02*
X2401134Y-5265644D01*
X2401134Y-5160882D02*
X2410658Y-5141834D01*
X2410658Y-5141834D02*
X2429705Y-5132310D01*
X2429705Y-5132310D02*
X2458277Y-5132310D01*
X2458277Y-5132310D02*
X2477325Y-5141834D01*
X2477325Y-5141834D02*
X2486848Y-5160882D01*
X2486848Y-5160882D02*
X2486848Y-5265644D01*
X2582086Y-5265644D02*
X2582086Y-5132310D01*
X2582086Y-5151358D02*
X2591610Y-5141834D01*
X2591610Y-5141834D02*
X2610658Y-5132310D01*
X2610658Y-5132310D02*
X2639229Y-5132310D01*
X2639229Y-5132310D02*
X2658277Y-5141834D01*
X2658277Y-5141834D02*
X2667801Y-5160882D01*
X2667801Y-5160882D02*
X2667801Y-5265644D01*
X2667801Y-5160882D02*
X2677325Y-5141834D01*
X2677325Y-5141834D02*
X2696372Y-5132310D01*
X2696372Y-5132310D02*
X2724944Y-5132310D01*
X2724944Y-5132310D02*
X2743991Y-5141834D01*
X2743991Y-5141834D02*
X2753515Y-5160882D01*
X2753515Y-5160882D02*
X2753515Y-5265644D01*
X3143991Y-5056120D02*
X2972563Y-5313263D01*
X3401134Y-5065644D02*
X3420182Y-5065644D01*
X3420182Y-5065644D02*
X3439229Y-5075168D01*
X3439229Y-5075168D02*
X3448753Y-5084691D01*
X3448753Y-5084691D02*
X3458277Y-5103739D01*
X3458277Y-5103739D02*
X3467801Y-5141834D01*
X3467801Y-5141834D02*
X3467801Y-5189453D01*
X3467801Y-5189453D02*
X3458277Y-5227549D01*
X3458277Y-5227549D02*
X3448753Y-5246596D01*
X3448753Y-5246596D02*
X3439229Y-5256120D01*
X3439229Y-5256120D02*
X3420182Y-5265644D01*
X3420182Y-5265644D02*
X3401134Y-5265644D01*
X3401134Y-5265644D02*
X3382086Y-5256120D01*
X3382086Y-5256120D02*
X3372563Y-5246596D01*
X3372563Y-5246596D02*
X3363039Y-5227549D01*
X3363039Y-5227549D02*
X3353515Y-5189453D01*
X3353515Y-5189453D02*
X3353515Y-5141834D01*
X3353515Y-5141834D02*
X3363039Y-5103739D01*
X3363039Y-5103739D02*
X3372563Y-5084691D01*
X3372563Y-5084691D02*
X3382086Y-5075168D01*
X3382086Y-5075168D02*
X3401134Y-5065644D01*
X3553515Y-5246596D02*
X3563039Y-5256120D01*
X3563039Y-5256120D02*
X3553515Y-5265644D01*
X3553515Y-5265644D02*
X3543991Y-5256120D01*
X3543991Y-5256120D02*
X3553515Y-5246596D01*
X3553515Y-5246596D02*
X3553515Y-5265644D01*
X3753515Y-5265644D02*
X3639229Y-5265644D01*
X3696372Y-5265644D02*
X3696372Y-5065644D01*
X3696372Y-5065644D02*
X3677325Y-5094215D01*
X3677325Y-5094215D02*
X3658277Y-5113263D01*
X3658277Y-5113263D02*
X3639229Y-5122787D01*
X3934467Y-5065644D02*
X3839229Y-5065644D01*
X3839229Y-5065644D02*
X3829706Y-5160882D01*
X3829706Y-5160882D02*
X3839229Y-5151358D01*
X3839229Y-5151358D02*
X3858277Y-5141834D01*
X3858277Y-5141834D02*
X3905896Y-5141834D01*
X3905896Y-5141834D02*
X3924944Y-5151358D01*
X3924944Y-5151358D02*
X3934467Y-5160882D01*
X3934467Y-5160882D02*
X3943991Y-5179930D01*
X3943991Y-5179930D02*
X3943991Y-5227549D01*
X3943991Y-5227549D02*
X3934467Y-5246596D01*
X3934467Y-5246596D02*
X3924944Y-5256120D01*
X3924944Y-5256120D02*
X3905896Y-5265644D01*
X3905896Y-5265644D02*
X3858277Y-5265644D01*
X3858277Y-5265644D02*
X3839229Y-5256120D01*
X3839229Y-5256120D02*
X3829706Y-5246596D01*
X4020182Y-5084691D02*
X4029706Y-5075168D01*
X4029706Y-5075168D02*
X4048753Y-5065644D01*
X4048753Y-5065644D02*
X4096372Y-5065644D01*
X4096372Y-5065644D02*
X4115420Y-5075168D01*
X4115420Y-5075168D02*
X4124944Y-5084691D01*
X4124944Y-5084691D02*
X4134467Y-5103739D01*
X4134467Y-5103739D02*
X4134467Y-5122787D01*
X4134467Y-5122787D02*
X4124944Y-5151358D01*
X4124944Y-5151358D02*
X4010658Y-5265644D01*
X4010658Y-5265644D02*
X4134467Y-5265644D01*
X4305896Y-5132310D02*
X4305896Y-5265644D01*
X4258277Y-5056120D02*
X4210658Y-5198977D01*
X4210658Y-5198977D02*
X4334468Y-5198977D01*
X4401134Y-5065644D02*
X4401134Y-5103739D01*
X4477325Y-5065644D02*
X4477325Y-5103739D01*
X4772563Y-5341834D02*
X4763039Y-5332310D01*
X4763039Y-5332310D02*
X4743991Y-5303739D01*
X4743991Y-5303739D02*
X4734468Y-5284691D01*
X4734468Y-5284691D02*
X4724944Y-5256120D01*
X4724944Y-5256120D02*
X4715420Y-5208501D01*
X4715420Y-5208501D02*
X4715420Y-5170406D01*
X4715420Y-5170406D02*
X4724944Y-5122787D01*
X4724944Y-5122787D02*
X4734468Y-5094215D01*
X4734468Y-5094215D02*
X4743991Y-5075168D01*
X4743991Y-5075168D02*
X4763039Y-5046596D01*
X4763039Y-5046596D02*
X4772563Y-5037072D01*
X4829706Y-5065644D02*
X4953515Y-5065644D01*
X4953515Y-5065644D02*
X4886849Y-5141834D01*
X4886849Y-5141834D02*
X4915420Y-5141834D01*
X4915420Y-5141834D02*
X4934468Y-5151358D01*
X4934468Y-5151358D02*
X4943991Y-5160882D01*
X4943991Y-5160882D02*
X4953515Y-5179930D01*
X4953515Y-5179930D02*
X4953515Y-5227549D01*
X4953515Y-5227549D02*
X4943991Y-5246596D01*
X4943991Y-5246596D02*
X4934468Y-5256120D01*
X4934468Y-5256120D02*
X4915420Y-5265644D01*
X4915420Y-5265644D02*
X4858277Y-5265644D01*
X4858277Y-5265644D02*
X4839230Y-5256120D01*
X4839230Y-5256120D02*
X4829706Y-5246596D01*
X5191611Y-5265644D02*
X5191611Y-5065644D01*
X5277325Y-5265644D02*
X5277325Y-5160882D01*
X5277325Y-5160882D02*
X5267801Y-5141834D01*
X5267801Y-5141834D02*
X5248753Y-5132310D01*
X5248753Y-5132310D02*
X5220182Y-5132310D01*
X5220182Y-5132310D02*
X5201134Y-5141834D01*
X5201134Y-5141834D02*
X5191611Y-5151358D01*
X5401134Y-5265644D02*
X5382087Y-5256120D01*
X5382087Y-5256120D02*
X5372563Y-5246596D01*
X5372563Y-5246596D02*
X5363039Y-5227549D01*
X5363039Y-5227549D02*
X5363039Y-5170406D01*
X5363039Y-5170406D02*
X5372563Y-5151358D01*
X5372563Y-5151358D02*
X5382087Y-5141834D01*
X5382087Y-5141834D02*
X5401134Y-5132310D01*
X5401134Y-5132310D02*
X5429706Y-5132310D01*
X5429706Y-5132310D02*
X5448753Y-5141834D01*
X5448753Y-5141834D02*
X5458277Y-5151358D01*
X5458277Y-5151358D02*
X5467801Y-5170406D01*
X5467801Y-5170406D02*
X5467801Y-5227549D01*
X5467801Y-5227549D02*
X5458277Y-5246596D01*
X5458277Y-5246596D02*
X5448753Y-5256120D01*
X5448753Y-5256120D02*
X5429706Y-5265644D01*
X5429706Y-5265644D02*
X5401134Y-5265644D01*
X5582087Y-5265644D02*
X5563039Y-5256120D01*
X5563039Y-5256120D02*
X5553515Y-5237072D01*
X5553515Y-5237072D02*
X5553515Y-5065644D01*
X5734468Y-5256120D02*
X5715420Y-5265644D01*
X5715420Y-5265644D02*
X5677325Y-5265644D01*
X5677325Y-5265644D02*
X5658277Y-5256120D01*
X5658277Y-5256120D02*
X5648753Y-5237072D01*
X5648753Y-5237072D02*
X5648753Y-5160882D01*
X5648753Y-5160882D02*
X5658277Y-5141834D01*
X5658277Y-5141834D02*
X5677325Y-5132310D01*
X5677325Y-5132310D02*
X5715420Y-5132310D01*
X5715420Y-5132310D02*
X5734468Y-5141834D01*
X5734468Y-5141834D02*
X5743991Y-5160882D01*
X5743991Y-5160882D02*
X5743991Y-5179930D01*
X5743991Y-5179930D02*
X5648753Y-5198977D01*
X5820182Y-5256120D02*
X5839230Y-5265644D01*
X5839230Y-5265644D02*
X5877325Y-5265644D01*
X5877325Y-5265644D02*
X5896372Y-5256120D01*
X5896372Y-5256120D02*
X5905896Y-5237072D01*
X5905896Y-5237072D02*
X5905896Y-5227549D01*
X5905896Y-5227549D02*
X5896372Y-5208501D01*
X5896372Y-5208501D02*
X5877325Y-5198977D01*
X5877325Y-5198977D02*
X5848753Y-5198977D01*
X5848753Y-5198977D02*
X5829706Y-5189453D01*
X5829706Y-5189453D02*
X5820182Y-5170406D01*
X5820182Y-5170406D02*
X5820182Y-5160882D01*
X5820182Y-5160882D02*
X5829706Y-5141834D01*
X5829706Y-5141834D02*
X5848753Y-5132310D01*
X5848753Y-5132310D02*
X5877325Y-5132310D01*
X5877325Y-5132310D02*
X5896372Y-5141834D01*
X5972563Y-5341834D02*
X5982087Y-5332310D01*
X5982087Y-5332310D02*
X6001134Y-5303739D01*
X6001134Y-5303739D02*
X6010658Y-5284691D01*
X6010658Y-5284691D02*
X6020182Y-5256120D01*
X6020182Y-5256120D02*
X6029706Y-5208501D01*
X6029706Y-5208501D02*
X6029706Y-5170406D01*
X6029706Y-5170406D02*
X6020182Y-5122787D01*
X6020182Y-5122787D02*
X6010658Y-5094215D01*
X6010658Y-5094215D02*
X6001134Y-5075168D01*
X6001134Y-5075168D02*
X5982087Y-5046596D01*
X5982087Y-5046596D02*
X5972563Y-5037072D01*
M02*
