M48
; DRILL file {KiCad 8.0.6} date 2024-11-24T15:25:39+0100
; FORMAT={-:-/ absolute / inch / decimal}
; #@! TF.CreationDate,2024-11-24T15:25:39+01:00
; #@! TF.GenerationSoftware,Kicad,Pcbnew,8.0.6
; #@! TF.FileFunction,Plated,1,2,PTH
FMAT,2
INCH
; #@! TA.AperFunction,Plated,PTH,ViaDrill
T1C0.0118
; #@! TA.AperFunction,Plated,PTH,ComponentDrill
T2C0.0394
; #@! TA.AperFunction,Plated,PTH,ComponentDrill
T3C0.1524
%
G90
G05
T1
X0.5039Y-0.6811
X0.5039Y-0.7165
X0.5039Y-1.0787
X0.5039Y-1.1122
X0.5098Y-0.75
X0.5098Y-1.1457
X0.5413Y-0.75
X0.5413Y-1.1457
X0.5708Y-0.75
X0.5714Y-1.146
X0.811Y-1.128
X0.8134Y-0.9535
X0.8307Y-0.5764
X0.8622Y-1.5362
X0.9094Y-1.1303
X0.9161Y-1.4819
X1.0079Y-1.4488
X1.0547Y-1.0331
X1.0892Y-1.36
X1.1691Y-1.4157
X1.1854Y-1.3028
X1.1921Y-1.4768
X1.2366Y-1.1063
X1.2626Y-0.903
X1.2894Y-0.6213
X1.3157Y-0.9591
X1.3516Y-1.3567
X1.352Y-1.5447
X1.3795Y-0.9303
X1.4409Y-1.2929
X1.5299Y-1.0177
X1.5504Y-1.3228
X1.565Y-1.402
X1.6642Y-0.9303
X1.6921Y-1.361
X1.7173Y-1.4382
X1.7339Y-0.9677
X1.7396Y-1.0526
X1.787Y-1.4394
X1.8283Y-0.972
X1.8618Y-0.6181
X1.9118Y-1.102
X1.9709Y-1.0677
X2.035Y-1.0059
X2.0608Y-1.0974
X2.0728Y-1.2992
X2.0803Y-1.4976
X2.2079Y-1.1425
T2
X0.5672Y-1.3687
X0.5672Y-1.4687
X0.5708Y-0.5793
X0.5708Y-0.6793
X0.5708Y-0.9746
X0.5708Y-1.0746
X0.6672Y-1.3687
X0.6672Y-1.4687
X0.6708Y-0.5793
X0.6708Y-0.6793
X0.6708Y-0.9746
X0.6708Y-1.0746
X0.7672Y-1.3687
X0.7672Y-1.4687
X2.1436Y-0.9746
X2.1436Y-1.0746
X2.1436Y-1.3689
X2.1436Y-1.4689
X2.2436Y-0.9746
X2.2436Y-1.0746
X2.2436Y-1.3689
X2.2436Y-1.4689
X2.3436Y-0.9746
X2.3436Y-1.0746
X2.3436Y-1.3689
X2.3436Y-1.4689
T3
X1.0446Y-0.6326
X1.5748Y-0.6326
X2.1051Y-0.6326
M30
