M48
; DRILL file {KiCad 8.0.6} date 2024-11-25T14:21:09+0100
; FORMAT={-:-/ absolute / inch / decimal}
; #@! TF.CreationDate,2024-11-25T14:21:09+01:00
; #@! TF.GenerationSoftware,Kicad,Pcbnew,8.0.6
; #@! TF.FileFunction,Plated,1,2,PTH
FMAT,2
INCH
; #@! TA.AperFunction,Plated,PTH,ViaDrill
T1C0.0118
; #@! TA.AperFunction,Plated,PTH,ComponentDrill
T2C0.0394
; #@! TA.AperFunction,Plated,PTH,ComponentDrill
T3C0.1524
%
G90
G05
T1
X0.5708Y-0.75
X0.5714Y-1.146
X0.811Y-1.128
X0.8138Y-0.9543
X0.8307Y-0.5764
X0.8622Y-1.5362
X0.9094Y-1.1303
X0.9094Y-1.4724
X1.0157Y-1.437
X1.0547Y-1.0331
X1.0892Y-1.3484
X1.1691Y-1.4157
X1.1854Y-1.3028
X1.2165Y-1.4685
X1.2366Y-1.1063
X1.2626Y-0.903
X1.2894Y-0.6213
X1.3209Y-0.9594
X1.3516Y-1.3567
X1.3795Y-0.9303
X1.4409Y-1.2929
X1.5299Y-1.0177
X1.5504Y-1.3228
X1.5575Y-1.4039
X1.6575Y-0.9291
X1.6921Y-1.361
X1.7173Y-1.4382
X1.7339Y-0.9677
X1.7396Y-1.0526
X1.7835Y-1.439
X1.8295Y-0.9709
X1.8618Y-0.6181
X1.9118Y-1.102
X1.9709Y-1.0677
X2.0394Y-1.0059
X2.0659Y-1.0903
X2.0728Y-1.2992
X2.0803Y-1.4976
X2.2079Y-1.1425
T2
X0.5672Y-1.3687
X0.5672Y-1.4687
X0.5708Y-0.5793
X0.5708Y-0.6793
X0.5708Y-0.9746
X0.5708Y-1.0746
X0.6672Y-1.3687
X0.6672Y-1.4687
X0.6708Y-0.5793
X0.6708Y-0.6793
X0.6708Y-0.9746
X0.6708Y-1.0746
X0.7672Y-1.3687
X0.7672Y-1.4687
X2.1436Y-0.9746
X2.1436Y-1.0746
X2.1436Y-1.3689
X2.1436Y-1.4689
X2.2436Y-0.9746
X2.2436Y-1.0746
X2.2436Y-1.3689
X2.2436Y-1.4689
X2.3436Y-0.9746
X2.3436Y-1.0746
X2.3436Y-1.3689
X2.3436Y-1.4689
T3
X1.0446Y-0.6326
X1.5748Y-0.6326
X2.1051Y-0.6326
M30
