%TF.GenerationSoftware,KiCad,Pcbnew,8.0.6*%
%TF.CreationDate,2024-11-25T14:21:06+01:00*%
%TF.ProjectId,EMG_amplifier,454d475f-616d-4706-9c69-666965722e6b,rev?*%
%TF.SameCoordinates,Original*%
%TF.FileFunction,Copper,L2,Bot*%
%TF.FilePolarity,Positive*%
%FSLAX46Y46*%
G04 Gerber Fmt 4.6, Leading zero omitted, Abs format (unit mm)*
G04 Created by KiCad (PCBNEW 8.0.6) date 2024-11-25 14:21:06*
%MOMM*%
%LPD*%
G01*
G04 APERTURE LIST*
%TA.AperFunction,ComponentPad*%
%ADD10R,1.700000X1.700000*%
%TD*%
%TA.AperFunction,ComponentPad*%
%ADD11O,1.700000X1.700000*%
%TD*%
%TA.AperFunction,ComponentPad*%
%ADD12C,4.750000*%
%TD*%
%TA.AperFunction,ViaPad*%
%ADD13C,0.600000*%
%TD*%
%TA.AperFunction,Conductor*%
%ADD14C,0.200000*%
%TD*%
G04 APERTURE END LIST*
D10*
%TO.P,J4,1,Pin_1*%
%TO.N,/Filtering_Board/+V_DD*%
X59528000Y-27294600D03*
D11*
%TO.P,J4,2,Pin_2*%
%TO.N,/Filtering_Board/V_F1*%
X59528000Y-24754600D03*
%TO.P,J4,3,Pin_3*%
%TO.N,/Filtering_Board/V_CM*%
X56988000Y-27294600D03*
%TO.P,J4,4,Pin_4*%
%TO.N,/Filtering_Board/V_F2*%
X56988000Y-24754600D03*
%TO.P,J4,5,Pin_5*%
%TO.N,GND*%
X54448000Y-27294600D03*
%TO.P,J4,6,Pin_6*%
%TO.N,unconnected-(J4-Pin_6-Pad6)*%
X54448000Y-24754600D03*
%TD*%
D10*
%TO.P,J7,1,Pin_1*%
%TO.N,unconnected-(J7-Pin_1-Pad1)*%
X19487400Y-34764800D03*
D11*
%TO.P,J7,2,Pin_2*%
%TO.N,/Processing_Board/V_EMG_OUT*%
X19487400Y-37304800D03*
%TO.P,J7,3,Pin_3*%
%TO.N,GND*%
X16947400Y-34764800D03*
%TO.P,J7,4,Pin_4*%
X16947400Y-37304800D03*
%TO.P,J7,5,Pin_5*%
%TO.N,+1V8*%
X14407400Y-34764800D03*
%TO.P,J7,6,Pin_6*%
X14407400Y-37304800D03*
%TD*%
D12*
%TO.P,E3,1,Pin_1*%
%TO.N,/Electrode_Board/V_E2*%
X26531600Y-16067200D03*
%TD*%
%TO.P,E2,1,Pin_1*%
%TO.N,/Electrode_Board/V_ER*%
X40000400Y-16067200D03*
%TD*%
%TO.P,E1,1,Pin_1*%
%TO.N,/Electrode_Board/V_E1*%
X53469200Y-16067200D03*
%TD*%
D10*
%TO.P,J1,1,Pin_1*%
%TO.N,GND*%
X14498800Y-17255000D03*
D11*
%TO.P,J1,2,Pin_2*%
%TO.N,/Electrode_Board/V_I1*%
X17038800Y-17255000D03*
%TO.P,J1,3,Pin_3*%
%TO.N,/Electrode_Board/V_PR*%
X14498800Y-14715000D03*
%TO.P,J1,4,Pin_4*%
%TO.N,/Electrode_Board/V_I2*%
X17038800Y-14715000D03*
%TD*%
D10*
%TO.P,J3,1,Pin_1*%
%TO.N,+1V8*%
X59528000Y-37309400D03*
D11*
%TO.P,J3,2,Pin_2*%
%TO.N,/Processing_Board/V_F1*%
X59528000Y-34769400D03*
%TO.P,J3,3,Pin_3*%
%TO.N,/Processing_Board/V_CM*%
X56988000Y-37309400D03*
%TO.P,J3,4,Pin_4*%
%TO.N,/Processing_Board/V_F2*%
X56988000Y-34769400D03*
%TO.P,J3,5,Pin_5*%
%TO.N,GND*%
X54448000Y-37309400D03*
%TO.P,J3,6,Pin_6*%
%TO.N,unconnected-(J3-Pin_6-Pad6)*%
X54448000Y-34769400D03*
%TD*%
D10*
%TO.P,J2,1,Pin_1*%
%TO.N,GND*%
X14498800Y-27294600D03*
D11*
%TO.P,J2,2,Pin_2*%
%TO.N,/Filtering_Board/V_I2*%
X17038800Y-27294600D03*
%TO.P,J2,3,Pin_3*%
%TO.N,/Filtering_Board/V_PR*%
X14498800Y-24754600D03*
%TO.P,J2,4,Pin_4*%
%TO.N,/Filtering_Board/V_I1*%
X17038800Y-24754600D03*
%TD*%
D13*
%TO.N,GND*%
X20670000Y-24240000D03*
%TO.N,/Processing_Board/LPF_400Hz/V_EMG_INA*%
X30900000Y-37300000D03*
%TO.N,GND*%
X32750000Y-15780000D03*
X21100000Y-14640000D03*
X33550000Y-24370000D03*
X27664550Y-34250000D03*
X14498800Y-19050000D03*
X46470000Y-24660000D03*
X38860000Y-25850000D03*
X52650000Y-33000000D03*
X52474500Y-27694500D03*
X45300000Y-36550000D03*
X51800000Y-25550000D03*
X42100000Y-23600000D03*
X25800000Y-36500000D03*
X43620000Y-36530000D03*
X20600000Y-28650000D03*
X52840000Y-38040000D03*
X30110000Y-33090000D03*
X48560000Y-27990000D03*
X47290000Y-15700000D03*
X14513600Y-29109000D03*
X39560000Y-35660000D03*
X34330000Y-34460000D03*
X29694550Y-35960000D03*
X23100000Y-28710000D03*
%TO.N,/Filtering_Board/V_PR*%
X32070000Y-22935000D03*
X35040000Y-23630000D03*
%TO.N,/Processing_Board/LPF_400Hz/V_EMG_INA*%
X42980000Y-34570000D03*
%TO.N,Net-(U3-IN+)*%
X39380000Y-33600000D03*
X36600000Y-32840600D03*
%TO.N,+1V8*%
X23100000Y-37400000D03*
X21900000Y-39020000D03*
%TO.N,Net-(U8--INA)*%
X26790000Y-26240000D03*
X31410000Y-28100000D03*
%TO.N,/Filtering_Board/V_CM*%
X56080000Y-29020000D03*
X50060000Y-27120000D03*
%TO.N,/Filtering_Board/+V_DD*%
X44185000Y-26735000D03*
X44040000Y-24580000D03*
%TD*%
D14*
%TO.N,+1V8*%
X23100000Y-37820000D02*
X21900000Y-39020000D01*
X23100000Y-37400000D02*
X23100000Y-37820000D01*
%TO.N,/Processing_Board/LPF_400Hz/V_EMG_INA*%
X34920000Y-37300000D02*
X37670000Y-34550000D01*
X30900000Y-37300000D02*
X34920000Y-37300000D01*
X37670000Y-34550000D02*
X42960000Y-34550000D01*
X42960000Y-34550000D02*
X42980000Y-34570000D01*
%TO.N,/Filtering_Board/V_PR*%
X34345000Y-22935000D02*
X32070000Y-22935000D01*
X35040000Y-23630000D02*
X34345000Y-22935000D01*
%TO.N,Net-(U3-IN+)*%
X37329400Y-32840600D02*
X36600000Y-32840600D01*
X38620000Y-32840000D02*
X37330000Y-32840000D01*
X39380000Y-33600000D02*
X38620000Y-32840000D01*
X37330000Y-32840000D02*
X37329400Y-32840600D01*
%TO.N,Net-(U8--INA)*%
X28630000Y-28100000D02*
X31410000Y-28100000D01*
X28630000Y-28100000D02*
X26790000Y-26260000D01*
X26790000Y-26260000D02*
X26790000Y-26240000D01*
%TO.N,/Filtering_Board/+V_DD*%
X44185000Y-26735000D02*
X44040000Y-26590000D01*
X44040000Y-26590000D02*
X44040000Y-24580000D01*
%TO.N,/Filtering_Board/V_CM*%
X51942000Y-29002000D02*
X56062000Y-29002000D01*
X50060000Y-27120000D02*
X51942000Y-29002000D01*
X56062000Y-29002000D02*
X56080000Y-29020000D01*
%TD*%
%TA.AperFunction,Conductor*%
%TO.N,GND*%
G36*
X61413939Y-12520185D02*
G01*
X61459694Y-12572989D01*
X61470900Y-12624500D01*
X61470900Y-19376500D01*
X61451215Y-19443539D01*
X61398411Y-19489294D01*
X61346900Y-19500500D01*
X12624500Y-19500500D01*
X12557461Y-19480815D01*
X12511706Y-19428011D01*
X12500500Y-19376500D01*
X12500500Y-14714999D01*
X13143141Y-14714999D01*
X13143141Y-14715000D01*
X13163736Y-14950403D01*
X13163738Y-14950413D01*
X13224894Y-15178655D01*
X13224896Y-15178659D01*
X13224897Y-15178663D01*
X13228800Y-15187032D01*
X13324765Y-15392830D01*
X13324767Y-15392834D01*
X13433081Y-15547521D01*
X13460301Y-15586396D01*
X13460306Y-15586402D01*
X13582618Y-15708714D01*
X13616103Y-15770037D01*
X13611119Y-15839729D01*
X13569247Y-15895662D01*
X13538271Y-15912577D01*
X13406712Y-15961646D01*
X13406706Y-15961649D01*
X13291612Y-16047809D01*
X13291609Y-16047812D01*
X13205449Y-16162906D01*
X13205445Y-16162913D01*
X13155203Y-16297620D01*
X13155201Y-16297627D01*
X13148800Y-16357155D01*
X13148800Y-17005000D01*
X14065788Y-17005000D01*
X14032875Y-17062007D01*
X13998800Y-17189174D01*
X13998800Y-17320826D01*
X14032875Y-17447993D01*
X14065788Y-17505000D01*
X13148800Y-17505000D01*
X13148800Y-18152844D01*
X13155201Y-18212372D01*
X13155203Y-18212379D01*
X13205445Y-18347086D01*
X13205449Y-18347093D01*
X13291609Y-18462187D01*
X13291612Y-18462190D01*
X13406706Y-18548350D01*
X13406713Y-18548354D01*
X13541420Y-18598596D01*
X13541427Y-18598598D01*
X13600955Y-18604999D01*
X13600972Y-18605000D01*
X14248800Y-18605000D01*
X14248800Y-17688012D01*
X14305807Y-17720925D01*
X14432974Y-17755000D01*
X14564626Y-17755000D01*
X14691793Y-17720925D01*
X14748800Y-17688012D01*
X14748800Y-18605000D01*
X15396628Y-18605000D01*
X15396644Y-18604999D01*
X15456172Y-18598598D01*
X15456179Y-18598596D01*
X15590886Y-18548354D01*
X15590893Y-18548350D01*
X15705987Y-18462190D01*
X15705990Y-18462187D01*
X15792150Y-18347093D01*
X15792154Y-18347086D01*
X15841222Y-18215529D01*
X15883093Y-18159595D01*
X15948557Y-18135178D01*
X16016830Y-18150030D01*
X16045085Y-18171181D01*
X16167399Y-18293495D01*
X16243935Y-18347086D01*
X16360965Y-18429032D01*
X16360967Y-18429033D01*
X16360970Y-18429035D01*
X16575137Y-18528903D01*
X16803392Y-18590063D01*
X16974119Y-18605000D01*
X17038799Y-18610659D01*
X17038800Y-18610659D01*
X17038801Y-18610659D01*
X17103481Y-18605000D01*
X17274208Y-18590063D01*
X17502463Y-18528903D01*
X17716630Y-18429035D01*
X17910201Y-18293495D01*
X18077295Y-18126401D01*
X18212835Y-17932830D01*
X18312703Y-17718663D01*
X18373863Y-17490408D01*
X18394459Y-17255000D01*
X18373863Y-17019592D01*
X18312703Y-16791337D01*
X18212835Y-16577171D01*
X18077295Y-16383599D01*
X18077294Y-16383597D01*
X17910202Y-16216506D01*
X17910196Y-16216501D01*
X17724642Y-16086575D01*
X17709152Y-16067196D01*
X23651227Y-16067196D01*
X23651227Y-16067203D01*
X23670703Y-16401591D01*
X23670704Y-16401602D01*
X23728864Y-16731442D01*
X23728867Y-16731456D01*
X23728868Y-16731460D01*
X23746117Y-16789075D01*
X23824934Y-17052345D01*
X23957601Y-17359900D01*
X23957607Y-17359913D01*
X24125086Y-17649996D01*
X24325102Y-17918664D01*
X24325107Y-17918670D01*
X24443820Y-18044498D01*
X24554968Y-18162307D01*
X24554974Y-18162312D01*
X24554976Y-18162314D01*
X24811558Y-18377612D01*
X24811566Y-18377618D01*
X25091409Y-18561674D01*
X25091413Y-18561676D01*
X25390743Y-18712005D01*
X25705500Y-18826567D01*
X25705506Y-18826568D01*
X25705508Y-18826569D01*
X26031412Y-18903811D01*
X26031419Y-18903812D01*
X26031428Y-18903814D01*
X26364121Y-18942700D01*
X26364128Y-18942700D01*
X26699072Y-18942700D01*
X26699079Y-18942700D01*
X27031772Y-18903814D01*
X27031781Y-18903811D01*
X27031787Y-18903811D01*
X27294676Y-18841504D01*
X27357700Y-18826567D01*
X27672457Y-18712005D01*
X27971787Y-18561676D01*
X28251639Y-18377614D01*
X28508232Y-18162307D01*
X28738094Y-17918668D01*
X28938117Y-17649991D01*
X29105595Y-17359909D01*
X29238265Y-17052346D01*
X29334332Y-16731460D01*
X29392497Y-16401591D01*
X29411772Y-16070659D01*
X29411973Y-16067203D01*
X29411973Y-16067196D01*
X37120027Y-16067196D01*
X37120027Y-16067203D01*
X37139503Y-16401591D01*
X37139504Y-16401602D01*
X37197664Y-16731442D01*
X37197667Y-16731456D01*
X37197668Y-16731460D01*
X37214917Y-16789075D01*
X37293734Y-17052345D01*
X37426401Y-17359900D01*
X37426407Y-17359913D01*
X37593886Y-17649996D01*
X37793902Y-17918664D01*
X37793907Y-17918670D01*
X37912620Y-18044498D01*
X38023768Y-18162307D01*
X38023774Y-18162312D01*
X38023776Y-18162314D01*
X38280358Y-18377612D01*
X38280366Y-18377618D01*
X38560209Y-18561674D01*
X38560213Y-18561676D01*
X38859543Y-18712005D01*
X39174300Y-18826567D01*
X39174306Y-18826568D01*
X39174308Y-18826569D01*
X39500212Y-18903811D01*
X39500219Y-18903812D01*
X39500228Y-18903814D01*
X39832921Y-18942700D01*
X39832928Y-18942700D01*
X40167872Y-18942700D01*
X40167879Y-18942700D01*
X40500572Y-18903814D01*
X40500581Y-18903811D01*
X40500587Y-18903811D01*
X40763476Y-18841504D01*
X40826500Y-18826567D01*
X41141257Y-18712005D01*
X41440587Y-18561676D01*
X41720439Y-18377614D01*
X41977032Y-18162307D01*
X42206894Y-17918668D01*
X42406917Y-17649991D01*
X42574395Y-17359909D01*
X42707065Y-17052346D01*
X42803132Y-16731460D01*
X42861297Y-16401591D01*
X42880572Y-16070659D01*
X42880773Y-16067203D01*
X42880773Y-16067196D01*
X50588827Y-16067196D01*
X50588827Y-16067203D01*
X50608303Y-16401591D01*
X50608304Y-16401602D01*
X50666464Y-16731442D01*
X50666467Y-16731456D01*
X50666468Y-16731460D01*
X50683717Y-16789075D01*
X50762534Y-17052345D01*
X50895201Y-17359900D01*
X50895207Y-17359913D01*
X51062686Y-17649996D01*
X51262702Y-17918664D01*
X51262707Y-17918670D01*
X51381420Y-18044498D01*
X51492568Y-18162307D01*
X51492574Y-18162312D01*
X51492576Y-18162314D01*
X51749158Y-18377612D01*
X51749166Y-18377618D01*
X52029009Y-18561674D01*
X52029013Y-18561676D01*
X52328343Y-18712005D01*
X52643100Y-18826567D01*
X52643106Y-18826568D01*
X52643108Y-18826569D01*
X52969012Y-18903811D01*
X52969019Y-18903812D01*
X52969028Y-18903814D01*
X53301721Y-18942700D01*
X53301728Y-18942700D01*
X53636672Y-18942700D01*
X53636679Y-18942700D01*
X53969372Y-18903814D01*
X53969381Y-18903811D01*
X53969387Y-18903811D01*
X54232276Y-18841504D01*
X54295300Y-18826567D01*
X54610057Y-18712005D01*
X54909387Y-18561676D01*
X55189239Y-18377614D01*
X55445832Y-18162307D01*
X55675694Y-17918668D01*
X55875717Y-17649991D01*
X56043195Y-17359909D01*
X56175865Y-17052346D01*
X56271932Y-16731460D01*
X56330097Y-16401591D01*
X56349372Y-16070659D01*
X56349573Y-16067203D01*
X56349573Y-16067196D01*
X56338869Y-15883425D01*
X56330097Y-15732809D01*
X56271932Y-15402940D01*
X56175865Y-15082054D01*
X56043195Y-14774491D01*
X55875717Y-14484409D01*
X55872131Y-14479592D01*
X55675697Y-14215735D01*
X55675692Y-14215729D01*
X55564546Y-14097923D01*
X55445832Y-13972093D01*
X55445825Y-13972087D01*
X55445823Y-13972085D01*
X55189241Y-13756787D01*
X55189233Y-13756781D01*
X54909390Y-13572725D01*
X54610064Y-13422398D01*
X54610058Y-13422395D01*
X54295312Y-13307837D01*
X54295291Y-13307830D01*
X53969387Y-13230588D01*
X53969372Y-13230586D01*
X53636679Y-13191700D01*
X53301721Y-13191700D01*
X53010614Y-13225725D01*
X52969027Y-13230586D01*
X52969012Y-13230588D01*
X52643108Y-13307830D01*
X52643087Y-13307837D01*
X52328341Y-13422395D01*
X52328335Y-13422398D01*
X52029009Y-13572725D01*
X51749166Y-13756781D01*
X51749158Y-13756787D01*
X51492576Y-13972085D01*
X51492566Y-13972095D01*
X51262707Y-14215729D01*
X51262702Y-14215735D01*
X51062686Y-14484403D01*
X50895207Y-14774486D01*
X50895201Y-14774499D01*
X50762534Y-15082054D01*
X50666467Y-15402943D01*
X50666464Y-15402957D01*
X50608304Y-15732797D01*
X50608303Y-15732808D01*
X50588827Y-16067196D01*
X42880773Y-16067196D01*
X42870069Y-15883425D01*
X42861297Y-15732809D01*
X42803132Y-15402940D01*
X42707065Y-15082054D01*
X42574395Y-14774491D01*
X42406917Y-14484409D01*
X42403331Y-14479592D01*
X42206897Y-14215735D01*
X42206892Y-14215729D01*
X42095746Y-14097923D01*
X41977032Y-13972093D01*
X41977025Y-13972087D01*
X41977023Y-13972085D01*
X41720441Y-13756787D01*
X41720433Y-13756781D01*
X41440590Y-13572725D01*
X41141264Y-13422398D01*
X41141258Y-13422395D01*
X40826512Y-13307837D01*
X40826491Y-13307830D01*
X40500587Y-13230588D01*
X40500572Y-13230586D01*
X40167879Y-13191700D01*
X39832921Y-13191700D01*
X39541814Y-13225725D01*
X39500227Y-13230586D01*
X39500212Y-13230588D01*
X39174308Y-13307830D01*
X39174287Y-13307837D01*
X38859541Y-13422395D01*
X38859535Y-13422398D01*
X38560209Y-13572725D01*
X38280366Y-13756781D01*
X38280358Y-13756787D01*
X38023776Y-13972085D01*
X38023766Y-13972095D01*
X37793907Y-14215729D01*
X37793902Y-14215735D01*
X37593886Y-14484403D01*
X37426407Y-14774486D01*
X37426401Y-14774499D01*
X37293734Y-15082054D01*
X37197667Y-15402943D01*
X37197664Y-15402957D01*
X37139504Y-15732797D01*
X37139503Y-15732808D01*
X37120027Y-16067196D01*
X29411973Y-16067196D01*
X29401269Y-15883425D01*
X29392497Y-15732809D01*
X29334332Y-15402940D01*
X29238265Y-15082054D01*
X29105595Y-14774491D01*
X28938117Y-14484409D01*
X28934531Y-14479592D01*
X28738097Y-14215735D01*
X28738092Y-14215729D01*
X28626946Y-14097923D01*
X28508232Y-13972093D01*
X28508225Y-13972087D01*
X28508223Y-13972085D01*
X28251641Y-13756787D01*
X28251633Y-13756781D01*
X27971790Y-13572725D01*
X27672464Y-13422398D01*
X27672458Y-13422395D01*
X27357712Y-13307837D01*
X27357691Y-13307830D01*
X27031787Y-13230588D01*
X27031772Y-13230586D01*
X26699079Y-13191700D01*
X26364121Y-13191700D01*
X26073014Y-13225725D01*
X26031427Y-13230586D01*
X26031412Y-13230588D01*
X25705508Y-13307830D01*
X25705487Y-13307837D01*
X25390741Y-13422395D01*
X25390735Y-13422398D01*
X25091409Y-13572725D01*
X24811566Y-13756781D01*
X24811558Y-13756787D01*
X24554976Y-13972085D01*
X24554966Y-13972095D01*
X24325107Y-14215729D01*
X24325102Y-14215735D01*
X24125086Y-14484403D01*
X23957607Y-14774486D01*
X23957601Y-14774499D01*
X23824934Y-15082054D01*
X23728867Y-15402943D01*
X23728864Y-15402957D01*
X23670704Y-15732797D01*
X23670703Y-15732808D01*
X23651227Y-16067196D01*
X17709152Y-16067196D01*
X17681017Y-16031998D01*
X17673823Y-15962500D01*
X17705346Y-15900145D01*
X17724642Y-15883425D01*
X17836300Y-15805241D01*
X17910201Y-15753495D01*
X18077295Y-15586401D01*
X18212835Y-15392830D01*
X18312703Y-15178663D01*
X18373863Y-14950408D01*
X18394459Y-14715000D01*
X18373863Y-14479592D01*
X18312703Y-14251337D01*
X18212835Y-14037171D01*
X18207225Y-14029158D01*
X18077294Y-13843597D01*
X17910202Y-13676506D01*
X17910195Y-13676501D01*
X17716634Y-13540967D01*
X17716630Y-13540965D01*
X17716628Y-13540964D01*
X17502463Y-13441097D01*
X17502459Y-13441096D01*
X17502455Y-13441094D01*
X17274213Y-13379938D01*
X17274203Y-13379936D01*
X17038801Y-13359341D01*
X17038799Y-13359341D01*
X16803396Y-13379936D01*
X16803386Y-13379938D01*
X16575144Y-13441094D01*
X16575135Y-13441098D01*
X16360971Y-13540964D01*
X16360969Y-13540965D01*
X16167397Y-13676505D01*
X16000305Y-13843597D01*
X15870375Y-14029158D01*
X15815798Y-14072783D01*
X15746300Y-14079977D01*
X15683945Y-14048454D01*
X15667225Y-14029158D01*
X15537294Y-13843597D01*
X15370202Y-13676506D01*
X15370195Y-13676501D01*
X15176634Y-13540967D01*
X15176630Y-13540965D01*
X15176628Y-13540964D01*
X14962463Y-13441097D01*
X14962459Y-13441096D01*
X14962455Y-13441094D01*
X14734213Y-13379938D01*
X14734203Y-13379936D01*
X14498801Y-13359341D01*
X14498799Y-13359341D01*
X14263396Y-13379936D01*
X14263386Y-13379938D01*
X14035144Y-13441094D01*
X14035135Y-13441098D01*
X13820971Y-13540964D01*
X13820969Y-13540965D01*
X13627397Y-13676505D01*
X13460305Y-13843597D01*
X13324765Y-14037169D01*
X13324764Y-14037171D01*
X13224898Y-14251335D01*
X13224894Y-14251344D01*
X13163738Y-14479586D01*
X13163736Y-14479596D01*
X13143141Y-14714999D01*
X12500500Y-14714999D01*
X12500500Y-12624500D01*
X12520185Y-12557461D01*
X12572989Y-12511706D01*
X12624500Y-12500500D01*
X61346900Y-12500500D01*
X61413939Y-12520185D01*
G37*
%TD.AperFunction*%
%TD*%
%TA.AperFunction,Conductor*%
%TO.N,GND*%
G36*
X17197400Y-36871788D02*
G01*
X17140393Y-36838875D01*
X17013226Y-36804800D01*
X16881574Y-36804800D01*
X16754407Y-36838875D01*
X16697400Y-36871788D01*
X16697400Y-35197812D01*
X16754407Y-35230725D01*
X16881574Y-35264800D01*
X17013226Y-35264800D01*
X17140393Y-35230725D01*
X17197400Y-35197812D01*
X17197400Y-36871788D01*
G37*
%TD.AperFunction*%
%TA.AperFunction,Conductor*%
G36*
X35756463Y-32560785D02*
G01*
X35802218Y-32613589D01*
X35812644Y-32678983D01*
X35794435Y-32840596D01*
X35794435Y-32840603D01*
X35814630Y-33019849D01*
X35814631Y-33019854D01*
X35874211Y-33190123D01*
X35912134Y-33250476D01*
X35970184Y-33342862D01*
X36097738Y-33470416D01*
X36137654Y-33495497D01*
X36235939Y-33557254D01*
X36250478Y-33566389D01*
X36399497Y-33618533D01*
X36420745Y-33625968D01*
X36420750Y-33625969D01*
X36599996Y-33646165D01*
X36600000Y-33646165D01*
X36600004Y-33646165D01*
X36779249Y-33625969D01*
X36779252Y-33625968D01*
X36779255Y-33625968D01*
X36949522Y-33566389D01*
X37102262Y-33470416D01*
X37102267Y-33470410D01*
X37105097Y-33468155D01*
X37107275Y-33467265D01*
X37108158Y-33466711D01*
X37108255Y-33466865D01*
X37169783Y-33441745D01*
X37182412Y-33441100D01*
X37242731Y-33441100D01*
X37242747Y-33441101D01*
X37250343Y-33441101D01*
X37411978Y-33441101D01*
X37421148Y-33440500D01*
X38319903Y-33440500D01*
X38386942Y-33460185D01*
X38407584Y-33476819D01*
X38549298Y-33618533D01*
X38582783Y-33679856D01*
X38584837Y-33692330D01*
X38594630Y-33779250D01*
X38594632Y-33779257D01*
X38596483Y-33784546D01*
X38600044Y-33854325D01*
X38565315Y-33914952D01*
X38503322Y-33947179D01*
X38479441Y-33949500D01*
X37590942Y-33949500D01*
X37438217Y-33990422D01*
X37438215Y-33990422D01*
X37438215Y-33990423D01*
X37435032Y-33992261D01*
X37301287Y-34069477D01*
X37301282Y-34069481D01*
X37243581Y-34127183D01*
X37189480Y-34181284D01*
X37189478Y-34181286D01*
X35934819Y-35435946D01*
X34707584Y-36663181D01*
X34646261Y-36696666D01*
X34619903Y-36699500D01*
X31482412Y-36699500D01*
X31415373Y-36679815D01*
X31405097Y-36672445D01*
X31402263Y-36670185D01*
X31402262Y-36670184D01*
X31321432Y-36619395D01*
X31249523Y-36574211D01*
X31079254Y-36514631D01*
X31079249Y-36514630D01*
X30900004Y-36494435D01*
X30899996Y-36494435D01*
X30720750Y-36514630D01*
X30720745Y-36514631D01*
X30550476Y-36574211D01*
X30397737Y-36670184D01*
X30270184Y-36797737D01*
X30174211Y-36950476D01*
X30114631Y-37120745D01*
X30114630Y-37120750D01*
X30094435Y-37299996D01*
X30094435Y-37300003D01*
X30114630Y-37479249D01*
X30114631Y-37479254D01*
X30174211Y-37649523D01*
X30270184Y-37802262D01*
X30397738Y-37929816D01*
X30550478Y-38025789D01*
X30720745Y-38085368D01*
X30720750Y-38085369D01*
X30899996Y-38105565D01*
X30900000Y-38105565D01*
X30900004Y-38105565D01*
X31079249Y-38085369D01*
X31079252Y-38085368D01*
X31079255Y-38085368D01*
X31249522Y-38025789D01*
X31402262Y-37929816D01*
X31402267Y-37929810D01*
X31405097Y-37927555D01*
X31407275Y-37926665D01*
X31408158Y-37926111D01*
X31408255Y-37926265D01*
X31469783Y-37901145D01*
X31482412Y-37900500D01*
X34833331Y-37900500D01*
X34833347Y-37900501D01*
X34840943Y-37900501D01*
X34999054Y-37900501D01*
X34999057Y-37900501D01*
X35151785Y-37859577D01*
X35201904Y-37830639D01*
X35288716Y-37780520D01*
X35400520Y-37668716D01*
X35400520Y-37668714D01*
X35410728Y-37658507D01*
X35410729Y-37658504D01*
X37882416Y-35186819D01*
X37943739Y-35153334D01*
X37970097Y-35150500D01*
X42377060Y-35150500D01*
X42444099Y-35170185D01*
X42464741Y-35186819D01*
X42477738Y-35199816D01*
X42630478Y-35295789D01*
X42800745Y-35355368D01*
X42800750Y-35355369D01*
X42979996Y-35375565D01*
X42980000Y-35375565D01*
X42980004Y-35375565D01*
X43159249Y-35355369D01*
X43159252Y-35355368D01*
X43159255Y-35355368D01*
X43329522Y-35295789D01*
X43482262Y-35199816D01*
X43609816Y-35072262D01*
X43705789Y-34919522D01*
X43758319Y-34769399D01*
X53092341Y-34769399D01*
X53092341Y-34769400D01*
X53112936Y-35004803D01*
X53112938Y-35004813D01*
X53174094Y-35233055D01*
X53174096Y-35233059D01*
X53174097Y-35233063D01*
X53240547Y-35375565D01*
X53273965Y-35447230D01*
X53273967Y-35447234D01*
X53382281Y-35601921D01*
X53409505Y-35640801D01*
X53576599Y-35807895D01*
X53743439Y-35924718D01*
X53762594Y-35938130D01*
X53806219Y-35992707D01*
X53813413Y-36062205D01*
X53781890Y-36124560D01*
X53762595Y-36141280D01*
X53576922Y-36271290D01*
X53576920Y-36271291D01*
X53409891Y-36438320D01*
X53409886Y-36438326D01*
X53274400Y-36631820D01*
X53274399Y-36631822D01*
X53174570Y-36845907D01*
X53174567Y-36845913D01*
X53117364Y-37059399D01*
X53117364Y-37059400D01*
X54014988Y-37059400D01*
X53982075Y-37116407D01*
X53948000Y-37243574D01*
X53948000Y-37375226D01*
X53982075Y-37502393D01*
X54014988Y-37559400D01*
X53117364Y-37559400D01*
X53174567Y-37772886D01*
X53174570Y-37772892D01*
X53274399Y-37986978D01*
X53409894Y-38180482D01*
X53576917Y-38347505D01*
X53770421Y-38483000D01*
X53984507Y-38582829D01*
X53984516Y-38582833D01*
X54198000Y-38640034D01*
X54198000Y-37742412D01*
X54255007Y-37775325D01*
X54382174Y-37809400D01*
X54513826Y-37809400D01*
X54640993Y-37775325D01*
X54698000Y-37742412D01*
X54698000Y-38640033D01*
X54911483Y-38582833D01*
X54911492Y-38582829D01*
X55125578Y-38483000D01*
X55319082Y-38347505D01*
X55486105Y-38180482D01*
X55616119Y-37994805D01*
X55670696Y-37951181D01*
X55740195Y-37943988D01*
X55802549Y-37975510D01*
X55819269Y-37994805D01*
X55949505Y-38180801D01*
X56116599Y-38347895D01*
X56213384Y-38415665D01*
X56310165Y-38483432D01*
X56310167Y-38483433D01*
X56310170Y-38483435D01*
X56524337Y-38583303D01*
X56752592Y-38644463D01*
X56929034Y-38659900D01*
X56987999Y-38665059D01*
X56988000Y-38665059D01*
X56988001Y-38665059D01*
X57046966Y-38659900D01*
X57223408Y-38644463D01*
X57451663Y-38583303D01*
X57665830Y-38483435D01*
X57859401Y-38347895D01*
X57981329Y-38225966D01*
X58042648Y-38192484D01*
X58112340Y-38197468D01*
X58168274Y-38239339D01*
X58185189Y-38270317D01*
X58234202Y-38401728D01*
X58234206Y-38401735D01*
X58320452Y-38516944D01*
X58320455Y-38516947D01*
X58435664Y-38603193D01*
X58435671Y-38603197D01*
X58570517Y-38653491D01*
X58570516Y-38653491D01*
X58577444Y-38654235D01*
X58630127Y-38659900D01*
X60425872Y-38659899D01*
X60485483Y-38653491D01*
X60620331Y-38603196D01*
X60735546Y-38516946D01*
X60821796Y-38401731D01*
X60872091Y-38266883D01*
X60878500Y-38207273D01*
X60878499Y-36411528D01*
X60872091Y-36351917D01*
X60870810Y-36348483D01*
X60821797Y-36217071D01*
X60821793Y-36217064D01*
X60735547Y-36101855D01*
X60735544Y-36101852D01*
X60620335Y-36015606D01*
X60620328Y-36015602D01*
X60488917Y-35966589D01*
X60432983Y-35924718D01*
X60408566Y-35859253D01*
X60423418Y-35790980D01*
X60444563Y-35762732D01*
X60566495Y-35640801D01*
X60702035Y-35447230D01*
X60801903Y-35233063D01*
X60863063Y-35004808D01*
X60883659Y-34769400D01*
X60883256Y-34764799D01*
X60866371Y-34571807D01*
X60863063Y-34533992D01*
X60801903Y-34305737D01*
X60702035Y-34091571D01*
X60696425Y-34083558D01*
X60566494Y-33897997D01*
X60399402Y-33730906D01*
X60399395Y-33730901D01*
X60393375Y-33726686D01*
X60278380Y-33646165D01*
X60205834Y-33595367D01*
X60205830Y-33595365D01*
X60143691Y-33566389D01*
X59991663Y-33495497D01*
X59991659Y-33495496D01*
X59991655Y-33495494D01*
X59763413Y-33434338D01*
X59763403Y-33434336D01*
X59528001Y-33413741D01*
X59527999Y-33413741D01*
X59292596Y-33434336D01*
X59292586Y-33434338D01*
X59064344Y-33495494D01*
X59064335Y-33495498D01*
X58850171Y-33595364D01*
X58850169Y-33595365D01*
X58656597Y-33730905D01*
X58489505Y-33897997D01*
X58359575Y-34083558D01*
X58304998Y-34127183D01*
X58235500Y-34134377D01*
X58173145Y-34102854D01*
X58156425Y-34083558D01*
X58026494Y-33897997D01*
X57859402Y-33730906D01*
X57859395Y-33730901D01*
X57853375Y-33726686D01*
X57738380Y-33646165D01*
X57665834Y-33595367D01*
X57665830Y-33595365D01*
X57603691Y-33566389D01*
X57451663Y-33495497D01*
X57451659Y-33495496D01*
X57451655Y-33495494D01*
X57223413Y-33434338D01*
X57223403Y-33434336D01*
X56988001Y-33413741D01*
X56987999Y-33413741D01*
X56752596Y-33434336D01*
X56752586Y-33434338D01*
X56524344Y-33495494D01*
X56524335Y-33495498D01*
X56310171Y-33595364D01*
X56310169Y-33595365D01*
X56116597Y-33730905D01*
X55949505Y-33897997D01*
X55819575Y-34083558D01*
X55764998Y-34127183D01*
X55695500Y-34134377D01*
X55633145Y-34102854D01*
X55616425Y-34083558D01*
X55486494Y-33897997D01*
X55319402Y-33730906D01*
X55319395Y-33730901D01*
X55313375Y-33726686D01*
X55198380Y-33646165D01*
X55125834Y-33595367D01*
X55125830Y-33595365D01*
X55063691Y-33566389D01*
X54911663Y-33495497D01*
X54911659Y-33495496D01*
X54911655Y-33495494D01*
X54683413Y-33434338D01*
X54683403Y-33434336D01*
X54448001Y-33413741D01*
X54447999Y-33413741D01*
X54212596Y-33434336D01*
X54212586Y-33434338D01*
X53984344Y-33495494D01*
X53984335Y-33495498D01*
X53770171Y-33595364D01*
X53770169Y-33595365D01*
X53576597Y-33730905D01*
X53409505Y-33897997D01*
X53273965Y-34091569D01*
X53273964Y-34091571D01*
X53174098Y-34305735D01*
X53174094Y-34305744D01*
X53112938Y-34533986D01*
X53112936Y-34533996D01*
X53092341Y-34769399D01*
X43758319Y-34769399D01*
X43765368Y-34749255D01*
X43765369Y-34749249D01*
X43785565Y-34570003D01*
X43785565Y-34569996D01*
X43765369Y-34390750D01*
X43765368Y-34390745D01*
X43733221Y-34298875D01*
X43705789Y-34220478D01*
X43609816Y-34067738D01*
X43482262Y-33940184D01*
X43329523Y-33844211D01*
X43159254Y-33784631D01*
X43159249Y-33784630D01*
X42980004Y-33764435D01*
X42979996Y-33764435D01*
X42800750Y-33784630D01*
X42800745Y-33784631D01*
X42630477Y-33844211D01*
X42578277Y-33877011D01*
X42494241Y-33929815D01*
X42493160Y-33930494D01*
X42427188Y-33949500D01*
X40280559Y-33949500D01*
X40213520Y-33929815D01*
X40167765Y-33877011D01*
X40157821Y-33807853D01*
X40163517Y-33784546D01*
X40165367Y-33779257D01*
X40165368Y-33779255D01*
X40171290Y-33726694D01*
X40185565Y-33600003D01*
X40185565Y-33599996D01*
X40165369Y-33420750D01*
X40165368Y-33420745D01*
X40161308Y-33409141D01*
X40105789Y-33250478D01*
X40009816Y-33097738D01*
X39882262Y-32970184D01*
X39729521Y-32874210D01*
X39559249Y-32814630D01*
X39472330Y-32804837D01*
X39407916Y-32777770D01*
X39398533Y-32769298D01*
X39382016Y-32752781D01*
X39348531Y-32691458D01*
X39353515Y-32621766D01*
X39395387Y-32565833D01*
X39460851Y-32541416D01*
X39469697Y-32541100D01*
X61346900Y-32541100D01*
X61413939Y-32560785D01*
X61459694Y-32613589D01*
X61470900Y-32665100D01*
X61470900Y-39412100D01*
X61451215Y-39479139D01*
X61398411Y-39524894D01*
X61346900Y-39536100D01*
X22742263Y-39536100D01*
X22675224Y-39516415D01*
X22629469Y-39463611D01*
X22619525Y-39394453D01*
X22625221Y-39371146D01*
X22637714Y-39335441D01*
X22685368Y-39199255D01*
X22695161Y-39112329D01*
X22722226Y-39047918D01*
X22730690Y-39038543D01*
X23468713Y-38300521D01*
X23468716Y-38300520D01*
X23580520Y-38188716D01*
X23630639Y-38101904D01*
X23659577Y-38051785D01*
X23679996Y-37975574D01*
X23712093Y-37919984D01*
X23729816Y-37902262D01*
X23825789Y-37749522D01*
X23885368Y-37579255D01*
X23887605Y-37559400D01*
X23905565Y-37400003D01*
X23905565Y-37399996D01*
X23885369Y-37220750D01*
X23885368Y-37220745D01*
X23850376Y-37120745D01*
X23825789Y-37050478D01*
X23729816Y-36897738D01*
X23602262Y-36770184D01*
X23449523Y-36674211D01*
X23279254Y-36614631D01*
X23279249Y-36614630D01*
X23100004Y-36594435D01*
X23099996Y-36594435D01*
X22920750Y-36614630D01*
X22920745Y-36614631D01*
X22750476Y-36674211D01*
X22597737Y-36770184D01*
X22470184Y-36897737D01*
X22374211Y-37050476D01*
X22314631Y-37220745D01*
X22314630Y-37220750D01*
X22294435Y-37399996D01*
X22294435Y-37400003D01*
X22314630Y-37579246D01*
X22314632Y-37579257D01*
X22334747Y-37636740D01*
X22338309Y-37706519D01*
X22305387Y-37765376D01*
X21881465Y-38189298D01*
X21820142Y-38222783D01*
X21807668Y-38224837D01*
X21720750Y-38234630D01*
X21550478Y-38294210D01*
X21397737Y-38390184D01*
X21270184Y-38517737D01*
X21174211Y-38670476D01*
X21114631Y-38840745D01*
X21114630Y-38840750D01*
X21094435Y-39019996D01*
X21094435Y-39020003D01*
X21114630Y-39199249D01*
X21114631Y-39199254D01*
X21174779Y-39371145D01*
X21178340Y-39440924D01*
X21143611Y-39501552D01*
X21081618Y-39533779D01*
X21057737Y-39536100D01*
X12624500Y-39536100D01*
X12557461Y-39516415D01*
X12511706Y-39463611D01*
X12500500Y-39412100D01*
X12500500Y-34764799D01*
X13051741Y-34764799D01*
X13051741Y-34764800D01*
X13072336Y-35000203D01*
X13072338Y-35000213D01*
X13133494Y-35228455D01*
X13133496Y-35228459D01*
X13133497Y-35228463D01*
X13215549Y-35404423D01*
X13233365Y-35442630D01*
X13233367Y-35442634D01*
X13341681Y-35597321D01*
X13368901Y-35636196D01*
X13368906Y-35636202D01*
X13535997Y-35803293D01*
X13536003Y-35803298D01*
X13721558Y-35933225D01*
X13765183Y-35987802D01*
X13772377Y-36057300D01*
X13740854Y-36119655D01*
X13721558Y-36136375D01*
X13535997Y-36266305D01*
X13368905Y-36433397D01*
X13233365Y-36626969D01*
X13233364Y-36626971D01*
X13133498Y-36841135D01*
X13133494Y-36841144D01*
X13072338Y-37069386D01*
X13072336Y-37069396D01*
X13051741Y-37304799D01*
X13051741Y-37304800D01*
X13072336Y-37540203D01*
X13072338Y-37540213D01*
X13133494Y-37768455D01*
X13133496Y-37768459D01*
X13133497Y-37768463D01*
X13215346Y-37943988D01*
X13233365Y-37982630D01*
X13233367Y-37982634D01*
X13316889Y-38101915D01*
X13368905Y-38176201D01*
X13535999Y-38343295D01*
X13619450Y-38401728D01*
X13729565Y-38478832D01*
X13729567Y-38478833D01*
X13729570Y-38478835D01*
X13943737Y-38578703D01*
X13943743Y-38578704D01*
X13943744Y-38578705D01*
X13960912Y-38583305D01*
X14171992Y-38639863D01*
X14360318Y-38656339D01*
X14407399Y-38660459D01*
X14407400Y-38660459D01*
X14407401Y-38660459D01*
X14446634Y-38657026D01*
X14642808Y-38639863D01*
X14871063Y-38578703D01*
X15085230Y-38478835D01*
X15278801Y-38343295D01*
X15445895Y-38176201D01*
X15576130Y-37990205D01*
X15630707Y-37946581D01*
X15700205Y-37939387D01*
X15762560Y-37970910D01*
X15779279Y-37990205D01*
X15909290Y-38175878D01*
X16076317Y-38342905D01*
X16269821Y-38478400D01*
X16483907Y-38578229D01*
X16483916Y-38578233D01*
X16697400Y-38635434D01*
X16697400Y-37737812D01*
X16754407Y-37770725D01*
X16881574Y-37804800D01*
X17013226Y-37804800D01*
X17140393Y-37770725D01*
X17197400Y-37737812D01*
X17197400Y-38635433D01*
X17410883Y-38578233D01*
X17410892Y-38578229D01*
X17624978Y-38478400D01*
X17818482Y-38342905D01*
X17985505Y-38175882D01*
X18115519Y-37990205D01*
X18170096Y-37946581D01*
X18239595Y-37939388D01*
X18301949Y-37970910D01*
X18318669Y-37990205D01*
X18448905Y-38176201D01*
X18615999Y-38343295D01*
X18699450Y-38401728D01*
X18809565Y-38478832D01*
X18809567Y-38478833D01*
X18809570Y-38478835D01*
X19023737Y-38578703D01*
X19023743Y-38578704D01*
X19023744Y-38578705D01*
X19040912Y-38583305D01*
X19251992Y-38639863D01*
X19440318Y-38656339D01*
X19487399Y-38660459D01*
X19487400Y-38660459D01*
X19487401Y-38660459D01*
X19526634Y-38657026D01*
X19722808Y-38639863D01*
X19951063Y-38578703D01*
X20165230Y-38478835D01*
X20358801Y-38343295D01*
X20525895Y-38176201D01*
X20661435Y-37982630D01*
X20761303Y-37768463D01*
X20822463Y-37540208D01*
X20843059Y-37304800D01*
X20822463Y-37069392D01*
X20762536Y-36845737D01*
X20761305Y-36841144D01*
X20761304Y-36841143D01*
X20761303Y-36841137D01*
X20661435Y-36626971D01*
X20659351Y-36623995D01*
X20525896Y-36433400D01*
X20485326Y-36392830D01*
X20403967Y-36311471D01*
X20370484Y-36250151D01*
X20375468Y-36180459D01*
X20417339Y-36124525D01*
X20448315Y-36107610D01*
X20579731Y-36058596D01*
X20694946Y-35972346D01*
X20781196Y-35857131D01*
X20831491Y-35722283D01*
X20837900Y-35662673D01*
X20837899Y-33866928D01*
X20831491Y-33807317D01*
X20830402Y-33804398D01*
X20781197Y-33672471D01*
X20781193Y-33672464D01*
X20694947Y-33557255D01*
X20694944Y-33557252D01*
X20579735Y-33471006D01*
X20579728Y-33471002D01*
X20444882Y-33420708D01*
X20444883Y-33420708D01*
X20385283Y-33414301D01*
X20385281Y-33414300D01*
X20385273Y-33414300D01*
X20385264Y-33414300D01*
X18589529Y-33414300D01*
X18589523Y-33414301D01*
X18529916Y-33420708D01*
X18395071Y-33471002D01*
X18395064Y-33471006D01*
X18279855Y-33557252D01*
X18279852Y-33557255D01*
X18193606Y-33672464D01*
X18193602Y-33672471D01*
X18144397Y-33804398D01*
X18102526Y-33860332D01*
X18037061Y-33884749D01*
X17968788Y-33869897D01*
X17940534Y-33848746D01*
X17818482Y-33726694D01*
X17624978Y-33591199D01*
X17410892Y-33491370D01*
X17410886Y-33491367D01*
X17197400Y-33434164D01*
X17197400Y-34331788D01*
X17140393Y-34298875D01*
X17013226Y-34264800D01*
X16881574Y-34264800D01*
X16754407Y-34298875D01*
X16697400Y-34331788D01*
X16697400Y-33434164D01*
X16697399Y-33434164D01*
X16483913Y-33491367D01*
X16483907Y-33491370D01*
X16269822Y-33591199D01*
X16269820Y-33591200D01*
X16076326Y-33726686D01*
X16076320Y-33726691D01*
X15909291Y-33893720D01*
X15909290Y-33893722D01*
X15779280Y-34079395D01*
X15724703Y-34123019D01*
X15655204Y-34130212D01*
X15592850Y-34098690D01*
X15576130Y-34079394D01*
X15445894Y-33893397D01*
X15278802Y-33726306D01*
X15278795Y-33726301D01*
X15085234Y-33590767D01*
X15085230Y-33590765D01*
X15085228Y-33590764D01*
X14871063Y-33490897D01*
X14871059Y-33490896D01*
X14871055Y-33490894D01*
X14642813Y-33429738D01*
X14642803Y-33429736D01*
X14407401Y-33409141D01*
X14407399Y-33409141D01*
X14171996Y-33429736D01*
X14171986Y-33429738D01*
X13943744Y-33490894D01*
X13943735Y-33490898D01*
X13729571Y-33590764D01*
X13729569Y-33590765D01*
X13535997Y-33726305D01*
X13368905Y-33893397D01*
X13233365Y-34086969D01*
X13233364Y-34086971D01*
X13133498Y-34301135D01*
X13133494Y-34301144D01*
X13072338Y-34529386D01*
X13072336Y-34529396D01*
X13051741Y-34764799D01*
X12500500Y-34764799D01*
X12500500Y-32665100D01*
X12520185Y-32598061D01*
X12572989Y-32552306D01*
X12624500Y-32541100D01*
X12679092Y-32541100D01*
X35689424Y-32541100D01*
X35756463Y-32560785D01*
G37*
%TD.AperFunction*%
%TD*%
%TA.AperFunction,Conductor*%
%TO.N,GND*%
G36*
X31263563Y-22527785D02*
G01*
X31309318Y-22580589D01*
X31319262Y-22649747D01*
X31313566Y-22673054D01*
X31284632Y-22755742D01*
X31284630Y-22755750D01*
X31264435Y-22934996D01*
X31264435Y-22935003D01*
X31284630Y-23114249D01*
X31284631Y-23114254D01*
X31344211Y-23284523D01*
X31416105Y-23398941D01*
X31440184Y-23437262D01*
X31567738Y-23564816D01*
X31592806Y-23580567D01*
X31700972Y-23648533D01*
X31720478Y-23660789D01*
X31878551Y-23716101D01*
X31890745Y-23720368D01*
X31890750Y-23720369D01*
X32069996Y-23740565D01*
X32070000Y-23740565D01*
X32070004Y-23740565D01*
X32249249Y-23720369D01*
X32249252Y-23720368D01*
X32249255Y-23720368D01*
X32419522Y-23660789D01*
X32572262Y-23564816D01*
X32572267Y-23564810D01*
X32575097Y-23562555D01*
X32577275Y-23561665D01*
X32578158Y-23561111D01*
X32578255Y-23561265D01*
X32639783Y-23536145D01*
X32652412Y-23535500D01*
X34044903Y-23535500D01*
X34111942Y-23555185D01*
X34132584Y-23571819D01*
X34209298Y-23648533D01*
X34242783Y-23709856D01*
X34244837Y-23722330D01*
X34254630Y-23809249D01*
X34314210Y-23979521D01*
X34370282Y-24068758D01*
X34410184Y-24132262D01*
X34537738Y-24259816D01*
X34690478Y-24355789D01*
X34818955Y-24400745D01*
X34860745Y-24415368D01*
X34860750Y-24415369D01*
X35039996Y-24435565D01*
X35040000Y-24435565D01*
X35040004Y-24435565D01*
X35219249Y-24415369D01*
X35219252Y-24415368D01*
X35219255Y-24415368D01*
X35389522Y-24355789D01*
X35542262Y-24259816D01*
X35669816Y-24132262D01*
X35765789Y-23979522D01*
X35825368Y-23809255D01*
X35827016Y-23794630D01*
X35845565Y-23630003D01*
X35845565Y-23629996D01*
X35825369Y-23450750D01*
X35825368Y-23450745D01*
X35765788Y-23280476D01*
X35669815Y-23127737D01*
X35542262Y-23000184D01*
X35389521Y-22904210D01*
X35219249Y-22844630D01*
X35132330Y-22834837D01*
X35067916Y-22807770D01*
X35058533Y-22799298D01*
X34979016Y-22719781D01*
X34945531Y-22658458D01*
X34950515Y-22588766D01*
X34992387Y-22532833D01*
X35057851Y-22508416D01*
X35066697Y-22508100D01*
X61346900Y-22508100D01*
X61413939Y-22527785D01*
X61459694Y-22580589D01*
X61470900Y-22632100D01*
X61470900Y-29409500D01*
X61451215Y-29476539D01*
X61398411Y-29522294D01*
X61346900Y-29533500D01*
X56923173Y-29533500D01*
X56856134Y-29513815D01*
X56810379Y-29461011D01*
X56800435Y-29391853D01*
X56806131Y-29368545D01*
X56865368Y-29199254D01*
X56865369Y-29199249D01*
X56885565Y-29020003D01*
X56885565Y-29019996D01*
X56865369Y-28840750D01*
X56865367Y-28840740D01*
X56856147Y-28814392D01*
X56852584Y-28744613D01*
X56887313Y-28683985D01*
X56949306Y-28651758D01*
X56984002Y-28649909D01*
X56988000Y-28650259D01*
X57223408Y-28629663D01*
X57451663Y-28568503D01*
X57665830Y-28468635D01*
X57859401Y-28333095D01*
X57981329Y-28211166D01*
X58042648Y-28177684D01*
X58112340Y-28182668D01*
X58168274Y-28224539D01*
X58185189Y-28255517D01*
X58234202Y-28386928D01*
X58234206Y-28386935D01*
X58320452Y-28502144D01*
X58320455Y-28502147D01*
X58435664Y-28588393D01*
X58435671Y-28588397D01*
X58570517Y-28638691D01*
X58570516Y-28638691D01*
X58577444Y-28639435D01*
X58630127Y-28645100D01*
X60425872Y-28645099D01*
X60485483Y-28638691D01*
X60620331Y-28588396D01*
X60735546Y-28502146D01*
X60821796Y-28386931D01*
X60872091Y-28252083D01*
X60878500Y-28192473D01*
X60878499Y-26396728D01*
X60872091Y-26337117D01*
X60871164Y-26334632D01*
X60821797Y-26202271D01*
X60821793Y-26202264D01*
X60735547Y-26087055D01*
X60735544Y-26087052D01*
X60620335Y-26000806D01*
X60620328Y-26000802D01*
X60488917Y-25951789D01*
X60432983Y-25909918D01*
X60408566Y-25844453D01*
X60423418Y-25776180D01*
X60444563Y-25747932D01*
X60566495Y-25626001D01*
X60702035Y-25432430D01*
X60801903Y-25218263D01*
X60863063Y-24990008D01*
X60883659Y-24754600D01*
X60863063Y-24519192D01*
X60801903Y-24290937D01*
X60702035Y-24076771D01*
X60696425Y-24068758D01*
X60566494Y-23883197D01*
X60399402Y-23716106D01*
X60399395Y-23716101D01*
X60390476Y-23709856D01*
X60320402Y-23660789D01*
X60205834Y-23580567D01*
X60205830Y-23580565D01*
X60172052Y-23564814D01*
X59991663Y-23480697D01*
X59991659Y-23480696D01*
X59991655Y-23480694D01*
X59763413Y-23419538D01*
X59763403Y-23419536D01*
X59528001Y-23398941D01*
X59527999Y-23398941D01*
X59292596Y-23419536D01*
X59292586Y-23419538D01*
X59064344Y-23480694D01*
X59064335Y-23480698D01*
X58850171Y-23580564D01*
X58850169Y-23580565D01*
X58656597Y-23716105D01*
X58489505Y-23883197D01*
X58359575Y-24068758D01*
X58304998Y-24112383D01*
X58235500Y-24119577D01*
X58173145Y-24088054D01*
X58156425Y-24068758D01*
X58026494Y-23883197D01*
X57859402Y-23716106D01*
X57859395Y-23716101D01*
X57850476Y-23709856D01*
X57780402Y-23660789D01*
X57665834Y-23580567D01*
X57665830Y-23580565D01*
X57632052Y-23564814D01*
X57451663Y-23480697D01*
X57451659Y-23480696D01*
X57451655Y-23480694D01*
X57223413Y-23419538D01*
X57223403Y-23419536D01*
X56988001Y-23398941D01*
X56987999Y-23398941D01*
X56752596Y-23419536D01*
X56752586Y-23419538D01*
X56524344Y-23480694D01*
X56524335Y-23480698D01*
X56310171Y-23580564D01*
X56310169Y-23580565D01*
X56116597Y-23716105D01*
X55949505Y-23883197D01*
X55819575Y-24068758D01*
X55764998Y-24112383D01*
X55695500Y-24119577D01*
X55633145Y-24088054D01*
X55616425Y-24068758D01*
X55486494Y-23883197D01*
X55319402Y-23716106D01*
X55319395Y-23716101D01*
X55310476Y-23709856D01*
X55240402Y-23660789D01*
X55125834Y-23580567D01*
X55125830Y-23580565D01*
X55092052Y-23564814D01*
X54911663Y-23480697D01*
X54911659Y-23480696D01*
X54911655Y-23480694D01*
X54683413Y-23419538D01*
X54683403Y-23419536D01*
X54448001Y-23398941D01*
X54447999Y-23398941D01*
X54212596Y-23419536D01*
X54212586Y-23419538D01*
X53984344Y-23480694D01*
X53984335Y-23480698D01*
X53770171Y-23580564D01*
X53770169Y-23580565D01*
X53576597Y-23716105D01*
X53409505Y-23883197D01*
X53273965Y-24076769D01*
X53273964Y-24076771D01*
X53174098Y-24290935D01*
X53174094Y-24290944D01*
X53112938Y-24519186D01*
X53112936Y-24519196D01*
X53092341Y-24754599D01*
X53092341Y-24754600D01*
X53112936Y-24990003D01*
X53112938Y-24990013D01*
X53174094Y-25218255D01*
X53174096Y-25218259D01*
X53174097Y-25218263D01*
X53178000Y-25226632D01*
X53273965Y-25432430D01*
X53273967Y-25432434D01*
X53382281Y-25587121D01*
X53409505Y-25626001D01*
X53576599Y-25793095D01*
X53743439Y-25909918D01*
X53762594Y-25923330D01*
X53806219Y-25977907D01*
X53813413Y-26047405D01*
X53781890Y-26109760D01*
X53762595Y-26126480D01*
X53576922Y-26256490D01*
X53576920Y-26256491D01*
X53409891Y-26423520D01*
X53409886Y-26423526D01*
X53274400Y-26617020D01*
X53274399Y-26617022D01*
X53174570Y-26831107D01*
X53174567Y-26831113D01*
X53117364Y-27044599D01*
X53117364Y-27044600D01*
X54014988Y-27044600D01*
X53982075Y-27101607D01*
X53948000Y-27228774D01*
X53948000Y-27360426D01*
X53982075Y-27487593D01*
X54014988Y-27544600D01*
X53117364Y-27544600D01*
X53174567Y-27758086D01*
X53174570Y-27758092D01*
X53274399Y-27972178D01*
X53409894Y-28165682D01*
X53434031Y-28189819D01*
X53467516Y-28251142D01*
X53462532Y-28320834D01*
X53420660Y-28376767D01*
X53355196Y-28401184D01*
X53346350Y-28401500D01*
X52242097Y-28401500D01*
X52175058Y-28381815D01*
X52154416Y-28365181D01*
X50890700Y-27101465D01*
X50857215Y-27040142D01*
X50855163Y-27027686D01*
X50845368Y-26940745D01*
X50785789Y-26770478D01*
X50689816Y-26617738D01*
X50562262Y-26490184D01*
X50409523Y-26394211D01*
X50239254Y-26334631D01*
X50239249Y-26334630D01*
X50060004Y-26314435D01*
X50059996Y-26314435D01*
X49880750Y-26334630D01*
X49880745Y-26334631D01*
X49710476Y-26394211D01*
X49557737Y-26490184D01*
X49430184Y-26617737D01*
X49334211Y-26770476D01*
X49274631Y-26940745D01*
X49274630Y-26940750D01*
X49254435Y-27119996D01*
X49254435Y-27120003D01*
X49274630Y-27299249D01*
X49274631Y-27299254D01*
X49334211Y-27469523D01*
X49417206Y-27601607D01*
X49430184Y-27622262D01*
X49557738Y-27749816D01*
X49710478Y-27845789D01*
X49880745Y-27905368D01*
X49967669Y-27915161D01*
X50032080Y-27942226D01*
X50041465Y-27950700D01*
X51412584Y-29321819D01*
X51446069Y-29383142D01*
X51441085Y-29452834D01*
X51399213Y-29508767D01*
X51333749Y-29533184D01*
X51324903Y-29533500D01*
X12624500Y-29533500D01*
X12557461Y-29513815D01*
X12511706Y-29461011D01*
X12500500Y-29409500D01*
X12500500Y-24754599D01*
X13143141Y-24754599D01*
X13143141Y-24754600D01*
X13163736Y-24990003D01*
X13163738Y-24990013D01*
X13224894Y-25218255D01*
X13224896Y-25218259D01*
X13224897Y-25218263D01*
X13228800Y-25226632D01*
X13324765Y-25432430D01*
X13324767Y-25432434D01*
X13433081Y-25587121D01*
X13460301Y-25625996D01*
X13460306Y-25626002D01*
X13582618Y-25748314D01*
X13616103Y-25809637D01*
X13611119Y-25879329D01*
X13569247Y-25935262D01*
X13538271Y-25952177D01*
X13406712Y-26001246D01*
X13406706Y-26001249D01*
X13291612Y-26087409D01*
X13291609Y-26087412D01*
X13205449Y-26202506D01*
X13205445Y-26202513D01*
X13155203Y-26337220D01*
X13155201Y-26337227D01*
X13148800Y-26396755D01*
X13148800Y-27044600D01*
X14065788Y-27044600D01*
X14032875Y-27101607D01*
X13998800Y-27228774D01*
X13998800Y-27360426D01*
X14032875Y-27487593D01*
X14065788Y-27544600D01*
X13148800Y-27544600D01*
X13148800Y-28192444D01*
X13155201Y-28251972D01*
X13155203Y-28251979D01*
X13205445Y-28386686D01*
X13205449Y-28386693D01*
X13291609Y-28501787D01*
X13291612Y-28501790D01*
X13406706Y-28587950D01*
X13406713Y-28587954D01*
X13541420Y-28638196D01*
X13541427Y-28638198D01*
X13600955Y-28644599D01*
X13600972Y-28644600D01*
X14248800Y-28644600D01*
X14248800Y-27727612D01*
X14305807Y-27760525D01*
X14432974Y-27794600D01*
X14564626Y-27794600D01*
X14691793Y-27760525D01*
X14748800Y-27727612D01*
X14748800Y-28644600D01*
X15396628Y-28644600D01*
X15396644Y-28644599D01*
X15456172Y-28638198D01*
X15456179Y-28638196D01*
X15590886Y-28587954D01*
X15590893Y-28587950D01*
X15705987Y-28501790D01*
X15705990Y-28501787D01*
X15792150Y-28386693D01*
X15792154Y-28386686D01*
X15841222Y-28255129D01*
X15883093Y-28199195D01*
X15948557Y-28174778D01*
X16016830Y-28189630D01*
X16045085Y-28210781D01*
X16167399Y-28333095D01*
X16264184Y-28400865D01*
X16360965Y-28468632D01*
X16360967Y-28468633D01*
X16360970Y-28468635D01*
X16575137Y-28568503D01*
X16803392Y-28629663D01*
X16979834Y-28645100D01*
X17038799Y-28650259D01*
X17038800Y-28650259D01*
X17038801Y-28650259D01*
X17097766Y-28645100D01*
X17274208Y-28629663D01*
X17502463Y-28568503D01*
X17716630Y-28468635D01*
X17910201Y-28333095D01*
X18077295Y-28166001D01*
X18212835Y-27972430D01*
X18312703Y-27758263D01*
X18373863Y-27530008D01*
X18394459Y-27294600D01*
X18373863Y-27059192D01*
X18327426Y-26885885D01*
X18312705Y-26830944D01*
X18312704Y-26830943D01*
X18312703Y-26830937D01*
X18212835Y-26616771D01*
X18207531Y-26609195D01*
X18077294Y-26423197D01*
X17910202Y-26256106D01*
X17910196Y-26256101D01*
X17887196Y-26239996D01*
X25984435Y-26239996D01*
X25984435Y-26240003D01*
X26004630Y-26419249D01*
X26004631Y-26419254D01*
X26064211Y-26589523D01*
X26081940Y-26617738D01*
X26160184Y-26742262D01*
X26287738Y-26869816D01*
X26327024Y-26894501D01*
X26400617Y-26940743D01*
X26440478Y-26965789D01*
X26610745Y-27025368D01*
X26610750Y-27025369D01*
X26675127Y-27032622D01*
X26739541Y-27059688D01*
X26748926Y-27068161D01*
X28145139Y-28464374D01*
X28145149Y-28464385D01*
X28149479Y-28468715D01*
X28149480Y-28468716D01*
X28261284Y-28580520D01*
X28346403Y-28629663D01*
X28346404Y-28629664D01*
X28398211Y-28659575D01*
X28398212Y-28659576D01*
X28398214Y-28659576D01*
X28398215Y-28659577D01*
X28550943Y-28700501D01*
X28550946Y-28700501D01*
X28716653Y-28700501D01*
X28716669Y-28700500D01*
X30827588Y-28700500D01*
X30894627Y-28720185D01*
X30904903Y-28727555D01*
X30907736Y-28729814D01*
X30907738Y-28729816D01*
X31060478Y-28825789D01*
X31230745Y-28885368D01*
X31230750Y-28885369D01*
X31409996Y-28905565D01*
X31410000Y-28905565D01*
X31410004Y-28905565D01*
X31589249Y-28885369D01*
X31589252Y-28885368D01*
X31589255Y-28885368D01*
X31759522Y-28825789D01*
X31912262Y-28729816D01*
X32039816Y-28602262D01*
X32135789Y-28449522D01*
X32195368Y-28279255D01*
X32198043Y-28255517D01*
X32215565Y-28100003D01*
X32215565Y-28099996D01*
X32195369Y-27920750D01*
X32195368Y-27920745D01*
X32151228Y-27794600D01*
X32135789Y-27750478D01*
X32135372Y-27749815D01*
X32039815Y-27597737D01*
X31912262Y-27470184D01*
X31759523Y-27374211D01*
X31589254Y-27314631D01*
X31589249Y-27314630D01*
X31410004Y-27294435D01*
X31409996Y-27294435D01*
X31230750Y-27314630D01*
X31230745Y-27314631D01*
X31060476Y-27374211D01*
X30907736Y-27470185D01*
X30904903Y-27472445D01*
X30902724Y-27473334D01*
X30901842Y-27473889D01*
X30901744Y-27473734D01*
X30840217Y-27498855D01*
X30827588Y-27499500D01*
X28930097Y-27499500D01*
X28863058Y-27479815D01*
X28842416Y-27463181D01*
X27623240Y-26244005D01*
X27589755Y-26182682D01*
X27587701Y-26170206D01*
X27575369Y-26060750D01*
X27575368Y-26060745D01*
X27556974Y-26008177D01*
X27515789Y-25890478D01*
X27419816Y-25737738D01*
X27292262Y-25610184D01*
X27139523Y-25514211D01*
X26969254Y-25454631D01*
X26969249Y-25454630D01*
X26790004Y-25434435D01*
X26789996Y-25434435D01*
X26610750Y-25454630D01*
X26610745Y-25454631D01*
X26440476Y-25514211D01*
X26287737Y-25610184D01*
X26160184Y-25737737D01*
X26064211Y-25890476D01*
X26004631Y-26060745D01*
X26004630Y-26060750D01*
X25984435Y-26239996D01*
X17887196Y-26239996D01*
X17724642Y-26126175D01*
X17681017Y-26071598D01*
X17673823Y-26002100D01*
X17705346Y-25939745D01*
X17724642Y-25923025D01*
X17836854Y-25844453D01*
X17910201Y-25793095D01*
X18077295Y-25626001D01*
X18212835Y-25432430D01*
X18312703Y-25218263D01*
X18373863Y-24990008D01*
X18394459Y-24754600D01*
X18379183Y-24579996D01*
X43234435Y-24579996D01*
X43234435Y-24580003D01*
X43254630Y-24759249D01*
X43254631Y-24759254D01*
X43314211Y-24929523D01*
X43410185Y-25082263D01*
X43412445Y-25085097D01*
X43413334Y-25087275D01*
X43413889Y-25088158D01*
X43413734Y-25088255D01*
X43438855Y-25149783D01*
X43439500Y-25162412D01*
X43439500Y-26420738D01*
X43432542Y-26461692D01*
X43399631Y-26555747D01*
X43379435Y-26734996D01*
X43379435Y-26735003D01*
X43399630Y-26914249D01*
X43399631Y-26914254D01*
X43459211Y-27084523D01*
X43549851Y-27228774D01*
X43555184Y-27237262D01*
X43682738Y-27364816D01*
X43835478Y-27460789D01*
X43946108Y-27499500D01*
X44005745Y-27520368D01*
X44005750Y-27520369D01*
X44184996Y-27540565D01*
X44185000Y-27540565D01*
X44185004Y-27540565D01*
X44364249Y-27520369D01*
X44364252Y-27520368D01*
X44364255Y-27520368D01*
X44534522Y-27460789D01*
X44687262Y-27364816D01*
X44814816Y-27237262D01*
X44910789Y-27084522D01*
X44970368Y-26914255D01*
X44979736Y-26831113D01*
X44990565Y-26735003D01*
X44990565Y-26734996D01*
X44970369Y-26555750D01*
X44970368Y-26555745D01*
X44930500Y-26441808D01*
X44910789Y-26385478D01*
X44897951Y-26365047D01*
X44829496Y-26256101D01*
X44814816Y-26232738D01*
X44687262Y-26105184D01*
X44687179Y-26105118D01*
X44687138Y-26105060D01*
X44682338Y-26100260D01*
X44683179Y-26099418D01*
X44647044Y-26047926D01*
X44640500Y-26008177D01*
X44640500Y-25162412D01*
X44660185Y-25095373D01*
X44667555Y-25085097D01*
X44669810Y-25082267D01*
X44669816Y-25082262D01*
X44765789Y-24929522D01*
X44825368Y-24759255D01*
X44825369Y-24759249D01*
X44845565Y-24580003D01*
X44845565Y-24579996D01*
X44825369Y-24400750D01*
X44825368Y-24400745D01*
X44786947Y-24290944D01*
X44765789Y-24230478D01*
X44669816Y-24077738D01*
X44542262Y-23950184D01*
X44389523Y-23854211D01*
X44219254Y-23794631D01*
X44219249Y-23794630D01*
X44040004Y-23774435D01*
X44039996Y-23774435D01*
X43860750Y-23794630D01*
X43860745Y-23794631D01*
X43690476Y-23854211D01*
X43537737Y-23950184D01*
X43410184Y-24077737D01*
X43314211Y-24230476D01*
X43254631Y-24400745D01*
X43254630Y-24400750D01*
X43234435Y-24579996D01*
X18379183Y-24579996D01*
X18373863Y-24519192D01*
X18312703Y-24290937D01*
X18212835Y-24076771D01*
X18207225Y-24068758D01*
X18077294Y-23883197D01*
X17910202Y-23716106D01*
X17910195Y-23716101D01*
X17901276Y-23709856D01*
X17831202Y-23660789D01*
X17716634Y-23580567D01*
X17716630Y-23580565D01*
X17682852Y-23564814D01*
X17502463Y-23480697D01*
X17502459Y-23480696D01*
X17502455Y-23480694D01*
X17274213Y-23419538D01*
X17274203Y-23419536D01*
X17038801Y-23398941D01*
X17038799Y-23398941D01*
X16803396Y-23419536D01*
X16803386Y-23419538D01*
X16575144Y-23480694D01*
X16575135Y-23480698D01*
X16360971Y-23580564D01*
X16360969Y-23580565D01*
X16167397Y-23716105D01*
X16000305Y-23883197D01*
X15870375Y-24068758D01*
X15815798Y-24112383D01*
X15746300Y-24119577D01*
X15683945Y-24088054D01*
X15667225Y-24068758D01*
X15537294Y-23883197D01*
X15370202Y-23716106D01*
X15370195Y-23716101D01*
X15361276Y-23709856D01*
X15291202Y-23660789D01*
X15176634Y-23580567D01*
X15176630Y-23580565D01*
X15142852Y-23564814D01*
X14962463Y-23480697D01*
X14962459Y-23480696D01*
X14962455Y-23480694D01*
X14734213Y-23419538D01*
X14734203Y-23419536D01*
X14498801Y-23398941D01*
X14498799Y-23398941D01*
X14263396Y-23419536D01*
X14263386Y-23419538D01*
X14035144Y-23480694D01*
X14035135Y-23480698D01*
X13820971Y-23580564D01*
X13820969Y-23580565D01*
X13627397Y-23716105D01*
X13460305Y-23883197D01*
X13324765Y-24076769D01*
X13324764Y-24076771D01*
X13224898Y-24290935D01*
X13224894Y-24290944D01*
X13163738Y-24519186D01*
X13163736Y-24519196D01*
X13143141Y-24754599D01*
X12500500Y-24754599D01*
X12500500Y-22632100D01*
X12520185Y-22565061D01*
X12572989Y-22519306D01*
X12624500Y-22508100D01*
X12630308Y-22508100D01*
X12762092Y-22508100D01*
X31196524Y-22508100D01*
X31263563Y-22527785D01*
G37*
%TD.AperFunction*%
%TD*%
M02*
