%TF.GenerationSoftware,KiCad,Pcbnew,8.0.6*%
%TF.CreationDate,2024-11-25T15:59:33+01:00*%
%TF.ProjectId,EMG_amplifier,454d475f-616d-4706-9c69-666965722e6b,rev?*%
%TF.SameCoordinates,Original*%
%TF.FileFunction,Paste,Top*%
%TF.FilePolarity,Positive*%
%FSLAX46Y46*%
G04 Gerber Fmt 4.6, Leading zero omitted, Abs format (unit mm)*
G04 Created by KiCad (PCBNEW 8.0.6) date 2024-11-25 15:59:33*
%MOMM*%
%LPD*%
G01*
G04 APERTURE LIST*
G04 Aperture macros list*
%AMRoundRect*
0 Rectangle with rounded corners*
0 $1 Rounding radius*
0 $2 $3 $4 $5 $6 $7 $8 $9 X,Y pos of 4 corners*
0 Add a 4 corners polygon primitive as box body*
4,1,4,$2,$3,$4,$5,$6,$7,$8,$9,$2,$3,0*
0 Add four circle primitives for the rounded corners*
1,1,$1+$1,$2,$3*
1,1,$1+$1,$4,$5*
1,1,$1+$1,$6,$7*
1,1,$1+$1,$8,$9*
0 Add four rect primitives between the rounded corners*
20,1,$1+$1,$2,$3,$4,$5,0*
20,1,$1+$1,$4,$5,$6,$7,0*
20,1,$1+$1,$6,$7,$8,$9,0*
20,1,$1+$1,$8,$9,$2,$3,0*%
G04 Aperture macros list end*
%ADD10RoundRect,0.135000X0.185000X-0.135000X0.185000X0.135000X-0.185000X0.135000X-0.185000X-0.135000X0*%
%ADD11RoundRect,0.135000X0.135000X0.185000X-0.135000X0.185000X-0.135000X-0.185000X0.135000X-0.185000X0*%
%ADD12RoundRect,0.225000X-0.225000X-0.250000X0.225000X-0.250000X0.225000X0.250000X-0.225000X0.250000X0*%
%ADD13RoundRect,0.140000X-0.170000X0.140000X-0.170000X-0.140000X0.170000X-0.140000X0.170000X0.140000X0*%
%ADD14RoundRect,0.135000X-0.135000X-0.185000X0.135000X-0.185000X0.135000X0.185000X-0.135000X0.185000X0*%
%ADD15R,0.204000X0.353200*%
%ADD16RoundRect,0.140000X0.170000X-0.140000X0.170000X0.140000X-0.170000X0.140000X-0.170000X-0.140000X0*%
%ADD17RoundRect,0.140000X0.140000X0.170000X-0.140000X0.170000X-0.140000X-0.170000X0.140000X-0.170000X0*%
%ADD18RoundRect,0.225000X0.225000X0.250000X-0.225000X0.250000X-0.225000X-0.250000X0.225000X-0.250000X0*%
%ADD19RoundRect,0.125000X0.687500X0.125000X-0.687500X0.125000X-0.687500X-0.125000X0.687500X-0.125000X0*%
%ADD20RoundRect,0.135000X-0.185000X0.135000X-0.185000X-0.135000X0.185000X-0.135000X0.185000X0.135000X0*%
%ADD21RoundRect,0.250000X0.250000X0.475000X-0.250000X0.475000X-0.250000X-0.475000X0.250000X-0.475000X0*%
%ADD22RoundRect,0.140000X-0.140000X-0.170000X0.140000X-0.170000X0.140000X0.170000X-0.140000X0.170000X0*%
%ADD23RoundRect,0.075000X-0.910000X-0.225000X0.910000X-0.225000X0.910000X0.225000X-0.910000X0.225000X0*%
%ADD24RoundRect,0.250000X-0.250000X-0.475000X0.250000X-0.475000X0.250000X0.475000X-0.250000X0.475000X0*%
%ADD25R,0.558800X0.711200*%
%ADD26R,0.508000X0.355600*%
%ADD27R,0.355600X0.508000*%
%ADD28RoundRect,0.150000X0.512500X0.150000X-0.512500X0.150000X-0.512500X-0.150000X0.512500X-0.150000X0*%
%ADD29RoundRect,0.150000X-0.512500X-0.150000X0.512500X-0.150000X0.512500X0.150000X-0.512500X0.150000X0*%
G04 APERTURE END LIST*
D10*
%TO.C,R23*%
X28544550Y-34370000D03*
X28544550Y-33350000D03*
%TD*%
D11*
%TO.C,R14*%
X48000000Y-36670000D03*
X46980000Y-36670000D03*
%TD*%
D12*
%TO.C,C2*%
X34085000Y-25690000D03*
X35635000Y-25690000D03*
%TD*%
D13*
%TO.C,C12*%
X21595000Y-23830000D03*
X21595000Y-24790000D03*
%TD*%
D14*
%TO.C,R10*%
X41530000Y-36140000D03*
X42550000Y-36140000D03*
%TD*%
D15*
%TO.C,U7*%
X21600000Y-26201398D03*
X21100001Y-26201398D03*
X20600002Y-26201398D03*
X20600002Y-27850000D03*
X21600000Y-27850000D03*
%TD*%
D16*
%TO.C,C24*%
X34250000Y-36300000D03*
X34250000Y-35340000D03*
%TD*%
D17*
%TO.C,C21*%
X44020000Y-23560000D03*
X43060000Y-23560000D03*
%TD*%
D11*
%TO.C,R34*%
X32120000Y-33070000D03*
X31100000Y-33070000D03*
%TD*%
D10*
%TO.C,R9*%
X37050000Y-26730000D03*
X37050000Y-25710000D03*
%TD*%
D11*
%TO.C,R3*%
X46149900Y-19020000D03*
X45129900Y-19020000D03*
%TD*%
%TO.C,R16*%
X41160000Y-23500000D03*
X40140000Y-23500000D03*
%TD*%
D13*
%TO.C,C22*%
X51800000Y-23720000D03*
X51800000Y-24680000D03*
%TD*%
D18*
%TO.C,C3*%
X42220000Y-33290000D03*
X40670000Y-33290000D03*
%TD*%
D11*
%TO.C,R11*%
X39100000Y-37670000D03*
X38080000Y-37670000D03*
%TD*%
D19*
%TO.C,U2*%
X51200000Y-35300000D03*
X51200000Y-34650000D03*
X51200000Y-34000000D03*
X51200000Y-33350000D03*
X46975000Y-33350000D03*
X46975000Y-34000000D03*
X46975000Y-34650000D03*
X46975000Y-35300000D03*
%TD*%
D20*
%TO.C,R15*%
X45500000Y-23690000D03*
X45500000Y-24710000D03*
%TD*%
D21*
%TO.C,C10*%
X26490000Y-38204850D03*
X24590000Y-38204850D03*
%TD*%
D10*
%TO.C,R4*%
X19650000Y-14800000D03*
X19650000Y-13780000D03*
%TD*%
%TO.C,R8*%
X37050000Y-29110000D03*
X37050000Y-28090000D03*
%TD*%
D14*
%TO.C,R31*%
X45270000Y-27030000D03*
X46290000Y-27030000D03*
%TD*%
D22*
%TO.C,C23*%
X24030000Y-36560000D03*
X24990000Y-36560000D03*
%TD*%
D10*
%TO.C,R6*%
X32620000Y-29120000D03*
X32620000Y-28100000D03*
%TD*%
D14*
%TO.C,R32*%
X47550000Y-27030000D03*
X48570000Y-27030000D03*
%TD*%
D17*
%TO.C,C20*%
X32580000Y-24570000D03*
X31620000Y-24570000D03*
%TD*%
D23*
%TO.C,U8*%
X24860000Y-24920000D03*
X24860000Y-26190000D03*
X24860000Y-27460000D03*
X24860000Y-28730000D03*
X29800000Y-28730000D03*
X29800000Y-27460000D03*
X29800000Y-26190000D03*
X29800000Y-24920000D03*
%TD*%
D16*
%TO.C,C9*%
X29694550Y-35070000D03*
X29694550Y-34110000D03*
%TD*%
D24*
%TO.C,C4*%
X41540000Y-37900000D03*
X43440000Y-37900000D03*
%TD*%
D13*
%TO.C,C25*%
X45300000Y-34650000D03*
X45300000Y-35610000D03*
%TD*%
D25*
%TO.C,L2*%
X19650000Y-16229300D03*
X19650000Y-17270700D03*
%TD*%
D10*
%TO.C,R5*%
X34040000Y-14100000D03*
X34040000Y-13080000D03*
%TD*%
D14*
%TO.C,R13*%
X50170000Y-36660000D03*
X51190000Y-36660000D03*
%TD*%
D10*
%TO.C,R33*%
X32950000Y-35710000D03*
X32950000Y-34690000D03*
%TD*%
D11*
%TO.C,R22*%
X29560000Y-37300000D03*
X28540000Y-37300000D03*
%TD*%
D10*
%TO.C,R7*%
X32640000Y-26670000D03*
X32640000Y-25650000D03*
%TD*%
D11*
%TO.C,R1*%
X47140000Y-13050000D03*
X46120000Y-13050000D03*
%TD*%
D20*
%TO.C,R12*%
X36930000Y-37550000D03*
X36930000Y-38570000D03*
%TD*%
D11*
%TO.C,R2*%
X22120000Y-18450000D03*
X21100000Y-18450000D03*
%TD*%
D12*
%TO.C,C1*%
X34015000Y-28840000D03*
X35565000Y-28840000D03*
%TD*%
D25*
%TO.C,L1*%
X46139900Y-16083650D03*
X46139900Y-17125050D03*
%TD*%
D26*
%TO.C,D1*%
X46120000Y-14430000D03*
X47720200Y-14430000D03*
%TD*%
D27*
%TO.C,D2*%
X21100000Y-17250000D03*
X21100000Y-15649800D03*
%TD*%
%TO.C,D3*%
X32770000Y-13070000D03*
X32770000Y-14670200D03*
%TD*%
D28*
%TO.C,U1*%
X26307650Y-35200000D03*
X26307650Y-34250000D03*
X26307650Y-33300000D03*
X24032650Y-33300000D03*
X24032650Y-35200000D03*
%TD*%
%TO.C,U3*%
X38072500Y-36280000D03*
X38072500Y-35330000D03*
X38072500Y-34380000D03*
X35797500Y-34380000D03*
X35797500Y-36280000D03*
%TD*%
D29*
%TO.C,U5*%
X47947500Y-23710000D03*
X47947500Y-24660000D03*
X47947500Y-25610000D03*
X50222500Y-25610000D03*
X50222500Y-23710000D03*
%TD*%
%TO.C,U6*%
X40267500Y-24900000D03*
X40267500Y-25850000D03*
X40267500Y-26800000D03*
X42542500Y-26800000D03*
X42542500Y-24900000D03*
%TD*%
M02*
